<?xml version="1.0" encoding="UTF-8"?>
<svg id="Layer_2" data-name="Layer 2" xmlns="http://www.w3.org/2000/svg" viewBox="0 0 244.87 74.44">
  <defs>
    <style>
      .cls-1 {
        fill: #050505;
      }
    </style>
  </defs>
  <g id="texture_on-top" data-name="texture on-top">
    <g>
      <path class="cls-1" d="m13.41,33.91c.16-.45.27-.87.32-1.26l.04-.32-.26-.19c-.17-.12-.18-.21-.15-.36.07-.29.19-.52.39-.72.17-.19.33-.29.48-.32.05,0,.09-.01.13-.01.1,0,.19.02.27.07.13.07.21.17.28.32.04.08.07.22,0,.43-.1.28-.24.61-.42.98-.17.37-.36.71-.56,1.01-.2.3-.4.56-.6.77-.04.04-.07.08-.1.1.05-.11.11-.29.19-.5Z"/>
      <g>
        <path class="cls-1" d="m10.35,37.26c-1.8,0-3.28-.53-4.4-1.57-1.01-.94-1.55-2.13-1.64-3.64-.04-.73.01-1.48.18-2.22.75-3.61,3.32-8.29,7.63-13.92,2.23-2.89,4.5-5.5,6.75-7.77l.04-.04.03-.05c.42-.81.63-.98.68-1.02.07-.05.16-.07.27-.08h0c.35,0,.63.19.91.58.09.12.12.21.14.27-.23.21-.59.56-1.03,1.01l-.04.04-.03.05c-1.49,2.97-3.28,7.76-5.31,14.23-1.7,5.39-2.76,8.72-3.16,9.9-.05,0-.12-.03-.23-.08-.1-.04-.16-.07-.21-.1-.32-.2-.51-.4-.54-.54,0-.01,0-.03,0-.04.57-1.63,1.49-4.4,2.75-8.24,1.68-5.08,2.9-8.67,3.64-10.68l-.65-.38c-4.43,5.22-7.58,9.88-9.37,13.86-.64,1.4-1.08,2.68-1.31,3.82-.18.9-.26,1.7-.22,2.36.12,2.03,1.1,3.25,2.91,3.62.37.08.76.12,1.16.12.13,0,.26,0,.39-.01,1.16-.07,2.45-.42,3.83-1.04,3.29-1.51,6.91-4.27,10.77-8.21,3.71-3.8,6.74-7.76,8.99-11.77,1.24-2.19,2.11-4.22,2.6-6.04.36-1.35.51-2.57.45-3.6-.21-3.4-2.53-5.23-6.91-5.43-.23,0-.47-.01-.7-.01-.45,0-.9.01-1.37.04-3.48.21-7.4,1.12-11.63,2.71-.85.33-1.62.65-2.31.96-4.26,1.97-7.59,4.14-9.88,6.46-1.52,1.57-2.38,3.04-2.54,4.38-.04.23-.05.46-.03.67.08,1.26.92,2.25,2.52,2.95.29.13.61.24.93.35.32.12.56.29.72.54-.02,0-.04-.01-.07-.02-2.22-.78-3.76-1.84-4.55-3.16-.29-.49-.46-1.02-.49-1.55-.02-.35-.01-.53,0-.62.22-1.85,1.81-3.92,4.73-6.16,2.11-1.62,4.64-3.11,7.53-4.45C16.75,1.68,21.04.45,25.02.08l.73-.04c.44-.03.86-.04,1.28-.04.74,0,1.46.04,2.13.13,3.8.47,6.36,2.09,7.63,4.82.28.63.45,1.33.49,2.08.06.97-.09,2.14-.44,3.47-.94,3.48-3.14,7.5-6.55,11.94-3.16,4.12-6.6,7.63-10.23,10.45-1.94,1.5-3.77,2.65-5.44,3.42-1.18.55-2.41.86-3.65.94-.21.01-.41.02-.61.02Z"/>
        <path class="cls-1" d="m38.61,26.95c-1.79-.13-2.8-.84-3.07-2.18-.04-.16-.06-.31-.07-.45-.08-1.31.41-2.76,1.47-4.33.96-1.42,1.99-2.36,3.07-2.79.22-.08.44-.13.64-.16,0,0,.15,0,.19,0,.55,0,1.04.23,1.47.71.29.33.44.66.46,1.01,0,.24-.05.47-.15.69-.12.24-.31.51-.58.79-.28.29-.6.57-.94.83-.35.26-.73.52-1.13.77-.4.25-.79.48-1.16.69-.37.21-.71.39-1.01.54-.29.15-.53.26-.7.33l-.31.14c-.6.34-.55,1.16-.53,1.43.06.72.33,1.15.79,1.29.28.07.56.1.85.1.08,0,.16,0,.24,0,2.04-.12,4.71-1.58,8.16-4.44.85-.71,1.62-1.4,2.28-2.05.17.02.4.2.63.49.15.19.19.31.2.36,0,.02,0,.03-.01.03-.3.33-1.07,1.01-2.25,1.98-3.26,2.66-5.96,4.07-8.01,4.21-.17.01-.31.02-.42.02-.05,0-.09,0-.13,0Zm2.69-9.19c-.97.36-1.97,1.23-3.08,2.67-.16.2-.31.4-.44.6l.51.54c2.13-1.26,3.28-2.36,3.51-3.36l.16-.7-.67.25Z"/>
        <path class="cls-1" d="m50.23,24c-.67-.04-1.22-.37-1.69-1-.14-.2-.26-.42-.34-.64-.06-.19-.1-.41-.12-.65-.07-1.15.57-2.32,1.89-3.5.8-.69,1.62-1.2,2.45-1.5.17-.06.37-.1.58-.11h.07c.5,0,.92.18,1.27.55.23.27.26.46.23.6-.08-.01-.22-.06-.47-.2-.07-.04-.13-.08-.18-.13l-.17-.15-.21.07c-1.24.43-2.35,1.19-3.3,2.27-.86.99-1.27,1.96-1.24,2.89.01.23.06.43.12.62l.11.29.31-.04c.66-.09,1.5-.59,2.57-1.53,1.01-.89,1.75-1.61,2.21-2.14.46-.53.87-1.01,1.23-1.45.07-.09.1-.09.13-.09h0c.31,0,.59.3.78.55.05.07.08.12.1.16v.12c-.06.7-.07,1.31-.04,1.81.03.5.12.95.26,1.34v.03s.03.03.03.03c.17.3.48.46.86.46,1.12-.07,3.38-1.32,6.92-3.84,0,0,.01,0,.02,0,.28,0,.55.24.73.45.09.11.14.2.17.26-.19.14-.45.34-.81.59-2.05,1.49-3.61,2.43-4.63,2.81-.49.19-.95.3-1.35.32h-.1c-.15,0-.33-.01-.54-.05-1.3-.25-2.09-1.02-2.39-2.35l-.16-.7-.49.52c-2.01,2.12-3.58,3.23-4.64,3.31h-.18Z"/>
        <path class="cls-1" d="m67.16,28.97c-.06,0-.11,0-.16-.02-.43-.13-.79-.38-1.1-.76-.3-.4-.5-1.74,1.62-6.2.12-.27.31-.67.57-1.19.35-.73.58-1.22.69-1.48l.35-.82-.83.31c-.91.34-1.72.5-2.42.5-.63,0-1.19-.14-1.65-.42-.88-.52-1.23-1.31-1.1-2.42.1-.89.44-1.57,1.05-2.07.18-.15.37-.26.55-.32.14-.05.27-.07.39-.07.35,0,.71.18,1.09.53.29.28.49.59.59.9.14.58.01,1.38-.39,2.36l-.31.75.78-.24c.14-.04.37-.14.7-.29.98-.42,1.26-.47,1.32-.47.55.01.95.28,1.23.83.03.07.14.68-1.37,3.92-1.13,2.46-1.81,4.01-2.01,4.61-.11.38-.18.67-.22.91l-.11.76.68-.36c1.06-.57,2.98-2.57,5.87-6.12,1.87-2.3,2.91-3.58,3.2-3.91,0,.01.13.04.4.29.28.26.34.4.35.45-.01.02-.02.03-.03.05-.18.2-.76.91-2.86,3.53-3.86,4.78-5.65,6.12-6.47,6.4-.12.03-.25.05-.36.05Zm-1.92-13.88c-.38.35-.69.85-.94,1.49-.16.37-.27.83-.34,1.36-.01.32.02.48.12.6l.35.46.29-.5c.68-1.19,1.07-2.23,1.17-3.09l.12-1.03-.76.71Z"/>
        <path class="cls-1" d="m78.5,22.68c-.23,0-.5-.16-.8-.47-.1-.11-.15-.18-.18-.24.98-1.05,1.5-2.21,1.51-3.44,0-.11-.02-.23-.05-.37-.01-.05-.03-.1-.03-.14.21.03.45.17.71.41.15.15.2.26.22.32.04.14.06.35.08.6.07,1.22-.36,2.27-1.32,3.22-.03.03-.06.06-.09.08h-.05Z"/>
        <path class="cls-1" d="m61.23,74.44c-.84-.14-.88-.52-.89-.66,0-.03,0-.1.01-.25.04-.27.15-.79.32-1.53.17-.75.38-1.65.63-2.68.25-1.04.53-2.19.84-3.45.31-1.26.64-2.55.98-3.88l2.76-10.68c.23-.88.41-1.59.55-2.11l.18-.74h.04c.23,0,.5.13.81.39.2.19.23.32.22.34l.07-.06c-.22.46-.62,2.02-1.95,7.21l-.25.96.77-.63c.07-.06.18-.13.32-.21l.05-.03.04-.04s.05-.06.23-.54c1.66-4.12,2.48-5.4,2.86-5.75.09-.07.2-.12.31-.13.04,0,.08,0,.13,0,.48,0,1.03.26,1.66.77.22.18.39.35.49.49.31.44.5.99.57,1.63.02.16.02.37.02.64v.43s1.72-.46,1.94-.52c.22-.06.43-.11.63-.16.2-.05.38-.09.53-.12.16-.03.3-.06.42-.09.1-.02.17-.04.22-.04h.04s.1-.04.1-.04c.02,0,.04-.01.06-.02h0c.25,0,.52.16.8.46.08.08.12.15.15.19-.53.08-1.84.41-3.99.98-.32.08-.63.16-.93.25l-.17.05-.05.17c-.4,1.49-1.08,2.74-2.03,3.71-.7.71-1.46,1.1-2.24,1.18-.11.01-.21.02-.32.02-.36,0-.71-.06-1.04-.19l-.3-.11-.11.3c-.93,2.5-2.03,5.52-3.25,8.97-1.06,2.95-1.74,4.71-2.04,5.21l-.05.09v.02c-.07.11-.12.15-.14.18Zm9.49-18.93c-.89.28-1.73.59-2.5.91l-.13.05-.05.13c-.08.22-.21.54-.39.98-.24.6-.42,1.05-.53,1.35l-.17.48.51-.05c1.06-.11,2.1-.91,3.08-2.41.23-.33.42-.66.58-.99l.32-.67-.71.23Zm.42-4.84c-.26.03-.55.05-2.3,3.99-.03.05-.07.12-.08.16l-.26.68.68-.26c.67-.26,1.47-.54,2.38-.84l.17-.06.04-.17c.19-.77.25-1.53.18-2.24-.08-.64-.28-1.04-.59-1.22l-.09-.05h-.13Z"/>
        <path class="cls-1" d="m78.98,59.35c-1.76-.06-2.77-.72-3.09-2.03-.04-.15-.07-.3-.09-.44-.13-1.27.3-2.71,1.27-4.27.88-1.42,1.85-2.38,2.89-2.83.21-.09.43-.15.62-.18h.07c.07-.01.13-.02.2-.02.52,0,.98.21,1.41.65.3.32.46.64.5.98.01.23-.03.47-.12.69-.11.24-.29.52-.54.8-.27.3-.56.58-.89.84-.34.27-.7.54-1.07.79-.38.26-.75.5-1.1.71-.35.21-.67.4-.96.56-.28.16-.5.27-.67.35l-.29.15c-.37.23-.5.67-.43,1.36.08.67.35,1.06.78,1.17.23.05.45.07.68.07.12,0,.24,0,.36-.02,1.96-.19,4.48-1.69,7.71-4.59.82-.73,1.54-1.43,2.16-2.1.17.02.41.18.67.48.19.23.22.36.23.4,0,0,0,0,0,0,0,0-.01.02-.02.04-.28.34-1,1.03-2.12,2.01-3.07,2.7-5.63,4.17-7.62,4.38-.23.02-.4.03-.51.03h-.03Zm2.28-8.99c-.92.38-1.85,1.26-2.86,2.68-.15.2-.29.4-.41.6l.45.44c2-1.29,3.06-2.38,3.25-3.36l.12-.59-.56.23Z"/>
        <path class="cls-1" d="m89.55,57.81c-.48,0-.88-.09-1.21-.26-.03-.03-.05-.06-.08-.08-.77-.45-1.15-1.03-1.23-1.79-.11-1.09.36-2.34,1.39-3.72.25-.34.51-.64.77-.9l.11-.11-.02-.15s-.02-.1-.04-.17v-.04c-.08-.79.27-1.32,1.09-1.7.36-.17.75-.28,1.17-.32.15-.01.3-.02.44-.02.77,0,1.41.19,1.88.57.6.48.94,1.14,1.02,2.01.05.52-.01,1.07-.19,1.65l-.18.58.58-.17c1.7-.51,3.18-1.36,4.37-2.55.23,0,.47.15.73.43.11.12.17.21.19.26-1.62,1.6-3.43,2.51-5.36,2.7-.25.02-.44.04-.57.04h-.2l-.11.18c-1.06,2.18-2.45,3.37-4.12,3.54-.15.02-.3.02-.45.02Zm.17-5.43c-.95,1.24-1.51,2.41-1.67,3.48-.02.2-.03.36-.03.5.02.41.04.54.07.61l.05.16.16.05c.2.06.4.09.6.09.06,0,.13,0,.19,0,1.01-.1,2.04-.85,3.06-2.23.19-.27.37-.53.53-.8l.21-.34-.38-.13c-.91-.32-1.69-.8-2.3-1.42l-.26-.26-.23.3Zm1.32-1.26s-.1.07-.19.13c-.18.1-.29.18-.37.25l-.17.15.09.21c.36.88,1.19,1.4,2.47,1.56l.24.03.1-.22c.51-1.18.72-2.2.64-3.06-.04-.37-.13-.66-.29-.88l-.02-.03-.03-.03c-.1-.08-.22-.12-.39-.12-.04,0-.08,0-.12,0-.72.07-1.38.31-1.98.71-.23.18-.39.34-.48.5l-.16.26.24.17c.25.18.37.3.43.37Z"/>
        <path class="cls-1" d="m95.5,70.53c-.84-.14-.88-.52-.89-.66,0-.03,0-.1.01-.25.04-.27.15-.79.32-1.53.17-.75.38-1.65.63-2.68.25-1.04.53-2.19.84-3.45.31-1.26.64-2.55.98-3.88l2.76-10.68c.23-.88.41-1.59.55-2.11l.18-.74s.03,0,.04,0c.23,0,.5.13.81.38.2.19.23.32.22.34l.07-.06c-.22.46-.62,2.02-1.95,7.21l-.25.96.77-.63c.07-.06.18-.13.32-.21l.05-.03.04-.04s.06-.07.24-.54c1.66-4.12,2.48-5.4,2.86-5.75.09-.07.2-.12.31-.13.04,0,.08,0,.12,0,.48,0,1.03.26,1.66.77.22.18.39.35.49.49.31.44.5.99.57,1.63.02.16.02.37.02.64v.43s1.72-.46,1.94-.52c.22-.06.43-.11.63-.16.2-.05.38-.09.53-.12.16-.03.3-.06.42-.09.1-.02.17-.04.22-.04h.04s.1-.04.1-.04c.02,0,.04-.01.06-.02h0c.25,0,.52.16.8.46.08.08.12.15.15.19-.53.08-1.84.41-3.99.98-.32.08-.63.16-.93.25l-.17.05-.05.17c-.4,1.49-1.08,2.74-2.03,3.71-.7.71-1.46,1.1-2.24,1.18-.11.01-.21.02-.32.02-.36,0-.71-.06-1.04-.19l-.3-.11-.11.3c-.93,2.49-2.03,5.51-3.26,8.97-1.06,2.95-1.74,4.71-2.04,5.21l-.05.09v.02c-.07.11-.12.15-.14.18Zm9.49-18.93c-.89.28-1.73.59-2.5.91l-.13.05-.05.13c-.08.22-.21.54-.39.98-.24.6-.42,1.05-.53,1.35l-.17.48.51-.05c1.06-.11,2.1-.91,3.08-2.41.23-.33.42-.66.58-1l.32-.67-.71.23Zm.42-4.84c-.27.03-.55.05-2.3,3.99-.03.05-.07.12-.08.16l-.26.68.68-.26c.67-.26,1.47-.54,2.38-.84l.17-.06.04-.17c.19-.77.25-1.53.18-2.24-.08-.64-.28-1.03-.59-1.22l-.09-.05h-.13Z"/>
        <path class="cls-1" d="m111.15,61.13c-.61,0-1.45-.2-1.64-1.96-.27-2.7,1.51-10.4,5.27-22.86.11-.41.25-.87.42-1.41.71-2.32,1.13-3.75,1.25-4.25,0,0,.02,0,.02,0,.23,0,.5.13.8.38.18.17.23.29.24.34,0,.09-.04.6-.76,2.77-.21.62-.38,1.13-.5,1.51-2.84,9.44-4.62,16.14-5.31,19.9-.35,1.94-.48,3.35-.4,4.31l.05.62.48-.39c.99-.81,2.47-2.63,4.51-5.55,2.07-2.95,3.41-4.81,3.98-5.53.22-.28.42-.52.61-.74.01,0,.02-.01.03-.01h0c.23,0,.46.16.72.45.19.2.22.3.22.33,0,0,0,.01,0,.02-.68.62-2.09,2.42-4.3,5.48-2.26,3.16-3.78,5.14-4.51,5.88-.58.6-.81.68-.87.69h-.14c-.06.02-.12.02-.18.02Z"/>
        <path class="cls-1" d="m122.39,54.37c-1.76-.06-2.77-.72-3.09-2.03-.04-.15-.07-.3-.09-.44-.13-1.27.3-2.71,1.27-4.27.88-1.42,1.85-2.38,2.89-2.83.21-.09.42-.15.62-.18h.07c.07-.01.13-.02.2-.02.52,0,.98.21,1.41.65.3.32.46.64.5.98.01.23-.03.47-.12.69-.11.24-.29.52-.54.8-.27.3-.56.58-.89.84-.33.27-.69.53-1.07.79-.38.26-.75.5-1.1.71-.35.21-.67.4-.96.56-.28.16-.5.27-.67.35l-.29.15c-.37.23-.5.67-.43,1.36.09.67.35,1.06.78,1.17.22.05.45.07.68.07.12,0,.24,0,.36-.02,1.96-.19,4.48-1.69,7.71-4.59.82-.73,1.54-1.44,2.16-2.1.17.02.41.18.67.48.19.23.22.36.23.4h0s-.01.02-.02.03c-.28.34-1,1.03-2.12,2.01-3.07,2.7-5.63,4.17-7.62,4.38-.23.02-.4.03-.51.03h-.03Zm2.28-8.99c-.92.38-1.85,1.26-2.86,2.68-.15.19-.28.4-.41.6l.45.44c2-1.29,3.06-2.38,3.25-3.36l.12-.59-.56.23Z"/>
        <path class="cls-1" d="m155.19,50.95c-.35,0-.72-.11-1.08-.34-.73-.49-1.15-1.32-1.27-2.54-.04-.36-.04-.78-.02-1.25l.06-1.13-.65.93c-1.6,2.29-2.87,3.65-3.77,4.03-.06.03-.16.05-.28.06-.04,0-.08,0-.13,0-.08,0-.17,0-.26-.02-.15-.02-.28-.06-.4-.11-.12-.05-.23-.1-.32-.15-.05-.03-.09-.05-.13-.07l-.16-.12c-.54-.43-.83-1.01-.91-1.79-.16-1.62.56-3.86,2.14-6.67.23.03.51.17.82.45.15.15.21.24.23.29-1.1,2-1.81,3.8-2.13,5.36-.12.58-.16,1.08-.12,1.48.02.2.04.34.07.44l.11.36.34-.16c.7-.33,1.59-1.19,2.72-2.63,1.09-1.37,2.25-3.15,3.45-5.29.06-.09.11-.1.13-.1h0c.27,0,.52.17.79.49.14.2.16.29.16.3-.6,2.8-.83,4.97-.73,6.5.03.3.08.56.15.8l.09.29.29-.07c1.25-.29,2.44-1.5,3.62-3.72.94-1.75,1.51-3.38,1.71-4.82,0-.07.01-.12.02-.15v-.05s0-.05,0-.05c0-.08,0-.14.01-.21,0-.06,0-.12.01-.18,0-.09.01-.18.01-.27,0-.07,0-.14,0-.2,0-.09.01-.17.01-.26,0-.06,0-.11.01-.16,0-.03,0-.05.01-.07,0,0,.07,0,.1,0,.27,0,.5.12.71.35.12.16.2.35.22.55.01.15.01.43,0,.86,0,.69,0,1.24.05,1.64.13,1.12.43,1.76.93,1.97.26.07.5.11.75.11.11,0,.22,0,.34-.02,1.31-.13,2.99-.86,5.15-2.24,0,0,.06,0,.06,0,.28,0,.56.15.87.43.1.11.15.19.17.25-2.02,1.3-3.75,2.04-5.11,2.18-.18.02-.35.03-.52.03-.42,0-.79-.06-1.11-.17-.69-.24-1.26-.61-1.69-1.12l-.37-.43-.19.53c-.49,1.41-1.22,2.73-2.16,3.93-.97,1.21-1.88,1.86-2.72,1.95-.03,0-.07,0-.1,0Z"/>
        <path class="cls-1" d="m170.47,49.41c-1.76-.06-2.77-.72-3.09-2.03-.04-.15-.07-.3-.09-.44-.13-1.27.3-2.71,1.27-4.27.88-1.42,1.85-2.38,2.89-2.83.21-.09.42-.15.62-.18h.07c.07-.01.13-.02.2-.02.52,0,.98.21,1.41.65.3.31.46.64.5.98.01.23-.03.47-.12.69-.11.24-.29.52-.54.8-.27.3-.56.58-.89.84-.33.27-.69.53-1.07.79-.38.26-.75.5-1.1.71-.35.21-.67.4-.96.56-.29.16-.51.28-.67.35l-.29.15c-.37.23-.5.67-.43,1.36.08.67.35,1.06.78,1.17.23.05.45.07.68.07.12,0,.24,0,.36-.02,1.96-.19,4.48-1.69,7.71-4.59.82-.73,1.54-1.44,2.16-2.1.17.02.41.18.67.48.19.23.22.36.23.4h0s-.02.02-.02.03c-.28.34-1,1.03-2.12,2.01-3.07,2.7-5.63,4.17-7.62,4.38-.23.02-.4.03-.51.03h-.03Zm2.28-8.99c-.92.38-1.85,1.26-2.86,2.68-.15.19-.28.4-.41.6l.45.44c2-1.29,3.06-2.38,3.25-3.36l.12-.59-.56.23Z"/>
        <path class="cls-1" d="m195.27,52.5c-.61,0-1.45-.2-1.64-1.96-.27-2.71,1.51-10.4,5.27-22.86.11-.41.25-.87.42-1.41.72-2.36,1.13-3.75,1.25-4.25,0,0,.02,0,.02,0,.23,0,.5.13.8.38.18.17.23.29.24.34,0,.09-.04.61-.76,2.77-.21.62-.38,1.13-.5,1.51-2.84,9.44-4.62,16.13-5.31,19.9-.35,1.94-.47,3.35-.4,4.31l.05.62.48-.39c.99-.81,2.47-2.63,4.51-5.55,2.07-2.95,3.41-4.82,3.98-5.53.22-.28.42-.52.61-.74.01,0,.02-.01.03-.01h0c.23,0,.46.16.72.45.19.2.22.3.22.33,0,0,0,.01,0,.02-.68.62-2.09,2.42-4.3,5.48-2.26,3.16-3.78,5.14-4.51,5.88-.58.6-.81.68-.87.69h-.14c-.06.02-.12.02-.18.02Z"/>
        <path class="cls-1" d="m205.32,45.52c-.48,0-.88-.09-1.21-.26-.03-.03-.06-.06-.08-.08-.76-.45-1.15-1.03-1.23-1.79-.11-1.08.36-2.34,1.39-3.72.25-.34.51-.64.77-.9l.11-.11v-.15s-.03-.1-.05-.17v-.07c-.08-.76.27-1.29,1.09-1.67.36-.17.75-.28,1.17-.32.15-.01.3-.02.44-.02.77,0,1.41.19,1.88.57.6.48.94,1.14,1.02,2.01.05.52-.01,1.07-.19,1.65l-.18.58.58-.17c1.7-.51,3.18-1.36,4.37-2.55.23,0,.47.15.73.43.11.12.17.21.19.27-1.62,1.6-3.43,2.5-5.36,2.7-.25.02-.44.04-.57.04h-.2l-.11.18c-1.06,2.18-2.45,3.37-4.12,3.54-.15.02-.3.02-.45.02Zm.17-5.43c-.95,1.24-1.51,2.41-1.67,3.48-.02.2-.02.36-.03.5.02.41.04.54.06.61l.05.16.16.05c.2.06.4.09.6.09.06,0,.13,0,.19-.01,1.01-.1,2.04-.85,3.06-2.23.19-.27.37-.53.53-.8l.21-.34-.38-.13c-.91-.32-1.69-.8-2.3-1.42l-.26-.26-.23.3Zm1.32-1.26s-.1.07-.19.13c-.18.1-.29.18-.37.25l-.17.15.09.21c.36.88,1.19,1.4,2.47,1.56l.24.03.1-.22c.51-1.17.72-2.2.64-3.06-.04-.37-.13-.66-.29-.88l-.02-.03-.03-.03c-.1-.08-.22-.12-.39-.12-.04,0-.08,0-.12,0-.72.07-1.39.31-1.98.71-.23.18-.38.33-.48.5l-.16.26.25.18c.25.18.37.3.43.37Z"/>
        <path class="cls-1" d="m216.8,44.71c-.55,0-1.02-.31-1.43-.96-.18-.28-.31-.58-.39-.88-.04-.14-.08-.37-.11-.68-.03-.27-.04-.58-.04-.91,0-.34.02-.67.04-1.01.03-.34.06-.68.11-1.03.05-.35.1-.68.17-1,.07-.32.13-.64.19-.94.06-.3.12-.57.17-.81l.24-1.06.04-.13s.01,0,.02,0h0c.21,0,.46.13.73.38.14.15.19.27.2.33l-.56,2.35c-.36,1.9-.49,3.41-.38,4.49.03.3.08.58.16.85l.11.38.35-.17c.97-.48,2.14-1.88,3.59-4.27.13-.23.25-.43.37-.62.58-1.02,1.04-1.95,1.35-2.77v-.04s.15-1.25.15-1.25l.06-.14s.02,0,.04,0h.01c.23,0,.46.13.71.39.17.18.26.36.28.55-.2.88-.23,1.06-.22,1.14,0,.09,0,.17,0,.24.02.2.04.35.07.46l.04.15.14.07c.16.07.35.11.59.11.09,0,.18,0,.29-.02.92-.09,2.05-.41,3.35-.96.01,0,.03-.01.06-.01,0,0,0,0,0,0,.26,0,.5.15.76.44.08.09.12.15.14.2-1.18.54-2.21.84-3.05.93-.15.01-.3.02-.45.02-.8,0-1.47-.2-2-.59l-.32-.24-.17.36c-.8,1.7-1.76,3.27-2.85,4.66-1.22,1.53-1.97,1.91-2.39,1.96-.09,0-.14.01-.19.01Z"/>
        <path class="cls-1" d="m229.79,43.11c-1.76-.06-2.77-.72-3.09-2.03-.04-.15-.07-.3-.08-.44-.13-1.27.3-2.71,1.26-4.27.88-1.42,1.85-2.38,2.89-2.83.21-.09.43-.15.62-.18h.07c.07-.01.13-.02.2-.02.52,0,.98.21,1.42.65.3.31.46.64.5.98.01.23-.03.47-.12.69-.11.24-.29.51-.54.8-.27.3-.56.58-.89.84-.34.27-.7.54-1.07.79-.38.26-.75.5-1.1.71-.35.21-.67.4-.96.56-.28.16-.5.27-.67.35l-.29.15c-.37.23-.5.67-.43,1.36.08.67.35,1.06.78,1.17.23.05.45.07.68.07.12,0,.24,0,.36-.02,1.96-.19,4.48-1.69,7.71-4.59.81-.73,1.54-1.43,2.16-2.1.17.02.41.18.67.48.16.19.21.32.22.37,0,.02-.01.04-.02.06-.28.34-1,1.03-2.12,2.01-3.07,2.7-5.63,4.17-7.62,4.38-.23.02-.4.03-.51.03h-.03Zm2.28-8.99c-.92.38-1.85,1.26-2.86,2.68-.15.19-.28.4-.41.6l.45.44c2-1.29,3.06-2.38,3.25-3.36l.12-.59-.56.23Z"/>
        <path class="cls-1" d="m243.49,39.95c-.23,0-.5-.15-.8-.43-.12-.11-.17-.2-.2-.25.92-1.07,1.37-2.21,1.34-3.39-.01-.11-.03-.21-.06-.35-.03-.09-.04-.15-.05-.19.23,0,.5.13.8.38.13.11.21.23.24.33.04.14.07.34.1.58.12,1.19-.26,2.24-1.17,3.2-.04.03-.07.07-.1.1-.01,0-.02.01-.03.01h-.05Z"/>
      </g>
    </g>
  </g>
</svg>