<?xml version="1.0" encoding="utf-8"?>
<!-- Generator: Adobe Illustrator 27.7.0, SVG Export Plug-In . SVG Version: 6.00 Build 0)  -->
<svg version="1.1" id="texture_on-top" xmlns="http://www.w3.org/2000/svg" xmlns:xlink="http://www.w3.org/1999/xlink" x="0px"
	 y="0px" viewBox="0 0 580 433.01" style="enable-background:new 0 0 580 433.01;" xml:space="preserve">
<style type="text/css">
	.st0{fill:#F16622;}
</style>
<g>
	<g>
		<path class="st0" d="M180.19,37.4c-0.27,0-0.63,0.06-1.06,0.18l-0.33,0.09L178.53,38l-0.18,0.41l-0.25,0.19c-0.02,0-0.03,0-0.05,0
			c-0.26,0-0.5-0.01-0.73-0.02c-0.03,0-0.05,0-0.08,0c-0.22,0-0.46,0.04-0.72,0.11c-2.29,4.96-4.43,10.17-6.4,15.64
			c-1.98,5.47-3.8,10.95-5.47,16.45c-1.67,5.5-3.15,10.92-4.45,16.27c-1.3,5.35-2.42,10.44-3.36,15.25
			c-0.05,0.25-0.17,0.84-0.35,1.77c-0.18,0.93-0.37,1.9-0.57,2.91c-0.2,1.01-0.43,1.94-0.69,2.77c-0.26,0.83-0.49,1.27-0.69,1.33
			c-0.04,0.01-0.08,0.02-0.12,0.02c-0.3,0-0.36-0.44-0.15-1.32c0.23-0.98,0.37-1.64,0.44-1.98l0.47-2.41l0.16-0.29
			c2.03-10.7,4.62-21.58,7.75-32.64c3.13-11.06,7.14-22.06,12.03-33.02c-1.21,1.22-2.47,3.24-3.78,6.04
			c-1.31,2.81-2.63,6.05-3.94,9.73c-1.31,3.68-2.6,7.58-3.85,11.68c-1.26,4.11-2.4,8.08-3.43,11.92c-1.03,3.84-1.92,7.33-2.68,10.45
			c-0.75,3.12-1.29,5.53-1.63,7.22l0.2-1.13c-0.25,1.27-0.52,2.56-0.81,3.88c-0.3,1.32-0.6,2.62-0.93,3.91
			c-2.53,0.88-5.07,1.8-7.62,2.77c-2.55,0.96-5.1,1.93-7.65,2.89c1.78-8,3.57-15.99,5.39-23.96c1.81-7.97,3.51-16.01,5.11-24.12
			c0.43-2.2,0.84-4.39,1.24-6.57c0.39-2.18,0.81-4.38,1.24-6.57c-0.12-0.13-0.18-0.31-0.21-0.54c-0.02-0.23-0.09-0.41-0.21-0.54
			c-0.46-0.82-1.2-1.51-2.2-2.07c-1-0.55-2.12-0.97-3.34-1.26c-1.23-0.29-2.5-0.44-3.81-0.47c-0.1,0-0.2,0-0.3,0
			c-1.19,0-2.27,0.13-3.22,0.4c-0.44,0.13-0.93,0.3-1.46,0.53c-0.53,0.23-1,0.48-1.4,0.76c-0.33,0.25-0.64,0.9-0.95,1.95
			c-0.31,1.05-0.6,2.19-0.88,3.42c-0.28,1.24-0.51,2.42-0.7,3.55c-0.19,1.13-0.32,1.91-0.41,2.33c-1.96,9.97-3.79,19.87-5.48,29.72
			c-1.69,9.85-3.34,19.71-4.93,29.57c-2.75,0.94-5.48,1.94-8.18,2.99c-2.7,1.05-5.44,2.09-8.21,3.11c-1.58,0.61-3.18,1.16-4.8,1.67
			c-1.63,0.5-3.21,1.13-4.74,1.89c-0.29,0.08-0.47,0.25-0.52,0.51c0.07,0.7,0.43,1.15,1.08,1.37c0.34,0.11,0.69,0.17,1.04,0.17
			c0.31,0,0.62-0.04,0.93-0.13c3.75-1.07,7.51-2.27,11.28-3.63c3.77-1.35,7.53-2.56,11.28-3.63c-0.23,2.22-0.59,4.52-1.09,6.89
			c-0.5,2.38-0.98,4.7-1.42,6.98c-1.68,8.53-3.57,17.08-5.67,25.65c-0.68,2.74-1.34,5.42-2,8.04c-0.65,2.62-1.25,5.28-1.78,7.98
			c-0.36,1.86-1,4.13-1.91,6.82c-0.91,2.69-1.92,5.51-3.01,8.45c-1.1,2.94-2.18,5.8-3.25,8.58c-1.07,2.77-1.93,5.13-2.59,7.07
			c-0.11,0.19-0.14,0.44-0.09,0.75c0.04,0.3,0.05,0.54,0.02,0.71c-0.2,1.01-0.49,2.05-0.87,3.12c-0.38,1.07-0.67,2.11-0.87,3.12
			c-0.1,0.51,0.24,0.89,1.02,1.14c0.56,0.18,1.01,0.27,1.35,0.27c0.14,0,0.27-0.02,0.37-0.05c0.29-0.08,0.69-0.42,1.18-0.99
			c0.49-0.58,0.99-1.24,1.48-1.98c0.49-0.74,0.95-1.47,1.37-2.18c0.42-0.72,0.73-1.27,0.95-1.64l0.11-0.03
			c1.48-1.54,2.92-3.56,4.32-6.07c1.39-2.51,2.55-4.69,3.47-6.55c1.24-2.43,2.39-4.83,3.44-7.2c1.06-2.37,2.09-4.74,3.11-7.11
			c0.25-0.55,0.46-1.13,0.65-1.74c0.19-0.61,0.41-1.19,0.65-1.74c2.12-4.43,4.05-9.46,5.78-15.1c1.73-5.64,3.31-11.36,4.73-17.19
			c1.42-5.83,2.69-11.49,3.81-16.99c1.11-5.5,2.12-10.37,3.03-14.61c0.94-0.19,2.06-0.51,3.36-0.96c1.3-0.45,2.66-0.94,4.09-1.46
			c1.42-0.52,2.83-1.06,4.22-1.62c1.39-0.56,2.61-1.02,3.66-1.4c-1.15,5.83-2.27,11.71-3.36,17.64c-1.1,5.93-1.93,11.73-2.48,17.39
			c-0.56,5.66-0.71,11.1-0.45,16.33c0.26,5.23,1.15,10.14,2.67,14.73c1.36,4,3.73,6.95,7.1,8.86c0.62,1.1,1.34,1.91,2.18,2.43
			c0.83,0.52,1.78,1.07,2.85,1.64l0.11-0.03c0.1,0.21,0.35,0.4,0.77,0.56c0.42,0.16,0.92,0.28,1.49,0.35
			c0.57,0.08,1.12,0.12,1.64,0.13c0.06,0,0.13,0,0.19,0c0.43,0,0.77-0.04,1.03-0.11c0.29-0.08,0.66-0.25,1.08-0.49
			c0.43-0.24,0.69-0.57,0.77-1c0.05-0.25-0.01-0.6-0.16-1.03c-0.16-0.43-0.33-0.91-0.5-1.41c-0.18-0.51-0.37-0.97-0.56-1.4
			c-0.2-0.42-0.3-0.75-0.33-0.98c-1.11-2.48-1.88-5.19-2.3-8.14c-0.43-2.95-0.68-6.01-0.75-9.18c-0.04-2.62,0.02-5.73,0.17-9.32
			c0.15-3.59,0.38-7.32,0.69-11.2c0.31-3.87,0.7-7.69,1.16-11.45c0.46-3.76,0.97-7.03,1.51-9.82c0.7-3.55,1.42-7.04,2.17-10.48
			c0.74-3.44,1.47-6.93,2.16-10.48c2.94-0.84,5.91-1.76,8.92-2.78c3.01-1.01,5.99-1.98,8.95-2.9c1.34-0.46,2.74-0.88,4.2-1.26
			c1.46-0.37,2.86-0.95,4.19-1.73c0.4-0.27,0.81-0.51,1.23-0.71c0.42-0.2,0.69-0.59,0.81-1.19c0.12-0.59-0.36-0.91-1.42-0.97
			c-0.28-0.01-0.58-0.02-0.89-0.02c-0.84,0-1.77,0.06-2.78,0.17c-1.38,0.15-2.73,0.38-4.03,0.67c-1.31,0.29-2.18,0.5-2.62,0.63
			c-2.57,0.73-5.15,1.48-7.73,2.26c-2.58,0.78-5.19,1.7-7.83,2.76c0.85-5.02,1.74-9.98,2.66-14.87c0.91-4.83,1.87-9.75,2.85-14.76
			l-0.14,0.72l0.15-0.76c0.01-0.04,0.02-0.08,0.02-0.12l-0.02,0.12c0,0.02-0.01,0.03-0.01,0.05l0.58-2.96
			c0.27-1.35,0.59-3.08,0.97-5.18c0.38-2.1,0.71-4.25,1.01-6.45c0.29-2.19,0.49-4.24,0.58-6.15c0.1-1.9,0.03-3.34-0.19-4.31
			c0.12-0.27,0.19-0.77,0.19-1.49c0-0.72,0-1.23-0.01-1.55c-0.47-0.42-0.77-0.84-0.9-1.24C180.79,37.52,180.56,37.4,180.19,37.4
			L180.19,37.4z M115.91,167.61c-0.22,0-0.3-0.17-0.23-0.51l3.62-20.52c1.3-7.31,2.51-14.47,3.65-21.49
			c1.14-7.02,2.35-14.18,3.65-21.49c0.7-4.26,1.45-8.44,2.26-12.54c0.81-4.1,1.48-8.26,2.04-12.48c0.42-3.55,0.82-7.07,1.19-10.56
			c0.37-3.49,0.92-7.06,1.63-10.69c0.03-0.17,0.09-0.46,0.17-0.89c0.08-0.42,0.17-0.84,0.25-1.27c0.08-0.42,0.21-0.82,0.39-1.19
			c0.18-0.37,0.38-0.58,0.6-0.65c0.04-0.01,0.08-0.02,0.11-0.02c0.27,0,0.34,0.38,0.19,1.13c-0.17,0.85-0.28,1.44-0.35,1.77
			c-0.8,4.05-1.43,7.96-1.89,11.72c-0.46,3.76-0.89,7.53-1.29,11.31c-0.27,2.07-0.61,4.14-1.01,6.21c-0.41,2.07-0.78,4.15-1.12,6.24
			c-0.77,4.29-1.49,8.46-2.15,12.51c-0.66,4.06-1.37,8.22-2.15,12.51c-1.51,8.4-2.93,16.74-4.24,25.01s-2.8,16.62-4.46,25.07
			c-0.08,0.42-0.31,0.69-0.68,0.79C116.03,167.59,115.97,167.61,115.91,167.61L115.91,167.61z"/>
	</g>
	<g>
		<path class="st0" d="M194.29,119.79c-1.15,0-2.32,0.17-3.51,0.51c-1.03,0.29-2.11,0.74-3.23,1.34c-1.12,0.6-2.19,1.34-3.19,2.22
			c-1.01,0.88-1.9,1.9-2.68,3.03c-0.78,1.14-1.3,2.38-1.57,3.73l-0.77,0.22c-0.22,0.06-0.64,0.26-1.26,0.6l0.71-0.44
			c-1.81,0.75-3.52,2.1-5.11,4.02c-1.59,1.93-3.02,4.07-4.28,6.42c-1.26,2.35-2.34,4.73-3.22,7.14c-0.89,2.41-1.5,4.45-1.83,6.14
			c-0.32,1.61-0.5,3.05-0.54,4.34c0.33-1.69,0.87-3.81,1.62-6.38c0.75-2.56,1.69-5.14,2.82-7.74s2.44-5.02,3.93-7.28
			c1.48-2.25,3.13-3.92,4.94-4.99c0.07-0.02,0.13-0.06,0.18-0.11c0.04-0.05,0.1-0.09,0.18-0.11c0.05-0.01,0.09-0.02,0.13-0.02
			c0.19,0,0.26,0.18,0.19,0.53c-0.08,0.42-0.28,0.72-0.59,0.89c-2.5,2.15-4.38,4.28-5.63,6.38c-1.25,2.11-2.45,4.68-3.6,7.72
			c-0.75,2.05-1.39,4.06-1.92,6.05c-0.53,1.99-0.98,3.95-1.37,5.89l-0.42,2.15c0.39,0.85,0.89,1.56,1.5,2.14
			c0.61,0.58,1.3,1.09,2.04,1.51l-0.17-0.19c1.41,0.95,3.05,1.6,4.92,1.95c0.68,0.12,1.37,0.19,2.09,0.19
			c1.26,0,2.56-0.19,3.92-0.58c0.51-0.15,1.12-0.4,1.81-0.76c0.69-0.36,1.18-0.89,1.46-1.61c1.38-1.03,2.66-2.23,3.83-3.6
			c1.17-1.37,2.28-2.76,3.32-4.17c3.21-4.34,5.88-8.45,7.99-12.32c2.11-3.87,3.78-8.21,5.01-13.02c0.51-0.15,1-0.3,1.45-0.47
			c0.45-0.17,11.33-3.12,11.84-3.26l0.02-0.13l0.22-0.06c0.22-0.06,0.34-0.14,0.36-0.22c0.05-0.25-0.14-0.44-0.57-0.56
			c-0.2-0.05-0.37-0.09-0.5-0.11c-1.43,0.31-10.97,2.81-11.34,2.83c-0.11,0.01-0.21,0.01-0.3,0.01c-0.26,0-0.48-0.03-0.67-0.1
			l0.11-0.03l-0.22,0.06c0.32-2.01,0.21-3.71-0.35-5.1c-0.56-1.4-1.4-2.47-2.54-3.22c-1.14-0.75-2.47-1.21-4-1.37
			C195.1,119.81,194.7,119.79,194.29,119.79L194.29,119.79z M194.35,122.63c-0.04,0-0.06-0.03-0.05-0.1
			c0.03-0.01,0.05-0.01,0.08-0.01c0.03,0,0.06,0.01,0.08,0.03c0.02,0.02,0.04,0.03,0.07,0.03c0.02,0,0.05,0,0.08-0.01l-0.22,0.06
			C194.37,122.63,194.36,122.63,194.35,122.63L194.35,122.63z M194.57,122.68c-0.06,0-0.09-0.03-0.08-0.09L194.57,122.68
			c0.03,0,0.07-0.01,0.12-0.02l-0.02,0.13L194.57,122.68C194.58,122.68,194.57,122.68,194.57,122.68L194.57,122.68z M194.62,122.89
			c0.06,0,0.14-0.01,0.24-0.04c0.15,0.17,0.27,0.26,0.34,0.26c0.01,0,0.02,0,0.02,0l0.78,1.33c0.33,1.82,0.26,3.99-0.24,6.53
			l-0.33,0.09c-1.53,0.36-3.04,0.73-4.54,1.11c-1.48,0.38-2.9,0.57-4.27,0.57c-0.02,0-0.04,0-0.06,0l-0.83-1.08
			c-0.13-0.04-0.24-0.09-0.34-0.14c-0.09-0.05-0.21-0.1-0.34-0.14l0.02-0.13c0.66-1.94,1.37-3.28,2.14-4.02
			c0.77-0.74,1.86-1.71,3.28-2.91c0.29-0.08,0.62-0.24,0.97-0.46c0.36-0.22,0.72-0.38,1.08-0.49l1.65-0.47
			c0.1-0.03,0.18-0.04,0.24-0.04c0.03,0,0.06,0,0.08,0.01C194.57,122.88,194.59,122.89,194.62,122.89L194.62,122.89z M195.11,133.78
			c-0.51,1.9-1.23,3.96-2.15,6.17c-0.92,2.22-1.97,4.45-3.14,6.69c-1.17,2.25-2.47,4.43-3.89,6.55c-1.42,2.12-2.85,3.98-4.27,5.58
			c0.13-1.71,0.37-3.45,0.72-5.23c0.35-1.77,0.82-3.58,1.43-5.43c0.6-1.85,1.12-3.67,1.54-5.46c0.32-1.29,0.59-2.54,0.79-3.75
			c0.2-1.21,0.43-2.45,0.68-3.72c1.4-0.08,2.77-0.23,4.1-0.45C192.24,134.52,193.64,134.2,195.11,133.78L195.11,133.78z
			 M214.98,126.74l-0.3,0.02c0.04,0,0.08,0.01,0.13,0.01C214.9,126.75,214.96,126.74,214.98,126.74L214.98,126.74z M214.6,126.75
			c-0.06,0-0.11,0.01-0.15,0.02l0.23-0.01C214.65,126.75,214.63,126.75,214.6,126.75L214.6,126.75z"/>
	</g>
	<g>
		<path class="st0" d="M254.95,91.03c-0.54,0-1.21,0.11-2.02,0.35c-0.37,0.1-0.72,0.28-1.04,0.54l-0.11,0.03l-0.27,0.32
			c-0.08,0.42-0.13,0.74-0.13,0.93c-0.01,0.2-0.01,0.5-0.02,0.9c-1.4,0.4-2.81,1.22-4.23,2.46c-1.43,1.24-2.78,2.69-4.08,4.33
			c-1.3,1.64-2.52,3.37-3.67,5.17c-1.15,1.8-2.11,3.41-2.87,4.82c-0.23-1.29-0.43-2.65-0.6-4.07c-0.17-1.43-0.41-2.77-0.71-4.04
			c-0.31-1.27-0.8-2.36-1.49-3.28c-0.69-0.92-1.66-1.52-2.92-1.8c-0.26-0.08-0.53-0.15-0.79-0.19c-0.27-0.04-0.54-0.11-0.8-0.19
			c-0.65-0.21-1.48-0.4-2.49-0.55c-0.4-0.06-0.79-0.09-1.15-0.09c-0.56,0-1.09,0.07-1.58,0.21c-0.22,0.06-0.5,0.22-0.82,0.47
			c-0.33,0.25-0.52,0.51-0.56,0.76c-0.03,0.17-0.01,0.32,0.07,0.46c0.08,0.14,0.14,0.24,0.2,0.3c-0.05,0.25-0.1,0.53-0.16,0.82
			c-0.06,0.3-0.15,0.58-0.27,0.85l-0.55,0.16l-0.1-0.57l0.1-0.51l-0.07,0.38l-0.06-0.22l-0.04,0.73l0.07-0.38
			c-0.13,0.68-0.24,1.31-0.32,1.88c-0.08,0.58-0.19,1.21-0.32,1.88c-0.12,0.59-0.27,1.2-0.46,1.81c-0.19,0.61-0.34,1.21-0.46,1.8
			l0.02-0.13c-1.71,6.95-3.55,13.81-5.5,20.58c-1.96,6.78-3.61,13.58-4.95,20.42c-0.58,2.96-1.2,5.86-1.87,8.72
			c-0.62,2.68-1.21,5.39-1.76,8.15c-0.27,1.41-0.54,2.83-0.78,4.23c-0.28,1.59-0.58,3.19-0.89,4.8c-0.18,0.93-0.39,1.8-0.62,2.63
			c-0.23,0.82-0.44,1.7-0.62,2.63l0.17-0.89c-0.85,3.27-1.78,6.59-2.79,9.94c-1.01,3.36-1.82,6.64-2.46,9.85
			c-0.18,0.93-0.12,2.01,0.2,3.23c0.31,1.23,0.7,2.09,1.15,2.6c1.68-6.78,3.12-13.51,4.33-20.19c1.21-6.68,2.47-13.36,3.78-20.03
			c1.69-8.61,3.51-17.14,5.45-25.59c1.94-8.44,4.1-16.99,6.5-25.65c0.19-0.61,0.49-1.61,0.9-3.01c0.41-1.39,0.85-2.81,1.31-4.26
			c0.46-1.45,0.85-2.71,1.16-3.8c0.32-1.09,0.49-1.67,0.5-1.76l0.29-0.44c0.09-0.1,0.25-0.19,0.47-0.25c0.01,0,0.02,0,0.03,0
			c0.06,0,0.13,0.06,0.2,0.18c0.08,0.14,0.11,0.25,0.09,0.33l-0.02,0.13c-1.49,4.73-2.89,9.42-4.22,14.06
			c-1.33,4.65-2.55,9.28-3.67,13.9c-1.68,6.78-3.23,13.5-4.64,20.16c-1.41,6.66-2.78,13.33-4.09,20c-0.25,1.27-0.59,3.1-1.03,5.5
			c-0.44,2.4-0.92,4.92-1.44,7.59c-0.52,2.66-1.03,5.26-1.53,7.79s-0.93,4.57-1.31,6.11c-0.43,1.48-0.79,2.98-1.09,4.5
			c-0.3,1.52-0.59,3-0.87,4.43l-0.4,2.03c0.23,0.25,0.47,0.42,0.73,0.51c0.28,0.32,0.76,0.52,1.44,0.61
			c0.25,0.03,0.49,0.05,0.72,0.05c0.39,0,0.74-0.05,1.07-0.14c0.59-0.17,0.94-0.55,1.06-1.14c0.12-0.59,0.22-1.14,0.32-1.65
			c0.24-0.15,0.72-0.64,1.44-1.49l1.06-1.14c0.81-0.95,1.75-2.57,2.83-4.87c1.08-2.3,2.08-4.68,3.02-7.14
			c0.93-2.46,1.78-4.73,2.54-6.82c0.76-2.09,1.27-3.45,1.53-4.08c1.56-4.03,3.07-7.95,4.55-11.76c1.48-3.81,2.8-7.79,3.96-11.95
			l0.11-0.03c0.63,0.7,1.66,1.08,3.1,1.15c0.26,0.01,0.5,0.02,0.75,0.02c1.14,0,2.16-0.13,3.07-0.39c1.47-0.42,2.77-1.39,3.9-2.9
			c1.13-1.52,2.22-2.98,3.26-4.39c2.65-3.63,5.11-7.01,7.36-10.17c2.25-3.15,4.23-6.27,5.95-9.35c1.71-3.08,3.22-6.3,4.5-9.65
			c1.28-3.35,2.33-7.1,3.15-11.24c0.43-2.2,0.7-4.37,0.81-6.51c0.11-2.14-0.06-4.03-0.5-5.66c-0.44-1.63-1.27-2.89-2.48-3.78
			c-0.92-0.67-2.1-1.01-3.54-1.01c-0.12,0-0.23,0-0.35,0.01c0.01,0,0.02,0,0.03,0.01l-1.16,0.09c0.39-0.05,0.77-0.09,1.13-0.1
			C255.37,91.05,255.17,91.03,254.95,91.03L254.95,91.03z M223.32,155.62c-0.2,0-0.28-0.13-0.23-0.39c0.07-0.34,0.32-0.83,0.76-1.47
			c0.44-0.64,0.77-1.2,1-1.66l0.25-0.19c0.6-1.29,1.51-2.74,2.73-4.36c1.22-1.62,2.23-3.07,3.04-4.33c1.86-2.76,3.88-5.81,6.06-9.14
			c2.18-3.33,4.28-6.76,6.29-10.28c2.01-3.52,3.79-7,5.33-10.43c1.54-3.43,2.59-6.58,3.16-9.45c0.27-1.35,0.36-2.65,0.27-3.9
			c-0.09-1.25-0.06-2.21,0.07-2.89c0.05-0.25,0.22-0.42,0.53-0.51c0.04-0.01,0.07-0.02,0.11-0.02c0.25,0,0.42,0.26,0.54,0.79
			c0.13,0.6,0.17,1.31,0.12,2.12c-0.05,0.81-0.13,1.63-0.22,2.45c-0.09,0.82-0.16,1.36-0.21,1.61c-0.53,2.7-1.52,5.68-2.95,8.91
			c-1.43,3.24-3.04,6.49-4.83,9.75c-1.79,3.26-3.68,6.47-5.69,9.63c-2.01,3.16-3.89,6.03-5.65,8.6c-0.2,0.3-0.58,0.84-1.16,1.64
			c-0.57,0.8-1.16,1.65-1.75,2.53c-0.59,0.89-1.13,1.7-1.62,2.44c-0.49,0.74-0.75,1.15-0.76,1.23c-0.36,0.42-0.71,0.96-1.05,1.61
			c-0.18,0.21-0.57,0.76-1.16,1.64c-0.59,0.89-0.94,1.42-1.05,1.61l-0.02,0.13c-0.2,0.3-0.49,0.74-0.89,1.33
			c-0.39,0.59-0.66,0.91-0.81,0.95C223.46,155.61,223.39,155.62,223.32,155.62L223.32,155.62z M247.48,103.21
			c0.47-0.61,0.94-1.24,1.41-1.9c0.47-0.65,0.97-1.25,1.5-1.8l-0.35,1.77c-0.78,3.97-1.82,7.75-3.12,11.35
			c-1.3,3.6-2.83,7.14-4.59,10.63c-1.76,3.49-3.74,7.03-5.93,10.6c-2.2,3.58-4.54,7.27-7.02,11.09c0.77-3.57,1.69-7.18,2.75-10.83
			c1.06-3.65,1.95-7.25,2.64-10.8c2.08-3.54,4.15-7.02,6.22-10.44c2.06-3.41,4.31-6.75,6.75-9.99L247.48,103.21L247.48,103.21z
			 M206.25,164.69l-0.22,1.14c0.04-0.19,0.08-0.38,0.11-0.57C206.18,165.06,206.21,164.87,206.25,164.69L206.25,164.69z"/>
	</g>
	<g>
		<path class="st0" d="M298.4,75.6c-0.57,0-1.18,0.08-1.83,0.24c-0.04-0.04-0.12-0.07-0.23-0.07c-0.2,0-0.52,0.07-0.95,0.22
			c-0.67,0.23-1.1,0.45-1.28,0.66L294,76.68l0.02-0.13c-0.81,0.23-1.55,0.4-2.24,0.52c-0.68,0.12-1.43,0.29-2.23,0.52
			c-1.03,0.29-2.03,0.72-3.01,1.27c-0.98,0.56-1.99,1.23-3.05,2l0.49-0.38c-2.82,2-5.37,4.74-7.65,8.22
			c-2.28,3.48-4.29,7.16-6.02,11.04c-1.74,3.88-3.19,7.74-4.36,11.59c-1.17,3.84-2.03,7.16-2.58,9.94
			c-0.51,2.62-0.93,5.49-1.25,8.61c-0.32,3.12-0.3,5.79,0.07,7.99c0.07-1.77,0.23-3.57,0.49-5.4c0.25-1.83,0.56-3.67,0.93-5.53
			c0.6-3.04,1.47-6.5,2.61-10.37c1.14-3.87,2.52-7.81,4.15-11.82c1.62-4.01,3.46-7.88,5.51-11.61c2.05-3.73,4.32-6.99,6.81-9.77
			c0.18-0.21,0.31-0.33,0.38-0.35c0.07-0.02,0.14-0.03,0.19-0.03c0.22,0,0.3,0.17,0.23,0.51c-0.05,0.25-0.12,0.43-0.21,0.54
			c-0.3,0.49-0.76,1.07-1.39,1.77c-0.62,0.7-1.16,1.31-1.61,1.83c-2.37,3.23-4.31,6.57-5.82,10.03c-2.24,5.02-4.19,10-5.85,14.94
			c-1.67,4.94-2.98,9.86-3.94,14.76c-1.11,5.66-1.6,10.98-1.47,15.97c0.44,0.59,0.81,1.26,1.11,2.02c0.28,0.68,0.61,1.3,1,1.86
			l0.23,0.13c0.47,2.18,1.56,3.88,3.25,5.11c1.09,0.79,2.33,1.19,3.71,1.19c0.77,0,1.59-0.12,2.45-0.37
			c1.9-0.54,3.48-1.47,4.74-2.78c1.26-1.32,2.62-2.9,4.09-4.75l1.72-1.93c0.79-0.86,1.52-1.87,2.2-3.02
			c0.67-1.15,1.29-2.34,1.84-3.57c0.55-1.23,1.03-2.45,1.44-3.64c0.41-1.19,0.71-2.29,0.91-3.31c0.25-1.27,0.42-2.65,0.5-4.15
			c0.09-1.5,0-2.89-0.27-4.17c-0.27-1.28-0.77-2.27-1.49-2.98c-0.47-0.45-1.07-0.68-1.82-0.68c-0.41,0-0.87,0.07-1.37,0.21
			l-0.33,0.09c-0.15,0.04-0.24,0.15-0.27,0.32c-0.07,0.34-0.03,0.87,0.1,1.58c0.14,0.72,0.28,1.58,0.43,2.57
			c0.15,0.99,0.24,2.12,0.27,3.39c0.03,1.27-0.11,2.66-0.41,4.18c-0.28,1.44-0.72,2.98-1.32,4.62c-0.6,1.65-1.37,3.28-2.3,4.9
			c-0.94,1.62-2.01,3.12-3.2,4.5c-1.2,1.38-2.49,2.42-3.86,3.13l-0.09-0.09c-0.01-1.35-0.08-2.67-0.2-3.95
			c-0.13-1.28-0.19-2.6-0.2-3.95c0-2.79,0.16-5.63,0.49-8.51c0.33-2.88,0.79-5.84,1.39-8.89c0.18-0.93,0.37-1.82,0.58-2.68
			c0.2-0.85,0.43-1.76,0.69-2.71c0.11-0.03,0.21-0.05,0.3-0.05c0.02,0,0.05,0,0.07,0c0.02,0,0.04,0,0.07,0
			c0.09,0,0.19-0.02,0.3-0.05c1.24-0.35,2.63-1.31,4.18-2.86c1.55-1.56,3.13-3.46,4.74-5.72c1.61-2.25,3.18-4.69,4.7-7.32
			c1.51-2.62,2.88-5.18,4.09-7.68c1.22-2.5,2.26-4.83,3.13-6.99s1.44-3.88,1.68-5.14c0.45-2.28,0.05-3.86-1.2-4.74
			C300.46,75.89,299.5,75.6,298.4,75.6L298.4,75.6z M297.61,80.56l-0.07,0.38c-0.33,1.69-0.99,3.73-1.98,6.12
			c-0.99,2.39-2.12,4.85-3.41,7.37s-2.61,4.97-3.97,7.35c-1.36,2.38-2.58,4.36-3.64,5.94c-0.29,0.4-0.59,0.83-0.92,1.28
			c-0.33,0.45-0.61,0.91-0.84,1.37c-0.38,0.51-0.77,0.96-1.2,1.36c-0.42,0.4-0.85,0.82-1.28,1.26c1.54-5.38,3.44-10.25,5.7-14.6
			c2.26-4.35,5.11-9.01,8.56-13.97L294,85.17c0.57-0.8,1.17-1.57,1.81-2.31C296.44,82.13,297.04,81.36,297.61,80.56L297.61,80.56z
			 M265.27,147.17l0.17,0.19c-0.04-0.05-0.08-0.11-0.12-0.16L265.27,147.17L265.27,147.17z"/>
	</g>
</g>
<g>
	<g>
		<path class="st0" d="M371.01,107.95c-0.27,0-0.52,0.03-0.76,0.1c-0.59,0.17-0.95,0.41-1.08,0.73c-0.13,0.32-0.38,0.69-0.74,1.11
			l-0.9,0.85l-0.17,0.89c-0.94,1.63-2.34,3.8-4.19,6.52c-1.85,2.72-3.83,5.51-5.91,8.38c-2.09,2.87-4.14,5.52-6.15,7.97
			c-2.01,2.45-3.63,4.16-4.86,5.15l0.02-0.13c0.02-0.08,0.05-0.15,0.09-0.21c0.04-0.05,0.08-0.12,0.09-0.21
			c0.38-0.51,0.96-1.61,1.75-3.31c0.79-1.7,1.65-3.54,2.6-5.52c0.95-1.98,1.9-3.93,2.87-5.84c0.97-1.91,1.87-3.38,2.7-4.41
			l0.22-1.14c-0.27-1.12-0.95-2.06-2.06-2.82c-1.1-0.76-2.36-1.36-3.77-1.8c-1.41-0.44-2.87-0.68-4.39-0.72
			c-0.2-0.01-0.39-0.01-0.58-0.01c-1.27,0-2.39,0.14-3.34,0.41c-0.29,0.08-0.56,0.18-0.78,0.28c-0.23,0.11-0.49,0.2-0.78,0.28
			c-0.66,0.51-1.36,1.54-2.12,3.11c-0.76,1.57-1.48,3.27-2.15,5.1c-0.67,1.83-1.26,3.57-1.75,5.22c-0.5,1.66-0.82,2.87-0.97,3.63
			c-0.13,0.68-0.23,1.42-0.28,2.23c-0.06,0.81-0.07,1.57-0.03,2.28c0.03,0.71,0.05,1.32,0.05,1.84c0,0.52,0,0.82-0.02,0.9
			c-0.07,0.34-0.25,0.55-0.54,0.63c0.46,0.82,1.1,1.64,1.91,2.45c0.81,0.81,1.7,1.51,2.65,2.11c0.96,0.61,2,1.03,3.13,1.26
			c0.49,0.1,0.97,0.15,1.45,0.15c0.64,0,1.27-0.09,1.9-0.27c1.84-0.52,3.85-1.81,6.03-3.87c2.18-2.05,4.31-4.41,6.41-7.08
			c2.09-2.67,4.07-5.36,5.92-8.08c1.86-2.72,3.43-5.06,4.72-7.02l0.06,0.46l-0.15,0.76c-0.15,0.76-0.24,1.54-0.25,2.34
			c-0.02,0.8-0.07,1.57-0.14,2.31c-0.26,2.39-0.56,4.78-0.89,7.19c-0.34,2.41-0.74,4.84-1.22,7.28l0.22-1.14
			c-0.3,1.52-0.58,3.06-0.85,4.61c-0.27,1.55-0.55,3.09-0.85,4.61c-0.25,1.27-0.54,2.54-0.86,3.83c-0.32,1.29-0.65,2.58-0.97,3.86
			c-1.98,0.88-3.88,1.7-5.7,2.46c-1.82,0.76-3.69,1.65-5.63,2.68c-5.95,3.05-11.87,6.72-17.75,11.03
			c-5.88,4.3-11.59,9.06-17.14,14.26c-5.54,5.2-10.84,10.8-15.91,16.78c-5.07,5.99-9.72,12.17-13.97,18.56
			c-2.76,4.13-5.31,8.52-7.65,13.18c-2.34,4.65-3.93,9.13-4.78,13.44c-1.2,6.08-0.66,10.75,1.62,14.01
			c2.27,3.26,5.8,4.93,10.57,5.01c-0.31,0.17-0.5,0.42-0.56,0.76c-0.08,0.42,0.26,0.78,1.04,1.08c0.73,0.28,1.27,0.42,1.62,0.42
			c0.02,0,0.04,0,0.07,0c0.57,0.14,1.2,0.22,1.89,0.22c0.74,0,1.55-0.08,2.43-0.25c1.69-0.32,3.28-0.69,4.75-1.11
			c1.62-0.46,2.95-1,4.01-1.62c1.06-0.62,2.35-1.47,3.88-2.54c3.39-2.4,6.66-4.84,9.82-7.34c3.16-2.49,6.33-5.31,9.52-8.45
			c1.1-1.03,2.56-2.5,4.35-4.41c1.8-1.91,3.63-3.88,5.48-5.93c1.86-2.04,3.56-3.9,5.1-5.58c1.54-1.68,2.65-2.81,3.32-3.4
			c0.09-0.11,0.25-0.19,0.47-0.25c0.07-0.02,0.14-0.03,0.19-0.03c0.22,0,0.3,0.17,0.23,0.51l-0.29,0.44
			c-3.14,3.29-5.97,6.3-8.49,9.05c-2.52,2.75-5.01,5.37-7.48,7.87c-2.47,2.5-5.09,4.98-7.86,7.44c-2.77,2.46-6,5.09-9.67,7.89
			c9.55-6.23,18.18-13.4,25.88-21.53c7.7-8.13,14.51-16.88,20.41-26.26c5.9-9.37,10.88-19.16,14.93-29.36
			c4.05-10.2,7.2-20.49,9.45-30.85l0.66-0.19c0.59-0.17,1.16-0.27,1.73-0.31c0.53-0.04,1.07-0.17,1.64-0.39c0,0,0-0.01,0-0.01
			l0.11-0.03c-0.04,0.02-0.07,0.03-0.11,0.05c0,0.02,0.03,0.04,0.09,0.04c0.11,0,0.31-0.04,0.6-0.13c0.48-0.14,0.79-0.22,0.94-0.27
			c0.33-0.09,0.66-0.14,1.01-0.14c0.04,0,0.08,0,0.12,0c0.04,0,0.08,0,0.11,0c0.34,0,0.68-0.05,1.01-0.14
			c0.29-0.08,0.47-0.25,0.52-0.51c0.08-0.42-0.13-0.68-0.63-0.78c-0.42-0.08-0.78-0.12-1.09-0.12c-0.06,0-0.13,0-0.19,0.01
			l-0.09-0.1c-0.65,0.18-1.29,0.28-1.94,0.28c-0.31,0-0.61-0.02-0.92-0.06c-0.48-0.07-0.98-0.1-1.47-0.1
			c-0.47,0-0.95,0.03-1.44,0.09c0.22-1.1,0.56-3.03,1.04-5.8c0.47-2.77,0.92-5.66,1.34-8.69c0.42-3.03,0.73-5.83,0.92-8.4
			c0.19-2.57,0.1-4.16-0.26-4.77c0.12-0.62,0.09-1.2-0.1-1.73c0,0.03,0.01,0.06,0.01,0.09l-0.06-0.22c0.02,0.04,0.04,0.09,0.05,0.14
			c-0.07-0.68-0.23-1.55-0.45-2.59c-0.24-1.09-0.57-2.15-0.99-3.19c-0.42-1.04-0.9-1.94-1.45-2.7c-0.55-0.76-1.11-1.26-1.68-1.49
			c-0.24-0.17-0.6-0.31-1.06-0.42c-0.47-0.11-0.92-0.26-1.37-0.45c-0.45-0.19-0.89-0.35-1.31-0.46c-0.43-0.12-0.73-0.27-0.9-0.46
			l-0.4-0.6c-0.29-0.32-0.76-0.56-1.42-0.73C371.66,108,371.32,107.95,371.01,107.95L371.01,107.95z M360.4,158.69
			c0.78-2.21,1.53-4.7,2.25-7.46c0.71-2.75,1.39-5.58,2.03-8.47c0.64-2.89,1.23-5.71,1.77-8.46c0.54-2.74,1.02-5.21,1.46-7.41
			c0.43-2.2,0.73-4.15,0.89-5.88c0.16-1.72,0.16-3.55-0.01-5.5l0.07-0.38c0.05-0.25,0.21-0.42,0.5-0.5c0.05-0.02,0.1-0.02,0.15-0.02
			c0.39,0,0.59,0.52,0.59,1.55c0.01,1.15-0.08,2.49-0.24,4.01c-0.17,1.52-0.37,3-0.62,4.42c-0.25,1.43-0.41,2.35-0.49,2.77
			c-2.16,10.98-4.8,21.94-7.92,32.87c-3.12,10.93-7.12,22.08-11.98,33.43c-0.9,2.09-1.76,4.19-2.59,6.3
			c-0.83,2.11-1.77,4.23-2.81,6.36c-0.14,0.36-0.36,0.58-0.65,0.66c-3.91,7.89-8.59,15.36-14.03,22.41
			c-5.45,7.05-11.35,13.51-17.71,19.39c-5.85,5.41-11.89,9.64-18.11,12.68c-0.16,0.13-0.57,0.32-1.21,0.58
			c-0.64,0.26-1.05,0.5-1.23,0.71l-0.44,0.13c-2.08,0.59-3.88,0.88-5.41,0.88c-0.2,0-0.4-0.01-0.59-0.02
			c-0.04-0.15-0.28-0.26-0.71-0.34c-0.44-0.08-0.72-0.14-0.85-0.18l-0.11,0.03c-0.11-0.13-0.35-0.32-0.72-0.57
			c-0.37-0.25-0.61-0.4-0.75-0.45l-0.32-0.51c-0.02,0.01-0.04,0.01-0.06,0.01c-0.13,0-0.26-0.12-0.39-0.36
			c-0.15-0.28-0.32-0.59-0.49-0.94c-0.17-0.35-0.33-0.7-0.47-1.06c-0.14-0.36-0.23-0.61-0.27-0.76l-0.33-0.98
			c-0.2-1.46-0.28-2.87-0.26-4.23c0.03-1.36,0.2-2.89,0.54-4.58c0.6-3.04,1.61-6.16,3.04-9.35c1.43-3.2,3.08-6.38,4.95-9.54
			c1.87-3.16,3.91-6.25,6.1-9.27c2.19-3.02,4.35-5.86,6.47-8.54c3.89-4.93,8.27-9.91,13.15-14.92c4.88-5.02,9.98-9.78,15.32-14.28
			c5.33-4.51,10.71-8.63,16.14-12.37c5.42-3.74,10.64-6.83,15.64-9.29c0.16-0.44,0.3-0.9,0.43-1.38c0.13-0.47,0.23-0.92,0.32-1.34
			L360.4,158.69L360.4,158.69z M338.86,115.78c-1.81,2.51-3.2,4.82-4.17,6.93c-0.97,2.11-1.72,4.52-2.25,7.22
			c-0.22,1.1-0.37,2.3-0.45,3.59c-0.08,1.3,0.01,2.35,0.26,3.15c-0.01-0.87,0.04-1.72,0.15-2.56c0.12-0.83,0.27-1.71,0.45-2.64
			c0.51-2.62,1.26-5.22,2.24-7.81C336.08,121.08,337.33,118.45,338.86,115.78L338.86,115.78z"/>
	</g>
	<g>
		<path class="st0" d="M417,107.46c-1.15,0-2.32,0.17-3.51,0.51c-1.03,0.29-2.11,0.74-3.23,1.34c-1.12,0.6-2.19,1.34-3.19,2.22
			c-1.01,0.88-1.9,1.9-2.68,3.03c-0.78,1.14-1.3,2.38-1.57,3.73l-0.77,0.22c-0.22,0.06-0.64,0.26-1.26,0.6l0.71-0.44
			c-1.81,0.75-3.52,2.1-5.11,4.02c-1.59,1.93-3.02,4.07-4.28,6.42c-1.26,2.35-2.34,4.73-3.22,7.14c-0.89,2.41-1.5,4.45-1.83,6.14
			c-0.32,1.61-0.5,3.05-0.54,4.34c0.33-1.69,0.87-3.81,1.62-6.38c0.75-2.56,1.69-5.14,2.82-7.74s2.44-5.02,3.93-7.28
			c1.48-2.25,3.13-3.92,4.94-4.99c0.07-0.02,0.13-0.06,0.18-0.11c0.04-0.05,0.1-0.09,0.18-0.11c0.05-0.01,0.09-0.02,0.13-0.02
			c0.19,0,0.26,0.18,0.19,0.53c-0.08,0.42-0.28,0.72-0.59,0.89c-2.5,2.15-4.38,4.28-5.63,6.38c-1.25,2.11-2.45,4.68-3.6,7.72
			c-0.75,2.05-1.39,4.06-1.92,6.05c-0.53,1.99-0.98,3.95-1.37,5.89l-0.42,2.15c0.39,0.85,0.89,1.56,1.5,2.14
			c0.61,0.58,1.3,1.09,2.04,1.51l-0.17-0.19c1.41,0.95,3.05,1.6,4.92,1.95c0.68,0.12,1.37,0.19,2.09,0.19
			c1.26,0,2.56-0.19,3.92-0.58c0.51-0.15,1.12-0.4,1.81-0.76c0.69-0.36,1.18-0.89,1.46-1.61c1.38-1.03,2.66-2.23,3.83-3.6
			c1.17-1.37,2.28-2.76,3.32-4.17c3.21-4.34,5.88-8.45,7.99-12.32c2.11-3.87,3.78-8.21,5.01-13.02c0.51-0.15,1-0.3,1.45-0.47
			c0.45-0.17,0.93-0.32,1.45-0.47l0.02-0.13l0.22-0.06c0.22-0.06,0.34-0.14,0.36-0.22c0.05-0.25-0.14-0.44-0.57-0.56
			c-0.26-0.07-0.47-0.11-0.62-0.13c-0.26,0.02-0.54,0.04-0.82,0.06c-0.11,0.01-0.21,0.01-0.3,0.01c-0.26,0-0.48-0.03-0.67-0.1
			l0.11-0.03l-0.22,0.06c0.32-2.01,0.21-3.71-0.35-5.1c-0.56-1.4-1.4-2.47-2.54-3.22c-1.14-0.75-2.47-1.21-4-1.37
			C417.81,107.48,417.41,107.46,417,107.46L417,107.46z M417.05,110.3c-0.04,0-0.06-0.03-0.05-0.1c0.03-0.01,0.05-0.01,0.08-0.01
			c0.03,0,0.06,0.01,0.08,0.03c0.02,0.02,0.04,0.03,0.07,0.03c0.02,0,0.05,0,0.08-0.01l-0.11,0.03l0.08,0.09
			c0.03,0,0.07-0.01,0.12-0.02l-0.02,0.13l-0.09-0.11c0,0,0,0,0,0c-0.06,0-0.09-0.03-0.08-0.09l-0.11,0.03
			C417.08,110.29,417.07,110.3,417.05,110.3L417.05,110.3z M417.33,110.56c0.06,0,0.14-0.01,0.24-0.04
			c0.15,0.17,0.27,0.26,0.34,0.26c0.01,0,0.02,0,0.02,0l0.78,1.33c0.33,1.82,0.26,3.99-0.24,6.53l-0.33,0.09
			c-1.53,0.36-3.04,0.73-4.54,1.11c-1.48,0.38-2.9,0.57-4.27,0.57c-0.02,0-0.04,0-0.06,0l-0.83-1.08c-0.13-0.04-0.24-0.09-0.34-0.14
			c-0.09-0.05-0.21-0.1-0.34-0.14l0.02-0.13c0.66-1.94,1.37-3.28,2.14-4.02c0.77-0.74,1.86-1.71,3.28-2.91
			c0.29-0.08,0.62-0.24,0.97-0.46c0.36-0.22,0.72-0.38,1.08-0.49l1.65-0.47c0.1-0.03,0.18-0.04,0.24-0.04c0.03,0,0.06,0,0.08,0.01
			C417.27,110.55,417.3,110.56,417.33,110.56L417.33,110.56z M417.81,121.45c-0.51,1.9-1.23,3.96-2.15,6.17
			c-0.92,2.22-1.97,4.45-3.14,6.69c-1.17,2.25-2.47,4.43-3.89,6.55c-1.42,2.12-2.85,3.98-4.27,5.58c0.13-1.71,0.37-3.45,0.72-5.23
			c0.35-1.77,0.82-3.58,1.43-5.43c0.6-1.85,1.12-3.67,1.54-5.46c0.32-1.29,0.59-2.54,0.79-3.75c0.2-1.21,0.43-2.45,0.68-3.72
			c1.4-0.08,2.77-0.23,4.1-0.45C414.95,122.18,416.34,121.86,417.81,121.45L417.81,121.45z M417.2,110.26L417.2,110.26L417.2,110.26
			L417.2,110.26L417.2,110.26z M427.29,117.2l-0.3,0.02c0,0,0.01,0,0.01,0C427.1,117.21,427.19,117.2,427.29,117.2L427.29,117.2z
			 M426.91,117.21c-0.06,0-0.11,0.01-0.15,0.02l0.23-0.01C426.96,117.21,426.93,117.21,426.91,117.21L426.91,117.21z"/>
	</g>
	<g>
		<path class="st0" d="M438.6,98.72c-1.13,0-2.04,0.1-2.73,0.3c-0.15,0.04-0.32,0.11-0.51,0.2c-0.19,0.1-0.36,0.16-0.51,0.2
			c-0.72,1.56-1.33,3.13-1.81,4.7c-0.48,1.57-0.87,3.12-1.17,4.64c-0.9,4.56-1.14,8.69-0.72,12.4c0.42,3.71,1.35,7.15,2.81,10.32
			c0.06,0.06,0.08,0.14,0.06,0.22c-0.12,0.59-0.36,0.94-0.73,1.04l-0.28-0.16c-0.94-1.25-1.64-2.78-2.11-4.6
			c-0.47-1.82-0.8-3.78-0.98-5.88c-0.18-2.1-0.18-4.27-0.02-6.51c0.16-2.24,0.44-4.37,0.84-6.4c0.3-1.52,0.67-3.06,1.12-4.62
			c0.45-1.56,1.03-3.12,1.75-4.68c-0.69,0.36-1.33,1.04-1.91,2.04c-0.58,1-1.1,2.09-1.58,3.26c-0.47,1.17-0.86,2.34-1.16,3.5
			c-0.3,1.16-0.51,2.04-0.62,2.63c-0.15,0.76-0.29,1.76-0.43,2.99c-0.14,1.24-0.25,2.48-0.32,3.74c-0.08,1.26-0.1,2.46-0.09,3.61
			c0.02,1.15,0.13,2.05,0.35,2.71l-0.09-0.09c0.26,1.52,0.52,2.84,0.78,3.96c0.26,1.12,0.64,2.11,1.13,2.97
			c0.49,0.86,1.1,1.62,1.84,2.29c0.74,0.67,1.71,1.27,2.92,1.8c0.23,1.29,0.98,2.15,2.25,2.59c0.68,0.23,1.37,0.35,2.07,0.35
			c0.6,0,1.21-0.09,1.82-0.26c1.39-0.4,3.13-1.65,5.21-3.76c2.08-2.11,4.2-4.52,6.37-7.25c2.17-2.73,4.17-5.41,6.01-8.05
			c1.83-2.63,3.25-4.69,4.23-6.17l-0.25,1.27c-0.18,0.93-0.43,1.92-0.74,2.96c-0.31,1.04-0.56,2.03-0.74,2.96
			c-0.28,1.44-0.5,2.87-0.64,4.31c-0.14,1.44-0.09,2.76,0.16,3.96c0.1-1.94,0.3-3.93,0.6-5.97c0.3-2.04,0.64-4.07,1.04-6.1
			c0.1-0.51,0.33-1.49,0.68-2.95c0.35-1.46,0.78-3.01,1.28-4.67c0.5-1.65,1.03-3.14,1.61-4.46c0.57-1.32,1.08-2.04,1.52-2.17
			c0.11-0.03,0.2-0.05,0.27-0.05c0.17,0,0.24,0.09,0.21,0.27c-0.02,0.09-0.05,0.15-0.09,0.21c-0.05,0.05-0.08,0.12-0.09,0.21
			c-1.02,2.36-1.88,4.62-2.58,6.77c-0.7,2.15-1.28,4.41-1.75,6.78c-0.98,4.98-1.57,9.74-1.76,14.25c0.59,0.87,1.63,1.43,3.1,1.69
			c0.64,0.11,1.25,0.17,1.84,0.17c0.76,0,1.47-0.09,2.14-0.28c0.89-0.25,1.65-0.59,2.26-1c0,0,0,0,0,0c-0.04,0,0-0.05,0.11-0.15
			c0.07-0.07,0.12-0.1,0.15-0.1c0.02,0,0.02,0.02,0.02,0.05c-0.09,0.07-0.18,0.13-0.27,0.19c0.01,0,0.01,0,0.02,0
			c0.29-0.08,0.64-0.36,1.05-0.84c0.41-0.47,0.64-0.88,0.71-1.22c0.12-0.59-0.07-0.95-0.57-1.1c-0.23-0.06-0.48-0.1-0.76-0.1
			c-0.31,0-0.65,0.04-1.02,0.12c-0.69,0.16-1.41,0.36-2.15,0.61c-0.74,0.25-1.3,0.43-1.67,0.53l-0.23-0.41
			c0.01-0.4-0.03-0.81-0.12-1.22c-0.09-0.41-0.17-0.81-0.23-1.19c-0.17-1.63-0.08-3.49,0.26-5.58c0.34-2.09,0.7-4.11,1.08-6.05
			c0.3-1.52,0.7-3.13,1.21-4.83c0.51-1.7,0.98-3.33,1.43-4.89c0.19-0.61,0.44-1.26,0.75-1.95c0.31-0.68,0.51-1.28,0.61-1.79
			c0.08-0.42-0.04-0.79-0.36-1.09c-0.32-0.31-0.71-0.53-1.17-0.68c-0.46-0.15-0.96-0.22-1.52-0.23c-0.01,0-0.01,0-0.02,0
			c-0.55,0-0.96,0.04-1.25,0.12c-0.44,0.13-0.75,0.29-0.93,0.5c-0.51,0.46-0.97,1.03-1.38,1.71c-0.41,0.68-0.84,1.28-1.29,1.8
			c-2.17,2.93-4.29,5.93-6.34,8.98c-2.06,3.06-4.21,6.06-6.46,9.01l-5.47,7.18c-0.38,0.51-0.74,0.93-1.08,1.26
			c-0.34,0.34-0.71,0.76-1.08,1.26l0.3-0.44l-0.54,0.63c-0.24-0.89-0.29-1.79-0.14-2.71c0.14-0.92,0.13-1.79-0.06-2.61l0.2-1.01
			c0.48-2.45,1.2-5.07,2.17-7.85c0.96-2.79,1.93-5.43,2.91-7.94c0.08-0.42,0.42-1.28,1.02-2.56c0.6-1.29,0.92-2.01,0.95-2.18
			c0.23-1.18-0.18-2.16-1.24-2.94c-1.06-0.77-2.35-1.36-3.87-1.77c-1.52-0.41-3.07-0.64-4.65-0.71
			C439.23,98.73,438.91,98.72,438.6,98.72L438.6,98.72z"/>
	</g>
</g>
<g>
	<g>
		<path class="st0" d="M142.32,295.98c-0.34,0-0.68,0.01-1.02,0.04c-0.62,0.05-1.07,0.13-1.35,0.25c-0.35,0.15-0.98,0.88-1.87,2.2
			c-0.89,1.32-1.83,2.76-2.81,4.33c-0.98,1.57-1.89,3.08-2.72,4.54c-0.84,1.46-1.37,2.37-1.6,2.71c-1.22-0.9-2.49-1.78-3.78-2.61
			c-1.3-0.83-2.68-1.45-4.15-1.83c-1.08-0.29-2.21-0.43-3.39-0.43c-0.42,0-0.86,0.02-1.29,0.06c-1.65,0.14-3.44,0.69-5.36,1.65
			c-0.39-0.25-0.95-0.38-1.67-0.38c-0.35,0-0.75,0.03-1.18,0.09c-1.31,0.19-2.36,0.44-3.14,0.76c-3.18,1.31-6.32,3.62-9.42,6.93
			c-3.1,3.31-5.91,7.02-8.43,11.12c-2.52,4.11-4.6,8.36-6.26,12.78c-1.66,4.41-2.63,8.47-2.93,12.15c-0.21,2.57,0.04,4.75,0.75,6.53
			c0.71,1.78,1.72,3.21,3.03,4.29c1.31,1.08,2.84,1.84,4.58,2.28c1.23,0.31,2.49,0.47,3.77,0.47c0.54,0,1.08-0.03,1.63-0.08
			c0.55-0.06,1.2-0.12,1.96-0.19c0.76-0.06,1.42-0.21,1.98-0.44c0.57-0.23,1.12-0.5,1.65-0.81c0.54-0.3,0.97-0.86,1.31-1.66
			c2.58-1.56,5.12-3.62,7.62-6.19c2.49-2.56,4.9-5.33,7.23-8.33c2.32-2.99,4.54-6.1,6.65-9.33c2.11-3.23,4.06-6.34,5.88-9.32
			c-0.23,1.09-0.42,2.18-0.57,3.28c-0.16,1.1-0.28,2.17-0.36,3.2c-0.08,1.03-0.05,2.07,0.11,3.13c0.15,1.06,0.41,2.05,0.78,2.97
			c0.37,0.93,0.82,1.74,1.34,2.43c0.52,0.7,1.12,1.16,1.78,1.38l-0.09-0.21c0.57,0.51,1.28,0.84,2.12,0.99
			c0.24,0.04,0.48,0.06,0.73,0.06c0.62,0,1.25-0.13,1.91-0.41c0.07-0.03,0.16-0.11,0.28-0.24c0.11-0.13,0.2-0.21,0.28-0.24
			l0.37-0.77c-0.22-0.66-0.42-1.18-0.59-1.56c-0.17-0.38-0.33-0.73-0.48-1.05c-0.15-0.31-0.25-0.5-0.31-0.56l0.16,0.56
			c-0.97-2.34-1.31-5.35-1.01-9.04c0.13-1.63,0.5-3.6,1.09-5.92c0.6-2.32,1.29-4.72,2.07-7.2c0.78-2.48,1.63-4.94,2.54-7.39
			c0.92-2.45,1.74-4.64,2.48-6.56c0.73-1.92,1.36-3.52,1.87-4.81c0.51-1.29,0.78-2.02,0.79-2.19c0.03-0.43-0.16-0.76-0.58-1
			c-0.43-0.24-0.94-0.38-1.55-0.42C142.87,295.99,142.6,295.98,142.32,295.98L142.32,295.98z M119.5,308.01
			c0.05,0,0.09-0.01,0.14-0.03l0.2,0.04l-0.62,0c0.05-0.02,0.1-0.03,0.14-0.03c0.02,0,0.04,0,0.06,0.01
			C119.45,308.01,119.47,308.01,119.5,308.01L119.5,308.01z M114.75,311.36c0.15-0.23,0.33-0.47,0.52-0.71
			c0.19-0.24,0.3-0.5,0.32-0.75c0.15-0.14,0.42-0.32,0.81-0.52c0.39-0.2,0.66-0.33,0.8-0.39l0.12-0.17
			c0.99-0.41,1.92-0.61,2.77-0.61c0.12,0,0.23,0,0.35,0.01c0.95,0.06,1.87,0.27,2.77,0.6c0.89,0.34,1.75,0.75,2.56,1.25
			c0.81,0.49,1.62,0.91,2.41,1.25c0.27,0.06,0.53,0.18,0.79,0.36c0.26,0.19,0.56,0.29,0.9,0.31c-0.39,0.58-0.72,1.15-1.01,1.72
			c-0.29,0.58-0.62,1.15-1.01,1.72c-1.67,2.93-3.69,6.37-6.06,10.33c-2.37,3.96-4.89,7.92-7.57,11.89c-2.68,3.96-5.4,7.7-8.18,11.2
			c-2.78,3.51-5.37,6.25-7.79,8.24c-0.26-0.14-0.47-0.51-0.63-1.11c-0.16-0.6-0.26-1.26-0.3-1.99c-0.04-0.73-0.07-1.44-0.08-2.14
			c-0.01-0.7,0-1.26,0.03-1.69c0.22-2.74,0.85-5.59,1.87-8.54c1.02-2.95,2.25-5.92,3.69-8.92c1.44-3,2.96-5.94,4.56-8.84
			c1.6-2.9,3.09-5.67,4.46-8.31c0.32-0.54,0.76-1.14,1.32-1.79c0.57-0.65,0.93-1.21,1.11-1.7l0.12-0.17l0.47-0.69L114.75,311.36
			L114.75,311.36z M82.13,349.14c-0.17,0-0.24-0.17-0.21-0.51c0.1-1.2,0.3-2.49,0.62-3.86c1.26-5.5,3.15-10.88,5.66-16.14
			c2.51-5.26,5.87-9.92,10.1-13.98c0.3-0.29,0.92-0.83,1.87-1.64c0.95-0.81,1.57-1.27,1.85-1.38c0.16-0.07,0.29-0.1,0.4-0.1
			c0.22,0,0.32,0.15,0.29,0.44c-0.03,0.34-0.35,0.73-0.96,1.14c-0.62,0.42-1.03,0.76-1.26,1.02c-3.97,3.46-7.3,7.51-10,12.14
			c-2.7,4.64-4.74,9.6-6.12,14.9c-0.31,1.29-0.56,2.47-0.75,3.54c-0.19,1.07-0.4,2.24-0.64,3.5c-0.03,0.43-0.26,0.73-0.69,0.91
			C82.23,349.13,82.18,349.14,82.13,349.14L82.13,349.14z"/>
	</g>
	<g>
		<path class="st0" d="M174.42,230.18c-0.58,0-1.08,0.06-1.51,0.18c-0.88,0.25-1.68,1-2.4,2.26c-0.72,1.25-1.22,2.34-1.51,3.25
			l0.23-0.73c-0.44,1.4-1.06,3.01-1.86,4.83c-0.1,0.22-0.4,1.18-0.9,2.88c-0.5,1.7-1.02,3.52-1.57,5.46
			c-0.55,1.94-1.03,3.7-1.45,5.28c-0.42,1.58-0.64,2.41-0.65,2.48c-1.42,4.99-2.64,9.96-3.64,14.93c-1,4.96-1.98,9.87-2.94,14.73
			c1.38-4.79,2.55-9.51,3.49-14.17c0.94-4.66,2.08-9.38,3.4-14.15c0.93-3.32,1.97-6.56,3.11-9.72c1.15-3.16,2.1-6.37,2.85-9.64
			c0.07-0.34,0.22-0.54,0.45-0.61c0.08-0.02,0.15-0.03,0.21-0.03c0.2,0,0.27,0.13,0.22,0.39c-0.7,3.57-1.73,7.16-3.07,10.76
			c-1.34,3.6-2.48,7.18-3.4,10.75c-0.83,3.35-1.59,6.67-2.29,9.96c-0.7,3.29-1.52,6.59-2.45,9.91c-1.83,6.51-3.52,12.97-5.06,19.39
			c-1.54,6.42-2.94,12.87-4.22,19.34c-0.64,3.24-1.16,6.41-1.58,9.52c-0.42,3.11-0.95,6.28-1.58,9.52c-0.04,0.2-0.16,0.38-0.35,0.53
			c-0.12,0.09-0.22,0.14-0.29,0.14c-0.05,0-0.1-0.02-0.14-0.06c-0.34,1.75-0.62,3.52-0.83,5.3c-0.21,1.78-0.23,3.44-0.07,4.98
			c0.17,1.54,0.55,2.91,1.14,4.11c0.54,1.09,1.36,1.9,2.47,2.44c-0.08-0.08-0.16-0.17-0.24-0.25l0.59,0.41
			c-0.12-0.05-0.23-0.1-0.34-0.15c0.16,0.16,0.34,0.32,0.53,0.48c0.24,0.2,0.49,0.32,0.76,0.38c0-0.02,0.03-0.03,0.09-0.05
			l0.07,0.08c-0.05-0.01-0.11-0.01-0.16-0.03c0,0.02,0.02,0.03,0.07,0.05c0.07,0.02,0.13,0.03,0.18,0.03c0.02,0,0.05,0,0.07-0.01
			c0.15,0.08,0.29,0.14,0.43,0.17c0.13,0.02,0.28,0.08,0.43,0.17c0.42,0.13,0.86,0.23,1.32,0.29c0.46,0.06,0.89,0.19,1.3,0.39
			c1.14,0.44,2.26,0.82,3.37,1.14c0.47,0.14,0.98,0.2,1.53,0.2c0.74,0,1.55-0.12,2.43-0.38c1.06-0.3,1.96-0.78,2.7-1.44
			c0.74-0.66,1.36-1.41,1.86-2.25c0.5-0.84,0.9-1.75,1.2-2.73c0.3-0.98,0.55-1.94,0.73-2.88c0.11-0.54,0.23-1.43,0.36-2.68
			c0.13-1.25,0.25-2.52,0.34-3.82c0.09-1.3,0.12-2.5,0.09-3.6c-0.03-1.11-0.16-1.78-0.39-2.04c0-0.32-0.16-0.49-0.51-0.52
			c-0.09-0.01-0.17-0.01-0.26-0.01c-0.25,0-0.49,0.03-0.72,0.1l-0.27,0.08c-0.35,0.1-0.36,0.17-0.04,0.2
			c0.02,0.19,0.01,0.4-0.04,0.63c-0.05,0.24-0.09,0.46-0.13,0.66c-0.52,2.63-1.34,5.14-2.48,7.53c-1.13,2.39-2.55,4.82-4.25,7.27
			c-0.25,0.13-0.46,0.35-0.63,0.66c-0.23-0.83-0.41-1.94-0.55-3.33c-0.14-1.39-0.23-2.86-0.25-4.42c-0.03-1.55,0.01-3.07,0.11-4.57
			c0.1-1.49,0.26-2.78,0.47-3.86c1.11-5.66,2.36-11.29,3.73-16.86c1.37-5.58,2.62-11.23,3.75-16.96c0.8-4.05,1.66-8.01,2.59-11.91
			c0.93-3.89,1.79-7.86,2.59-11.91c0.72-3.64,1.55-7.3,2.49-10.97c0.94-3.67,1.92-7.37,2.93-11.1c0.64-2.41,1.2-4.76,1.68-7.07
			c0.48-2.3,1.01-4.65,1.59-7.04c0.03-0.13,0.06-0.53,0.11-1.18c0.04-0.65,0.1-1.35,0.16-2.1c0.06-0.75,0.13-1.44,0.2-2.06
			c0.07-0.62,0.11-1,0.14-1.14c0.18-0.62,0.36-1.25,0.53-1.87c0.18-0.62,0.33-1.24,0.45-1.85c0.04-0.2,0.01-0.42-0.08-0.65
			c-0.09-0.23-0.19-0.39-0.28-0.49l-0.09,0.03c-0.23-0.25-0.66-0.43-1.31-0.54c-0.3-0.05-0.58-0.07-0.83-0.07
			c-0.28,0-0.54,0.03-0.75,0.09c-0.46-0.19-1.2-0.33-2.2-0.42C175.05,230.19,174.72,230.18,174.42,230.18L174.42,230.18z"/>
	</g>
	<g>
		<path class="st0" d="M195.42,225.68c-0.58,0-1.08,0.06-1.51,0.18c-0.88,0.25-1.68,1-2.4,2.26c-0.72,1.25-1.22,2.34-1.51,3.25
			l0.23-0.73c-0.44,1.4-1.06,3.01-1.86,4.83c-0.1,0.22-0.4,1.18-0.9,2.88c-0.5,1.7-1.03,3.52-1.57,5.46
			c-0.55,1.94-1.03,3.7-1.45,5.28c-0.42,1.58-0.64,2.41-0.65,2.48c-1.42,4.99-2.64,9.96-3.64,14.93c-1,4.96-1.98,9.87-2.94,14.73
			c1.38-4.79,2.55-9.51,3.49-14.17c0.94-4.66,2.08-9.38,3.4-14.15c0.93-3.32,1.97-6.56,3.11-9.72c1.15-3.16,2.1-6.37,2.85-9.64
			c0.07-0.34,0.22-0.54,0.45-0.61c0.08-0.02,0.15-0.03,0.21-0.03c0.2,0,0.27,0.13,0.22,0.39c-0.7,3.57-1.73,7.16-3.07,10.76
			c-1.34,3.6-2.48,7.18-3.4,10.75c-0.83,3.35-1.59,6.68-2.29,9.96c-0.7,3.29-1.52,6.59-2.45,9.91c-1.83,6.51-3.52,12.97-5.06,19.39
			c-1.54,6.42-2.94,12.87-4.22,19.34c-0.64,3.24-1.16,6.41-1.58,9.52c-0.42,3.11-0.95,6.28-1.58,9.52c-0.04,0.2-0.16,0.38-0.35,0.53
			c-0.12,0.09-0.22,0.14-0.29,0.14c-0.05,0-0.1-0.02-0.13-0.06c-0.34,1.75-0.62,3.52-0.83,5.3c-0.21,1.78-0.23,3.44-0.07,4.98
			c0.17,1.54,0.55,2.91,1.14,4.11c0.54,1.09,1.36,1.9,2.47,2.44c-0.08-0.08-0.16-0.17-0.24-0.25l0.59,0.41
			c-0.12-0.05-0.23-0.1-0.34-0.15c0.16,0.16,0.34,0.32,0.53,0.48c0.24,0.2,0.49,0.32,0.76,0.38c0-0.02,0.03-0.03,0.09-0.05
			l0.07,0.08c-0.05-0.01-0.11-0.01-0.16-0.03c0,0.02,0.02,0.03,0.07,0.05c0.07,0.02,0.13,0.03,0.18,0.03c0.02,0,0.05,0,0.06-0.01
			c0.15,0.08,0.29,0.14,0.43,0.16c0.13,0.03,0.28,0.08,0.43,0.17c0.42,0.13,0.86,0.23,1.32,0.29c0.46,0.06,0.89,0.19,1.3,0.39
			c1.14,0.44,2.26,0.82,3.37,1.14c0.47,0.14,0.98,0.2,1.53,0.2c0.74,0,1.55-0.12,2.43-0.38c1.06-0.3,1.96-0.78,2.7-1.44
			c0.74-0.66,1.36-1.41,1.86-2.25c0.5-0.84,0.9-1.75,1.2-2.73c0.3-0.98,0.55-1.94,0.73-2.88c0.11-0.54,0.23-1.43,0.36-2.68
			c0.13-1.25,0.25-2.52,0.34-3.82c0.09-1.3,0.12-2.5,0.09-3.6c-0.03-1.11-0.16-1.78-0.39-2.04c0-0.32-0.16-0.49-0.51-0.52
			c-0.09-0.01-0.17-0.01-0.26-0.01c-0.25,0-0.49,0.03-0.72,0.1l-0.27,0.08c-0.35,0.1-0.36,0.17-0.04,0.2
			c0.02,0.19,0.01,0.4-0.04,0.63c-0.05,0.24-0.09,0.46-0.13,0.66c-0.52,2.63-1.34,5.14-2.48,7.53c-1.13,2.39-2.55,4.82-4.25,7.27
			c-0.25,0.13-0.46,0.35-0.63,0.66c-0.23-0.83-0.41-1.94-0.55-3.33c-0.14-1.39-0.23-2.86-0.25-4.42c-0.03-1.55,0.01-3.07,0.11-4.57
			c0.1-1.49,0.26-2.78,0.47-3.86c1.11-5.66,2.36-11.29,3.73-16.86c1.37-5.58,2.62-11.23,3.75-16.96c0.8-4.05,1.66-8.01,2.59-11.91
			c0.93-3.89,1.79-7.86,2.59-11.91c0.72-3.64,1.55-7.3,2.49-10.97c0.94-3.67,1.92-7.37,2.93-11.1c0.64-2.41,1.2-4.76,1.68-7.07
			c0.48-2.3,1.01-4.65,1.59-7.04c0.03-0.13,0.06-0.53,0.11-1.18c0.04-0.65,0.1-1.35,0.16-2.1c0.06-0.75,0.13-1.44,0.2-2.06
			c0.07-0.62,0.11-1,0.14-1.14c0.18-0.62,0.36-1.25,0.53-1.87c0.18-0.62,0.33-1.24,0.45-1.85c0.04-0.2,0.01-0.42-0.08-0.65
			c-0.09-0.23-0.19-0.39-0.28-0.49l-0.09,0.03c-0.23-0.25-0.66-0.43-1.31-0.54c-0.3-0.05-0.58-0.07-0.83-0.07
			c-0.29,0-0.54,0.03-0.76,0.09c-0.46-0.19-1.2-0.33-2.2-0.42C196.04,225.7,195.72,225.68,195.42,225.68L195.42,225.68z"/>
	</g>
</g>
<g>
	<g>
		<path class="st0" d="M256.97,274.67c-0.14,0-0.26,0.01-0.36,0.04c-0.29,0.08-0.71,0.44-1.25,1.07l-0.09-0.1
			c-0.73-0.19-1.4-0.3-2.02-0.32c-0.05,0-0.1,0-0.16,0c-0.59,0-1.29,0.11-2.1,0.34c-0.81,0.23-1.57,0.57-2.28,1.01l-0.13,0.16
			l-0.96,0.63c-0.44,0.13-1.07,0.68-1.89,1.67c-0.82,0.99-1.38,1.73-1.68,2.21c-1.81,2.83-3.38,5.83-4.74,9
			c-1.35,3.18-2.52,6.38-3.5,9.61c-0.98,3.23-1.84,6.42-2.56,9.58c-0.72,3.16-1.36,6.13-1.91,8.92c-0.48,2.45-1.03,4.88-1.64,7.28
			c-0.61,2.41-1.15,4.79-1.62,7.16c-0.25,1.27-0.49,2.67-0.72,4.21c-0.24,1.54-0.43,3.07-0.59,4.59c-0.16,1.52-0.22,2.95-0.17,4.29
			c0.05,1.34,0.22,2.49,0.52,3.44c-0.17,0.84,0.01,1.37,0.52,1.59c0.51,0.21,0.9,0.52,1.17,0.92c-0.04,0.57,0.18,1,0.68,1.3
			c0.5,0.3,1.08,0.51,1.75,0.64c0.67,0.13,1.35,0.19,2.04,0.2c0.01,0,0.01,0,0.02,0c0.68,0,1.25-0.06,1.69-0.19
			c0.44-0.13,0.81-0.43,1.12-0.92c1.24-2.43,2.37-4.92,3.4-7.48c1.02-2.56,2.05-5.07,3.09-7.52c1.39-3.19,2.75-6.24,4.09-9.18
			c1.34-2.93,2.75-5.81,4.24-8.62c1.49-2.82,3.1-5.62,4.83-8.43c1.73-2.8,3.65-5.7,5.77-8.7c-0.14,1.4-0.35,2.85-0.65,4.37
			s-0.59,3-0.87,4.43c0.45-1.56,0.82-3.12,1.13-4.69c0.31-1.56,0.68-3.12,1.13-4.69c0.08-0.42,0.31-0.69,0.68-0.79
			c0.04-0.01,0.07-0.02,0.11-0.02c0.22,0,0.33,0.24,0.33,0.73c-0.01,0.56,0,0.96,0.03,1.19l-0.56,0.76
			c-0.69,3.15-1.58,6.45-2.68,9.91c-1.1,3.46-1.93,6.63-2.49,9.5c-0.1,0.51-0.19,1.03-0.26,1.57c-0.07,0.54-0.17,1.11-0.28,1.69
			c-0.22,1.1,0.03,1.99,0.73,2.66c0.7,0.68,1.58,1.21,2.66,1.58c1.07,0.37,2.19,0.59,3.36,0.66c0.26,0.01,0.51,0.02,0.76,0.02
			c0.84,0,1.58-0.09,2.2-0.27c1.1-0.31,1.92-0.71,2.47-1.18c0.54-0.47,0.93-1.04,1.17-1.71c0.23-0.66,0.4-1.43,0.5-2.3
			c0.1-0.87,0.26-1.85,0.47-2.95c1.73-2.8,3.39-5.67,4.97-8.59c1.58-2.92,3.26-5.75,5.05-8.49c-0.09,1.86-0.19,3.68-0.29,5.47
			c-0.11,1.79-0.17,3.6-0.18,5.43l0.07-0.38c0.2-1.01,0.34-2.01,0.43-2.99c0.09-0.98,0.24-2.02,0.46-3.12
			c0.07-0.34,0.18-0.93,0.35-1.77c0.17-0.84,0.37-1.72,0.62-2.63c0.25-0.91,0.51-1.74,0.8-2.5c0.29-0.76,0.58-1.18,0.87-1.27
			l0.09,0.1c0.02,0,0.03-0.01,0.04-0.01c0.05,0,0.08,0.03,0.1,0.09c0.01,0.03,0.02,0.05,0.04,0.05c0.03,0,0.07-0.03,0.12-0.09
			l-0.07,0.38c-0.23,1.18-0.54,2.39-0.92,3.61c-0.38,1.23-0.69,2.43-0.92,3.61c-0.08,0.42-0.23,1.26-0.44,2.52
			c-0.21,1.26-0.4,2.56-0.56,3.93c-0.16,1.36-0.3,2.6-0.42,3.71c-0.11,1.11-0.12,1.77-0.03,1.98c0.22,0.66,0.68,1.14,1.38,1.46
			c0.7,0.32,1.3,0.61,1.81,0.86c0.69,0.36,1.42,0.63,2.18,0.81c0.31,0.07,0.63,0.11,0.96,0.11c0.5,0,1.04-0.08,1.61-0.24
			c1.03-0.29,1.93-0.67,2.72-1.13c0.78-0.46,1.32-1.41,1.6-2.85c0.38-1.94,0.58-3.85,0.61-5.73c0.02-1.88-0.09-3.7-0.33-5.47
			c-0.24-1.76-0.59-3.46-1.03-5.09c-0.44-1.63-0.95-3.12-1.51-4.47c-0.51-1.29-1.42-2.25-2.71-2.88c-0.76-0.37-1.57-0.55-2.42-0.55
			c-0.59,0-1.21,0.09-1.84,0.27c-1.18,0.33-2.31,0.98-3.4,1.92c-1.09,0.95-2.13,2.02-3.13,3.22c-1,1.2-1.95,2.49-2.84,3.86
			c-0.89,1.37-1.7,2.64-2.41,3.8c0.43-2.91,0.55-5.64,0.36-8.18c-0.2-2.53-0.96-4.65-2.29-6.34l0.32,0.51
			c-0.12-0.13-0.24-0.29-0.37-0.49c-0.13-0.2-0.27-0.32-0.4-0.37l-0.34-0.38c-0.42-0.36-1.12-0.76-2.11-1.19
			c-0.69-0.3-1.3-0.46-1.83-0.46c-0.23,0-0.44,0.03-0.64,0.08c-1.32,0.38-2.91,1.57-4.76,3.57c-1.85,2-3.7,4.24-5.54,6.72
			c-1.84,2.48-3.54,4.93-5.09,7.37c-1.56,2.44-2.7,4.28-3.43,5.52c1.58-5.24,3.09-10.35,4.53-15.34c1.43-4.99,2.83-10.07,4.19-15.25
			l0.86-3.34c-0.08,0.28-0.16,0.54-0.25,0.77l0.28-0.92l-0.04,0.14c0.07-0.25,0.14-0.51,0.22-0.79c0.15-0.6,0.28-1.16,0.38-1.66
			c0.08-0.42,0.08-0.84-0.01-1.25c-0.09-0.41-0.06-0.84,0.1-1.28c0.29-0.08,0.46-0.21,0.49-0.38c0.03-0.17,0.07-0.34,0.1-0.51
			c0.05-0.25,0.14-0.54,0.27-0.85c0.13-0.32,0.22-0.6,0.27-0.85c0.07-0.34-0.12-0.54-0.55-0.62
			C257.35,274.69,257.15,274.67,256.97,274.67L256.97,274.67z M248.7,276.84l-0.36,0.22l0.25-0.19L248.7,276.84L248.7,276.84z
			 M229.88,342.09c-0.19,0-0.28-0.13-0.29-0.38c-0.19-1.14-0.28-2.49-0.24-4.06c0.03-1.56,0.14-3.21,0.35-4.94
			c0.2-1.73,0.43-3.43,0.69-5.1c0.26-1.67,0.53-3.22,0.81-4.66c0.5-2.53,1.21-5.52,2.13-8.98c0.92-3.45,1.97-7.02,3.14-10.7
			c1.17-3.68,2.43-7.25,3.77-10.7c1.34-3.45,2.67-6.44,4-8.97c0.23-0.46,0.53-1.05,0.92-1.76c0.38-0.71,0.83-1.13,1.34-1.28
			c0.07-0.02,0.14-0.03,0.19-0.03c0.22,0,0.3,0.17,0.23,0.51l-0.29,0.44c-0.76,0.7-1.44,1.77-2.04,3.21
			c-0.6,1.45-1.09,2.62-1.47,3.53c-2.36,6.01-4.49,11.88-6.37,17.6c-1.89,5.72-3.4,11.49-4.55,17.32c-0.63,3.21-1.02,6.25-1.17,9.12
			c-0.15,2.87-0.28,5.84-0.4,8.9l-0.07,0.38c-0.05,0.25-0.22,0.42-0.52,0.51C229.99,342.08,229.93,342.09,229.88,342.09
			L229.88,342.09z"/>
	</g>
	<g>
		<path class="st0" d="M370.81,257.57c-0.44,0-0.77,0.03-1,0.1c-0.37,0.1-1.07,0.76-2.11,1.97c-1.04,1.21-2.13,2.54-3.28,3.98
			c-1.15,1.45-2.22,2.85-3.22,4.2c-1,1.36-1.63,2.2-1.9,2.51c-1.11-1.04-2.27-2.05-3.46-3.02c-1.2-0.98-2.5-1.74-3.92-2.29
			c-1.42-0.55-2.95-0.85-4.61-0.9c-0.1,0-0.2,0-0.3,0c-1.58,0-3.31,0.34-5.21,1.03c-0.5-0.41-1.33-0.61-2.5-0.61c-0.1,0-0.2,0-0.3,0
			c-1.33,0.04-2.39,0.17-3.2,0.4c-3.31,0.94-6.69,2.88-10.15,5.82c-3.46,2.94-6.67,6.3-9.63,10.1c-2.97,3.79-5.52,7.79-7.66,11.99
			c-2.14,4.2-3.57,8.11-4.29,11.74c-0.5,2.53-0.5,4.73,0.01,6.58c0.5,1.85,1.35,3.38,2.53,4.6c1.18,1.22,2.61,2.15,4.29,2.79
			c1.68,0.64,3.45,0.97,5.32,1c0.55,0,1.21,0.01,1.97,0.04c0.09,0,0.19,0,0.28,0c0.65,0,1.23-0.07,1.74-0.22
			c0.59-0.17,1.17-0.37,1.73-0.61c0.57-0.24,1.07-0.74,1.49-1.5c2.75-1.26,5.5-3.02,8.27-5.28c2.77-2.26,5.48-4.75,8.13-7.45
			c2.65-2.71,5.2-5.55,7.66-8.52c2.46-2.97,4.75-5.84,6.89-8.6c-0.35,1.06-0.66,2.12-0.94,3.2c-0.28,1.08-0.52,2.12-0.72,3.13
			c-0.2,1.01-0.28,2.05-0.25,3.12c0.03,1.07,0.18,2.08,0.44,3.04c0.26,0.96,0.61,1.82,1.06,2.57c0.44,0.75,0.98,1.28,1.62,1.57
			l-0.06-0.22c0.51,0.57,1.18,0.98,2,1.23c0.39,0.12,0.79,0.17,1.21,0.17c0.46,0,0.95-0.07,1.45-0.21c0.07-0.02,0.17-0.09,0.3-0.21
			c0.13-0.11,0.23-0.18,0.3-0.21l0.46-0.73c-0.15-0.68-0.28-1.21-0.41-1.62c-0.13-0.4-0.25-0.77-0.36-1.09
			c-0.11-0.33-0.19-0.52-0.25-0.59l0.1,0.57c-0.7-2.43-0.7-5.46,0.02-9.09c0.32-1.6,0.9-3.53,1.76-5.76
			c0.86-2.24,1.81-4.54,2.87-6.92c1.06-2.37,2.18-4.72,3.36-7.06c1.19-2.33,2.25-4.41,3.2-6.23c0.95-1.82,1.75-3.35,2.41-4.57
			c0.66-1.22,1-1.92,1.04-2.09c0.08-0.42-0.07-0.77-0.47-1.06c-0.4-0.29-0.89-0.48-1.5-0.59c-0.6-0.11-1.21-0.17-1.83-0.2
			C371.05,257.57,370.92,257.57,370.81,257.57L370.81,257.57z M348.49,267.08l-0.61-0.06c0.04-0.01,0.07-0.02,0.11-0.02
			c0.03,0,0.07,0.01,0.1,0.02c0.03,0.01,0.06,0.02,0.1,0.02c0.03,0,0.07-0.01,0.11-0.02L348.49,267.08L348.49,267.08z
			 M343.06,269.82c0.18-0.21,0.38-0.43,0.6-0.65c0.22-0.22,0.35-0.46,0.4-0.71c0.16-0.13,0.45-0.27,0.86-0.43
			c0.41-0.16,0.69-0.26,0.84-0.3l0.14-0.16c0.78-0.22,1.5-0.33,2.17-0.33c0.35,0,0.68,0.03,1,0.09c0.94,0.17,1.83,0.48,2.68,0.91
			c0.85,0.44,1.65,0.95,2.4,1.53c0.75,0.58,1.5,1.09,2.25,1.51c0.26,0.09,0.51,0.24,0.74,0.45c0.23,0.21,0.52,0.35,0.86,0.41
			c-0.45,0.53-0.85,1.06-1.2,1.6c-0.35,0.54-0.75,1.07-1.2,1.6c-1.99,2.72-4.39,5.91-7.19,9.58c-2.8,3.67-5.76,7.32-8.87,10.95
			c-3.11,3.63-6.24,7.04-9.4,10.21c-3.16,3.17-6.05,5.61-8.67,7.31c-0.24-0.17-0.41-0.56-0.5-1.17c-0.09-0.61-0.11-1.28-0.07-2.01
			c0.04-0.73,0.09-1.44,0.16-2.14c0.07-0.7,0.14-1.25,0.23-1.68c0.53-2.7,1.47-5.46,2.82-8.28c1.35-2.82,2.91-5.63,4.68-8.45
			c1.77-2.81,3.61-5.57,5.53-8.27c1.92-2.7,3.71-5.28,5.37-7.75c0.38-0.5,0.88-1.05,1.52-1.63c0.63-0.58,1.06-1.1,1.3-1.56
			l0.14-0.16l0.54-0.63L343.06,269.82L343.06,269.82z M306.41,303.67c-0.19,0-0.25-0.18-0.19-0.53c0.23-1.18,0.58-2.44,1.05-3.77
			c1.88-5.32,4.36-10.45,7.45-15.39c3.09-4.95,6.96-9.2,11.61-12.75c0.33-0.25,1.01-0.73,2.05-1.42c1.04-0.69,1.7-1.08,2-1.17
			c0.13-0.04,0.24-0.06,0.34-0.06c0.27,0,0.37,0.16,0.31,0.47c-0.07,0.34-0.43,0.68-1.09,1.03c-0.66,0.35-1.11,0.64-1.37,0.87
			c-4.33,2.99-8.1,6.63-11.31,10.93c-3.2,4.3-5.79,9-7.77,14.11c-0.45,1.25-0.83,2.39-1.14,3.44c-0.31,1.04-0.65,2.18-1.03,3.4
			c-0.08,0.42-0.34,0.7-0.79,0.82C306.49,303.66,306.45,303.67,306.41,303.67L306.41,303.67z"/>
	</g>
	<g>
		<path class="st0" d="M415.07,167.89c-0.64,0-1.29,0.09-1.94,0.28c-0.66,0.19-1.19,0.58-1.58,1.17l-0.15,0.76
			c-0.62,0.34-1.12,1.04-1.51,2.1c-0.38,1.07-0.81,1.9-1.27,2.52c-0.17,0.53-0.34,1.01-0.49,1.46c-0.16,0.44-0.31,0.85-0.44,1.2
			c-0.71,1.48-1.26,3.05-1.66,4.72c-0.4,1.67-0.85,3.25-1.35,4.75c-0.88,2.72-1.75,5.44-2.59,8.15c-0.85,2.71-1.78,5.41-2.79,8.09
			c-0.45,1.25-0.84,2.49-1.15,3.74c-0.31,1.25-0.66,2.48-1.04,3.7c-1.25,4.26-2.36,8.47-3.31,12.6c-0.95,4.14-1.95,8.31-2.98,12.51
			c-1.07,4.37-2.17,8.73-3.3,13.08c-1.13,4.35-2.12,8.68-2.97,12.98c2.71-10.98,5.79-22.04,9.23-33.18
			c3.44-11.14,6.55-22.21,9.34-33.21c0.37-1.54,0.82-3.3,1.35-5.29c0.53-1.98,1.1-4,1.71-6.05c0.61-2.05,1.28-4.05,2.01-6.02
			c0.73-1.96,1.5-3.73,2.29-5.32c0.12-0.27,0.3-0.44,0.52-0.51c0.12-0.03,0.22-0.05,0.3-0.05c0.22,0,0.31,0.12,0.26,0.37l-0.42,1.08
			l-0.21,0.54c-0.23,0.47-0.43,0.96-0.6,1.49c-0.17,0.53-0.38,1.02-0.6,1.49c-1.19,2.89-2.21,5.75-3.04,8.58
			c-0.83,2.83-1.62,5.66-2.35,8.5c-0.73,2.84-1.43,5.69-2.1,8.55c-0.67,2.86-1.42,5.73-2.26,8.6c-1.78,6.25-3.69,12.49-5.71,18.73
			c-2.02,6.24-3.83,12.49-5.4,18.76l-6.33,24.76c-0.08,0.42-0.31,0.69-0.68,0.79l-0.11,0.03c0,0,0,0,0,0
			c-0.28,0-0.38-0.17-0.31-0.51l2.68-10.45c-1.28,4.03-2.44,8.01-3.49,11.94c-1.05,3.93-1.97,7.92-2.77,11.97
			c-0.18,0.93-0.41,2.25-0.67,3.96c-0.27,1.71-0.48,3.43-0.65,5.15c-0.17,1.72-0.24,3.31-0.21,4.78c0.02,1.47,0.26,2.46,0.72,2.97
			c0.46,0.51,1.27,0.87,2.44,1.1c0.55,0.11,1.08,0.16,1.57,0.16c0.54,0,1.05-0.07,1.51-0.2c0.29-0.08,0.59-0.19,0.89-0.31
			c0.3-0.13,0.55-0.34,0.75-0.63c0.12-0.59,0.21-1.16,0.28-1.69c0.07-0.54,0.16-1.1,0.28-1.69c0.07-0.34,0.11-0.63,0.12-0.87
			c0.01-0.24,0.04-0.49,0.09-0.74c0.87-0.57,1.5-1.34,1.86-2.32c0.37-0.98,0.87-1.88,1.52-2.7c1.74-3.92,3.17-7.82,4.27-11.68
			c1.11-3.86,2.14-7.73,3.11-11.59c0.25,2.24,0.84,4.27,1.77,6.07c0.93,1.81,2.12,3.32,3.58,4.54c1.46,1.22,3.17,2.03,5.14,2.42
			c0.73,0.15,1.49,0.22,2.28,0.22c1.33,0,2.73-0.21,4.2-0.63c1.98-0.56,3.79-1.47,5.42-2.7l1.11-6.69l-0.36,0.22
			c-0.27,0.32-0.72,0.74-1.34,1.28c-0.63,0.54-1.3,1.07-2.03,1.59c-0.73,0.52-1.43,1.02-2.12,1.5c-0.68,0.47-1.18,0.79-1.49,0.96
			l0.22-0.06c-0.07,0.02-0.16,0.08-0.25,0.19l-0.33,0.09c-0.4,0.27-0.86,0.5-1.38,0.69c-0.52,0.19-0.97,0.34-1.34,0.44l-0.44,0.13
			l-0.2-0.06l-0.55,0.16l-0.09-0.1c-0.04,0.01-0.07,0.02-0.11,0.02c-0.04,0-0.07-0.01-0.1-0.02c-0.03-0.01-0.07-0.02-0.1-0.02
			c-0.04,0-0.07,0.01-0.11,0.02c-0.13-0.04-0.23-0.1-0.28-0.16c-0.03-0.04-0.08-0.06-0.15-0.06c-0.04,0-0.1,0.01-0.15,0.03
			l-0.17-0.19l-0.45-0.35c-0.48-0.02-0.87-0.27-1.15-0.75c-0.29-0.48-0.62-0.82-0.99-1.03l-0.21-0.54c-0.17-0.19-0.4-0.52-0.69-1
			c-0.29-0.48-0.59-0.97-0.91-1.48c-0.32-0.51-0.57-1-0.75-1.46c-0.19-0.47-0.25-0.83-0.2-1.08l-0.09-0.09
			c-0.27-1.44-0.51-2.71-0.71-3.81c-0.2-1.1-0.35-2.2-0.45-3.28c-0.1-1.09-0.11-2.28-0.02-3.59c0.08-1.3,0.31-2.92,0.7-4.87
			c0.23-1.18,0.56-2.39,0.97-3.63c0.42-1.24,0.73-2.4,0.95-3.5c0.07-0.34,0.01-0.56-0.18-0.67c-0.19-0.11-0.38-0.17-0.59-0.19
			l0.05-0.25c0.84-1.12,2.07-2.78,3.69-5c1.61-2.22,3.27-4.54,4.96-6.98c1.69-2.44,3.26-4.76,4.7-6.96
			c1.44-2.21,2.44-3.87,3.01-4.99l0.14-0.16l0.05-0.26c-0.11-0.53-0.43-0.81-0.98-0.86c-0.12-0.01-0.25-0.01-0.37-0.01
			c-0.42,0-0.82,0.06-1.22,0.17c-0.44,0.13-1.18,0.88-2.21,2.25c-1.03,1.37-2.14,2.92-3.31,4.65c-1.17,1.73-2.33,3.46-3.46,5.17
			c-1.11,1.68-1.95,2.92-2.52,3.72c-0.01,0.02-0.03,0.04-0.04,0.06c0.01-0.02,0.03-0.04,0.04-0.06c0.07-0.12,0.14-0.32,0.19-0.61
			c0.54-2.07,1.14-4.13,1.79-6.19c0.65-2.06,1.31-4.1,1.99-6.13c1.48-4.73,3.01-9.34,4.59-13.82c1.57-4.48,3.18-9.11,4.81-13.88
			c1.3-3.8,2.27-7.31,2.9-10.52l-0.02,0.13c0.36-1.46,0.69-2.89,1-4.3c0.26-1.16,0.5-2.33,0.74-3.51c0.14-0.77,0.25-1.58,0.32-2.42
			c0.08-0.94,0.09-1.8,0.04-2.59l-0.09-0.1c-0.09-1.33-0.29-2.41-0.61-3.24c-0.32-0.83-0.83-1.62-1.51-2.39
			c-0.13-0.04-0.29-0.22-0.47-0.52c-0.18-0.31-0.44-0.49-0.78-0.56l0.02-0.13c-0.72-0.59-1.61-1-2.68-1.21
			C415.95,167.93,415.51,167.89,415.07,167.89L415.07,167.89z M422.27,180.41c-0.05,0.25-0.1,0.5-0.15,0.75
			c-0.02,0.09-0.03,0.17-0.05,0.26L422.27,180.41L422.27,180.41z M423.52,271.06c-0.16,0-0.31,0.02-0.45,0.06
			c-0.44,0.13-0.87,0.39-1.3,0.79c-0.43,0.4-0.84,0.74-1.24,1.01c-0.23,1.18-0.45,2.36-0.64,3.53c-0.2,1.17-0.37,2.34-0.53,3.5
			c0.92-0.82,2.05-2.04,3.37-3.65c1.32-1.61,2.1-3.01,2.33-4.19c0.08-0.42-0.14-0.72-0.66-0.89
			C424.08,271.11,423.78,271.06,423.52,271.06L423.52,271.06z"/>
	</g>
	<g>
		<path class="st0" d="M455.14,212.62c-0.57,0-1.18,0.08-1.83,0.24c-0.04-0.04-0.12-0.07-0.23-0.07c-0.2,0-0.52,0.07-0.95,0.22
			c-0.67,0.23-1.1,0.45-1.28,0.66l-0.11,0.03l0.02-0.13c-0.81,0.23-1.55,0.4-2.24,0.52c-0.68,0.12-1.43,0.29-2.23,0.52
			c-1.03,0.29-2.03,0.72-3.01,1.27c-0.98,0.56-1.99,1.23-3.05,2l0.49-0.38c-2.82,2-5.37,4.74-7.65,8.22
			c-2.28,3.48-4.29,7.16-6.02,11.04c-1.74,3.88-3.19,7.74-4.36,11.59c-1.17,3.84-2.03,7.15-2.58,9.94
			c-0.51,2.62-0.93,5.49-1.25,8.61c-0.32,3.12-0.3,5.79,0.07,7.99c0.07-1.77,0.23-3.57,0.49-5.4c0.25-1.83,0.56-3.67,0.93-5.53
			c0.6-3.04,1.47-6.5,2.61-10.37c1.14-3.87,2.52-7.81,4.15-11.82c1.62-4.01,3.46-7.88,5.51-11.61c2.05-3.73,4.32-6.99,6.81-9.77
			c0.18-0.21,0.31-0.33,0.38-0.35c0.07-0.02,0.14-0.03,0.19-0.03c0.22,0,0.3,0.17,0.23,0.51c-0.05,0.25-0.12,0.44-0.21,0.54
			c-0.3,0.49-0.76,1.07-1.39,1.77c-0.62,0.7-1.16,1.31-1.61,1.83c-2.37,3.23-4.31,6.57-5.82,10.03c-2.24,5.02-4.19,10-5.85,14.94
			c-1.67,4.94-2.98,9.86-3.94,14.75c-1.11,5.66-1.6,10.98-1.47,15.97c0.44,0.59,0.81,1.26,1.11,2.02c0.28,0.68,0.61,1.3,1,1.86
			l0.23,0.13c0.47,2.18,1.56,3.88,3.25,5.11c1.09,0.79,2.33,1.19,3.71,1.19c0.77,0,1.59-0.12,2.45-0.37
			c1.9-0.54,3.48-1.47,4.74-2.78c1.26-1.32,2.62-2.9,4.09-4.75l1.72-1.92c0.79-0.86,1.52-1.87,2.2-3.02
			c0.67-1.15,1.29-2.34,1.84-3.57c0.55-1.23,1.03-2.45,1.44-3.64s0.71-2.29,0.91-3.31c0.25-1.27,0.42-2.65,0.5-4.15
			c0.09-1.5,0-2.89-0.27-4.17c-0.27-1.28-0.77-2.27-1.49-2.98c-0.47-0.45-1.07-0.68-1.81-0.68c-0.41,0-0.87,0.07-1.37,0.21
			l-0.33,0.09c-0.15,0.04-0.24,0.15-0.27,0.32c-0.07,0.34-0.03,0.87,0.1,1.58c0.14,0.72,0.28,1.58,0.43,2.57
			c0.15,0.99,0.24,2.12,0.27,3.39c0.03,1.27-0.11,2.66-0.41,4.18c-0.28,1.44-0.72,2.98-1.32,4.62c-0.6,1.64-1.37,3.28-2.3,4.9
			c-0.94,1.62-2.01,3.12-3.2,4.5c-1.2,1.38-2.49,2.42-3.86,3.13l-0.09-0.09c-0.01-1.35-0.08-2.67-0.2-3.95
			c-0.13-1.28-0.19-2.6-0.2-3.95c0-2.79,0.16-5.63,0.49-8.51c0.33-2.88,0.79-5.85,1.39-8.89c0.18-0.93,0.37-1.82,0.58-2.68
			c0.2-0.85,0.43-1.76,0.69-2.71c0.11-0.03,0.21-0.05,0.3-0.05c0.02,0,0.05,0,0.07,0c0.02,0,0.04,0,0.07,0
			c0.09,0,0.19-0.02,0.3-0.05c1.24-0.35,2.63-1.31,4.18-2.86c1.55-1.56,3.13-3.46,4.74-5.72c1.61-2.25,3.18-4.69,4.7-7.32
			c1.51-2.62,2.88-5.18,4.09-7.68c1.22-2.5,2.26-4.83,3.13-6.99c0.87-2.16,1.44-3.88,1.68-5.14c0.45-2.28,0.05-3.86-1.2-4.74
			C457.2,212.91,456.24,212.62,455.14,212.62L455.14,212.62z M454.36,217.58l-0.07,0.38c-0.33,1.69-0.99,3.73-1.98,6.12
			c-0.99,2.39-2.12,4.85-3.41,7.37c-1.29,2.52-2.61,4.97-3.97,7.35c-1.36,2.38-2.58,4.36-3.64,5.94c-0.29,0.4-0.59,0.83-0.92,1.28
			c-0.33,0.45-0.61,0.91-0.84,1.37c-0.38,0.51-0.77,0.96-1.2,1.36c-0.42,0.4-0.85,0.82-1.28,1.26c1.54-5.38,3.44-10.25,5.7-14.6
			c2.26-4.35,5.11-9.01,8.56-13.97l-0.56,0.76c0.57-0.8,1.17-1.57,1.81-2.31C453.18,219.15,453.78,218.38,454.36,217.58
			L454.36,217.58z M422.01,284.19l0.17,0.19c-0.04-0.05-0.08-0.11-0.12-0.16L422.01,284.19L422.01,284.19z"/>
	</g>
</g>
<g>
	<g>
		<path class="st0" d="M483.25,257.36c-0.41,0-0.86,0.07-1.35,0.21c-1.47,0.42-2.73,1.2-3.79,2.33c-1.06,1.14-1.97,2.44-2.74,3.89
			c-0.77,1.46-1.4,2.97-1.88,4.54c-0.48,1.57-0.86,3.04-1.12,4.39c-0.25,1.27-0.03,2.34,0.67,3.22c0.69,0.88,1.62,1.57,2.77,2.08
			c1.15,0.51,2.37,0.82,3.67,0.93c0.37,0.03,0.73,0.05,1.08,0.05c0.85,0,1.62-0.1,2.3-0.29c0.73-0.21,1.46-0.53,2.17-0.98l0.27-0.32
			c-0.09,0.44-0.03,0.65,0.18,0.65c0.03,0,0.07-0.01,0.11-0.02c0.22-0.06,0.54-0.29,0.97-0.69c0.42-0.4,0.67-0.77,0.74-1.11
			c0.25-0.55,0.39-0.91,0.42-1.08c0.28-1.44,0.45-2.82,0.5-4.15c0.04-1.06,0.2-2.16,0.48-3.31c-0.02,0.06-0.05,0.1-0.07,0.15
			c0.65-2.26,0.84-4.34,0.55-6.26c-0.25-1.69-1.03-2.83-2.34-3.41c0.05,0.03,0.09,0.06,0.13,0.09c-0.13-0.04-0.24-0.09-0.34-0.14
			c-0.09-0.05-0.21-0.1-0.34-0.14c0.19,0.06,0.37,0.12,0.54,0.2c-0.46-0.29-0.99-0.52-1.59-0.68c-0.38-0.1-0.77-0.15-1.18-0.15
			c-0.13,0-0.27,0.01-0.41,0.02c0.12,0.01,0.24,0.04,0.35,0.06l-0.83,0c0.16-0.03,0.32-0.05,0.49-0.06
			C483.53,257.36,483.39,257.36,483.25,257.36L483.25,257.36z M488.93,266.81c-0.09,0.3-0.17,0.6-0.24,0.9
			C488.77,267.5,488.85,267.2,488.93,266.81L488.93,266.81z M475.97,286.13c-0.77,0-1.59,0.12-2.47,0.37
			c-0.51,0.15-0.95,0.43-1.31,0.85c-0.24,0.15-0.49,0.3-0.77,0.46c-0.28,0.16-0.5,0.34-0.68,0.55c-0.4,0.28-0.76,0.58-1.06,0.9
			c-0.31,0.33-0.63,0.66-0.98,1l0.25-0.19c-1.84,1.96-3.8,4.78-5.88,8.45c-2.07,3.67-4.04,7.56-5.89,11.69
			c-1.85,4.12-3.46,8.14-4.81,12.04c-1.36,3.9-2.28,7.08-2.76,9.54c-0.33,1.69-0.5,3.36-0.51,5c-0.01,1.64,0.24,3.11,0.75,4.4
			c-0.1-1.17-0.05-2.42,0.13-3.74c0.18-1.33,0.4-2.62,0.64-3.89c0.56-2.87,1.47-6.18,2.73-9.93c1.26-3.75,2.74-7.58,4.44-11.49
			c1.71-3.91,3.57-7.67,5.6-11.28c2.03-3.61,4.1-6.75,6.22-9.42c0.18-0.21,0.31-0.33,0.38-0.35c0.06-0.02,0.1-0.02,0.15-0.02
			c0.25,0,0.33,0.25,0.23,0.75c-0.02,0.09-0.07,0.18-0.16,0.29c-1.36,1.98-2.63,3.84-3.8,5.57c-1.17,1.73-2.32,3.67-3.43,5.82
			c-2.66,5.06-4.96,10.14-6.9,15.24c-1.94,5.1-3.41,10.18-4.4,15.24c-0.37,1.86-0.62,3.69-0.77,5.48c-0.14,1.8-0.05,3.44,0.28,4.94
			c0.91,1.02,2.06,1.97,3.45,2.85c1.3,0.83,2.7,1.24,4.2,1.24c0.06,0,0.11,0,0.17,0c-0.23-0.03-0.45-0.07-0.66-0.13
			c-0.14-0.01-0.28-0.06-0.41-0.13c0.13,0.05,0.27,0.09,0.41,0.13c0.03,0,0.06,0,0.09,0c0.03,0,0.07,0,0.1,0
			c0.03,0,0.07-0.01,0.1-0.01c0.17,0,0.34,0.04,0.5,0.13c-0.04,0-0.08,0-0.12,0c0.27,0.04,0.55,0.06,0.84,0.06
			c0.78,0,1.64-0.13,2.57-0.4c0.71,0.28,1.5,0.49,2.37,0.64c0.31,0.05,0.63,0.08,0.95,0.08c0.58,0,1.18-0.09,1.79-0.26
			c1.1-0.31,2.38-1.23,3.82-2.76c1.45-1.53,2.88-3.25,4.29-5.17c1.42-1.92,2.75-3.83,3.99-5.74c1.24-1.91,2.25-3.41,3.02-4.51
			l1.47-6.4c-0.04,0.01-0.07,0.02-0.11,0.02c-0.03,0-0.07-0.01-0.1-0.02c-0.03-0.01-0.07-0.02-0.1-0.02c-0.03,0-0.07,0-0.1,0.01
			c-0.96,0.27-2.16,1.17-3.6,2.7c-1.45,1.53-2.97,3.26-4.56,5.18c-1.59,1.93-3.11,3.84-4.56,5.72c-1.45,1.89-2.65,3.33-3.61,4.32
			c-0.03-0.55,0.01-1.12,0.13-1.71c0.12-0.59,0.23-1.19,0.35-1.78c0.82-4.15,1.84-8.31,3.08-12.5c1.24-4.19,2.63-8.42,4.16-12.69
			c0.21-0.7,0.64-2.02,1.3-3.97c0.66-1.94,1.32-3.97,1.97-6.07c0.66-2.1,1.25-4.07,1.78-5.9c0.53-1.83,0.77-2.98,0.73-3.44
			c0.03-0.17,0.08-0.32,0.14-0.46c0.06-0.14,0.11-0.29,0.14-0.46c0.13-0.68,0.2-1.29,0.21-1.86c0.01-0.56,0.07-1.14,0.18-1.73
			c-0.08-0.29-0.11-0.61-0.08-0.94c0.03-0.33,0-0.64-0.08-0.94c0.05-0.25-0.05-0.45-0.3-0.57c-0.25-0.13-0.55-0.22-0.88-0.29
			c-0.26-0.05-0.52-0.08-0.78-0.08c-0.08,0-0.16,0-0.24,0.01c-0.35,0.02-0.6,0.05-0.75,0.09
			C477.71,286.3,476.88,286.13,475.97,286.13L475.97,286.13z M485.11,324.34c-0.1,0.51-0.21,1-0.34,1.47
			c-0.13,0.48-0.24,0.97-0.34,1.47c0.48-0.69,0.77-1.25,0.85-1.68c0.05-0.25,0.09-0.52,0.11-0.81
			C485.41,324.52,485.32,324.36,485.11,324.34L485.11,324.34z"/>
	</g>
	<g>
		<path class="st0" d="M520.03,213.13c-0.6,0-1.08,0.05-1.43,0.15c-0.37,0.1-0.74,0.23-1.12,0.38c-0.38,0.15-0.74,0.39-1.08,0.72
			l0.11-0.03l-0.11,0.03l-0.25,0.19c-0.59,0.17-1,0.38-1.22,0.65c-0.23,0.26-0.59,0.63-1.1,1.09l-0.74,0.57
			c0.11,0.13,0.15,0.32,0.1,0.57c-0.7,1.8-1.26,3.23-1.68,4.3c-0.42,1.08-0.81,2.11-1.18,3.09c-0.37,0.98-0.61,1.61-0.73,1.88
			c-1.19,3.21-2.34,6.43-3.46,9.65c-1.12,3.23-2.21,6.47-3.26,9.72c-3.36,10.36-6.32,20.6-8.9,30.7
			c-2.58,10.1-4.86,20.22-6.85,30.35L485.6,315c2.63-12.31,5.57-24.47,8.84-36.48c3.26-12.01,6.89-24.28,10.88-36.82
			c0.19-0.61,0.59-1.94,1.2-3.99c0.61-2.05,1.29-4.2,2.05-6.44c0.75-2.25,1.5-4.27,2.24-6.08c0.73-1.8,1.36-2.78,1.88-2.93
			c0.06-0.02,0.11-0.02,0.15-0.02c0.18,0,0.24,0.14,0.19,0.41c-0.03,0.17-0.17,0.51-0.41,1.01c-0.24,0.51-0.42,0.9-0.54,1.17
			c-1.41,3.27-2.57,6.47-3.5,9.61c-0.93,3.14-1.92,6.33-2.97,9.58c-1.39,4.22-2.68,8.34-3.88,12.35c-1.2,4.01-2.43,8.11-3.66,12.28
			c-2.57,8.46-4.72,16.79-6.47,24.98c-1.75,8.19-3.65,16.45-5.7,24.76c-0.08,0.42-0.26,0.63-0.54,0.63c0,0,0,0,0,0l-0.5-0.1
			l-0.6,3.04c-0.38,1.94-0.58,3.93-0.6,5.97c-0.02,2.04-0.16,4.05-0.41,6.04c-0.2,1.73-0.5,3.59-0.89,5.57
			c-0.39,1.98-0.71,3.97-0.96,5.95c-0.25,1.99-0.38,3.88-0.39,5.67c-0.01,1.8,0.28,3.33,0.87,4.6l-0.09-0.09
			c0.26,0.8,0.69,1.52,1.3,2.14c0.61,0.62,1.32,1.14,2.14,1.54c0.82,0.4,1.69,0.67,2.6,0.82c0.33,0.05,0.65,0.07,0.97,0.07
			c0.58,0,1.15-0.08,1.72-0.24c0.29-0.08,0.56-0.2,0.8-0.35c0.24-0.15,0.47-0.25,0.69-0.31c0.37-0.11,0.75-0.16,1.12-0.16
			c0.14,0,0.28,0.01,0.41,0.02c0.13,0.01,0.25,0.02,0.38,0.02c0.4,0,0.82-0.06,1.26-0.19c1.18-0.33,2.6-1.06,4.28-2.17
			c1.69-1.2,3.59-3.11,5.71-5.75c2.11-2.63,4.24-5.61,6.39-8.93c2.14-3.32,4.25-6.87,6.31-10.64c2.06-3.78,3.94-7.42,5.64-10.93
			c1.7-3.51,3.13-6.75,4.3-9.72c1.17-2.96,1.92-5.29,2.26-6.98c0.07-0.34,0.15-0.66,0.24-0.97c0.09-0.31,0.1-0.61,0.02-0.9
			c-0.42-0.68-0.78-1.41-1.08-2.21c-0.3-0.79-0.57-1.59-0.83-2.4l-0.71,0.44l-0.03,0.13c-0.43,0.44-0.74,0.93-0.91,1.45
			c-0.17,0.53-0.49,1.06-0.94,1.58l-0.62,1.01l-0.14,0.16l-0.02,0.13l-0.13,0.16l0.13-0.16l0.02-0.13c-0.2,0.3-0.4,0.63-0.61,1.01
			c-0.21,0.38-0.41,0.68-0.59,0.89c-1.83,3.31-3.97,7.41-6.42,12.29c-2.45,4.88-5.08,9.8-7.89,14.74
			c-2.81,4.94-5.69,9.53-8.64,13.76c-2.95,4.23-5.83,7.34-8.65,9.34l-0.09-0.09c-0.27-1.44-0.23-3.32,0.12-5.66
			c0.35-2.33,0.7-4.35,1.03-6.03c0.25-1.27,0.53-2.52,0.85-3.77c0.31-1.25,0.59-2.46,0.82-3.64l-0.15,0.76
			c1.55-4.35,2.9-8.6,4.07-12.76c1.16-4.16,2.35-8.44,3.57-12.85c1.16-4.16,2.34-8.18,3.52-12.06c1.18-3.88,2.43-7.93,3.74-12.13
			c1.36-4.45,2.56-8.86,3.59-13.22c1.03-4.36,2.15-8.74,3.37-13.16c3.41-1.45,6.81-2.69,10.21-3.74c3.4-1.04,6.79-2.05,10.17-3.01
			c1.25-0.35,2.46-0.6,3.63-0.73c1.17-0.13,2.38-0.38,3.63-0.73l-0.55,0.16c1.02-0.29,1.95-0.44,2.78-0.44c0.01,0,0.01,0,0.02,0
			l-0.33,0.09c0.35-0.02,0.72-0.06,1.12-0.14c0.4-0.07,0.78-0.16,1.15-0.27c0.51-0.15,0.81-0.43,0.9-0.85
			c0.05-0.25-0.1-0.47-0.45-0.65c-0.35-0.18-0.77-0.32-1.27-0.42c-0.5-0.1-0.98-0.16-1.42-0.19c-0.45-0.03-0.73-0.07-0.86-0.11
			l0.42,0c-0.77-0.15-1.63-0.22-2.59-0.22c-0.29,0-0.6,0.01-0.91,0.02c-1.33,0.06-2.72,0.18-4.18,0.35
			c-1.46,0.18-2.91,0.43-4.36,0.76c-1.46,0.34-2.77,0.67-3.94,1c-1.91,0.54-3.85,1.16-5.82,1.84c-1.97,0.68-3.93,1.38-5.88,2.09
			c0.48-1.73,1.13-3.99,1.96-6.77c0.82-2.79,1.67-5.6,2.54-8.44c0.87-2.84,1.62-5.44,2.27-7.82c0.64-2.37,1.02-4.06,1.15-5.05
			c0.12-0.27,0.25-0.55,0.37-0.82c0.12-0.27,0.22-0.58,0.28-0.92c0.07-0.34,0.11-0.67,0.14-1c0.03-0.33,0.08-0.66,0.14-1l-0.1,0.51
			c0.38-1.94,0.55-3.5,0.51-4.69l0.1-0.51c0.05-0.25-0.01-0.48-0.18-0.67l0.05-0.25l0.07-0.38c0.15-0.76-0.13-1.38-0.83-1.86
			c-0.7-0.48-1.57-0.85-2.59-1.12c-1.02-0.27-2.05-0.43-3.08-0.5C520.6,213.14,520.3,213.13,520.03,213.13L520.03,213.13z
			 M511.55,218.99c-0.3,0.49-0.68,0.99-1.13,1.52c-0.45,0.53-0.81,1.11-1.07,1.74c-0.24,0.87-0.59,1.6-1.06,2.22
			c-1.26,2.51-2.4,5.35-3.44,8.51c-1.04,3.17-2.03,6.44-2.97,9.81c-0.94,3.38-1.84,6.7-2.69,9.97c-0.85,3.27-1.71,6.23-2.58,8.86
			l-1.1,0.31c-1.91,0.54-3.82,1.09-5.73,1.63c-1.91,0.54-3.84,1.17-5.78,1.88c-0.15,0.04-0.42,0.12-0.83,0.23
			c-0.4,0.11-0.84,0.28-1.29,0.49c-0.46,0.21-0.86,0.41-1.21,0.58c-0.35,0.18-0.54,0.35-0.57,0.52l0.23,0.41
			c0.28,0.18,0.75,0.27,1.41,0.27c0.37,0,0.81-0.03,1.31-0.08c1.38-0.15,2.88-0.38,4.51-0.68c1.62-0.3,3.2-0.65,4.73-1.05
			c1.53-0.4,2.67-0.7,3.41-0.91c-0.8,4.05-1.81,8.15-3.04,12.29c-1.23,4.14-2.24,8.23-3.04,12.29c-0.28,1.44-0.52,2.8-0.7,4.09
			c-0.02,0.16-0.05,0.33-0.08,0.49c2.79-11.97,5.87-23.85,9.22-35.62C501.75,245.8,506.25,232.54,511.55,218.99L511.55,218.99z
			 M488.84,294.39c-0.28,1.22-0.57,2.44-0.84,3.66C488.37,296.76,488.65,295.54,488.84,294.39L488.84,294.39z M529.72,297.54
			c0.06,0.38,0.19,0.71,0.38,0.97c0.19,0.27,0.32,0.59,0.38,0.97c-0.02-0.63-0.02-1.07,0-1.32
			C530.5,297.92,530.24,297.71,529.72,297.54L529.72,297.54z"/>
	</g>
</g>
</svg>
