<?xml version="1.0" encoding="UTF-8"?>
<svg id="Layer_2" data-name="Layer 2" xmlns="http://www.w3.org/2000/svg" viewBox="0 0 194.9 25.82">
  <defs>
    <style>
      .cls-1 {
        fill: #767576;
      }

      .cls-2 {
        fill: none;
        stroke: #3f4040;
        stroke-miterlimit: 10;
        stroke-width: .87px;
      }
    </style>
  </defs>
  <g id="Text">
    <g>
      <g>
        <path class="cls-1" d="m44.27,12.03h3.42v3.06l-.26.27c-.7.72-1.88,1.2-3.01,1.2-2.16,0-3.92-1.76-3.92-3.92s1.76-3.92,3.92-3.92c1.14,0,2.23.5,2.97,1.37l-1.42,1.22c-.39-.46-.97-.72-1.56-.72-1.13,0-2.05.92-2.05,2.05s.92,2.04,2.05,2.04c.48,0,1.02-.17,1.4-.41v-.38h-1.56v-1.87Z"/>
        <path class="cls-1" d="m57.18,12.64c0,2.17-1.76,3.93-3.93,3.93s-3.93-1.76-3.93-3.93,1.77-3.93,3.93-3.93,3.93,1.77,3.93,3.93Zm-1.87,0c0-1.14-.92-2.06-2.06-2.06s-2.06.92-2.06,2.06.93,2.06,2.06,2.06,2.06-.92,2.06-2.06Z"/>
        <path class="cls-1" d="m66.24,12.64c0,2.17-1.76,3.93-3.93,3.93s-3.93-1.76-3.93-3.93,1.77-3.93,3.93-3.93,3.93,1.77,3.93,3.93Zm-1.87,0c0-1.14-.92-2.06-2.06-2.06s-2.06.92-2.06,2.06.93,2.06,2.06,2.06,2.06-.92,2.06-2.06Z"/>
        <path class="cls-1" d="m71.2,12.03h3.42v3.06l-.26.27c-.7.72-1.88,1.2-3.01,1.2-2.16,0-3.92-1.76-3.92-3.92s1.75-3.92,3.92-3.92c1.14,0,2.23.5,2.97,1.37l-1.42,1.22c-.39-.46-.97-.72-1.56-.72-1.13,0-2.05.92-2.05,2.05s.92,2.04,2.05,2.04c.48,0,1.02-.17,1.4-.41v-.38h-1.56v-1.87Z"/>
        <path class="cls-1" d="m78.24,14.61h4.25v1.88h-6.11v-7.67h1.87v5.79Z"/>
        <path class="cls-1" d="m84.02,8.82h6v1.88h-4.14v1.02h3.24v1.87h-3.24v1.02h4.14v1.87h-6v-7.65Z"/>
        <path class="cls-1" d="m97.9,16.49l-1.09-2.75v2.73h-1.87v-7.66h1.94l2.01,5.11,2.02-5.11h1.93v7.66h-1.87v-2.73l-1.09,2.75h-2Z"/>
        <path class="cls-1" d="m109.78,15.54h-3.13l-.36.94h-2.02l2.95-7.67h1.97l2.96,7.67h-2.02l-.36-.94Zm-.71-1.87l-.86-2.22-.84,2.22h1.7Z"/>
        <path class="cls-1" d="m120.3,11.19c0,1.32-1.08,2.38-2.38,2.38h-2.51v2.92h-1.87v-7.67h4.38c1.3,0,2.38,1.06,2.38,2.37Zm-1.88,0c0-.27-.23-.5-.5-.5h-2.51v1.02h2.51c.27,0,.5-.23.5-.52Z"/>
        <path class="cls-1" d="m127.1,14.61h4.25v1.88h-6.11v-7.67h1.87v5.79Z"/>
        <path class="cls-1" d="m133.2,8.82h1.87v7.65h-1.87v-7.65Z"/>
        <path class="cls-1" d="m142.31,8.84h1.87v7.65h-2.04l-3.01-4.56v4.54h-1.87v-7.66h2.05l3,4.54v-4.51Z"/>
        <path class="cls-1" d="m149.79,11.95l2.96,4.53h-2.23l-2-3.05-.53.61v2.44h-1.87v-7.65h1.87v2.33l2-2.36h2.45l-2.66,3.15Z"/>
      </g>
      <rect class="cls-2" x=".44" y=".44" width="194.03" height="24.95" rx="12.48" ry="12.48"/>
    </g>
  </g>
</svg>