<svg version="1.0" xmlns="http://www.w3.org/2000/svg"
 width="512.000000pt" height="512.000000pt" viewBox="0 0 512.000000 512.000000"
 preserveAspectRatio="xMidYMid meet">

<g transform="translate(0.000000,512.000000) scale(0.100000,-0.100000)"
fill="#000000" stroke="none">
<path d="M1350 5096 c-457 -191 -904 -583 -1170 -1026 -76 -126 -169 -319
-177 -365 -5 -29 0 -39 25 -65 53 -52 110 -35 144 44 238 547 662 984 1194
1232 123 57 144 75 144 125 0 28 -53 79 -82 79 -13 -1 -48 -11 -78 -24z"/>
<path d="M3654 5108 c-22 -10 -44 -47 -44 -73 0 -38 26 -66 84 -92 544 -244
936 -619 1201 -1148 91 -182 110 -201 172 -171 38 18 57 57 48 96 -4 13 -30
74 -59 135 -220 462 -587 857 -1036 1114 -130 75 -297 151 -326 150 -11 0 -29
-5 -40 -11z"/>
<path d="M1470 4585 c-225 -111 -374 -217 -546 -389 -112 -113 -195 -215 -277
-342 -51 -79 -177 -329 -177 -351 0 -52 66 -102 113 -84 32 13 40 24 105 157
187 378 482 673 854 854 130 63 146 74 159 107 18 47 -32 113 -84 113 -8 0
-74 -29 -147 -65z"/>
<path d="M3459 4635 c-48 -26 -57 -99 -17 -133 8 -6 68 -38 134 -70 221 -109
430 -268 579 -440 103 -118 206 -273 277 -416 65 -133 73 -144 105 -157 47
-18 113 32 113 84 0 23 -122 265 -175 347 -159 249 -376 465 -624 624 -91 59
-301 165 -338 171 -16 3 -40 -2 -54 -10z"/>
<path d="M2318 4335 c-664 -91 -1226 -549 -1448 -1180 -185 -528 -110 -1127
199 -1586 302 -449 762 -728 1301 -790 129 -14 369 -7 500 16 737 131 1324
718 1455 1455 23 131 30 371 16 500 -95 832 -724 1476 -1550 1585 -130 18
-343 17 -473 0z m557 -185 c655 -138 1134 -619 1276 -1280 20 -90 23 -135 23
-310 0 -175 -3 -220 -23 -310 -142 -663 -618 -1139 -1281 -1281 -88 -19 -137
-23 -305 -23 -171 -1 -216 3 -310 22 -327 68 -611 220 -839 448 -226 226 -378
509 -447 834 -31 143 -33 445 -5 595 110 591 527 1070 1093 1254 101 33 204
56 338 75 17 2 109 3 205 1 128 -3 202 -10 275 -25z"/>
<path d="M2716 3359 c-232 -64 -412 -119 -428 -131 -16 -11 -37 -37 -48 -58
-19 -37 -20 -61 -20 -519 l0 -479 -57 21 c-78 28 -223 30 -306 3 -155 -50
-254 -185 -232 -315 17 -100 113 -198 232 -237 81 -26 227 -25 305 3 112 41
192 118 217 208 7 26 11 175 11 425 l0 385 378 103 c207 56 380 102 385 102 4
0 7 -119 7 -264 l0 -264 -57 19 c-166 59 -372 16 -472 -97 -159 -181 -34 -423
243 -466 176 -27 357 51 428 185 l23 42 3 630 c2 347 0 649 -3 673 -7 47 -49
103 -96 128 -15 7 -47 14 -71 13 -24 0 -223 -50 -442 -110z m444 -184 c0 -69
-2 -125 -5 -125 -5 0 -735 -199 -753 -205 -10 -4 -12 23 -10 122 l3 127 370
102 c204 56 376 102 383 103 9 1 12 -30 12 -124z m-81 -990 c46 -26 81 -68 81
-99 0 -27 -60 -84 -108 -103 -151 -58 -356 31 -312 137 38 93 222 128 339 65z
m-937 -172 c102 -55 100 -131 -3 -188 -47 -26 -64 -30 -134 -30 -69 0 -87 4
-131 29 -101 55 -107 130 -17 183 60 35 96 43 171 38 44 -3 78 -13 114 -32z"/>
<path d="M525 1696 c-29 -12 -55 -51 -55 -80 0 -22 127 -273 177 -350 160
-248 376 -463 623 -621 82 -53 324 -175 347 -175 52 0 102 66 84 113 -13 33
-29 44 -159 107 -373 181 -668 477 -854 855 -77 157 -100 178 -163 151z"/>
<path d="M4535 1700 c-30 -12 -39 -25 -103 -156 -187 -378 -478 -669 -856
-856 -133 -65 -144 -73 -157 -105 -21 -55 41 -123 99 -108 40 10 251 118 333
171 248 159 465 375 624 624 53 82 175 324 175 347 0 30 -31 71 -61 82 -18 6
-32 11 -33 10 -1 0 -10 -4 -21 -9z"/>
<path d="M53 1500 c-34 -14 -56 -55 -49 -91 9 -46 109 -251 178 -363 210 -345
527 -661 868 -866 126 -76 319 -169 365 -177 29 -5 39 0 65 25 55 55 35 109
-54 149 -542 243 -947 630 -1201 1149 -41 83 -80 156 -87 162 -20 16 -61 22
-85 12z"/>
<path d="M4995 1498 c-25 -14 -29 -21 -85 -143 -223 -484 -620 -886 -1116
-1130 -84 -42 -158 -82 -165 -91 -24 -29 -16 -84 16 -111 38 -33 65 -28 207
40 422 201 780 515 1040 912 88 134 216 382 225 438 5 31 1 40 -25 67 -32 31
-63 37 -97 18z"/>
</g>
</svg>
