<svg version="1.0" xmlns="http://www.w3.org/2000/svg"
 width="512.000000pt" height="512.000000pt" viewBox="0 0 512.000000 512.000000"
 preserveAspectRatio="xMidYMid meet">

<g transform="translate(0.000000,512.000000) scale(0.100000,-0.100000)"
fill="#000000" stroke="none">
<path d="M4255 4466 c-16 -8 -834 -819 -1817 -1803 -1598 -1599 -1787 -1792
-1793 -1826 -11 -60 3 -107 44 -148 41 -41 88 -55 148 -44 34 6 227 196 1831
1798 1317 1317 1795 1801 1803 1826 22 67 -2 139 -63 184 -34 25 -113 32 -153
13z"/>
<path d="M1884 4241 c-23 -10 -52 -34 -65 -52 l-24 -34 -3 -900 -2 -900 160
160 160 160 0 197 0 198 198 0 197 0 160 160 160 160 -358 0 -357 0 0 275 0
275 633 0 632 0 160 160 160 160 -885 0 c-841 0 -887 -1 -926 -19z"/>
<path d="M4318 3753 l-158 -158 0 -103 0 -102 -103 0 -102 0 -160 -160 -160
-160 263 0 262 0 0 -546 c0 -433 -3 -545 -12 -541 -286 125 -540 127 -788 5
-105 -52 -238 -178 -288 -274 -56 -108 -75 -232 -51 -346 32 -157 165 -323
324 -405 136 -70 238 -95 390 -97 161 -1 239 16 384 86 88 42 116 62 186 131
92 92 145 185 165 292 8 43 10 416 8 1298 l-3 1237 -157 -157z"/>
<path d="M1232 2069 c-79 -13 -198 -55 -272 -96 -85 -47 -215 -178 -258 -259
-59 -113 -76 -245 -47 -358 31 -118 -10 -146 441 305 357 357 402 405 382 411
-33 9 -184 7 -246 -3z"/>
<path d="M1770 1205 c-373 -373 -362 -356 -193 -315 243 58 434 216 503 415
18 52 41 235 29 235 -2 0 -155 -151 -339 -335z"/>
</g>
</svg>
