<svg viewBox="0 0 548.72 322.48"><defs><style>.cls-1,.cls-2{fill:#f16622;}.cls-1{stroke:#f16622;stroke-miterlimit:10;}</style></defs><g id="Layer_2" data-name="Layer 2"><g id="Hand_Write" data-name="Hand Write"><path class="cls-1" d="M48.06,208.22l.42-.09A5.56,5.56,0,0,1,53,209.51a4,4,0,0,1,1.21,1.5,1.07,1.07,0,0,1-.65,1,26.89,26.89,0,0,1-3.93,1.15,13.48,13.48,0,0,1-8.5-.69,6.19,6.19,0,0,1-3.63-4.2,7.81,7.81,0,0,1,.36-4.08,19.72,19.72,0,0,1,1.57-3.73q.82-1.41,2.29-3.8a81.65,81.65,0,0,1,17-18.38q8.87-7.16,15.61-8.57a11.12,11.12,0,0,1,1.51-.24,14.94,14.94,0,0,1,9.45,2.17,18.28,18.28,0,0,1,8,12q2.67,12.09-5.14,36.62-1.39,4.37-4.07,12.29c-1.06,3.11-1.83,5.38-2.33,6.81q28.86-67.11,48.31-95.71a105.37,105.37,0,0,1,6.58-8.82q6.19-7.4,12.11-8.64,5.61-1,9.62,4.14a26.78,26.78,0,0,1,4.41,10.51q3.48,15.75-1.52,52.57-.87,6.34-2.64,18.4c-.22,1.33-.58,3.54-1.06,6.62q-3.82,24-3.25,32.14a20.81,20.81,0,0,0,.41,3.43c.06.26.6,1.5,1.61,3.75a4.5,4.5,0,0,1,.27.82.88.88,0,0,1-.39,1l-.5.1c-2.17.46-4.16-.69-6-3.45a13.07,13.07,0,0,1-1.65-3.9q-1.71-7.8,2.4-34c.12-.77.31-1.87.58-3.32.4-2.6.69-4.46.84-5.62q5.07-33.39,5.65-48.08.62-13.72-1.21-22a24.66,24.66,0,0,0-3.89-9.35l-.25.06q-6.24,1.32-21.12,25.33-2.31,3.76-4.19,7.05Q108.49,194.46,86.55,246,80.88,259.4,80.83,260c-.11,0-.57.14-1.39.37-4.5.68-7.21-.72-8.16-4.2a11.08,11.08,0,0,1-.27-2.83q.09-5.06,5.73-21.29c.17-.57.41-1.31.73-2.23Q90,192.35,87.24,179.48q-1.6-6.45-7.06-5.95a10.49,10.49,0,0,0-1.43.22q-10.48,2.2-24,18-7.76,9-10.93,15.51a6.24,6.24,0,0,0-.84,2.49.48.48,0,0,1,.13.22c.07,0,1.65-.54,4.76-1.73H48Z" transform="translate(-36.83 -75.42)"/><path class="cls-1" d="M191.35,185.4a1.68,1.68,0,0,0-.18-.44l-.09-.38q-1-4.61,4.09-7.51a14.94,14.94,0,0,1,4.65-1.78q6-1.18,9.9,1a10.54,10.54,0,0,1,5.16,7.23,14.42,14.42,0,0,1-.09,6.26,38.7,38.7,0,0,0,15-10.44,1.4,1.4,0,0,1,.7-.39c1.17-.24,2.49.22,4,1.41a3.72,3.72,0,0,1,1.31,1.56,1.05,1.05,0,0,1-.27.78q-8.62,9.81-19.94,12.2c-1,.22-1.83.36-2.34.41q-5,12.75-15.08,14.86a12.81,12.81,0,0,1-7.28-.23,2.42,2.42,0,0,0-.32-.25c-3.24-1.29-5.2-3.41-5.85-6.37q-1.33-6,4-14.35A29,29,0,0,1,191.35,185.4Zm4.46,5.62q-4.49,6.87-4.76,12.28c0,.59,0,1.12.09,1.58a8,8,0,0,0,.39,1.77,6.84,6.84,0,0,0,2.51-.06q5.16-1.08,9.86-8.55c.59-1,1.14-1.95,1.62-2.9A24.24,24.24,0,0,1,195.81,191Zm2.33-7.61q2.25,1.13,2.52,2c.08.35-.36.87-1.31,1.55a7.32,7.32,0,0,0-1.11.88q2.22,3.77,8.83,3.74,2.12-6.21,1.2-10.34a4.9,4.9,0,0,0-1.14-2.4,1.67,1.67,0,0,0-1,0,15.74,15.74,0,0,0-6.63,3.08A5.57,5.57,0,0,0,198.14,183.41Z" transform="translate(-36.83 -75.42)"/><path class="cls-1" d="M236.1,174.05a2,2,0,0,1,1.39-.38,4.86,4.86,0,0,1-2.18-2.81c-.39-1.74.7-3,3.26-3.74a9.87,9.87,0,0,1,1.15-.32l.29-.06.29-.06.3,0a1.48,1.48,0,0,0,.39,0l.29-.07h.38l.34-.07a13.74,13.74,0,0,1,10.65,4.08,112.19,112.19,0,0,0,10.73-6.18c3.93-2.48,6.66-3.89,8.22-4.21a6.61,6.61,0,0,1,2.8.05,7.43,7.43,0,0,1,3.69,2.18,1.93,1.93,0,0,1,.55.92,1.29,1.29,0,0,1,0,.56q-.06.09-4.7,15.71,12.07-16.62,17.23-20.51a12.08,12.08,0,0,1,1.9-1.2,8.6,8.6,0,0,1,1.95-.65,9.12,9.12,0,0,1,7.23,1.59c1.72,1.24,3,3.75,3.84,7.51.23,1.07.66,4.3,1.26,9.67.07.57.13,1,.19,1.24s.15.55.22.59a.83.83,0,0,0,.35,0q2.91-.61,17.86-16.49c1.31-1.4,2.15-2.32,2.51-2.77a1.58,1.58,0,0,1,.7-.38c1.17-.25,2.51.18,4,1.31a3,3,0,0,1,1.22,1.58,1.27,1.27,0,0,1-.17.83c-.37.4-1,1.15-1.94,2.25q-9.24,10.92-15,14.52a16.91,16.91,0,0,1-5.55,2.45,9.31,9.31,0,0,1-5.31-.4q-4.56-2.09-5.91-8.2a49.9,49.9,0,0,1-.75-5.36c-.27-2.24-.5-3.85-.72-4.81l-.18-.85q-4.65,2.19-16.29,18.08-9.09,12.41-10.54,14.14c-1.57,1.83-2.68,2.83-3.33,3q-4.8.38-6-3.06-.29-1.68,7.32-26.34a73.09,73.09,0,0,1-14.41,8.08l.25,1.14q1.53,6.88-3.39,15a25.82,25.82,0,0,1-5.61,6.54,16,16,0,0,1-6.93,3.3q-6.24,1.32-10.59-1.85a8.4,8.4,0,0,1-3.38-5.05q-1.79-8.1,9.61-19.94A3,3,0,0,1,236.1,174.05Zm-4.27,21.63a4.51,4.51,0,0,0,.88,1.65,2.9,2.9,0,0,0,2.77.69q4-.84,8.83-7.7,5.1-7.23,5.3-12.64a1.32,1.32,0,0,0,0-.4q-.51.1-6.79,0h-.44q-2.4.51-6.63,7.8Q231.51,192.7,231.83,195.68Zm16.43-23.31q-2.17-2.75-4.52-2.33a2.25,2.25,0,0,0-2,1.7,1.26,1.26,0,0,0,0,.39c.34,1,1.81,1.25,4.43.75C247.09,172.69,247.77,172.52,248.26,172.37Z" transform="translate(-36.83 -75.42)"/><path class="cls-1" d="M335.64,144.42a1.16,1.16,0,0,1,.83-.57,5.84,5.84,0,0,1,4.27,1.18,4.17,4.17,0,0,1,1.51,1.69,1,1,0,0,1-.05.57,61.59,61.59,0,0,0-5.8,18.26,16.74,16.74,0,0,0,.05,5.75,6.59,6.59,0,0,0,.47,1.34q6.25-3.55,16.11-22.44c1.38-2.63,2.57-5,3.55-7.14a2.32,2.32,0,0,1,1.39-1.18c1.34-.28,2.72.23,4.17,1.52a3.48,3.48,0,0,1,1.14,1.61,1.82,1.82,0,0,1-.11.66,80.93,80.93,0,0,0-.49,14.34,24.89,24.89,0,0,0,.48,4.14c.38,1.47.86,2.3,1.42,2.51a4.08,4.08,0,0,0,2,0q5.66-1.2,16.19-12.22,5.58-5.89,7.33-9a1.51,1.51,0,0,1,.75-.55q1.74-.37,4,1.31a4.07,4.07,0,0,1,1.3,1.57,1.48,1.48,0,0,1-.11.66,55.47,55.47,0,0,1-10.85,13.17q-7.87,7.26-14.53,8.66a12.58,12.58,0,0,1-6.33-.27c-4.29-1.54-7-4.72-8-9.51l-.24-1.07q-7.78,13.57-13.33,16.89a.81.81,0,0,0-.31.15,5.6,5.6,0,0,1-1.53.56,9.34,9.34,0,0,1-6.9-1.67,9.61,9.61,0,0,1-3.95-6.05Q328.13,160.49,335.64,144.42Z" transform="translate(-36.83 -75.42)"/><path class="cls-1" d="M399.58,76.76c.15-.88,1.15-1.07,3-.55l.55.12c1.76.64,2.79,1.47,3.07,2.48a1.32,1.32,0,0,0,0,.4l-.34,2.38q-2,13.8-3.53,25.8Q449,93,469.32,96.87a5.55,5.55,0,0,1,3.8,2.25,4.07,4.07,0,0,0,.25.35c.34.72.06,1.18-.83,1.37a6,6,0,0,1-1.5-.08q-19.91-3.81-69.36,12.29-.71,5.82-2.48,18.68-6.09,46.1-6.61,61.48c-.19,6.5.12,11,.9,13.5.25.85-.27,1.28-1.55,1.28a7.49,7.49,0,0,1-1.17-.15,5.53,5.53,0,0,1-3.72-2.26,1.68,1.68,0,0,1-.18-.44q-2.64-8.4,2.59-51.28.84-6.48,2.53-19.65,1.69-12.84,2.39-18.75-6.63,2.28-13.47,4.8T369,124.78q-5.09,2-9.16,3.65c-2.72,1.1-4.81,2-6.3,2.6l-2.16.85c-1.06.5-2.44.23-4.18-.79l-.5-.3a2.49,2.49,0,0,0-.47-.33,1.86,1.86,0,0,1-.42-.35c-.12-.14-.22-.26-.3-.34a2.49,2.49,0,0,1-.2-.32,2.36,2.36,0,0,1-.12-.34.67.67,0,0,1,0-.28.63.63,0,0,1,.11-.26,2.57,2.57,0,0,1,.21-.24.5.5,0,0,1,.27-.14l.8-.33q24.79-10.35,48.57-18.15,1-8.31,2.16-16.58T399,80.81Z" transform="translate(-36.83 -75.42)"/><path class="cls-1" d="M212.77,345.34l.36-.07a6.15,6.15,0,0,1,4.81,1.33,3.79,3.79,0,0,1,1.28,1.49,1.09,1.09,0,0,1-.71,1,37.74,37.74,0,0,1-4.58,1.34,15.31,15.31,0,0,1-8.72-.68q-3.36-1.54-4-4.12a4,4,0,0,1-.14-1q0-6,9.18-16.36a83.61,83.61,0,0,1,21.59-17.66A36.31,36.31,0,0,1,242,306.53a16.5,16.5,0,0,1,5-.31,17.2,17.2,0,0,1,6.21,2.07,17.83,17.83,0,0,1,8.62,11.9q2.26,10.41-3.47,29.1,9.57-16.68,19.64-20.84a19.41,19.41,0,0,1,3.59-1.15,20.72,20.72,0,0,1,10.6.69q9.61,3.39,17.61,14.6,5.74-4.14,13.93-26.14,1.88-5,5.64-15.8,8.49-24.37,12.74-32.61,3.22-6.1,6.09-8.45a5.35,5.35,0,0,1,2.37-1.14q2.91-.43,5.88,2.31a5.56,5.56,0,0,1,1.31,2.85q2,8.85-3.05,46.77-.36,2.55-.48,3.69-3.92,31.68-4.23,34.86a253.51,253.51,0,0,0-1.43,28.61,58.21,58.21,0,0,0,1,9.38,2.52,2.52,0,0,0,.61,1.4,6.23,6.23,0,0,1,.62.51,3.51,3.51,0,0,1,.5.53,1.54,1.54,0,0,1,.26.51.89.89,0,0,1,0,.4,1.1,1.1,0,0,1-.25.37.85.85,0,0,1-.46.26l-.53.11q-3.51.72-6.44-3.47a10.86,10.86,0,0,1-1.67-3.66q-2.35-10.38,2.09-48.89.73-6.3,2.64-19.89,4.32-31.61,4.56-45.48c0-1,0-1.88,0-2.73q-4,6.42-12.94,30.9-9.87,27.06-14.14,36-5.1,10.67-9,12.72a9.7,9.7,0,0,1-2.67,1q-4.95,1-9.12-4.92c-.07,0-.11-.08-.12-.13q-6.68-9.5-12-11.29a9.66,9.66,0,0,0-5-.25q-8.36,1.72-18,15.78c-.66,1-1.29,1.94-1.89,2.87q-10.38,16.94-18.29,43c-.7,2.43-1.07,3.82-1.12,4.15l-1.51.4q-7.29,1.1-8.75-4.12a10.56,10.56,0,0,1-.26-2.82q.24-6,6.85-23.33,7.69-20.06,9.78-27.44,3.72-13.49,2-20.89a13.12,13.12,0,0,0-5.87-8.47,8,8,0,0,0-3.58,0q-7.64,1.57-20,12.52-11,9.88-15.82,18.22a13.88,13.88,0,0,0-2,5.7A36.89,36.89,0,0,0,212.77,345.34Z" transform="translate(-36.83 -75.42)"/><path class="cls-1" d="M395.21,323.2c-.87.61-1.09,1.86-.66,3.74s1.31,2.71,2.52,2.84a14.28,14.28,0,0,0,3.8-.31q11.31-2.33,28.91-19.32,4.58-4.38,7.91-8.27a1.39,1.39,0,0,1,.67-.38q1.8-.36,4.21,1.53a3.84,3.84,0,0,1,1.45,1.86,1.63,1.63,0,0,1-.18.84,93.58,93.58,0,0,1-8.09,8.31q-17.58,16.66-30.06,19.32c-1.08.22-1.86.35-2.35.4q-11.71,1-14.68-6.24a8.45,8.45,0,0,1-.56-1.65q-1.58-6.94,3.67-16.19,4.77-8.42,11.26-11.76a15.11,15.11,0,0,1,2.77-1.05l.36-.07a9.92,9.92,0,0,1,7.9,1.64,6.52,6.52,0,0,1,2.83,3.82,5.92,5.92,0,0,1-.25,3,12.49,12.49,0,0,1-2.1,3.39,30.67,30.67,0,0,1-3.44,3.51q-1.92,1.68-4.14,3.33t-4.25,3q-2,1.38-3.72,2.44c-1.13.72-2,1.25-2.7,1.6Zm3.11-9.51q10.95-7.79,11.48-12.45-5,2.47-10.1,10.24A24.82,24.82,0,0,0,398.32,313.69Z" transform="translate(-36.83 -75.42)"/><path class="cls-1" d="M444.21,289.18a1.55,1.55,0,0,1,.88-.66,6.77,6.77,0,0,1,4.7,1.19,3.66,3.66,0,0,1,1.58,1.59.76.76,0,0,1-.08.5q-.06.17-5.81,17.51,14.1-17.85,19.81-21.36c.44-.25.83-.47,1.17-.64a10.88,10.88,0,0,1,2-.66,10.31,10.31,0,0,1,7.78,1.51q2.87,1.89,4.13,7.47.4,1.75,1.16,9.68c.07.57.13,1,.19,1.24a.85.85,0,0,0,.31.57.83.83,0,0,0,.3,0q3.14-.64,19.44-16.73c1.43-1.41,2.35-2.35,2.75-2.8a1.42,1.42,0,0,1,.59-.29q1.63-.33,4,1.74a4.45,4.45,0,0,1,1.41,2,1.75,1.75,0,0,1-.25,1q-7.56,8.13-10.71,10.85-7.32,6.32-12.89,7.46a11.72,11.72,0,0,1-6-.36q-4.89-2-6.27-8.14c-.26-1.17-.54-3-.83-5.35s-.49-3.84-.71-4.81l-.19-.84q-5.06,2.25-17.78,18.3-9.94,12.54-11.53,14.3c-1.71,1.84-2.92,2.87-3.63,3.06-3.47.46-5.58-.55-6.33-3Q433,322,444.21,289.18Z" transform="translate(-36.83 -75.42)"/><path class="cls-1" d="M508.72,275.52a1.83,1.83,0,0,1,1-.69,8.42,8.42,0,0,1,5.37,1.09,3.69,3.69,0,0,1,1.79,1.55.66.66,0,0,1-.1.51q-.06.16-7.1,17.7,16.66-18.24,23.32-21.89c.51-.27,1-.49,1.36-.67a14.2,14.2,0,0,1,2.33-.71,13,13,0,0,1,8.93,1.34q3.26,1.83,4.59,7.39c.27,1.17.65,4.4,1.11,9.68a8.88,8.88,0,0,0,.19,1.25.75.75,0,0,0,.34.56,1.08,1.08,0,0,0,.34,0q3.64-.72,22.79-17.24c1.69-1.45,2.76-2.42,3.24-2.88a1.56,1.56,0,0,1,.69-.3c1.25-.25,2.76.31,4.53,1.65a4.23,4.23,0,0,1,1.57,2,1.58,1.58,0,0,1-.31,1q-8.9,8.32-12.58,11.13-8.6,6.51-15,7.79a15.31,15.31,0,0,1-6.91-.22,10.43,10.43,0,0,1-7-8,50,50,0,0,1-.84-5.34,45.38,45.38,0,0,0-.71-4.81l-.19-.85q-5.87,2.39-20.91,18.79Q508.77,308.18,506.91,310q-3,2.85-4.26,3.16c-4,.54-6.41-.42-7.21-2.87Q495.05,308.66,508.72,275.52Z" transform="translate(-36.83 -75.42)"/><path class="cls-2" d="M189.73,289a42.35,42.35,0,0,1,4-12.65,91.33,91.33,0,0,1,8.55-14.25,123.4,123.4,0,0,1,27.63-27.49,19.46,19.46,0,0,0,1.9-1.31c.49-.39.73-.68.73-.88a1.58,1.58,0,0,0-.65-.29,12.14,12.14,0,0,1-1.25-.44c-5.94-2.14-9-4.07-9.06-5.78s-.15-2.6-.15-2.7q0-5,8.34-13.16a57.38,57.38,0,0,1,11.91-9.58q5.34-3,8.7-3c2.83,0,4.26.75,4.31,2.26s.08,2.32.08,2.42c0,2.82-1.81,7-5.41,12.42-.78,1.08-1.52,2.12-2.2,3.15a22.8,22.8,0,0,0-1.31,2.12c-.59,1.07-1.27,1.6-2.05,1.6-.58,0-1-.38-1.31-1.17a1.55,1.55,0,0,1-.15-.73,2.89,2.89,0,0,1,.36-1.17c.25-.48,1.1-1.8,2.56-3.94a64.94,64.94,0,0,0,5.7-8.7,9.47,9.47,0,0,0,1-3.44,2,2,0,0,0-.59-1.46,2.15,2.15,0,0,0-1.6-.58c-1.47,0-3.51.75-6.15,2.26a59.5,59.5,0,0,0-7.89,5.48,55.79,55.79,0,0,0-7.09,6.88,19.4,19.4,0,0,0-4,6.43,6.66,6.66,0,0,0-.15,1.31,4,4,0,0,0,1.24,2.86q1.25,1.23,6.22,3.14,4.1,1.6,4.53,2.34a2.63,2.63,0,0,1,.44,1c0,.78-.64,1.56-1.9,2.34a17,17,0,0,0-1.76,1.1c-.78.53-1.56,1-2.33,1.53a81.94,81.94,0,0,0-11.19,8.7,116.91,116.91,0,0,0-10.23,10.67,123.81,123.81,0,0,0-8.63,11.48,88,88,0,0,0-6.36,11.18,38.19,38.19,0,0,0-3.07,8.49,28.11,28.11,0,0,0-.58,4.75,9.46,9.46,0,0,0,.73,3.94,8.18,8.18,0,0,0,8,5.12q6.57,0,15.79-6.51t19.3-18.49q16.8-20,16.81-28.51a5,5,0,0,0-2-4.39.44.44,0,0,0-.29-.14,4.75,4.75,0,0,0-2,1,40,40,0,0,0-3.87,3.29Q240.9,249.77,238,253t-6,6.88a61.79,61.79,0,0,1-7.09,7.82,5.92,5.92,0,0,1-3,1.53,1.73,1.73,0,0,1-.73-.14,1.55,1.55,0,0,1-.59-1.32,7.74,7.74,0,0,1,.66-2.41,24.76,24.76,0,0,1,2.85-4.75,70.44,70.44,0,0,1,5.34-6.51q3.14-3.44,6.36-6.43a49.86,49.86,0,0,1,6.29-5.05,16,16,0,0,1,5.11-2.48,6.09,6.09,0,0,0,1.76-.59,12.59,12.59,0,0,0,2.48-1.9,61.53,61.53,0,0,1,8.19-5.33,13.15,13.15,0,0,1,5.56-1.83c1.55,0,2.34.68,2.34,2.05a5.83,5.83,0,0,1-.44,1.9c-.2.58-.54.87-1,.87a3.84,3.84,0,0,1-.73-.14c-.39-.1-.63-.54-.73-1.32,0-.39-.29-.58-.88-.58a11.18,11.18,0,0,0-4.6,1.75,50.37,50.37,0,0,0-6.8,4.68l-1.17,1,.88.59a7.56,7.56,0,0,1,2.63,6.14A30.11,30.11,0,0,1,253,255q-1.6,5.27-10.38,16.38A147.64,147.64,0,0,1,230,286a98.61,98.61,0,0,1-12.2,10.53,43.51,43.51,0,0,1-10.16,5.7,22.3,22.3,0,0,1-7.24,1.54,11.72,11.72,0,0,1-2.63-.3q-5-1-6.58-4.38a16,16,0,0,1-1.61-7C189.58,291,189.63,290,189.73,289Zm36.11-26c.29,0,1.65-1.47,4.09-4.39q1.6-1.76,3.8-4.24c1.47-1.66,2.73-3,3.8-4.09a29.67,29.67,0,0,0,2.64-2.93c-.3,0-1.1.66-2.42,2s-2.7,2.8-4.16,4.46-2.83,3.24-4.1,4.75-2,2.41-2.34,2.7Z" transform="translate(-36.83 -75.42)"/><path class="cls-2" d="M200.4,305.22a13.63,13.63,0,0,1-3-.33c-3.76-.78-6.33-2.53-7.6-5.2a17.61,17.61,0,0,1-1.76-7.67c0-1,0-2.11.15-3.21v-.05a44.44,44.44,0,0,1,4.15-13.1,94.39,94.39,0,0,1,8.69-14.49,124.81,124.81,0,0,1,12.43-14.58,122.24,122.24,0,0,1,15.55-13.24l.68-.45c-6.6-2.41-9.5-4.51-9.64-7s-.15-2.73-.15-2.79c0-3.77,2.87-8.42,8.78-14.23A59.22,59.22,0,0,1,241,199.12c3.82-2.15,6.91-3.19,9.43-3.19,4.95,0,5.77,2.33,5.81,3.71l0,.73c0,1.08.06,1.65.06,1.74,0,3.15-1.85,7.49-5.66,13.25-.81,1.12-1.54,2.16-2.2,3.15a20.46,20.46,0,0,0-1.22,2c-1.1,2-2.45,2.43-3.39,2.43a2.86,2.86,0,0,1-2.69-2.07,3.13,3.13,0,0,1-.27-1.33,4.14,4.14,0,0,1,.52-1.84,48.74,48.74,0,0,1,2.66-4.12,64.66,64.66,0,0,0,5.58-8.47,7.92,7.92,0,0,0,.89-2.82.5.5,0,0,0-.15-.4.8.8,0,0,0-.54-.14c-.82,0-2.42.35-5.4,2.06a58.47,58.47,0,0,0-7.69,5.35,54.74,54.74,0,0,0-6.9,6.68,18.72,18.72,0,0,0-3.71,5.83,5.92,5.92,0,0,0-.1.94,2.43,2.43,0,0,0,.8,1.79c.39.39,1.63,1.25,5.69,2.81,4.23,1.66,4.93,2.38,5.29,3a3.59,3.59,0,0,1,.65,1.8c0,2-2,3.22-2.61,3.62l-.12.06a17.34,17.34,0,0,0-1.58,1c-.8.55-1.59,1.08-2.39,1.57a81.48,81.48,0,0,0-11,8.53,118.17,118.17,0,0,0-10.11,10.54,123.86,123.86,0,0,0-8.52,11.34,85,85,0,0,0-6.25,11,37.37,37.37,0,0,0-3,8.12,26.9,26.9,0,0,0-.55,4.48,8.19,8.19,0,0,0,.59,3.32,6.67,6.67,0,0,0,6.68,4.24c4.05,0,9.07-2.1,14.92-6.23,6-4.25,12.41-10.38,19-18.24,10.92-13,16.46-22.28,16.46-27.54a3.66,3.66,0,0,0-1.07-2.88,8.61,8.61,0,0,0-1,.6,36,36,0,0,0-3.7,3.16c-1.57,1.47-3.34,3.28-5.26,5.39s-3.9,4.39-6,6.83c-3.51,4.31-5.91,6.94-7.32,8-1.63,1.26-2.87,1.85-3.92,1.85a3.1,3.1,0,0,1-1.4-.3l-.23-.14a3,3,0,0,1-1.19-2.52,8.69,8.69,0,0,1,.77-3,25,25,0,0,1,3-5.07,70.45,70.45,0,0,1,5.45-6.65c2.13-2.32,4.29-4.51,6.45-6.52a51.77,51.77,0,0,1,6.47-5.19,17.33,17.33,0,0,1,5.64-2.71,4.61,4.61,0,0,0,1.4-.46,11.41,11.41,0,0,0,2.14-1.67l.11-.09a62.65,62.65,0,0,1,8.4-5.46,14.32,14.32,0,0,1,6.25-2c2.36,0,3.84,1.36,3.84,3.55a7.13,7.13,0,0,1-.54,2.43,2.53,2.53,0,0,1-2.43,1.84,4.42,4.42,0,0,1-1.1-.19,2.34,2.34,0,0,1-1.69-1.79,13.75,13.75,0,0,0-3.42,1.5,48,48,0,0,0-6.32,4.32,9.1,9.1,0,0,1,2.63,6.8,31.18,31.18,0,0,1-1.67,8c-1.15,3.73-4.62,9.25-10.64,16.87A149.77,149.77,0,0,1,231.07,287a100.21,100.21,0,0,1-12.4,10.69,45.05,45.05,0,0,1-10.53,5.89A23.47,23.47,0,0,1,200.4,305.22Zm52-53.32c-1.83,6-7.27,14.35-16.46,25.29-2,2.38-4,4.6-5.94,6.67a148.6,148.6,0,0,0,11.5-13.37c5.72-7.23,9.12-12.58,10.14-15.9C251.91,253.57,252.16,252.68,252.36,251.9Zm-29,12.53a10.37,10.37,0,0,0-.73,1.46,7.94,7.94,0,0,0-.55,1.77,7,7,0,0,0,1.89-1.17,20.31,20.31,0,0,0,2.13-2.07h-2.74Zm27.11-22.26a6.57,6.57,0,0,1,2.6,5.55A10.62,10.62,0,0,1,253,249a10.91,10.91,0,0,0,.14-1.52,6.12,6.12,0,0,0-2-4.94l-2.05-1.36a7.7,7.7,0,0,1-1.63.47,15,15,0,0,0-4.53,2.25c-.87.58-1.76,1.23-2.65,1.93h1.42V247l.61-.58a42,42,0,0,1,4-3.43,5.55,5.55,0,0,1,2.91-1.29A1.83,1.83,0,0,1,250.47,242.17Zm-1.12,2.51Zm16.32-11h0Zm-34-.09ZM223,222.3a4.58,4.58,0,0,0-.08.86c0,.14.05,1,.15,2.62,0,0,.18,1.6,8.07,4.45.49.19.85.32,1.14.4a2.92,2.92,0,0,1,1.3.67l.45.44v.63a1.87,1.87,0,0,1-.21.85l.46-.26a3,3,0,0,0,1.1-1c0-.06-.07-.14-.13-.24a17.86,17.86,0,0,0-3.85-1.81c-4.71-1.8-6.1-2.84-6.73-3.48a5.38,5.38,0,0,1-1.68-3.91A2.53,2.53,0,0,1,223,222.3ZM264.9,232a2,2,0,0,1,1,1.06,2.59,2.59,0,0,0,.08-.52C266,232.07,266,231.89,264.9,232Zm-29.42.18Zm-.16-.35Zm16.27-24.06c-1,1.72-2.68,4.2-5.09,7.52-1.84,2.7-2.32,3.5-2.43,3.73a1.87,1.87,0,0,0-.21.54.24.24,0,0,0,0,.07l0,.1a.81.81,0,0,0,.06.13,2.37,2.37,0,0,0,.58-.76,24.67,24.67,0,0,1,1.39-2.24c.68-1,1.43-2.09,2.22-3.19A51.37,51.37,0,0,0,251.59,207.75ZM251.3,199a3.49,3.49,0,0,1,1.95,1.92c0-.13,0-.26,0-.41l0-.73C253.2,199.22,252.13,199,251.3,199Z" transform="translate(-36.83 -75.42)"/></g></g></svg>