<?xml version="1.0" encoding="UTF-8"?>
<svg id="Layer_2" data-name="Layer 2" xmlns="http://www.w3.org/2000/svg" viewBox="0 0 567.72 365.76">
  <defs>
    <style>
      .cls-1 {
        fill: #f16622;
        stroke-width: 0px;
      }
    </style>
  </defs>
  <g id="Layer_1-2" data-name="Layer 1">
    <g>
      <path class="cls-1" d="m123.24,60.1c-.59,0-1.19.06-1.81.17-3.94.83-7.97,3.71-12.11,8.63-2.03,2.4-4.22,5.34-6.58,8.82-12.97,19.06-29.07,50.96-48.31,95.71.5-1.43,1.27-3.7,2.33-6.81,1.79-5.28,3.15-9.38,4.07-12.3,5.21-16.35,6.92-28.56,5.14-36.61-1.17-5.3-3.86-9.29-8.05-11.99-2.48-1.5-5.11-2.25-7.88-2.25-.52,0-1.04.03-1.57.08-.34.02-.85.1-1.51.24-4.49.95-9.69,3.8-15.61,8.57-6.89,5.56-12.56,11.69-17,18.38-.98,1.59-1.75,2.86-2.29,3.81-.55.94-1.07,2.18-1.57,3.73-.5,1.54-.62,2.9-.36,4.08.39,1.79,1.6,3.18,3.63,4.2,1.47.7,3.14,1.05,5.01,1.05,1.1,0,2.26-.12,3.49-.36,1.39-.29,2.7-.67,3.93-1.15.42-.19.64-.53.65-1.02-.16-.45-.56-.95-1.2-1.51-1.29-.97-2.51-1.46-3.66-1.46-.28,0-.56.03-.83.09l-.42.09-.08.02-.08.02c-3.01,1.15-4.59,1.73-4.74,1.73,0,0,0,0,0,0-.01-.05-.06-.12-.14-.21-.03-.42.25-1.26.84-2.5,2.12-4.34,5.76-9.51,10.93-15.51,8.99-10.54,16.97-16.54,23.97-18.01.56-.12,1.03-.19,1.43-.22.27-.02.52-.04.78-.04,3.2,0,5.29,2,6.29,5.99,1.84,8.57-1.42,25.34-9.77,50.3-.32.92-.56,1.67-.73,2.23-3.76,10.82-5.68,17.92-5.74,21.29-.03.91.06,1.86.28,2.82.79,2.92,2.82,4.37,6.09,4.37.64,0,1.33-.06,2.06-.17.82-.23,1.28-.35,1.39-.38.03-.38,1.94-5.02,5.71-13.93,14.62-34.39,28.07-62.3,40.34-83.71,1.25-2.19,2.65-4.54,4.19-7.04,9.92-16.01,16.96-24.46,21.12-25.34l.25-.05c1.74,2.36,3.03,5.47,3.89,9.35,1.21,5.5,1.62,12.83,1.2,21.99-.39,9.8-2.27,25.82-5.65,48.08-.15,1.16-.43,3.02-.84,5.62-.26,1.45-.46,2.55-.57,3.32-2.75,17.49-3.54,28.83-2.4,34.03.28,1.27.83,2.57,1.64,3.9,1.57,2.37,3.27,3.55,5.08,3.55.3,0,.6-.03.91-.1l.5-.1c.31-.18.44-.49.4-.96-.04-.2-.14-.48-.27-.82-1.01-2.24-1.55-3.49-1.61-3.74-.22-.97-.35-2.12-.42-3.43-.38-5.42.7-16.13,3.25-32.14.48-3.08.83-5.29,1.06-6.62,1.19-8.04,2.06-14.17,2.63-18.4,3.34-24.55,3.85-42.07,1.52-52.57-.98-4.44-2.45-7.94-4.41-10.51-2.24-2.87-4.84-4.3-7.81-4.3h0Z"/>
      <path class="cls-1" d="m176.42,108.95c-1.22,0-2.53.14-3.92.41-1.72.36-3.27.95-4.66,1.78-3.4,1.94-4.76,4.44-4.08,7.51.02.1.05.23.08.38.1.19.17.34.19.44-.93,1.05-1.83,2.25-2.69,3.61-3.53,5.54-4.85,10.33-3.96,14.36.65,2.95,2.6,5.08,5.85,6.37.07.04.17.13.32.25,1.09.42,2.32.63,3.7.63,1.1,0,2.3-.14,3.58-.4,6.71-1.41,11.74-6.37,15.08-14.86.51-.05,1.29-.19,2.34-.42,7.54-1.59,14.19-5.66,19.94-12.2.18-.2.28-.46.26-.78-.17-.5-.6-1.02-1.31-1.56-1.23-.98-2.34-1.47-3.34-1.47-.21,0-.42.02-.62.06-.28.06-.51.19-.7.39-3.93,4.51-8.94,7.99-15.01,10.44.49-2.24.52-4.33.09-6.26-.72-3.26-2.44-5.67-5.17-7.23-1.69-.97-3.68-1.45-5.97-1.45h0Zm3.21,16.65c-4.34,0-7.24-1.25-8.71-3.74.18-.2.56-.49,1.11-.88.95-.68,1.39-1.2,1.31-1.56-.18-.55-1.02-1.2-2.52-1.95.24-.48.68-1,1.31-1.55,1.92-1.53,4.14-2.55,6.63-3.08.24-.05.44-.07.61-.07.19,0,.33.03.44.09.52.53.9,1.32,1.14,2.4.61,2.75.21,6.2-1.2,10.34-.04,0-.08,0-.12,0h0Zm-14.3,15.21c-.37,0-.75-.03-1.12-.09-.11-.24-.24-.83-.39-1.76-.05-.47-.08-1-.09-1.58.18-3.61,1.78-7.71,4.77-12.29,2.7,1.99,5.94,3.36,9.7,4.12-.48.95-1.03,1.92-1.62,2.9-3.14,4.98-6.42,7.83-9.86,8.56-.46.1-.93.14-1.39.14h0Z"/>
      <path class="cls-1" d="m269.6,91.12c-.61,0-1.23.06-1.86.18-.67.14-1.32.35-1.95.65-.58.28-1.21.69-1.91,1.2-3.44,2.59-9.18,9.43-17.23,20.51,3.09-10.41,4.66-15.65,4.71-15.71.03-.11.02-.3-.04-.55-.07-.31-.25-.61-.55-.92-.86-.99-2.09-1.72-3.7-2.18-.41-.12-.88-.18-1.4-.18-.43,0-.89.04-1.4.12-1.55.33-4.29,1.74-8.21,4.21-4.27,2.71-7.85,4.78-10.73,6.18-2.94-2.74-6.16-4.11-9.65-4.11-.33,0-.67.01-1,.04l-.33.07c-.12,0-.22,0-.29,0-.06,0-.09,0-.1,0-.03,0-.12.03-.29.06-.14.03-.24.04-.33.04-.02,0-.04,0-.06,0-.01,0-.03,0-.04,0-.07,0-.16,0-.25.03-.11.02-.21.04-.29.06-.08.02-.18.04-.29.06-.38.08-.77.19-1.15.32-2.56.75-3.65,2-3.26,3.73.22,1.01.95,1.96,2.18,2.81-.06,0-.11,0-.17,0-.51,0-.92.13-1.22.38-.15.14-.29.3-.42.49-7.6,7.89-10.8,14.54-9.61,19.94.45,2.04,1.58,3.72,3.38,5.05,2.05,1.49,4.41,2.24,7.09,2.24,1.11,0,2.28-.13,3.5-.39,2.61-.55,4.92-1.65,6.93-3.3,2.11-1.72,3.98-3.91,5.61-6.54,3.28-5.39,4.41-10.37,3.4-14.96l-.25-1.15c4.48-1.8,9.28-4.49,14.41-8.08-5.07,16.44-7.51,25.22-7.32,26.35.71,2.06,2.4,3.09,5.07,3.09.29,0,.6-.01.92-.04.65-.18,1.76-1.19,3.34-3.02.96-1.16,4.48-5.87,10.54-14.14,7.76-10.6,13.19-16.62,16.29-18.07l.18.84c.22.96.45,2.57.72,4.81.24,2.4.49,4.19.75,5.37.9,4.08,2.86,6.81,5.9,8.2.97.4,2.04.61,3.2.61.67,0,1.37-.07,2.11-.2,1.72-.36,3.57-1.18,5.55-2.45,3.82-2.41,8.82-7.25,14.99-14.52.92-1.1,1.56-1.85,1.94-2.25.14-.19.19-.46.17-.83-.11-.51-.52-1.04-1.22-1.58-1.25-.92-2.38-1.38-3.39-1.38-.22,0-.44.02-.65.07-.22.05-.45.17-.7.38-.36.45-1.21,1.38-2.52,2.77-9.97,10.58-15.92,16.08-17.86,16.49-.05.01-.1.02-.15.02-.07,0-.13,0-.2-.02-.06-.03-.14-.23-.22-.59-.06-.25-.12-.67-.19-1.24-.61-5.36-1.03-8.59-1.26-9.66-.83-3.77-2.12-6.27-3.84-7.51-1.67-1.18-3.46-1.78-5.37-1.78h0Zm-52.95,16.08c-1.24,0-1.98-.33-2.2-1-.02-.1-.02-.23,0-.4.21-.9.87-1.46,1.98-1.7.21-.04.41-.06.62-.06,1.34,0,2.64.8,3.9,2.38-.49.16-1.18.33-2.06.52-.87.16-1.61.25-2.23.25h0Zm-9.29,24.98c-.76,0-1.41-.26-1.96-.78-.39-.45-.69-1-.89-1.65-.21-1.99,1.09-5.52,3.93-10.59,2.81-4.86,5.03-7.46,6.63-7.8.06,0,.2-.01.44-.01,2.2.04,3.87.06,5.01.06,1.03,0,1.62-.02,1.78-.05.02.1.02.24,0,.4-.13,3.6-1.9,7.82-5.3,12.64-3.23,4.57-6.17,7.14-8.83,7.7-.28.06-.55.09-.8.09h0Z"/>
      <path class="cls-1" d="m331.36,75.88c-.24,0-.48.02-.71.07-.6.18-1.06.57-1.39,1.18-.98,2.12-2.17,4.51-3.56,7.15-6.56,12.59-11.93,20.07-16.11,22.44-.23-.54-.4-.99-.47-1.34-.34-1.53-.36-3.45-.05-5.75.7-5.48,2.63-11.57,5.8-18.26.08-.18.09-.37.05-.57-.17-.5-.67-1.06-1.51-1.69-1.3-.84-2.48-1.26-3.52-1.26-.26,0-.5.03-.74.08-.39.08-.67.27-.84.57-5,10.72-6.85,19-5.56,24.86.58,2.6,1.89,4.62,3.95,6.05,1.86,1.2,3.68,1.8,5.46,1.8.48,0,.96-.04,1.44-.13.55-.12,1.07-.3,1.53-.56.1-.07.2-.12.32-.15,3.69-2.22,8.13-7.84,13.33-16.89l.24,1.07c1.06,4.79,3.73,7.97,8.02,9.51,1.1.36,2.28.54,3.53.54.89,0,1.83-.09,2.8-.27,4.44-.94,9.28-3.82,14.53-8.66,4.77-4.42,8.39-8.81,10.85-13.17.07-.17.11-.39.11-.66-.16-.45-.59-.97-1.3-1.57-1.25-.92-2.38-1.38-3.39-1.38-.22,0-.44.02-.64.07-.22.05-.47.23-.75.55-1.17,2.07-3.61,5.06-7.33,8.99-7.02,7.35-12.42,11.42-16.19,12.22-.43.09-.82.14-1.16.14-.32,0-.59-.04-.84-.12-.56-.2-1.04-1.03-1.43-2.51-.23-1.07-.4-2.45-.48-4.14-.25-5.07-.09-9.85.49-14.34.07-.18.11-.4.11-.67-.1-.46-.48-.99-1.14-1.6-1.19-1.07-2.34-1.6-3.45-1.6h0Z"/>
      <path class="cls-1" d="m373.56,10c-.78,0-1.21.28-1.31.84l-.59,4.05c-.39,2.69-.97,6.8-1.72,12.32-.75,5.52-1.48,11.04-2.17,16.57-15.85,5.21-32.04,11.26-48.57,18.16l-.8.33c-.11.02-.2.07-.27.14-.07.07-.14.15-.21.24-.06.09-.1.18-.11.26-.01.08,0,.18.01.28.02.1.07.21.12.34.06.12.12.23.2.32.08.09.18.2.3.34.12.13.26.25.42.35.17.09.32.21.46.34.13.08.3.18.5.3,1.17.69,2.19,1.04,3.05,1.04.41,0,.79-.08,1.14-.24l2.16-.85c1.48-.63,3.58-1.5,6.3-2.61,2.71-1.11,5.77-2.32,9.16-3.65,3.39-1.33,7.37-2.83,11.94-4.51,4.56-1.68,9.06-3.28,13.48-4.8-.47,3.94-1.26,10.18-2.39,18.74-1.13,8.78-1.98,15.33-2.53,19.66-3.49,28.58-4.35,45.67-2.59,51.28.02.1.08.25.18.44.72,1.13,1.96,1.88,3.72,2.26.37.08.76.14,1.17.16,1.28,0,1.8-.43,1.55-1.29-.78-2.5-1.09-7-.89-13.49.34-10.26,2.54-30.75,6.6-61.48,1.18-8.57,2.01-14.8,2.48-18.69,26.67-8.68,46.89-13.02,60.67-13.02,3.26,0,6.16.24,8.7.73.39.07.75.1,1.09.1.14,0,.28,0,.41-.02.89-.19,1.16-.65.83-1.37-.08-.09-.16-.21-.25-.35-.78-1.17-2.05-1.92-3.8-2.24-2.88-.55-6.15-.82-9.82-.82-13.62,0-32.68,3.78-57.16,11.33,1.02-8.01,2.19-16.6,3.53-25.79l.34-2.39c-.02-.1-.02-.24,0-.4-.28-1.01-1.31-1.83-3.07-2.48-.12-.03-.31-.07-.55-.12-.68-.19-1.25-.28-1.7-.28h0Z"/>
    </g>
    <g>
      <path class="cls-1" d="m324.04,192.47c-.27,0-.54.02-.8.06-.9.18-1.69.56-2.38,1.13-1.9,1.56-3.94,4.38-6.09,8.45-2.83,5.49-7.09,16.36-12.74,32.62-2.51,7.18-4.39,12.45-5.64,15.8-5.47,14.66-10.1,23.38-13.93,26.14-5.33-7.48-11.2-12.35-17.61-14.6-2.16-.72-4.34-1.08-6.56-1.08-1.33,0-2.68.13-4.04.39-1.2.25-2.4.63-3.59,1.14-6.71,2.77-13.26,9.72-19.64,20.84,3.82-12.46,4.98-22.17,3.47-29.11-1.19-5.24-4.06-9.21-8.62-11.89-1.94-1.09-4.01-1.78-6.21-2.08-.47-.05-.95-.07-1.44-.07-1.13,0-2.32.13-3.57.39-3.05.63-6.44,2-10.17,4.09-7.74,4.32-14.93,10.2-21.59,17.65-6.15,6.92-9.21,12.37-9.18,16.36-.01.22.03.56.14,1.02.45,1.72,1.8,3.09,4.04,4.12,1.67.67,3.45,1.01,5.34,1.01,1.09,0,2.21-.11,3.37-.33,1.2-.25,2.73-.69,4.58-1.34.46-.2.69-.54.71-1.03-.16-.45-.59-.94-1.28-1.49-1.36-.95-2.65-1.42-3.87-1.42-.32,0-.63.03-.94.1l-.36.07c-1.57.54-3.07.96-4.51,1.25.05-1.46.72-3.35,2-5.69,3.2-5.56,8.47-11.64,15.82-18.22,8.25-7.3,14.93-11.48,20.02-12.52.67-.14,1.31-.21,1.91-.21.58,0,1.14.06,1.66.19,2.98,1.83,4.94,4.65,5.87,8.46,1.12,4.94.44,11.91-2.04,20.89-1.39,4.93-4.65,14.07-9.78,27.45-4.4,11.57-6.69,19.34-6.85,23.32-.04.92.04,1.86.26,2.82.8,2.88,2.93,4.31,6.38,4.31.73,0,1.52-.06,2.36-.19.89-.24,1.39-.37,1.51-.39.05-.33.42-1.72,1.13-4.15,5.28-17.4,11.37-31.74,18.28-43.03.61-.93,1.24-1.88,1.89-2.87,6.41-9.37,12.39-14.63,17.97-15.78.67-.14,1.34-.21,2-.21.99,0,1.97.15,2.95.46,3.53,1.19,7.52,4.95,11.96,11.29.01.04.05.09.12.12,2.37,3.38,4.93,5.07,7.67,5.07.47,0,.95-.05,1.44-.15.84-.17,1.73-.52,2.68-1.03,2.57-1.38,5.56-5.62,8.97-12.72,2.85-5.97,7.56-17.98,14.14-36.02,5.96-16.32,10.28-26.62,12.94-30.9,0,.86-.01,1.76-.04,2.73-.16,9.26-1.68,24.42-4.56,45.48-1.27,9.06-2.15,15.69-2.64,19.89-2.96,25.67-3.66,41.97-2.09,48.89.27,1.17.82,2.39,1.67,3.66,1.67,2.38,3.47,3.58,5.42,3.58.34,0,.68-.04,1.02-.11l.54-.11c.18-.04.33-.12.45-.26.12-.14.21-.26.25-.37.03-.11.04-.25,0-.4-.04-.15-.12-.32-.26-.51-.13-.19-.3-.37-.5-.54-.19-.18-.4-.34-.62-.51-.23-.17-.43-.63-.61-1.4-.48-2.14-.82-5.27-1-9.39-.14-7.86.33-17.39,1.42-28.61.21-2.12,1.62-13.74,4.24-34.86.08-.76.24-2,.48-3.7,3.37-25.27,4.38-40.86,3.04-46.77-.31-1.37-.74-2.32-1.3-2.85-1.71-1.58-3.41-2.37-5.08-2.37h0Z"/>
      <path class="cls-1" d="m380.97,230.65c-.7,0-1.41.07-2.14.22l-.36.07c-.89.23-1.82.59-2.77,1.05-4.33,2.22-8.08,6.14-11.26,11.76-3.5,6.16-4.72,11.55-3.67,16.19.13.56.31,1.11.56,1.65,1.73,4.25,5.69,6.38,11.88,6.38.89,0,1.82-.04,2.8-.13.49-.05,1.27-.18,2.35-.41,8.32-1.77,18.33-8.21,30.05-19.31,4.23-4.02,6.93-6.79,8.09-8.31.13-.24.19-.52.18-.84-.13-.56-.61-1.18-1.45-1.86-1.35-1.06-2.55-1.59-3.61-1.59-.21,0-.41.02-.6.06-.24.05-.46.18-.67.38-2.23,2.59-4.87,5.35-7.91,8.27-11.73,11.33-21.37,17.76-28.92,19.32-1.05.22-2.06.32-3.03.32-.25,0-.51,0-.76-.02-1.22-.12-2.06-1.07-2.52-2.83-.43-1.88-.21-3.13.66-3.74l1.08-.62c.67-.35,1.57-.88,2.7-1.6,1.12-.71,2.36-1.53,3.73-2.45,1.35-.92,2.78-1.93,4.25-3.04,1.47-1.1,2.85-2.21,4.14-3.33,1.28-1.12,2.43-2.29,3.44-3.51,1.01-1.22,1.71-2.35,2.1-3.39.35-.98.43-1.98.26-3.01-.32-1.42-1.26-2.7-2.83-3.82-1.82-1.24-3.75-1.87-5.77-1.87h0Zm1.5,4.67c-.36,3.11-4.18,7.26-11.48,12.45.4-.72.86-1.46,1.38-2.21,3.4-5.17,6.77-8.59,10.09-10.24h0Z"/>
      <path class="cls-1" d="m443.27,220.53c-.69,0-1.4.07-2.12.2-.6.12-1.27.34-2.02.65-.34.18-.73.39-1.17.64-3.8,2.33-10.41,9.46-19.81,21.36,3.84-11.56,5.78-17.39,5.81-17.51.09-.18.11-.34.08-.5-.18-.5-.7-1.03-1.58-1.59-1.44-.85-2.73-1.28-3.86-1.28-.29,0-.57.03-.84.08-.41.14-.71.36-.89.66-7.46,21.85-11.08,33.31-10.84,34.38.63,2.07,2.23,3.12,4.8,3.12.48,0,.99-.04,1.53-.11.71-.19,1.92-1.22,3.63-3.06,1.05-1.18,4.89-5.94,11.53-14.3,8.48-10.71,14.41-16.8,17.78-18.3l.19.84c.22.96.45,2.57.71,4.81.29,2.39.57,4.17.83,5.35.92,4.07,3.01,6.78,6.27,8.14,1.14.39,2.34.59,3.6.59.78,0,1.58-.07,2.41-.23,3.71-.77,8.01-3.26,12.89-7.46,2.09-1.82,5.66-5.44,10.71-10.85.18-.3.27-.64.24-1.01-.14-.61-.61-1.28-1.4-2.03-1.35-1.19-2.51-1.78-3.5-1.78-.16,0-.31.02-.46.05-.24.05-.44.14-.59.28-.4.46-1.32,1.39-2.75,2.8-10.87,10.72-17.35,16.3-19.44,16.73-.02,0-.04,0-.07,0-.06,0-.14-.01-.23-.03-.14-.07-.24-.26-.31-.57-.06-.25-.13-.67-.19-1.24-.5-5.28-.89-8.51-1.16-9.68-.84-3.71-2.22-6.2-4.13-7.46-1.75-1.14-3.64-1.72-5.65-1.72h0Z"/>
      <path class="cls-1" d="m512.14,206.23c-.89,0-1.8.09-2.73.26-.69.14-1.47.37-2.34.71-.39.18-.84.4-1.36.67-4.44,2.43-12.21,9.73-23.32,21.9,4.69-11.69,7.06-17.59,7.11-17.71.1-.18.14-.35.1-.5-.19-.49-.79-1.02-1.79-1.56-1.59-.8-3.02-1.19-4.29-1.19-.38,0-.74.03-1.09.1-.48.15-.83.37-1.04.69-9.11,22.1-13.53,33.69-13.28,34.75.66,2.01,2.4,3.02,5.21,3.02.62,0,1.28-.05,2-.15.83-.21,2.25-1.27,4.26-3.16,1.24-1.21,5.77-6.08,13.62-14.62,10.02-10.94,16.99-17.2,20.9-18.78l.2.84c.23.96.46,2.57.71,4.81.28,2.4.56,4.18.83,5.35.96,4.07,3.32,6.74,7.04,8.02,1.2.34,2.47.51,3.81.51,1,0,2.03-.09,3.1-.28,4.3-.86,9.31-3.46,15.03-7.79,2.45-1.87,6.65-5.58,12.59-11.13.22-.31.32-.65.3-1.02-.15-.61-.67-1.28-1.56-2.01-1.5-1.14-2.81-1.71-3.93-1.71-.21,0-.41.02-.6.06-.28.05-.51.15-.7.3-.47.46-1.55,1.43-3.23,2.88-12.78,11.01-20.37,16.76-22.79,17.24-.03,0-.07,0-.11,0-.06,0-.14,0-.23-.02-.16-.07-.27-.26-.34-.56-.07-.25-.13-.67-.19-1.24-.46-5.29-.84-8.51-1.11-9.68-.88-3.71-2.41-6.17-4.59-7.39-1.91-1.06-3.98-1.6-6.19-1.6h0Z"/>
    </g>
    <path class="cls-1" d="m223.07,130c-2.52,0-5.61,1.04-9.43,3.19-3.66,2.06-7.78,5.36-12.23,9.81-5.91,5.81-8.78,10.46-8.78,14.23,0,.06,0,.22.15,2.79.14,2.45,3.04,4.54,9.64,6.95-.21.14-.44.29-.69.44-5.6,4.03-10.83,8.49-15.54,13.25-4.71,4.76-8.9,9.67-12.43,14.58-3.54,4.92-6.47,9.8-8.69,14.49-2.25,4.76-3.65,9.16-4.15,13.1v.05c-.11,1.1-.16,2.18-.16,3.21,0,2.65.59,5.23,1.76,7.67,1.28,2.67,3.85,4.43,7.61,5.2.98.22,1.98.33,2.96.33,2.14,0,4.67-.53,7.74-1.62,2.99-1.07,6.54-3.05,10.53-5.89,3.95-2.82,8.12-6.41,12.4-10.69,4.27-4.27,8.57-9.21,12.76-14.68,6.02-7.62,9.5-13.14,10.64-16.87,1.13-3.69,1.67-6.32,1.67-8.04,0-2.8-.88-5.09-2.62-6.8,2.26-1.79,4.38-3.24,6.32-4.32,1.8-1,2.83-1.37,3.42-1.5.36,1.2,1.09,1.64,1.69,1.79.63.16.89.19,1.1.19,1.13,0,2.05-.71,2.43-1.85.36-.96.54-1.75.54-2.43,0-2.19-1.47-3.55-3.84-3.55-1.62,0-3.66.65-6.25,2-2.41,1.26-5.23,3.1-8.39,5.47l-.11.09c-1.27,1.15-1.89,1.54-2.15,1.67-.45.23-.9.38-1.4.46-1.56.33-3.41,1.22-5.64,2.7-2.11,1.41-4.29,3.16-6.48,5.19-2.15,2.01-4.32,4.2-6.44,6.52-2.13,2.33-3.96,4.56-5.45,6.65-1.55,2.17-2.54,3.83-3.03,5.08-.53,1.35-.76,2.26-.76,2.96,0,1.35.64,2.11,1.19,2.52l.23.14c.4.2.88.31,1.4.31,1.05,0,2.29-.59,3.92-1.85,1.41-1.1,3.81-3.74,7.32-8.04,2.05-2.44,4.06-4.74,5.96-6.83,1.92-2.11,3.69-3.93,5.25-5.4,1.55-1.45,2.79-2.51,3.71-3.16.44-.31.75-.49.95-.6.73.68,1.07,1.61,1.07,2.88,0,5.26-5.54,14.53-16.46,27.54-6.61,7.85-13.01,13.99-19.02,18.24-5.85,4.13-10.88,6.23-14.92,6.23-3.23,0-5.35-1.35-6.68-4.24-.4-.87-.6-1.99-.6-3.33,0-.98.19-2.49.56-4.48.36-1.96,1.36-4.69,2.96-8.12,1.61-3.47,3.72-7.16,6.25-10.99,2.54-3.83,5.4-7.64,8.52-11.34,3.11-3.69,6.51-7.23,10.1-10.54,3.57-3.28,7.26-6.16,10.96-8.53.8-.5,1.59-1.02,2.39-1.57.89-.61,1.35-.88,1.58-.99l.11-.06c.65-.4,2.61-1.61,2.61-3.62,0-.5-.19-1.02-.65-1.8-.35-.59-1.05-1.3-5.28-2.97-4.06-1.55-5.31-2.42-5.69-2.8-.55-.54-.8-1.11-.8-1.79,0-.27.03-.59.1-.94.54-1.64,1.78-3.6,3.7-5.83,2.03-2.36,4.35-4.61,6.9-6.69,2.56-2.08,5.15-3.88,7.69-5.34,2.98-1.71,4.58-2.07,5.39-2.07.27,0,.45.05.54.14.09.09.15.19.15.4,0,.31-.12,1.1-.89,2.82-.64,1.41-2.5,4.25-5.57,8.47-2,2.94-2.47,3.75-2.66,4.12-.36.72-.52,1.3-.52,1.84,0,.49.09.94.27,1.32.73,1.87,2.12,2.08,2.69,2.08.94,0,2.29-.42,3.39-2.44.1-.19.38-.7,1.23-1.96.66-.99,1.38-2.03,2.2-3.15,3.81-5.76,5.66-10.1,5.66-13.25,0-.08-.02-.66-.05-1.73l-.02-.73c-.05-1.39-.86-3.72-5.81-3.72h0Z"/>
  </g>
</svg>