<?xml version="1.0" standalone="no"?>
<!DOCTYPE svg PUBLIC "-//W3C//DTD SVG 20010904//EN"
 "http://www.w3.org/TR/2001/REC-SVG-20010904/DTD/svg10.dtd">
<svg version="1.0" xmlns="http://www.w3.org/2000/svg"
 width="550.000000pt" height="324.000000pt" viewBox="0 0 550.000000 324.000000"
 preserveAspectRatio="xMidYMid meet">

<g transform="translate(0.000000,324.000000) scale(0.100000,-0.100000)"
fill="#000000" stroke="none">
<path d="M3639 3228 c-1 -3 -3 -21 -13 -93 -4 -27 -9 -59 -11 -70 -7 -42 -18
-131 -19 -149 0 -11 -12 -24 -31 -31 -16 -7 -39 -16 -50 -20 -11 -5 -22 -9
-25 -10 -3 -1 -18 -7 -33 -13 -15 -7 -40 -15 -54 -18 -15 -4 -38 -13 -52 -20
-14 -8 -33 -14 -41 -14 -9 0 -20 -4 -25 -8 -6 -5 -37 -19 -70 -31 -49 -19 -96
-38 -113 -47 -9 -5 13 -34 26 -34 15 0 202 69 289 106 17 8 37 14 45 14 8 0
18 3 22 8 4 4 11 7 14 8 4 0 20 6 35 12 33 14 60 16 53 4 -2 -4 -7 -32 -11
-62 -6 -53 -10 -91 -21 -174 -6 -53 -18 -71 -88 -145 -76 -79 -132 -121 -162
-121 -31 0 -42 41 -38 140 3 83 -11 116 -43 106 -10 -4 -38 -47 -66 -105 -47
-96 -101 -172 -137 -191 -18 -9 -19 -6 -15 52 1 35 14 93 28 131 l25 67 -21
15 c-12 8 -24 15 -27 15 -8 0 -36 -58 -49 -100 -8 -25 -44 -68 -116 -138 -99
-96 -131 -118 -132 -89 -2 54 -16 115 -35 148 -17 31 -28 39 -52 40 -63 3 -71
-3 -158 -111 -70 -87 -94 -106 -77 -63 6 15 12 35 14 43 16 70 16 77 0 90 -28
23 -44 18 -140 -37 l-90 -52 -33 19 c-44 27 -106 26 -133 -1 -15 -15 -18 -24
-9 -33 10 -13 -2 -29 -67 -88 -37 -33 -125 -88 -134 -82 -5 3 -9 19 -9 36 0
41 -33 84 -75 98 -67 22 -165 -27 -165 -84 0 -13 -6 -31 -13 -38 -10 -11 -38
-62 -42 -78 0 -3 -4 -15 -8 -26 -4 -12 -3 -34 3 -50 40 -103 171 -90 249 25
32 46 45 57 99 76 58 21 62 21 62 5 0 -28 47 -78 80 -85 l30 -7 -57 -51 c-66
-61 -113 -130 -113 -167 0 -29 18 -49 68 -74 l33 -17 -53 -41 c-190 -148 -358
-396 -362 -533 -5 -194 177 -192 385 3 45 42 113 115 150 161 117 145 158 246
126 307 l-15 30 45 29 c39 25 48 27 66 15 18 -10 22 -10 34 6 17 23 16 29 -2
48 -20 20 -63 7 -134 -41 -31 -21 -72 -45 -91 -54 -74 -34 -209 -170 -246
-247 -14 -30 -14 -36 -1 -49 22 -22 44 -6 136 101 82 96 135 146 152 146 15 0
10 -63 -10 -105 -30 -65 -138 -204 -231 -296 -138 -137 -260 -185 -310 -121
-28 35 -22 91 19 179 66 140 224 324 353 410 46 30 68 51 66 62 -2 9 -29 30
-60 46 -80 41 -78 59 10 146 66 64 134 109 167 109 23 0 19 -9 -35 -95 -28
-44 -50 -82 -50 -86 0 -4 7 -13 16 -20 14 -12 20 -9 46 21 46 55 90 152 86
190 -2 28 -9 35 -37 45 -22 7 -31 14 -23 19 11 7 53 79 58 99 1 4 2 27 3 52 1
29 6 45 14 45 6 0 34 16 62 34 58 40 70 32 48 -28 -8 -23 -17 -52 -19 -65 -3
-14 -7 -28 -10 -33 -5 -8 -12 -34 -20 -80 -4 -22 0 -30 19 -39 21 -9 30 -8 51
7 14 11 28 26 31 34 2 8 15 26 27 40 13 14 40 50 61 81 49 74 147 181 160 176
10 -3 13 -11 21 -83 7 -57 12 -66 50 -92 29 -20 40 -22 69 -14 34 10 84 48
135 105 32 34 37 34 52 -3 14 -33 55 -60 90 -60 23 0 110 77 110 98 0 6 3 12
8 12 4 0 13 14 20 30 12 26 35 44 30 23 -1 -5 5 -21 12 -36 15 -31 61 -59 100
-62 32 -3 134 50 168 87 15 15 30 28 34 28 6 0 4 -47 -8 -140 -2 -19 -6 -97
-9 -172 -5 -128 -4 -139 15 -158 11 -11 29 -20 39 -20 16 0 18 5 12 28 -10 39
-4 204 14 362 7 62 15 124 20 160 2 19 7 58 10 85 3 28 8 65 10 83 21 147 27
197 28 214 1 16 27 30 83 43 10 3 44 12 74 20 30 9 63 18 73 21 42 10 58 14
77 18 11 3 23 7 28 9 4 3 27 8 52 11 25 3 56 9 70 12 14 3 75 7 135 8 112 3
141 13 86 31 -53 19 -221 9 -341 -19 -14 -3 -36 -8 -50 -10 -14 -3 -35 -7 -47
-10 -46 -12 -68 -17 -78 -20 -5 -2 -23 -6 -40 -10 -16 -4 -46 -14 -67 -21 -32
-12 -37 -12 -42 1 -3 9 -4 19 -1 24 2 4 7 29 10 56 3 27 8 65 11 84 16 121 16
116 -11 128 -26 12 -34 14 -36 10z m-1523 -949 c8 -13 -15 -30 -36 -26 -8 1
-16 10 -18 20 -3 12 3 17 22 17 14 0 28 -5 32 -11z m16 -82 c17 -27 -65 -157
-112 -181 -40 -19 -60 -11 -60 25 0 30 39 119 52 119 4 0 8 5 8 12 0 27 29 44
67 40 21 -3 41 -9 45 -15z m-415 -9 c8 -11 9 -49 1 -106 -2 -16 -67 -5 -88 15
-13 13 -13 16 4 29 11 8 14 14 8 14 -20 0 -13 28 10 44 27 19 52 20 65 4z
m-69 -132 c23 -10 42 -25 42 -33 0 -9 -20 -36 -44 -60 -56 -56 -91 -57 -92 -4
0 33 35 124 45 118 4 -1 25 -11 49 -21z"/>
<path d="M1092 2709 c-42 -25 -98 -87 -150 -164 -26 -38 -50 -71 -54 -73 -5
-2 -8 -8 -8 -12 0 -5 -27 -57 -61 -117 -76 -137 -267 -527 -283 -580 -4 -11
-13 -27 -21 -33 -13 -11 -13 -7 0 29 8 22 12 41 10 41 -3 0 0 12 6 28 6 15 13
35 15 45 5 21 12 50 20 80 3 12 7 60 9 107 3 75 0 92 -22 136 -36 74 -98 105
-179 89 -71 -13 -230 -145 -301 -248 -15 -23 -34 -48 -40 -55 -7 -7 -14 -19
-14 -25 -1 -7 -3 -22 -4 -34 -5 -49 82 -86 143 -60 20 9 21 12 6 28 -13 14
-22 15 -51 7 -40 -11 -52 -4 -35 20 7 9 16 26 21 37 5 11 17 30 27 43 11 12
30 37 44 55 35 45 151 157 163 157 6 0 18 6 26 14 21 19 86 36 111 29 35 -9
50 -56 45 -141 -4 -75 -10 -118 -21 -154 -3 -10 -7 -30 -10 -45 -3 -14 -13
-50 -24 -80 -10 -29 -17 -53 -15 -53 2 0 -14 -53 -36 -117 -46 -134 -49 -144
-55 -193 -7 -47 22 -86 62 -85 28 2 32 6 54 60 15 38 35 85 54 130 9 20 22 50
29 68 15 35 38 88 83 186 53 117 253 514 268 530 7 9 17 26 20 39 4 12 12 22
17 22 5 0 9 5 9 11 0 37 179 259 208 259 16 0 39 -48 48 -100 14 -79 8 -304
-10 -440 -2 -14 -7 -47 -10 -75 -3 -27 -8 -66 -11 -85 -3 -19 -7 -51 -10 -70
-3 -19 -7 -46 -10 -60 -5 -25 -15 -86 -21 -130 -9 -62 -18 -178 -17 -214 2
-52 30 -113 56 -120 31 -8 37 1 22 31 -18 34 -14 156 10 313 3 19 8 51 10 70
3 19 7 46 10 60 3 14 7 45 11 70 3 25 7 54 9 65 3 20 12 88 21 155 13 93 13
377 1 420 -36 126 -102 174 -175 129z"/>
<path d="M3125 1389 c-29 -15 -61 -69 -97 -163 -17 -44 -34 -85 -38 -91 -4 -5
-10 -22 -14 -37 -3 -15 -11 -40 -18 -55 -6 -15 -12 -30 -12 -33 -1 -3 -4 -9
-8 -15 -3 -5 -11 -30 -18 -54 -6 -24 -16 -55 -22 -70 -6 -14 -12 -31 -13 -37
-8 -38 -115 -251 -133 -266 -12 -11 -17 -9 -29 9 -30 45 -63 74 -125 107 -100
54 -180 41 -267 -45 -28 -28 -56 -63 -70 -92 -10 -19 -17 -24 -22 -15 -4 7 -5
16 -3 20 6 9 12 36 20 88 3 19 7 43 10 53 8 27 -16 128 -38 158 -26 35 -107
79 -138 75 -62 -8 -102 -24 -157 -63 -17 -13 -34 -23 -38 -23 -13 0 -151 -136
-198 -195 -29 -36 -50 -96 -41 -118 15 -39 109 -59 156 -32 39 23 -12 46 -69
32 -17 -4 -21 -2 -18 13 9 44 44 92 139 185 152 151 261 197 310 132 17 -24
21 -42 21 -110 -1 -45 -4 -93 -7 -107 -4 -14 -9 -36 -12 -49 -10 -43 -38 -126
-47 -135 -5 -6 -9 -17 -9 -25 0 -9 -7 -29 -15 -45 -8 -15 -15 -33 -15 -38 0
-6 -6 -24 -14 -41 -27 -61 -54 -150 -62 -207 -9 -62 49 -111 96 -80 8 5 12 10
8 10 -3 0 7 39 23 88 17 48 32 94 35 102 3 8 5 16 4 18 0 1 6 15 14 30 8 15
33 68 57 117 89 189 177 284 269 290 47 4 51 2 97 -44 26 -26 60 -61 74 -79
58 -70 111 -48 177 74 23 42 42 81 42 86 0 8 33 87 51 120 5 10 9 23 9 30 0 7
6 24 13 38 7 14 19 46 26 73 8 26 18 50 22 53 5 3 9 12 9 21 0 8 7 31 16 51
15 36 24 56 43 105 5 12 17 42 27 66 l19 44 7 -34 c4 -19 5 -41 3 -49 -2 -8
-6 -45 -9 -81 -7 -76 -15 -158 -22 -209 -3 -19 -7 -53 -10 -75 -3 -22 -7 -56
-10 -75 -3 -19 -7 -53 -10 -75 -3 -22 -7 -56 -10 -75 -2 -19 -7 -62 -10 -95
-3 -33 -7 -76 -9 -95 -14 -141 -16 -239 -6 -276 15 -56 46 -94 78 -94 22 0 24
2 12 16 -17 21 -19 32 -21 149 -2 120 11 279 37 475 9 64 15 115 21 160 8 67
13 111 19 150 3 19 8 96 12 171 5 122 4 140 -13 168 -19 32 -42 38 -79 20z"/>
<path d="M4979 1250 c-20 -11 -80 -60 -132 -110 -53 -49 -99 -90 -102 -90 -3
0 -1 8 4 18 5 9 13 28 18 42 6 14 15 36 21 50 22 53 21 58 -8 70 -37 15 -43
10 -70 -48 -12 -26 -27 -57 -32 -69 -12 -24 -148 -158 -185 -182 -27 -18 -36
-13 -40 24 -13 127 -41 168 -112 163 -39 -2 -49 -9 -129 -93 -48 -51 -92 -100
-98 -111 -10 -17 -11 -16 -8 6 1 14 3 26 4 28 2 1 4 7 5 12 1 6 4 12 5 15 1 3
4 10 5 15 1 6 4 12 5 15 1 3 4 10 5 15 1 6 3 11 4 13 2 1 4 12 7 25 3 17 -3
25 -21 34 -33 15 -47 1 -70 -69 -9 -29 -20 -53 -24 -53 -4 0 -43 -35 -86 -78
-44 -42 -93 -86 -109 -97 -15 -11 -34 -26 -41 -32 -8 -7 -18 -13 -24 -13 -6 0
-11 -4 -11 -8 0 -27 -155 -66 -170 -43 -11 19 1 62 19 69 9 3 25 14 35 24 11
10 26 18 33 18 7 0 13 3 13 8 0 4 19 20 41 37 51 38 83 88 74 115 -4 12 -22
28 -41 37 -64 31 -132 -8 -202 -116 -32 -49 -36 -64 -37 -120 0 -60 2 -65 34
-91 30 -25 40 -28 90 -25 31 1 63 5 71 7 39 11 125 63 193 117 41 33 78 57 81
54 3 -3 -2 -22 -10 -42 -14 -34 -14 -37 7 -53 11 -10 27 -18 33 -18 15 0 53
41 153 165 45 55 103 122 131 148 52 52 62 51 68 -4 7 -57 13 -79 27 -100 36
-51 85 -58 153 -22 45 24 59 21 43 -8 -7 -15 -4 -22 15 -34 35 -23 58 -13 124
58 64 70 261 265 285 285 22 17 37 15 38 -5 8 -119 42 -173 110 -173 39 0 141
36 147 52 2 4 8 8 13 8 10 0 25 12 105 85 l55 51 -25 23 -25 24 -34 -29 c-18
-16 -51 -42 -71 -59 -21 -16 -46 -37 -55 -46 -27 -27 -103 -79 -115 -79 -7 0
-13 12 -14 28 -8 104 -31 154 -76 170 -43 16 -54 15 -97 -8z m-1244 -290 c8
-12 -84 -102 -96 -94 -9 5 -9 6 42 67 32 38 43 44 54 27z"/>
</g>
</svg>
