<svg xmlns="http://www.w3.org/2000/svg" viewBox="0 0 547.72 321.48"><defs><style>.cls-1{fill:none;}.cls-2{fill:#f16622;}</style></defs><g id="Layer_2" data-name="Layer 2"><g id="Hand_Write" data-name="Hand Write"><path class="cls-1" d="M208.87,97c.89-.19,1.58-.36,2.07-.52-1.45-1.82-3-2.61-4.52-2.32a2.26,2.26,0,0,0-2,1.69,1.32,1.32,0,0,0,0,.4C204.78,97.2,206.25,97.46,208.87,97Z"/><path class="cls-1" d="M169.8,102.87a1.6,1.6,0,0,0-1.05,0,15.8,15.8,0,0,0-6.63,3.08,5.69,5.69,0,0,0-1.31,1.55c1.5.76,2.34,1.4,2.52,2,.08.36-.36.88-1.31,1.56a9.79,9.79,0,0,0-1.11.87q2.24,3.78,8.84,3.74,2.1-6.19,1.19-10.33A4.69,4.69,0,0,0,169.8,102.87Z"/><path class="cls-1" d="M153.72,127.38c0,.58,0,1.11.09,1.58a9.06,9.06,0,0,0,.39,1.76,6.83,6.83,0,0,0,2.51-.05q5.16-1.08,9.86-8.56c.6-1,1.14-1.94,1.62-2.9a24.06,24.06,0,0,1-9.7-4.12Q154,122,153.72,127.38Z"/><path class="cls-1" d="M205.49,101.35h-.43q-2.42.51-6.63,7.8-4.25,7.62-3.93,10.59a4.51,4.51,0,0,0,.89,1.65,2.91,2.91,0,0,0,2.76.7q4-.84,8.84-7.7,5.1-7.25,5.3-12.64a1,1,0,0,0,0-.4Q211.78,101.47,205.49,101.35Z"/><path class="cls-1" d="M372.47,225.32q-5,2.48-10.09,10.23c-.52.75-1,1.49-1.39,2.21Q371.94,230,372.47,225.32Z"/><path class="cls-2" d="M121.05,54.41q-4-5.16-9.62-4.14-5.91,1.24-12.11,8.63c-2,2.41-4.21,5.34-6.58,8.83Q73.3,96.32,44.44,163.44c.49-1.43,1.27-3.7,2.32-6.81q2.68-7.92,4.07-12.3,7.81-24.53,5.14-36.61a18.26,18.26,0,0,0-8-12,14.93,14.93,0,0,0-9.44-2.17A10.85,10.85,0,0,0,37,93.8q-6.74,1.42-15.61,8.57a81.69,81.69,0,0,0-17,18.39q-1.47,2.38-2.29,3.8a19.17,19.17,0,0,0-1.57,3.73,7.8,7.8,0,0,0-.36,4.08,6.2,6.2,0,0,0,3.63,4.19,13.48,13.48,0,0,0,8.5.69,25.7,25.7,0,0,0,3.93-1.14,1.08,1.08,0,0,0,.65-1,4,4,0,0,0-1.2-1.51,5.53,5.53,0,0,0-4.49-1.37l-.42.09h-.08l-.08,0q-4.67,1.78-4.75,1.72a.74.74,0,0,0-.14-.21,6.68,6.68,0,0,1,.84-2.5q3.18-6.51,10.93-15.5,13.49-15.81,24-18a10.72,10.72,0,0,1,1.43-.22q5.46-.51,7.06,6,2.76,12.85-9.76,50.3c-.33.93-.57,1.67-.73,2.24q-5.64,16.23-5.74,21.29a11,11,0,0,0,.28,2.82q1.41,5.23,8.15,4.21l1.4-.38q0-.57,5.71-13.92,21.93-51.6,40.34-83.71,1.89-3.28,4.19-7,14.88-24,21.12-25.33l.25-.06a24.6,24.6,0,0,1,3.9,9.35q1.82,8.25,1.2,22-.59,14.68-5.65,48.08-.22,1.73-.84,5.62c-.26,1.44-.46,2.55-.57,3.32q-4.14,26.23-2.4,34a12.88,12.88,0,0,0,1.64,3.9c1.83,2.75,3.83,3.91,6,3.45l.5-.1a.91.91,0,0,0,.4-1,6.68,6.68,0,0,0-.28-.82c-1-2.24-1.55-3.49-1.6-3.74a19.83,19.83,0,0,1-.42-3.43q-.57-8.13,3.25-32.14.74-4.62,1.06-6.62,1.78-12.06,2.64-18.4,5-36.83,1.52-52.57A26.71,26.71,0,0,0,121.05,54.41Z"/><path class="cls-2" d="M354.61,132.07c1.29,0,1.8-.43,1.55-1.29-.78-2.5-1.09-7-.89-13.49q.51-15.39,6.6-61.48,1.77-12.86,2.48-18.69Q413.82,21,433.72,24.83a5.59,5.59,0,0,0,1.5.09c.88-.19,1.16-.65.82-1.38a3.28,3.28,0,0,1-.25-.35A5.55,5.55,0,0,0,432,21q-20.36-3.87-67,10.51,1.53-12,3.53-25.79l.34-2.38a1.4,1.4,0,0,1,0-.41c-.28-1-1.3-1.83-3.07-2.47l-.55-.13c-1.85-.51-2.86-.33-3,.56l-.59,4c-.38,2.7-1,6.8-1.71,12.33s-1.48,11-2.17,16.57Q334,41.6,309.22,51.94l-.8.33a.61.61,0,0,0-.28.13,1.84,1.84,0,0,0-.21.25.58.58,0,0,0-.11.26.9.9,0,0,0,0,.28,2,2,0,0,0,.13.33,1.42,1.42,0,0,0,.19.32l.3.34a2.06,2.06,0,0,0,.42.35,2.69,2.69,0,0,1,.47.34l.5.29c1.74,1,3.13,1.29,4.18.8l2.16-.85q2.24-.95,6.3-2.61t9.16-3.65C335,47.52,339,46,343.58,44.34s9.05-3.28,13.48-4.8q-.71,5.91-2.39,18.74c-.53,4.09-1,7.67-1.4,10.8a2,2,0,0,0-.5.43,54.73,54.73,0,0,1-7.32,9q-10.54,11-16.19,12.21a3.85,3.85,0,0,1-2,0c-.56-.2-1.05-1-1.43-2.5a27.23,27.23,0,0,1-.48-4.14,82.83,82.83,0,0,1,.49-14.34,1.84,1.84,0,0,0,.11-.67,3.46,3.46,0,0,0-1.14-1.6c-1.44-1.3-2.83-1.8-4.16-1.52a2.31,2.31,0,0,0-1.39,1.17q-1.49,3.2-3.56,7.15-9.84,18.89-16.11,22.44a7.53,7.53,0,0,1-.47-1.34,16.74,16.74,0,0,1-.05-5.75,61.64,61.64,0,0,1,5.8-18.27.92.92,0,0,0,.05-.57,4.08,4.08,0,0,0-1.51-1.68,5.83,5.83,0,0,0-4.26-1.19,1.22,1.22,0,0,0-.84.58,72.51,72.51,0,0,0-5,13.78,3.48,3.48,0,0,0-1.4,0,1.71,1.71,0,0,0-.69.38c-.36.46-1.21,1.38-2.52,2.77q-15,15.89-17.86,16.49a.7.7,0,0,1-.35,0c-.06,0-.14-.23-.22-.59a11,11,0,0,1-.18-1.24c-.61-5.36-1-8.59-1.27-9.66q-1.24-5.66-3.83-7.51a9.11,9.11,0,0,0-7.23-1.6,9.71,9.71,0,0,0-2,.65,12.54,12.54,0,0,0-1.91,1.21q-5.16,3.89-17.23,20.51,4.64-15.61,4.71-15.72a1.42,1.42,0,0,0,0-.55,2,2,0,0,0-.55-.92,7.51,7.51,0,0,0-3.7-2.18,6.43,6.43,0,0,0-2.8-.06q-2.33.49-8.21,4.22a116.69,116.69,0,0,1-10.73,6.18,13.72,13.72,0,0,0-10.66-4.08l-.33.07H204l-.29.06a1.19,1.19,0,0,1-.39,0,1.06,1.06,0,0,0-.29,0l-.3.06-.29.06a9.2,9.2,0,0,0-1.14.32c-2.57.75-3.65,2-3.27,3.73a4.82,4.82,0,0,0,2.19,2.82,1.94,1.94,0,0,0-1.39.37,2.92,2.92,0,0,0-.42.49c-1.48,1.54-2.78,3-3.93,4.46a3.28,3.28,0,0,0-1.25,0,1.32,1.32,0,0,0-.7.39,39,39,0,0,1-15,10.44,14.42,14.42,0,0,0,.09-6.26,10.54,10.54,0,0,0-5.17-7.24q-3.88-2.22-9.89-1a15,15,0,0,0-4.66,1.78q-5.1,2.91-4.08,7.5c0,.1,0,.23.08.39a1.94,1.94,0,0,1,.19.43,28.72,28.72,0,0,0-2.69,3.61q-5.29,8.33-4,14.36c.65,2.95,2.6,5.08,5.84,6.36a2.12,2.12,0,0,1,.32.26,12.9,12.9,0,0,0,7.28.23q10.06-2.13,15.08-14.86a21.88,21.88,0,0,0,2.34-.42,33.37,33.37,0,0,0,10.36-4.07,11.17,11.17,0,0,0,.15,3.62,8.37,8.37,0,0,0,3.39,5,11.76,11.76,0,0,0,7.47,2.22,73.08,73.08,0,0,0-8.2,7.18c-5.91,5.81-8.79,10.46-8.79,14.23,0,.06,0,.21.15,2.78s3,4.54,9.65,7l-.69.44a124.75,124.75,0,0,0-28,27.83,94,94,0,0,0-8.7,14.49,44.35,44.35,0,0,0-4.15,13.1v0c-.11,1.1-.16,2.18-.16,3.21a17.53,17.53,0,0,0,1.76,7.66c1.28,2.68,3.85,4.43,7.61,5.21a14.1,14.1,0,0,0,2.95.32,23.68,23.68,0,0,0,7.74-1.62,45.22,45.22,0,0,0,10.53-5.89,99.61,99.61,0,0,0,12.4-10.69,150.28,150.28,0,0,0,12.76-14.68c6-7.62,9.5-13.14,10.64-16.86a30.75,30.75,0,0,0,1.67-8,9.13,9.13,0,0,0-2.62-6.8,48,48,0,0,1,6.31-4.32,13.36,13.36,0,0,1,3.43-1.5,2.33,2.33,0,0,0,1.69,1.79,4.42,4.42,0,0,0,1.1.19,2.53,2.53,0,0,0,2.42-1.85,7.08,7.08,0,0,0,.54-2.43c0-2.19-1.47-3.54-3.84-3.54a14.45,14.45,0,0,0-6.25,2,63.83,63.83,0,0,0-8.39,5.47l-.11.09a11.29,11.29,0,0,1-2.15,1.67,5.23,5.23,0,0,1-1.4.46,17.23,17.23,0,0,0-5.63,2.7,52.14,52.14,0,0,0-6.48,5.2c-2.15,2-4.32,4.19-6.44,6.51a71.74,71.74,0,0,0-5.45,6.65,25.89,25.89,0,0,0-3,5.08,8.61,8.61,0,0,0-.76,3,3,3,0,0,0,1.18,2.51l.23.14a3,3,0,0,0,1.4.31c1.05,0,2.3-.59,3.92-1.85,1.42-1.1,3.81-3.74,7.32-8,2.06-2.46,4.07-4.75,5.95-6.83s3.69-3.92,5.26-5.4a36.79,36.79,0,0,1,3.71-3.15,9.27,9.27,0,0,1,.95-.61,3.69,3.69,0,0,1,1.07,2.89c0,5.26-5.54,14.53-16.46,27.54-6.61,7.86-13,14-19,18.24s-10.88,6.23-14.93,6.23a6.66,6.66,0,0,1-6.67-4.24,8,8,0,0,1-.6-3.33,27.41,27.41,0,0,1,.56-4.48,37.23,37.23,0,0,1,3-8.12,87.55,87.55,0,0,1,6.25-11,124.33,124.33,0,0,1,8.53-11.33,116.66,116.66,0,0,1,10.1-10.54,81.11,81.11,0,0,1,11-8.53c.8-.5,1.6-1,2.4-1.57a14.09,14.09,0,0,1,1.58-1l.11-.07c.65-.39,2.61-1.61,2.61-3.61a3.59,3.59,0,0,0-.65-1.8c-.36-.59-1.06-1.3-5.28-3-4.07-1.55-5.31-2.42-5.69-2.8a2.41,2.41,0,0,1-.8-1.79,4.86,4.86,0,0,1,.1-.94,18.36,18.36,0,0,1,3.7-5.83,55.51,55.51,0,0,1,6.9-6.69,58.73,58.73,0,0,1,7.69-5.34c3-1.71,4.58-2.07,5.4-2.07a.78.78,0,0,1,.54.14.54.54,0,0,1,.15.41,7.74,7.74,0,0,1-.89,2.82,64.89,64.89,0,0,1-5.57,8.47,43,43,0,0,0-2.66,4.12,4.14,4.14,0,0,0-.53,1.84,3.08,3.08,0,0,0,.27,1.32,2.86,2.86,0,0,0,2.69,2.08c.95,0,2.29-.41,3.39-2.43a22.42,22.42,0,0,1,1.23-2c.65-1,1.38-2,2.19-3.14,3.81-5.77,5.66-10.1,5.66-13.26,0-.07,0-.52,0-1.34l0-1.12c0-1.39-.87-3.72-5.82-3.72a11,11,0,0,0-1.24.09,27.62,27.62,0,0,0,3.43-4.47q4.92-8.09,3.4-15l-.26-1.15a72.31,72.31,0,0,0,14.41-8.08q-7.6,24.66-7.32,26.35c.8,2.28,2.79,3.31,6,3.06q1-.28,3.34-3,1.43-1.74,10.53-14.15Q257,87.79,261.64,85.6l.18.85c.22,1,.46,2.56.73,4.8a50.17,50.17,0,0,0,.75,5.37q1.35,6.1,5.9,8.2a9.32,9.32,0,0,0,5.31.4,17.12,17.12,0,0,0,5.55-2.45q4.9-3.09,12.38-11.52a17.25,17.25,0,0,0,.32,2.11,9.57,9.57,0,0,0,3.95,6,9.35,9.35,0,0,0,6.89,1.67,5.38,5.38,0,0,0,1.53-.57.77.77,0,0,1,.32-.14Q311,97,318.78,83.48l.23,1.07q1.59,7.19,8,9.51a12.62,12.62,0,0,0,6.34.27q6.64-1.41,14.53-8.67c1.35-1.25,2.59-2.49,3.76-3.74q-4.64,39.28-2.12,47.3a3.42,3.42,0,0,0,.18.44,5.58,5.58,0,0,0,3.73,2.26A7.21,7.21,0,0,0,354.61,132.07Zm-188-10q-4.71,7.47-9.86,8.56a6.83,6.83,0,0,1-2.51.05,9.06,9.06,0,0,1-.39-1.76c-.05-.47-.08-1-.09-1.58q.28-5.41,4.77-12.29a24.06,24.06,0,0,0,9.7,4.12C167.71,120.17,167.17,121.14,166.57,122.11Zm3.18-6.51q-6.62,0-8.84-3.74A9.79,9.79,0,0,1,162,111c.95-.68,1.39-1.2,1.31-1.56-.18-.55-1-1.19-2.52-2a5.69,5.69,0,0,1,1.31-1.55,15.8,15.8,0,0,1,6.63-3.08,1.6,1.6,0,0,1,1.05,0,4.69,4.69,0,0,1,1.14,2.4Q171.86,109.4,169.75,115.6Zm36.67-21.48c1.56-.29,3.07.5,4.52,2.32-.49.16-1.18.33-2.07.52-2.62.5-4.09.24-4.43-.75a1.32,1.32,0,0,1,0-.4A2.26,2.26,0,0,1,206.42,94.12ZM207,114.4q-4.85,6.85-8.84,7.7a2.91,2.91,0,0,1-2.76-.7,4.51,4.51,0,0,1-.89-1.65q-.31-3,3.93-10.59,4.22-7.29,6.63-7.8h.43q6.3.12,6.79,0a1,1,0,0,1,0,.4Q212.08,107.16,207,114.4Z"/><path class="cls-2" d="M319.12,184.84c-2-1.84-3.95-2.6-5.89-2.31a5.33,5.33,0,0,0-2.37,1.13q-2.87,2.34-6.09,8.45-4.25,8.23-12.74,32.62-3.76,10.77-5.63,15.8-8.2,22-13.93,26.14-8-11.22-17.61-14.6a20.72,20.72,0,0,0-10.6-.69,19.22,19.22,0,0,0-3.6,1.14q-10.07,4.17-19.64,20.85,5.74-18.71,3.47-29.11a17.78,17.78,0,0,0-8.62-11.89,17.35,17.35,0,0,0-6.21-2.08,16.15,16.15,0,0,0-5,.32,36.06,36.06,0,0,0-10.17,4.09,83.73,83.73,0,0,0-21.58,17.65q-9.22,10.39-9.19,16.37a4,4,0,0,0,.14,1c.45,1.71,1.8,3.09,4,4.12a15.28,15.28,0,0,0,8.71.68,38.14,38.14,0,0,0,4.59-1.35,1.09,1.09,0,0,0,.71-1,4,4,0,0,0-1.28-1.5,6.17,6.17,0,0,0-4.82-1.32l-.36.07a35.41,35.41,0,0,1-4.51,1.25,13.85,13.85,0,0,1,2-5.69q4.8-8.34,15.81-18.22,12.39-10.95,20-12.52a8,8,0,0,1,3.57,0,13.08,13.08,0,0,1,5.87,8.46q1.68,7.41-2,20.9Q214.09,271,206.39,291q-6.6,17.36-6.85,23.32a10.65,10.65,0,0,0,.27,2.83q1.45,5.22,8.74,4.11l1.51-.39c.05-.33.42-1.72,1.13-4.15q7.91-26.1,18.28-43l1.89-2.87q9.62-14.07,18-15.78a9.67,9.67,0,0,1,4.95.25q5.29,1.79,12,11.29s.05.09.12.13q4.17,5.94,9.12,4.91a9.59,9.59,0,0,0,2.68-1q3.85-2.07,9-12.72,4.28-9,14.14-36Q310.2,197.39,314.2,191c0,.86,0,1.77,0,2.73q-.24,13.89-4.56,45.48-1.91,13.59-2.64,19.9-4.44,38.51-2.09,48.89a11,11,0,0,0,1.67,3.65c2,2.8,4.1,4,6.44,3.48l.54-.11a.85.85,0,0,0,.45-.26,1.14,1.14,0,0,0,.25-.37.9.9,0,0,0,0-.4,1.37,1.37,0,0,0-.26-.51,3.11,3.11,0,0,0-.5-.54,8,8,0,0,0-.62-.5,2.54,2.54,0,0,1-.6-1.4,56.13,56.13,0,0,1-1-9.39,250.73,250.73,0,0,1,1.42-28.6q.31-3.18,4.23-34.86c.08-.76.25-2,.49-3.7q5-37.9,3-46.77A5.57,5.57,0,0,0,319.12,184.84Z"/><path class="cls-2" d="M546.15,198q-2.65-2-4.52-1.65a1.49,1.49,0,0,0-.7.3q-.7.69-3.23,2.87Q518.53,216,514.91,216.72a.79.79,0,0,1-.34,0c-.16-.07-.27-.26-.35-.57a10.45,10.45,0,0,1-.19-1.24,95.24,95.24,0,0,0-1.11-9.68q-1.32-5.57-4.59-7.4a13,13,0,0,0-8.92-1.33,14.88,14.88,0,0,0-2.34.7l-1.36.67q-6.66,3.64-23.32,21.9l7.11-17.71a.73.73,0,0,0,.1-.5,3.69,3.69,0,0,0-1.79-1.56,8.53,8.53,0,0,0-5.38-1.09,2,2,0,0,0-1,.69q-3.11,7.54-5.48,13.45l-1.46,1.45Q448.15,230.57,445,231.22a.92.92,0,0,1-.3,0,.8.8,0,0,1-.3-.57,11.86,11.86,0,0,1-.2-1.24c-.5-5.27-.89-8.51-1.16-9.68q-1.26-5.56-4.13-7.46a10.28,10.28,0,0,0-7.77-1.51,10.85,10.85,0,0,0-2,.65L428,212q-5.7,3.5-19.81,21.35,5.76-17.32,5.81-17.5a.71.71,0,0,0,.08-.5,3.6,3.6,0,0,0-1.58-1.59,6.76,6.76,0,0,0-4.69-1.2,1.6,1.6,0,0,0-.89.67q-2.36,6.9-4.2,12.43a3.37,3.37,0,0,0-1.65-.11,1.36,1.36,0,0,0-.66.38q-3.35,3.89-7.91,8.27-17.59,17-28.92,19.32a14.64,14.64,0,0,1-3.79.3c-1.22-.12-2.06-1.06-2.53-2.83s-.2-3.13.66-3.74l1.09-.62c.67-.35,1.57-.88,2.69-1.6s2.36-1.53,3.73-2.45,2.77-1.93,4.25-3,2.85-2.22,4.14-3.33a30.57,30.57,0,0,0,3.43-3.51,12.28,12.28,0,0,0,2.1-3.4,5.92,5.92,0,0,0,.26-3,6.55,6.55,0,0,0-2.83-3.81,10,10,0,0,0-7.91-1.65l-.36.08A15.68,15.68,0,0,0,365.7,222q-6.49,3.33-11.26,11.76Q349.21,243,350.77,250a8.36,8.36,0,0,0,.56,1.64q3,7.3,14.68,6.25c.49,0,1.28-.18,2.36-.41q12.48-2.64,30.05-19.31l.28-.27q-2.83,9-2.65,9.79,1.11,3.69,6.32,3c.72-.2,1.92-1.22,3.64-3.07q1.58-1.76,11.53-14.29,12.72-16.06,17.77-18.3l.19.84c.22,1,.45,2.57.72,4.81a54.14,54.14,0,0,0,.83,5.35q1.38,6.1,6.27,8.14a11.79,11.79,0,0,0,6,.36c3.05-.63,6.5-2.44,10.34-5.39q-1.68,4.67-1.55,5.25c.8,2.44,3.21,3.41,7.22,2.87.82-.21,2.24-1.27,4.26-3.16q1.85-1.81,13.62-14.62,15-16.41,20.9-18.78l.2.84a45.8,45.8,0,0,1,.71,4.81,47.88,47.88,0,0,0,.83,5.35,10.44,10.44,0,0,0,7,8,15.3,15.3,0,0,0,6.91.23q6.45-1.29,15-7.79,3.67-2.81,12.59-11.13a1.63,1.63,0,0,0,.3-1A4.18,4.18,0,0,0,546.15,198ZM362.38,235.55q5.1-7.76,10.09-10.23Q371.93,230,361,237.76C361.4,237,361.86,236.3,362.38,235.55Z"/></g></g></svg>