<svg version="1.0" xmlns="http://www.w3.org/2000/svg"
 width="80.000000pt" height="80.000000pt" viewBox="0 0 80.000000 80.000000"
 preserveAspectRatio="xMidYMid meet">

<g transform="translate(0.000000,80.000000) scale(0.100000,-0.100000)"
fill="#000000" stroke="none">
<path d="M292 712 c-141 -51 -231 -190 -220 -337 10 -117 80 -220 187 -272 48
-24 68 -28 141 -28 73 0 93 4 141 28 67 32 132 99 162 165 16 36 21 67 22 132
0 73 -4 93 -28 141 -32 67 -100 132 -165 162 -66 29 -172 33 -240 9z m245 -35
c58 -30 113 -86 144 -147 33 -64 33 -184 1 -256 -29 -64 -92 -126 -157 -156
-71 -32 -191 -32 -255 1 -61 31 -116 86 -148 146 -22 43 -26 63 -26 135 0 69
4 93 23 130 43 83 122 149 206 171 54 15 159 2 212 -24z"/>
<path d="M390 670 c0 -5 5 -10 10 -10 6 0 10 5 10 10 0 6 -4 10 -10 10 -5 0
-10 -4 -10 -10z"/>
<path d="M200 590 c0 -5 5 -10 10 -10 6 0 10 5 10 10 0 6 -4 10 -10 10 -5 0
-10 -4 -10 -10z"/>
<path d="M580 590 c0 -5 5 -10 10 -10 6 0 10 5 10 10 0 6 -4 10 -10 10 -5 0
-10 -4 -10 -10z"/>
<path d="M360 471 l0 -90 -44 -3 -44 -3 59 -70 c33 -38 64 -70 69 -70 5 0 36
32 69 70 l59 70 -44 3 -44 3 0 90 0 89 -40 0 -40 0 0 -89z m60 -21 l0 -90 30
0 c17 0 30 -3 30 -7 -1 -5 -19 -28 -40 -52 l-40 -44 -40 44 c-21 24 -39 47
-40 52 0 4 14 7 30 7 l30 0 0 90 c0 83 1 90 20 90 19 0 20 -7 20 -90z"/>
<path d="M120 400 c0 -5 5 -10 10 -10 6 0 10 5 10 10 0 6 -4 10 -10 10 -5 0
-10 -4 -10 -10z"/>
<path d="M660 400 c0 -5 5 -10 10 -10 6 0 10 5 10 10 0 6 -4 10 -10 10 -5 0
-10 -4 -10 -10z"/>
<path d="M200 210 c0 -5 5 -10 10 -10 6 0 10 5 10 10 0 6 -4 10 -10 10 -5 0
-10 -4 -10 -10z"/>
<path d="M580 210 c0 -5 5 -10 10 -10 6 0 10 5 10 10 0 6 -4 10 -10 10 -5 0
-10 -4 -10 -10z"/>
<path d="M390 130 c0 -5 5 -10 10 -10 6 0 10 5 10 10 0 6 -4 10 -10 10 -5 0
-10 -4 -10 -10z"/>
</g>
</svg>
