<?xml version="1.0" encoding="utf-8"?>
<!-- Generator: Adobe Illustrator 27.7.0, SVG Export Plug-In . SVG Version: 6.00 Build 0)  -->
<svg version="1.1" xmlns="http://www.w3.org/2000/svg" xmlns:xlink="http://www.w3.org/1999/xlink" x="0px" y="0px"
	 viewBox="0 0 394.62 203.3" style="enable-background:new 0 0 394.62 203.3;" xml:space="preserve">
<style type="text/css">
	.st0{fill:#050505;}
</style>
<g id="paper">
</g>
<g id="Graphic_x2B_Photo">
</g>
<g id="Text">
</g>
<g id="Hand_Write">
</g>
<g id="texture_on-top">
	<g>
		<g>
			<path class="st0" d="M127.82,124.78c-0.36,0.06-0.76-0.09-1.21-0.46c-0.21-0.17-0.33-0.33-0.37-0.49c0-0.08,0.01-0.15,0.04-0.2
				c1.36-1.83,2-2.99,1.93-3.49c-0.09-0.32-0.45-0.42-1.09-0.31c-0.76,0.13-1.84,0.49-3.25,1.06c-3.82,1.49-7.4,3.7-10.76,6.62
				c-0.33,0.28-0.65,0.56-0.95,0.84c-2.24,2.09-3.8,4.05-4.68,5.87c-0.52,1.12-0.71,2.08-0.57,2.89c0.03,0.2,0.09,0.38,0.17,0.52
				c0.35,0.91,1.47,1.59,3.36,2.02c0.37,0.09,1.83,0.35,4.39,0.76c2.85,0.47,4.91,1.11,6.18,1.93c1.34,0.88,2.14,2.07,2.41,3.56
				c0.32,1.78-0.45,3.7-2.3,5.74c-1.67,1.87-3.71,3.3-6.11,4.3c-0.92,0.39-1.8,0.66-2.62,0.8c-0.43,0.08-0.88,0.12-1.35,0.12
				c-1.95,0-3.44-0.69-4.45-2.07c-0.09-0.14-0.14-0.23-0.14-0.26c0.01-0.15,0.08-0.24,0.24-0.28c0.37-0.07,0.77,0.06,1.2,0.39
				c0.12,0.11,0.21,0.21,0.3,0.31c0.33,0.42,0.92,0.64,1.77,0.65c0.34,0,0.72-0.03,1.16-0.11c2.02-0.36,4.08-1.36,6.19-2.99
				c2.08-1.62,3.43-3.28,4.04-4.99c0.28-0.8,0.35-1.54,0.23-2.23c-0.24-1.37-1.28-2.34-3.11-2.93c-0.73-0.22-2.29-0.54-4.68-0.95
				c-2.69-0.44-4.65-0.99-5.89-1.67c-0.74-0.4-1.36-0.86-1.86-1.4c-0.5-0.55-0.81-1.15-0.92-1.81c-0.36-2.05,0.9-4.62,3.8-7.71
				c0.5-0.54,1.01-1.05,1.55-1.55c3.19-2.95,6.73-5.29,10.62-7.02c0.43-0.19,0.86-0.37,1.27-0.54c1.47-0.57,2.55-0.91,3.25-1.03
				c1.35-0.23,2.44-0.08,3.25,0.43c0.45,0.3,0.73,0.72,0.82,1.25c0.19,1.06-0.29,2.4-1.42,4.05l-0.19,0.27
				C127.98,124.73,127.9,124.76,127.82,124.78z"/>
			<path class="st0" d="M129.38,140.03c0.04-0.07,0.1-0.12,0.19-0.13c0.28-0.05,0.6,0.07,0.97,0.34c0.19,0.16,0.3,0.31,0.33,0.43
				c0.01,0.05,0,0.1-0.02,0.14c-0.76,1.62-1.24,3.1-1.44,4.45c-0.08,0.57-0.09,1.04-0.02,1.42c0.02,0.09,0.05,0.2,0.1,0.34
				c0.97-0.54,2.24-2.33,3.82-5.37c0.33-0.64,0.62-1.21,0.86-1.73c0.08-0.14,0.19-0.24,0.33-0.27c0.3-0.05,0.62,0.09,0.94,0.42
				c0.15,0.16,0.23,0.29,0.25,0.41c0,0.07-0.01,0.12-0.03,0.16c-0.16,1.11-0.23,2.29-0.2,3.54c0.01,0.42,0.04,0.76,0.08,1.03
				c0.08,0.37,0.18,0.58,0.31,0.64c0.11,0.04,0.27,0.05,0.46,0.02c0.87-0.15,2.12-1.1,3.77-2.84c0.87-0.93,1.45-1.64,1.73-2.14
				c0.07-0.08,0.12-0.12,0.17-0.13c0.27-0.05,0.57,0.08,0.91,0.37c0.16,0.16,0.25,0.29,0.29,0.4c0,0.07-0.01,0.12-0.03,0.16
				c-0.59,1.05-1.44,2.1-2.56,3.14c-1.23,1.14-2.36,1.8-3.37,1.98c-0.54,0.08-1.02,0.04-1.44-0.14c-0.97-0.43-1.56-1.25-1.77-2.45
				l-0.05-0.27c-1.24,2.18-2.29,3.52-3.15,4.03c-0.03,0-0.05,0.02-0.07,0.03c-0.11,0.06-0.23,0.1-0.35,0.12
				c-0.51,0.08-1.03-0.09-1.56-0.49c-0.46-0.38-0.75-0.89-0.86-1.54C127.7,144.66,128.17,142.63,129.38,140.03z"/>
			<path class="st0" d="M142.87,135.43c0.03-0.1,0.1-0.16,0.2-0.17c0.28-0.05,0.61,0.06,0.98,0.32c0.25,0.21,0.36,0.39,0.33,0.55
				c-0.02-0.04-0.4,2.07-1.15,6.31c0.07-0.06,0.16-0.14,0.29-0.23c0.01-0.02,0.05-0.15,0.13-0.4c0.95-3.01,1.67-4.76,2.16-5.27
				c0.12-0.11,0.26-0.18,0.42-0.21c0.51-0.09,1.11,0.1,1.8,0.59c0.22,0.16,0.4,0.3,0.51,0.44c0.33,0.4,0.55,0.9,0.66,1.5
				c0.02,0.14,0.05,0.33,0.06,0.58c0.22-0.08,0.45-0.16,0.68-0.24c0.23-0.08,0.44-0.15,0.62-0.22c0.18-0.07,0.37-0.13,0.54-0.18
				c0.17-0.06,0.33-0.1,0.46-0.14c0.13-0.04,0.25-0.07,0.35-0.1c0.1-0.03,0.18-0.05,0.23-0.06l0.07-0.03c0.01,0,0.03-0.01,0.05-0.03
				c0.33-0.06,0.67,0.08,1.02,0.41c0.16,0.14,0.25,0.27,0.27,0.39c-0.01,0.11-0.06,0.18-0.16,0.22c-0.34,0.06-1.49,0.44-3.45,1.12
				c-0.27,0.09-0.53,0.18-0.78,0.28c-0.26,1.37-0.78,2.53-1.57,3.47c-0.61,0.71-1.28,1.13-2.02,1.27c-0.45,0.08-0.88,0.06-1.31-0.06
				c-0.65,2.26-1.39,4.91-2.22,7.96c-0.73,2.65-1.21,4.21-1.44,4.69l0.01,0.04c-0.03,0.04-0.05,0.07-0.06,0.09
				c-0.11,0.19-0.21,0.29-0.3,0.29c-0.68-0.05-1.06-0.3-1.14-0.74c-0.01-0.06-0.01-0.16-0.01-0.27c0.02-0.25,0.08-0.71,0.18-1.37
				c0.1-0.66,0.22-1.45,0.37-2.36c0.15-0.91,0.31-1.92,0.5-3.04c0.18-1.11,0.38-2.25,0.59-3.42c0.21-1.17,0.41-2.32,0.62-3.47
				c0.2-1.15,0.4-2.23,0.58-3.25c0.18-1.02,0.34-1.92,0.48-2.7c0.14-0.78,0.25-1.4,0.34-1.86L142.87,135.43z M145.17,142.53
				c-0.06,0.2-0.15,0.49-0.28,0.88c-0.17,0.53-0.29,0.93-0.36,1.19c0.83-0.15,1.6-0.86,2.3-2.14c0.17-0.29,0.31-0.58,0.42-0.86
				C146.5,141.9,145.81,142.21,145.17,142.53z M145.68,140.94c0.57-0.27,1.24-0.57,2.01-0.89c0.11-0.65,0.11-1.27,0.01-1.85
				c-0.09-0.44-0.24-0.71-0.44-0.81l-0.02,0c-0.2,0.04-0.7,1.18-1.5,3.42C145.7,140.87,145.68,140.92,145.68,140.94z"/>
			<path class="st0" d="M153.68,131.73c0.03-0.1,0.1-0.16,0.21-0.17c0.28-0.05,0.61,0.06,0.98,0.32c0.25,0.21,0.36,0.39,0.33,0.55
				c-0.02-0.04-0.4,2.07-1.15,6.31c0.07-0.06,0.17-0.14,0.29-0.23c0.01-0.01,0.05-0.15,0.13-0.4c0.95-3.01,1.67-4.76,2.16-5.27
				c0.13-0.11,0.26-0.18,0.42-0.21c0.51-0.09,1.11,0.11,1.8,0.59c0.23,0.16,0.4,0.3,0.51,0.44c0.33,0.4,0.55,0.9,0.66,1.5
				c0.02,0.14,0.05,0.33,0.06,0.58c0.22-0.08,0.45-0.16,0.68-0.24c0.23-0.08,0.44-0.15,0.62-0.22c0.18-0.07,0.36-0.13,0.54-0.18
				c0.17-0.06,0.33-0.1,0.46-0.14c0.13-0.03,0.25-0.07,0.35-0.1c0.1-0.03,0.18-0.05,0.23-0.06l0.07-0.03c0.01,0,0.03-0.01,0.05-0.03
				c0.33-0.06,0.67,0.08,1.02,0.41c0.16,0.14,0.25,0.27,0.26,0.39c-0.01,0.11-0.06,0.18-0.16,0.22c-0.35,0.06-1.49,0.44-3.45,1.12
				c-0.27,0.09-0.53,0.18-0.78,0.28c-0.26,1.37-0.78,2.53-1.57,3.47c-0.61,0.71-1.28,1.13-2.02,1.26c-0.45,0.08-0.88,0.06-1.31-0.06
				c-0.65,2.26-1.39,4.91-2.22,7.96c-0.73,2.65-1.2,4.21-1.44,4.69l0.01,0.04c-0.03,0.04-0.05,0.08-0.06,0.09
				c-0.11,0.19-0.21,0.29-0.3,0.29c-0.68-0.05-1.06-0.3-1.14-0.74c-0.01-0.06-0.01-0.15-0.01-0.27c0.02-0.25,0.08-0.71,0.18-1.37
				c0.1-0.66,0.22-1.45,0.37-2.36c0.15-0.91,0.31-1.92,0.5-3.04c0.19-1.11,0.38-2.25,0.59-3.41c0.21-1.17,0.41-2.32,0.62-3.47
				c0.2-1.15,0.4-2.23,0.58-3.25c0.18-1.02,0.34-1.92,0.48-2.7c0.14-0.78,0.25-1.4,0.34-1.86L153.68,131.73z M155.98,138.83
				c-0.06,0.2-0.15,0.49-0.28,0.88c-0.17,0.53-0.29,0.92-0.36,1.19c0.83-0.15,1.59-0.86,2.3-2.14c0.17-0.29,0.31-0.58,0.42-0.86
				C157.32,138.2,156.62,138.51,155.98,138.83z M156.49,137.25c0.57-0.27,1.24-0.57,2.01-0.89c0.11-0.65,0.11-1.27,0.01-1.85
				c-0.09-0.44-0.24-0.71-0.44-0.81l-0.02,0c-0.2,0.04-0.7,1.18-1.5,3.42C156.52,137.18,156.5,137.22,156.49,137.25z"/>
			<path class="st0" d="M168.6,132.93c-0.06,0.23-0.35,0.25-0.84,0.03c-0.08-0.04-0.16-0.08-0.22-0.12
				c-0.94,0.46-1.75,1.16-2.41,2.1c-0.57,0.84-0.81,1.6-0.7,2.29c0.03,0.15,0.07,0.29,0.13,0.41c0.48-0.12,1.09-0.6,1.84-1.43
				c0.75-0.83,1.28-1.48,1.61-1.96c0.33-0.48,0.62-0.92,0.88-1.32l0.02-0.02c0.07-0.12,0.17-0.19,0.3-0.21
				c0.31-0.05,0.64,0.1,0.99,0.47c0.13,0.14,0.2,0.25,0.22,0.35c-0.01,0.04-0.01,0.07-0.02,0.08c0.02,0.57,0.07,1.06,0.14,1.47
				c0.07,0.38,0.17,0.72,0.32,1.01c0.1,0.14,0.26,0.2,0.46,0.18c0.84-0.15,2.58-1.41,5.22-3.79c0.05-0.05,0.1-0.08,0.16-0.09
				c0.28-0.05,0.59,0.08,0.94,0.39c0.16,0.16,0.26,0.3,0.29,0.42c0,0.09-0.02,0.16-0.08,0.21c-0.14,0.13-0.36,0.33-0.66,0.61
				c-1.59,1.47-2.81,2.41-3.66,2.84c-0.42,0.22-0.82,0.36-1.19,0.43c-0.15,0.03-0.36,0.04-0.61,0.03c-1.25-0.09-2.09-0.74-2.51-1.94
				c-1.53,2.03-2.78,3.14-3.75,3.33l-0.17,0.03c-0.66,0.04-1.25-0.22-1.77-0.77c-0.16-0.18-0.3-0.37-0.4-0.58
				c-0.09-0.18-0.15-0.39-0.19-0.62c-0.19-1.06,0.25-2.18,1.32-3.37c0.63-0.69,1.29-1.21,1.99-1.56c0.17-0.08,0.36-0.14,0.56-0.18
				c0.54-0.08,1.01,0.05,1.43,0.4C168.54,132.34,168.66,132.63,168.6,132.93z"/>
			<path class="st0" d="M186.1,131.14c0.14-0.2,0.4-0.15,0.78,0.14c0.38,0.29,0.52,0.54,0.44,0.75c-0.02,0.02-0.03,0.03-0.03,0.05
				c-0.08,0.11-0.74,1.18-1.98,3.23c-2.16,3.56-3.73,5.57-4.71,6.05c-0.22,0.09-0.42,0.13-0.59,0.11c-0.43-0.08-0.81-0.29-1.13-0.62
				c-0.59-0.64-0.38-2.53,0.63-5.65c0.07-0.24,0.19-0.59,0.35-1.05c0.21-0.63,0.34-1.05,0.4-1.27c-1.43,0.74-2.6,0.89-3.53,0.46
				c-0.87-0.41-1.3-1.15-1.3-2.21c-0.01-0.83,0.24-1.51,0.72-2.04c0.16-0.17,0.33-0.3,0.5-0.39c0.48-0.24,0.99-0.15,1.55,0.27
				c0.31,0.25,0.53,0.52,0.66,0.83c0.2,0.56,0.18,1.3-0.07,2.22c0.09-0.04,0.26-0.14,0.5-0.29c0.57-0.34,0.95-0.52,1.12-0.56
				c0.59-0.05,1.05,0.19,1.38,0.72c0.2,0.36-0.03,1.58-0.69,3.67c-0.67,2.16-1.06,3.49-1.16,4c-0.05,0.3-0.08,0.54-0.08,0.72
				c0.75-0.54,2.1-2.39,4.04-5.56C185.17,132.63,185.9,131.44,186.1,131.14z M176.93,132.51c0.42-1.02,0.62-1.87,0.62-2.56
				c-0.24,0.29-0.42,0.69-0.55,1.2c-0.09,0.3-0.13,0.67-0.13,1.09C176.87,132.39,176.89,132.48,176.93,132.51z"/>
			<path class="st0" d="M191.9,128.8c-0.06,0.24-0.34,0.25-0.84,0.03c-0.08-0.04-0.16-0.08-0.22-0.12c-0.94,0.46-1.75,1.16-2.41,2.1
				c-0.57,0.84-0.81,1.6-0.7,2.29c0.03,0.15,0.07,0.29,0.13,0.41c0.48-0.12,1.09-0.6,1.84-1.43c0.75-0.83,1.28-1.48,1.61-1.96
				c0.33-0.48,0.62-0.92,0.88-1.32l0.02-0.02c0.07-0.12,0.17-0.19,0.3-0.21c0.31-0.05,0.64,0.1,0.99,0.47
				c0.13,0.13,0.2,0.25,0.22,0.35c-0.01,0.04-0.01,0.07-0.02,0.08c0.02,0.57,0.07,1.06,0.14,1.47c0.07,0.38,0.17,0.72,0.32,1.01
				c0.1,0.14,0.26,0.2,0.46,0.18c0.84-0.15,2.58-1.41,5.22-3.78c0.05-0.05,0.1-0.08,0.16-0.09c0.28-0.05,0.59,0.08,0.94,0.39
				c0.16,0.16,0.26,0.3,0.29,0.42c0,0.09-0.02,0.16-0.08,0.21c-0.14,0.13-0.36,0.33-0.66,0.61c-1.59,1.47-2.81,2.41-3.66,2.84
				c-0.42,0.22-0.82,0.36-1.19,0.43c-0.15,0.03-0.35,0.04-0.61,0.03c-1.25-0.09-2.09-0.74-2.51-1.94c-1.53,2.03-2.78,3.14-3.75,3.32
				l-0.17,0.03c-0.66,0.04-1.25-0.22-1.77-0.77c-0.16-0.18-0.3-0.37-0.4-0.58c-0.09-0.18-0.15-0.39-0.19-0.62
				c-0.19-1.06,0.25-2.18,1.31-3.37c0.63-0.69,1.29-1.21,1.99-1.56c0.17-0.08,0.36-0.14,0.56-0.18c0.54-0.08,1.01,0.05,1.43,0.4
				C191.85,128.21,191.97,128.5,191.9,128.8z"/>
			<path class="st0" d="M202.98,111.32c0.04-0.22,0.27-0.25,0.69-0.1c0.06,0.02,0.1,0.03,0.13,0.04c0.4,0.18,0.63,0.39,0.69,0.65
				c-0.01,0.04-0.01,0.07,0,0.1l-0.09,0.59c-0.36,2.26-0.68,4.37-0.97,6.34c7.16-2.02,12.28-2.63,15.37-1.84
				c0.4,0.1,0.68,0.3,0.85,0.6c0.02,0.04,0.04,0.06,0.06,0.09c0.07,0.19,0.01,0.3-0.2,0.33c-0.1,0.01-0.22-0.01-0.34-0.04
				c-3.02-0.78-8.32-0.03-15.92,2.25c-0.13,0.96-0.36,2.49-0.68,4.6c-1.12,7.56-1.75,12.6-1.89,15.14
				c-0.08,1.61-0.04,2.72,0.12,3.35c0.05,0.22-0.07,0.31-0.36,0.3c-0.09-0.01-0.18-0.03-0.27-0.05c-0.4-0.11-0.68-0.31-0.84-0.6
				c-0.02-0.05-0.03-0.09-0.04-0.11c-0.37-1.41-0.06-5.63,0.91-12.66c0.15-1.07,0.39-2.68,0.7-4.84c0.31-2.1,0.53-3.64,0.66-4.61
				c-1.02,0.33-2.06,0.67-3.11,1.03c-1.05,0.36-1.97,0.69-2.75,0.98c-0.78,0.29-1.49,0.56-2.12,0.8c-0.63,0.24-1.11,0.43-1.46,0.57
				l-0.5,0.19c-0.24,0.11-0.56,0.03-0.95-0.25c-0.04-0.03-0.08-0.06-0.11-0.08c-0.03-0.03-0.07-0.06-0.11-0.09
				c-0.04-0.03-0.07-0.06-0.09-0.09c-0.03-0.04-0.05-0.06-0.07-0.09c-0.02-0.02-0.03-0.05-0.04-0.08c-0.01-0.03-0.02-0.06-0.03-0.08
				c0-0.03,0-0.05,0-0.07c0-0.02,0.01-0.04,0.03-0.06c0.02-0.02,0.03-0.04,0.05-0.06c0.02-0.02,0.04-0.03,0.06-0.03l0.18-0.07
				c3.82-1.52,7.56-2.83,11.21-3.94c0.19-1.36,0.39-2.72,0.6-4.08c0.21-1.36,0.36-2.37,0.47-3.03L202.98,111.32z"/>
		</g>
		<g>
			<path class="st0" d="M253.76,125.05c0.19-0.18,0.52-0.12,0.97,0.17c0.43,0.27,0.57,0.5,0.45,0.69c-0.01,0.03-0.02,0.04-0.03,0.04
				c-0.12,0.1-0.31,0.27-0.58,0.53c-1.57,1.48-2.8,2.44-3.72,2.88c-1.18,0.57-2.16,0.58-2.95,0.01c-0.68-0.49-1.18-1.45-1.5-2.88
				c-0.03-0.09-0.08-0.33-0.16-0.72c-0.81,0.71-1.81,2.31-2.98,4.8c-1,2.13-1.56,3.31-1.68,3.52c-0.13,0.24-0.25,0.45-0.37,0.63
				c-0.28,0.28-0.66,0.27-1.14-0.03c-0.39-0.26-0.6-0.57-0.64-0.92c-0.13-1.26,0.79-6.88,2.77-16.85c-0.92,0.76-2.01,1.51-3.27,2.25
				c-2.43,13.94-3.36,22.07-2.78,24.4c0.05,0.21-0.08,0.31-0.39,0.28c-0.08-0.01-0.16-0.03-0.25-0.06c-0.4-0.12-0.68-0.32-0.83-0.61
				c-0.02-0.05-0.03-0.09-0.04-0.11c-0.57-2.32,0.26-9.95,2.47-22.9c-3.17,1.68-6.57,3.11-10.19,4.3c-0.16,0.05-0.25,0.08-0.28,0.08
				c-0.26,0.08-0.59-0.01-0.97-0.29c-0.03-0.03-0.06-0.06-0.09-0.08c-0.05-0.04-0.09-0.09-0.13-0.13c-0.04-0.05-0.07-0.09-0.1-0.14
				c-0.03-0.05-0.04-0.09-0.05-0.13c-0.01-0.04,0-0.07,0-0.1c0.01-0.03,0.03-0.06,0.05-0.09c0.03-0.03,0.06-0.05,0.1-0.06
				c0.29-0.05,1.4-0.44,3.31-1.18c3.37-1.28,6.26-2.63,8.68-4.05c0.2-1.16,0.41-2.31,0.62-3.46s0.37-1.98,0.48-2.53l0.16-0.83
				c0.04-0.22,0.27-0.25,0.67-0.09c0.06,0.02,0.1,0.04,0.15,0.05c0.4,0.18,0.62,0.4,0.68,0.66c-0.01,0.04-0.01,0.07,0,0.1
				c-0.01-0.01-0.32,1.64-0.91,4.95c1.47-1,2.63-2.02,3.47-3.05c0.09-0.46,0.18-0.87,0.25-1.23c0.07-0.36,0.13-0.67,0.19-0.95
				c0.05-0.27,0.09-0.48,0.12-0.63l0.04-0.2c0.05-0.24,0.32-0.26,0.8-0.05c0.16,0.08,0.3,0.16,0.41,0.25
				c0.1,0.02,0.22,0.07,0.38,0.14c0.44,0.23,0.67,0.46,0.69,0.71c-0.01,0.01-0.01,0.03-0.01,0.04c-0.17,0.85-0.63,1.76-1.38,2.71
				c-1.46,7.27-2.47,12.74-3.02,16.4c0.12-0.23,0.31-0.63,0.57-1.2c1.17-2.46,2.06-4.06,2.67-4.81c0.1-0.12,0.19-0.23,0.28-0.32
				c0.39-0.39,0.83-0.5,1.3-0.33c0.84,0.31,1.4,0.92,1.7,1.84c0.05,0.16,0.11,0.41,0.18,0.76c0.19,0.73,0.38,1.24,0.57,1.54
				C249.37,128.7,251.12,127.45,253.76,125.05z"/>
			<path class="st0" d="M255.37,125.57c-0.19,0.14-0.24,0.44-0.16,0.91c0.09,0.45,0.26,0.69,0.52,0.74c0.26,0.04,0.52,0.03,0.8-0.01
				c1.61-0.27,3.69-1.7,6.25-4.32c0.66-0.67,1.24-1.31,1.73-1.92c0.04-0.05,0.09-0.07,0.14-0.08c0.25-0.04,0.55,0.11,0.88,0.45
				c0.17,0.18,0.27,0.34,0.3,0.48c0,0.08-0.01,0.15-0.04,0.2c-0.26,0.36-0.85,1-1.77,1.92c-2.55,2.56-4.72,3.99-6.49,4.3
				c-0.23,0.04-0.4,0.06-0.5,0.06c-1.66,0.05-2.68-0.54-3.07-1.77c-0.05-0.14-0.08-0.28-0.11-0.42c-0.19-1.16,0.1-2.48,0.88-3.94
				c0.71-1.34,1.53-2.25,2.46-2.73c0.21-0.1,0.4-0.17,0.59-0.22l0.08-0.01c0.6-0.1,1.15,0.08,1.66,0.53
				c0.33,0.3,0.52,0.63,0.57,0.99c0.03,0.26,0.01,0.5-0.07,0.74c-0.09,0.25-0.25,0.52-0.47,0.81c-0.22,0.29-0.47,0.56-0.75,0.81
				c-0.28,0.25-0.58,0.51-0.9,0.76c-0.32,0.25-0.63,0.48-0.92,0.68c-0.3,0.21-0.56,0.39-0.81,0.55c-0.24,0.16-0.44,0.28-0.58,0.35
				L255.37,125.57z M256.1,123.27c1.58-1.17,2.42-2.13,2.51-2.89c-0.72,0.35-1.45,1.14-2.2,2.37
				C256.29,122.92,256.19,123.1,256.1,123.27z"/>
			<path class="st0" d="M265.56,116.15c0.03-0.1,0.1-0.15,0.21-0.17c0.28-0.05,0.61,0.06,0.98,0.33c0.24,0.21,0.35,0.39,0.33,0.56
				c-0.02-0.04-0.43,2.06-1.22,6.3c0.07-0.06,0.17-0.14,0.3-0.23c0.01-0.01,0.05-0.15,0.13-0.4c0.99-3,1.73-4.74,2.22-5.25
				c0.13-0.11,0.27-0.18,0.42-0.21c0.51-0.08,1.11,0.12,1.79,0.61c0.22,0.16,0.39,0.31,0.51,0.45c0.33,0.4,0.54,0.91,0.64,1.51
				c0.02,0.14,0.04,0.33,0.06,0.58c0.22-0.08,0.45-0.15,0.68-0.23c0.23-0.08,0.44-0.15,0.62-0.21c0.19-0.06,0.37-0.12,0.54-0.18
				c0.17-0.06,0.33-0.1,0.46-0.13c0.13-0.03,0.25-0.07,0.35-0.1c0.1-0.03,0.17-0.05,0.23-0.06l0.07-0.03c0.01,0,0.03-0.01,0.06-0.03
				c0.33-0.05,0.67,0.09,1.01,0.42c0.16,0.14,0.24,0.28,0.26,0.39c-0.01,0.11-0.06,0.18-0.16,0.22c-0.34,0.06-1.5,0.42-3.46,1.08
				c-0.28,0.08-0.54,0.17-0.78,0.27c-0.27,1.37-0.81,2.52-1.61,3.45c-0.62,0.71-1.3,1.12-2.04,1.24c-0.45,0.07-0.88,0.05-1.31-0.08
				c-0.68,2.25-1.45,4.89-2.31,7.94c-0.76,2.64-1.25,4.2-1.49,4.67l0.01,0.04c-0.03,0.04-0.05,0.07-0.06,0.09
				c-0.11,0.19-0.22,0.29-0.31,0.29c-0.68-0.06-1.05-0.31-1.13-0.76c-0.01-0.06-0.01-0.15-0.01-0.27c0.02-0.25,0.09-0.71,0.2-1.37
				c0.11-0.66,0.24-1.45,0.4-2.36c0.16-0.91,0.34-1.92,0.53-3.03c0.2-1.11,0.41-2.24,0.63-3.41c0.22-1.16,0.44-2.32,0.66-3.46
				c0.22-1.14,0.42-2.22,0.62-3.24c0.19-1.02,0.36-1.91,0.51-2.69c0.15-0.78,0.27-1.4,0.36-1.86L265.56,116.15z M267.78,123.28
				c-0.06,0.19-0.16,0.49-0.29,0.87c-0.17,0.53-0.3,0.92-0.37,1.18c0.83-0.14,1.6-0.84,2.32-2.12c0.18-0.29,0.32-0.58,0.43-0.86
				C269.12,122.65,268.42,122.96,267.78,123.28z M268.3,121.69c0.57-0.27,1.25-0.55,2.02-0.86c0.12-0.65,0.13-1.27,0.03-1.85
				c-0.09-0.44-0.23-0.72-0.43-0.82l-0.02,0c-0.2,0.03-0.72,1.17-1.54,3.4C268.33,121.62,268.31,121.67,268.3,121.69z"/>
			<path class="st0" d="M276.56,112.44c0.04-0.1,0.11-0.16,0.21-0.17c0.28-0.05,0.61,0.06,0.98,0.33c0.24,0.21,0.35,0.39,0.33,0.56
				c-0.02-0.04-0.42,2.06-1.22,6.3c0.07-0.06,0.17-0.14,0.3-0.23c0.01-0.02,0.05-0.15,0.13-0.4c0.99-2.99,1.73-4.74,2.22-5.25
				c0.13-0.11,0.27-0.18,0.42-0.21c0.51-0.08,1.11,0.12,1.79,0.61c0.22,0.16,0.39,0.31,0.51,0.45c0.33,0.4,0.54,0.91,0.64,1.51
				c0.02,0.14,0.04,0.33,0.06,0.58c0.22-0.08,0.45-0.15,0.68-0.23c0.23-0.08,0.44-0.15,0.63-0.21c0.18-0.06,0.37-0.12,0.54-0.18
				c0.17-0.05,0.33-0.1,0.46-0.13c0.13-0.03,0.25-0.07,0.35-0.1c0.1-0.03,0.18-0.05,0.23-0.06l0.07-0.03c0.01,0,0.03-0.01,0.06-0.03
				c0.33-0.06,0.67,0.09,1.01,0.42c0.16,0.14,0.24,0.27,0.26,0.39c-0.01,0.11-0.06,0.18-0.16,0.22c-0.34,0.06-1.5,0.42-3.46,1.08
				c-0.27,0.08-0.54,0.17-0.78,0.27c-0.27,1.37-0.81,2.52-1.61,3.45c-0.62,0.71-1.3,1.12-2.04,1.24c-0.45,0.07-0.88,0.05-1.31-0.08
				c-0.68,2.25-1.45,4.9-2.31,7.94c-0.76,2.64-1.25,4.2-1.49,4.67l0.01,0.04c-0.03,0.04-0.05,0.07-0.06,0.09
				c-0.11,0.19-0.22,0.29-0.31,0.29c-0.68-0.06-1.05-0.31-1.13-0.76c-0.01-0.06-0.01-0.16-0.01-0.27c0.02-0.25,0.09-0.71,0.2-1.37
				c0.11-0.66,0.24-1.45,0.4-2.36c0.16-0.91,0.34-1.92,0.53-3.03c0.2-1.11,0.41-2.24,0.63-3.41c0.22-1.16,0.44-2.32,0.66-3.46
				c0.22-1.14,0.42-2.22,0.62-3.24c0.19-1.02,0.36-1.91,0.51-2.69c0.15-0.78,0.27-1.4,0.36-1.86L276.56,112.44z M278.78,119.57
				c-0.06,0.19-0.16,0.49-0.29,0.87c-0.17,0.53-0.3,0.92-0.37,1.18c0.83-0.14,1.6-0.84,2.33-2.12c0.17-0.29,0.32-0.58,0.43-0.86
				C280.12,118.95,279.42,119.26,278.78,119.57z M279.3,117.99c0.57-0.27,1.25-0.55,2.02-0.87c0.12-0.65,0.13-1.27,0.03-1.85
				c-0.09-0.44-0.23-0.72-0.43-0.81l-0.02,0c-0.2,0.03-0.72,1.17-1.54,3.4C279.33,117.92,279.31,117.96,279.3,117.99z"/>
			<path class="st0" d="M291.17,114.62c-0.07,0.23-0.35,0.24-0.84,0.02c-0.08-0.04-0.16-0.08-0.22-0.12
				c-0.95,0.45-1.76,1.14-2.43,2.07c-0.58,0.83-0.83,1.59-0.72,2.28c0.03,0.15,0.07,0.29,0.13,0.41c0.48-0.12,1.1-0.59,1.85-1.41
				c0.76-0.82,1.3-1.47,1.64-1.94s0.63-0.91,0.9-1.31l0.01-0.02c0.07-0.12,0.17-0.19,0.3-0.21c0.31-0.05,0.64,0.11,0.99,0.49
				c0.13,0.14,0.2,0.26,0.22,0.36c-0.01,0.04-0.01,0.07-0.03,0.08c0.02,0.57,0.06,1.07,0.13,1.48c0.06,0.38,0.16,0.72,0.31,1.01
				c0.1,0.14,0.26,0.2,0.46,0.18c0.84-0.14,2.6-1.38,5.27-3.72c0.05-0.05,0.1-0.08,0.16-0.09c0.28-0.05,0.59,0.09,0.93,0.4
				c0.16,0.16,0.25,0.3,0.29,0.43c0,0.09-0.03,0.16-0.08,0.21c-0.14,0.13-0.36,0.33-0.67,0.6c-1.61,1.45-2.84,2.38-3.69,2.79
				c-0.42,0.21-0.82,0.35-1.19,0.41c-0.15,0.03-0.36,0.03-0.61,0.02c-1.25-0.11-2.08-0.76-2.49-1.97c-1.56,2.01-2.82,3.11-3.79,3.28
				l-0.17,0.03c-0.66,0.03-1.25-0.23-1.76-0.79c-0.16-0.18-0.29-0.38-0.39-0.58c-0.08-0.18-0.14-0.39-0.18-0.62
				c-0.17-1.06,0.28-2.18,1.35-3.35c0.64-0.68,1.31-1.19,2.01-1.53c0.17-0.08,0.36-0.14,0.56-0.17c0.54-0.08,1.01,0.06,1.43,0.41
				C291.12,114.03,291.24,114.32,291.17,114.62z"/>
			<path class="st0" d="M309.29,112.91c0.15-0.2,0.42-0.15,0.81,0.14c0.39,0.29,0.53,0.54,0.44,0.76c-0.02,0.02-0.03,0.03-0.03,0.04
				c-0.09,0.11-0.79,1.18-2.1,3.22c-2.3,3.54-3.96,5.55-4.99,6.02c-0.23,0.09-0.44,0.13-0.61,0.1c-0.45-0.08-0.84-0.29-1.17-0.63
				c-0.6-0.65-0.36-2.53,0.74-5.65c0.08-0.23,0.2-0.59,0.38-1.05c0.22-0.63,0.37-1.05,0.44-1.27c-1.49,0.73-2.71,0.87-3.67,0.43
				c-0.89-0.42-1.33-1.16-1.31-2.22c0.01-0.83,0.27-1.51,0.79-2.04c0.17-0.17,0.34-0.3,0.53-0.38c0.5-0.24,1.03-0.14,1.6,0.29
				c0.32,0.25,0.54,0.53,0.67,0.83c0.2,0.56,0.16,1.3-0.1,2.22c0.1-0.04,0.27-0.14,0.52-0.28c0.6-0.33,0.99-0.52,1.17-0.55
				c0.61-0.05,1.08,0.19,1.42,0.73c0.2,0.36-0.05,1.58-0.77,3.67c-0.73,2.16-1.16,3.48-1.27,3.99c-0.06,0.3-0.09,0.54-0.1,0.72
				c0.79-0.54,2.22-2.38,4.28-5.53C308.3,114.39,309.08,113.21,309.29,112.91z M299.75,114.21c0.45-1.02,0.67-1.87,0.68-2.55
				c-0.25,0.29-0.45,0.69-0.59,1.2c-0.09,0.3-0.15,0.67-0.15,1.09C299.7,114.09,299.72,114.18,299.75,114.21z"/>
			<path class="st0" d="M315.22,109.91c-0.07,0.23-0.35,0.24-0.84,0.02c-0.08-0.04-0.16-0.08-0.22-0.12
				c-0.95,0.45-1.76,1.14-2.43,2.07c-0.58,0.83-0.83,1.59-0.72,2.28c0.03,0.15,0.07,0.29,0.13,0.41c0.48-0.12,1.1-0.59,1.85-1.41
				c0.76-0.82,1.3-1.47,1.64-1.94c0.34-0.48,0.63-0.91,0.9-1.31l0.02-0.02c0.07-0.12,0.17-0.19,0.3-0.21
				c0.31-0.05,0.64,0.11,0.99,0.49c0.13,0.14,0.2,0.26,0.22,0.36c-0.01,0.04-0.02,0.07-0.03,0.08c0.02,0.57,0.06,1.07,0.13,1.48
				c0.06,0.38,0.16,0.72,0.3,1.01c0.1,0.14,0.26,0.2,0.46,0.18c0.84-0.14,2.6-1.38,5.27-3.72c0.05-0.05,0.1-0.08,0.16-0.09
				c0.28-0.05,0.59,0.09,0.93,0.4c0.16,0.16,0.25,0.3,0.29,0.42c0,0.09-0.03,0.16-0.08,0.21c-0.14,0.13-0.36,0.33-0.67,0.6
				c-1.61,1.45-2.84,2.38-3.69,2.79c-0.42,0.21-0.82,0.35-1.19,0.41c-0.15,0.03-0.36,0.03-0.61,0.02c-1.25-0.11-2.08-0.77-2.49-1.97
				c-1.56,2.01-2.82,3.11-3.79,3.28l-0.17,0.03c-0.66,0.03-1.25-0.23-1.76-0.79c-0.16-0.18-0.29-0.38-0.39-0.58
				c-0.08-0.18-0.14-0.39-0.18-0.62c-0.17-1.06,0.28-2.18,1.35-3.35c0.64-0.68,1.31-1.19,2.01-1.53c0.17-0.08,0.36-0.14,0.56-0.17
				c0.54-0.07,1.01,0.06,1.43,0.41C315.18,109.32,315.29,109.61,315.22,109.91z"/>
			<path class="st0" d="M326.09,91.4c0.04-0.22,0.27-0.26,0.69-0.11c0.06,0.02,0.1,0.03,0.13,0.04c0.4,0.17,0.64,0.38,0.7,0.63
				c-0.01,0.04-0.01,0.07,0,0.1l-0.08,0.59c-0.32,2.26-0.61,4.38-0.86,6.36c7.12-2.14,22.42-5.7,25.52-4.96
				c0.4,0.09,0.69,0.29,0.87,0.58c0.02,0.03,0.04,0.06,0.06,0.09c0.08,0.18,0.01,0.29-0.19,0.33c-0.1,0.01-0.22,0-0.34-0.03
				c-3.03-0.73-18.51,2.97-26.07,5.38c-0.12,0.96-0.32,2.49-0.6,4.61c-0.99,7.58-1.53,12.63-1.63,15.17c-0.06,1.61,0,2.72,0.18,3.35
				c0.06,0.21-0.06,0.31-0.36,0.31c-0.09-0.01-0.18-0.02-0.27-0.05c-0.4-0.11-0.68-0.3-0.84-0.59c-0.02-0.05-0.04-0.09-0.04-0.11
				c-0.39-1.4-0.16-5.62,0.69-12.67c0.13-1.07,0.34-2.68,0.62-4.85c0.27-2.11,0.47-3.65,0.58-4.62c-1.01,0.34-2.04,0.71-3.09,1.09
				c-1.05,0.38-1.96,0.73-2.74,1.03c-0.78,0.3-1.48,0.58-2.1,0.83c-0.62,0.25-1.1,0.45-1.45,0.6l-0.5,0.2
				c-0.24,0.11-0.56,0.04-0.95-0.23c-0.05-0.03-0.08-0.06-0.11-0.08c-0.03-0.03-0.07-0.06-0.11-0.09c-0.04-0.03-0.07-0.06-0.1-0.09
				s-0.05-0.06-0.07-0.08c-0.02-0.02-0.03-0.05-0.04-0.08c-0.01-0.03-0.02-0.06-0.03-0.08c0-0.03-0.01-0.05,0-0.07
				c0-0.02,0.01-0.04,0.03-0.06c0.02-0.02,0.03-0.04,0.05-0.06c0.02-0.02,0.04-0.03,0.06-0.03l0.18-0.08
				c3.79-1.58,7.5-2.96,11.14-4.13c0.17-1.36,0.35-2.73,0.53-4.09c0.18-1.36,0.32-2.37,0.42-3.04L326.09,91.4z"/>
		</g>
		<g>
			<path class="st0" d="M51.78,114.65l0.11-0.02c0.36-0.06,0.75,0.09,1.16,0.45c0.16,0.17,0.26,0.31,0.3,0.44
				c-0.01,0.14-0.06,0.23-0.18,0.28c-0.32,0.12-0.67,0.21-1.03,0.27c-0.88,0.14-1.62,0.04-2.22-0.31c-0.52-0.31-0.83-0.72-0.92-1.24
				c-0.06-0.33-0.02-0.72,0.12-1.15c0.14-0.43,0.29-0.78,0.44-1.03c0.15-0.26,0.36-0.61,0.63-1.05c1.21-1.84,2.73-3.5,4.57-4.98
				c1.58-1.27,2.96-2.01,4.14-2.22c0.17-0.03,0.31-0.05,0.4-0.05c0.88-0.05,1.7,0.2,2.45,0.74c1.08,0.82,1.75,1.98,2.02,3.5
				c0.41,2.3-0.13,5.73-1.6,10.3c-0.26,0.81-0.65,1.96-1.15,3.43c-0.3,0.86-0.52,1.5-0.66,1.9c5.34-12.42,9.78-21.23,13.3-26.46
				c0.64-0.95,1.23-1.76,1.78-2.41c1.11-1.34,2.19-2.1,3.22-2.28c0.98-0.14,1.81,0.29,2.48,1.29c0.49,0.75,0.85,1.77,1.08,3.03
				c0.53,3,0.28,7.95-0.77,14.86c-0.18,1.19-0.45,2.91-0.82,5.17c-0.07,0.37-0.18,0.99-0.32,1.86c-0.78,4.5-1.14,7.51-1.08,9.05
				c0.01,0.37,0.03,0.7,0.08,0.98c0.01,0.07,0.15,0.43,0.39,1.08c0.03,0.1,0.06,0.18,0.07,0.24c0.01,0.13-0.03,0.22-0.11,0.27
				l-0.13,0.02c-0.57,0.1-1.08-0.25-1.54-1.06c-0.2-0.39-0.34-0.76-0.4-1.12c-0.26-1.49,0.03-4.69,0.87-9.6
				c0.04-0.22,0.09-0.53,0.17-0.93c0.13-0.73,0.21-1.26,0.26-1.58c1.04-6.26,1.65-10.77,1.82-13.54c0.17-2.58,0.12-4.67-0.16-6.24
				c-0.2-1.11-0.51-2.01-0.95-2.7l-0.07,0.01c-1.09,0.19-2.99,2.49-5.7,6.9c-0.42,0.69-0.8,1.34-1.14,1.94
				c-3.36,5.9-7.07,13.62-11.14,23.17c-1.05,2.47-1.58,3.76-1.59,3.87c-0.03,0-0.15,0.03-0.37,0.09c-1.18,0.13-1.88-0.3-2.1-1.3
				c-0.05-0.28-0.07-0.54-0.05-0.8c0.04-0.95,0.59-2.94,1.65-5.95c0.05-0.16,0.11-0.37,0.21-0.62c2.36-6.96,3.33-11.66,2.91-14.11
				c-0.25-1.23-0.85-1.83-1.8-1.78c-0.1,0-0.23,0.02-0.38,0.04c-1.84,0.33-3.97,1.92-6.39,4.78c-1.39,1.63-2.38,3.05-2.97,4.25
				c-0.16,0.35-0.24,0.58-0.24,0.7c0.02,0.03,0.03,0.05,0.03,0.06c0.02,0.01,0.43-0.13,1.26-0.43l0.02,0L51.78,114.65z"/>
			<path class="st0" d="M91.01,111.75c-0.06,0.24-0.35,0.25-0.84,0.03c-0.08-0.04-0.16-0.08-0.22-0.12
				c-0.95,0.46-1.75,1.16-2.41,2.1c-0.57,0.84-0.81,1.6-0.7,2.29c0.03,0.15,0.07,0.29,0.13,0.41c0.48-0.12,1.09-0.6,1.84-1.43
				c0.75-0.83,1.28-1.48,1.61-1.96c0.33-0.48,0.62-0.92,0.88-1.32l0.02-0.02c0.07-0.12,0.17-0.19,0.3-0.21
				c0.31-0.05,0.64,0.1,0.99,0.47c0.13,0.13,0.2,0.25,0.22,0.35c-0.01,0.04-0.01,0.07-0.02,0.08c0.03,0.57,0.07,1.06,0.14,1.47
				c0.07,0.38,0.17,0.72,0.32,1.01c0.1,0.14,0.26,0.2,0.46,0.17c0.84-0.15,2.58-1.41,5.22-3.78c0.04-0.05,0.1-0.08,0.16-0.09
				c0.28-0.05,0.59,0.08,0.94,0.39c0.16,0.16,0.26,0.3,0.29,0.42c0,0.09-0.02,0.16-0.08,0.21c-0.13,0.13-0.36,0.33-0.66,0.61
				c-1.59,1.46-2.81,2.41-3.66,2.84c-0.42,0.22-0.82,0.36-1.19,0.43c-0.15,0.03-0.35,0.04-0.61,0.03c-1.25-0.09-2.09-0.74-2.51-1.94
				c-1.53,2.03-2.78,3.14-3.75,3.32l-0.17,0.03c-0.66,0.04-1.25-0.22-1.77-0.77c-0.16-0.18-0.3-0.37-0.4-0.58
				c-0.09-0.18-0.15-0.39-0.19-0.62c-0.19-1.06,0.25-2.18,1.31-3.37c0.63-0.69,1.29-1.21,1.99-1.56c0.17-0.08,0.36-0.14,0.56-0.18
				c0.54-0.08,1.01,0.05,1.43,0.4C90.96,111.16,91.07,111.45,91.01,111.75z"/>
			<path class="st0" d="M101.89,95.4c0.02-0.24,0.27-0.27,0.73-0.09c0.47,0.18,0.73,0.4,0.79,0.65c0.01,0.05,0.01,0.09,0,0.12
				l-0.52,3.4c2.12-0.64,3.93-1.13,5.42-1.47c0.07-0.26,0.19-0.68,0.35-1.25c0.52-1.8,0.84-3.09,0.97-3.88
				c0.04-0.24,0.28-0.27,0.74-0.08c0.46,0.19,0.71,0.41,0.76,0.67c-0.01,0.04-0.01,0.07,0,0.1c-0.14,0.89-0.35,2.21-0.62,3.95
				c4.23-0.83,7.42-0.97,9.59-0.42c0.4,0.1,0.68,0.3,0.85,0.6c0.02,0.04,0.04,0.07,0.06,0.09c0.07,0.18,0.01,0.3-0.2,0.33
				c-0.1,0.01-0.22-0.01-0.34-0.04c-2.22-0.57-5.6-0.33-10.15,0.7c-1.63,10.96-2.53,18.39-2.71,22.3c-0.08,1.85-0.03,3.13,0.15,3.84
				c0.06,0.25-0.1,0.34-0.48,0.26c-0.42-0.08-0.73-0.26-0.92-0.54c-0.04-0.07-0.07-0.13-0.09-0.18c-0.52-2.04-0.11-8.13,1.23-18.28
				c-2.31,7.53-4.15,11.95-5.54,13.24c-0.51,0.47-1.1,0.52-1.77,0.15c-0.29-0.17-0.53-0.38-0.73-0.64
				c-0.58-0.84-0.36-4.8,0.68-11.87c0.1-0.74,0.38-2.61,0.84-5.61c-0.62,0.2-1.25,0.42-1.88,0.64c-0.63,0.22-1.2,0.43-1.71,0.62
				c-0.51,0.19-1,0.37-1.48,0.55c-0.47,0.18-0.89,0.33-1.25,0.47c-0.36,0.14-0.67,0.26-0.93,0.36c-0.26,0.11-0.46,0.19-0.6,0.25
				l-0.2,0.08c-0.24,0.11-0.56,0.03-0.95-0.24c-0.05-0.03-0.08-0.06-0.11-0.08c-0.03-0.03-0.07-0.06-0.1-0.09
				c-0.04-0.03-0.07-0.06-0.09-0.09c-0.03-0.04-0.05-0.06-0.06-0.09c-0.02-0.02-0.03-0.05-0.04-0.08s-0.02-0.06-0.02-0.08
				c0-0.03-0.01-0.05,0-0.07c0-0.02,0.01-0.04,0.03-0.06c0.01-0.02,0.03-0.04,0.05-0.06c0.02-0.02,0.04-0.03,0.06-0.03l0.09-0.04
				c3.06-1.24,6.21-2.38,9.43-3.41C101.56,97.6,101.8,96.07,101.89,95.4z M102.66,100.9c-0.95,6.19-1.51,9.9-1.67,11.12
				c-0.42,3.29-0.55,5.45-0.39,6.46c1.3-1.26,3.04-5.25,5.21-11.98c0.72-2.24,1.43-4.62,2.12-7.14
				C106.27,99.79,104.52,100.31,102.66,100.9z"/>
			<path class="st0" d="M128.38,106.15c0.06-0.05,0.11-0.08,0.16-0.09c0.29-0.05,0.61,0.08,0.96,0.4c0.16,0.14,0.25,0.27,0.27,0.39
				c0,0.09-0.02,0.16-0.06,0.21c-0.11,0.11-0.3,0.3-0.57,0.55c-1.54,1.48-2.75,2.45-3.65,2.89c-0.41,0.2-0.79,0.34-1.15,0.4
				c-0.66,0.1-1.25-0.01-1.76-0.36c-0.68-0.47-1.18-1.41-1.5-2.81c-0.01-0.04-0.07-0.3-0.18-0.8c-0.81,0.72-1.78,2.33-2.93,4.84
				c-1,2.16-1.54,3.34-1.64,3.54c-0.14,0.26-0.26,0.48-0.38,0.66c-0.11,0.1-0.24,0.16-0.36,0.18c-0.38,0.07-0.75-0.09-1.11-0.47
				c-0.18-0.19-0.29-0.39-0.32-0.59c-0.12-0.7,0.12-2.95,0.73-6.73c0.61-3.79,1.25-7.4,1.93-10.85l1-5.16
				c0.04-0.08,0.11-0.14,0.21-0.18c0.28-0.05,0.61,0.06,0.99,0.34c0.24,0.19,0.35,0.37,0.33,0.53l-1.88,10.09
				c-0.74,4.13-1.26,7.27-1.54,9.42c0.09-0.2,0.26-0.55,0.48-1.05c1.17-2.57,2.07-4.25,2.68-5.03c0.1-0.11,0.19-0.21,0.28-0.31
				c0.22-0.24,0.45-0.38,0.68-0.42c0.17-0.02,0.38,0.01,0.63,0.09c0.84,0.3,1.42,0.91,1.72,1.82c0.06,0.16,0.12,0.41,0.19,0.75
				c0.2,0.73,0.39,1.24,0.59,1.53l0.08-0.01C124.11,109.79,125.83,108.53,128.38,106.15z"/>
			<path class="st0" d="M134.15,104.1c-0.06,0.23-0.35,0.24-0.84,0.03c-0.08-0.04-0.16-0.08-0.22-0.12
				c-0.94,0.46-1.75,1.16-2.41,2.1c-0.57,0.84-0.81,1.6-0.7,2.29c0.03,0.15,0.07,0.29,0.13,0.41c0.48-0.12,1.09-0.6,1.84-1.43
				c0.75-0.83,1.28-1.48,1.61-1.96c0.33-0.48,0.62-0.92,0.88-1.32l0.02-0.02c0.07-0.12,0.17-0.19,0.3-0.21
				c0.31-0.05,0.64,0.1,0.99,0.47c0.13,0.13,0.2,0.25,0.22,0.36c-0.01,0.04-0.01,0.07-0.02,0.08c0.02,0.57,0.07,1.06,0.14,1.47
				c0.07,0.38,0.17,0.72,0.32,1.01c0.1,0.14,0.26,0.2,0.46,0.17c0.84-0.15,2.58-1.41,5.22-3.78c0.04-0.05,0.1-0.08,0.16-0.09
				c0.28-0.05,0.59,0.08,0.94,0.39c0.16,0.16,0.26,0.3,0.29,0.42c0,0.09-0.02,0.16-0.08,0.21c-0.14,0.13-0.36,0.33-0.66,0.61
				c-1.59,1.46-2.81,2.41-3.66,2.84c-0.42,0.22-0.82,0.36-1.19,0.43c-0.15,0.03-0.36,0.04-0.61,0.03c-1.25-0.09-2.09-0.74-2.51-1.94
				c-1.53,2.03-2.78,3.14-3.75,3.32l-0.17,0.03c-0.66,0.04-1.25-0.22-1.77-0.77c-0.16-0.18-0.3-0.37-0.4-0.58
				c-0.09-0.18-0.15-0.39-0.19-0.62c-0.19-1.06,0.25-2.18,1.32-3.37c0.63-0.69,1.29-1.21,1.99-1.56c0.17-0.08,0.36-0.14,0.56-0.18
				c0.54-0.08,1.01,0.05,1.43,0.4C134.1,103.51,134.21,103.8,134.15,104.1z"/>
			<path class="st0" d="M145.75,87.13c0.04-0.08,0.11-0.14,0.2-0.17c0.28-0.05,0.61,0.06,0.99,0.34c0.24,0.19,0.35,0.37,0.33,0.53
				l-1.75,8.47c-0.9,4.6-1.53,8.13-1.87,10.58c1.12-2.6,1.7-3.96,1.76-4.08c0.98-2.12,1.73-3.37,2.25-3.77
				c0.1-0.08,0.23-0.14,0.38-0.17c0.42-0.07,0.82,0.07,1.2,0.44c0.14,0.13,0.22,0.25,0.24,0.35c0,0.07-0.02,0.11-0.05,0.15
				c-0.04,0.02-0.08,0.03-0.13,0.02c-0.19,0.02-0.43,0.22-0.7,0.6c-0.47,0.64-1.13,1.92-2,3.86c0,0.01,0.01,0.05,0.02,0.09
				c0.01,0.1,0.01,0.19,0.03,0.25c0.18,0.95,0.45,1.52,0.81,1.69c0.2,0.08,0.41,0.1,0.64,0.06c1.01-0.18,2.37-1.18,4.08-3.01
				c0.78-0.84,1.33-1.5,1.64-2c0.03-0.06,0.08-0.09,0.14-0.1c0.24-0.04,0.53,0.1,0.87,0.44c0.18,0.19,0.28,0.36,0.3,0.5
				c0,0.08-0.01,0.15-0.02,0.2c-0.87,1.4-1.93,2.59-3.17,3.56c-0.97,0.76-1.88,1.22-2.73,1.37c-0.66,0.11-1.29,0.03-1.87-0.22
				c-0.56-0.26-1.03-0.67-1.42-1.23c-1.01,2.33-1.68,3.78-2.01,4.34c-0.28,0.44-0.5,0.69-0.66,0.73c-0.68,0.12-1.12-0.1-1.34-0.65
				c-0.03-0.1-0.05-0.19-0.07-0.28c-0.27-1.5,1.03-9.06,3.89-22.67L145.75,87.13z"/>
			<path class="st0" d="M159.65,99.21c-0.06,0.24-0.35,0.24-0.84,0.03c-0.08-0.04-0.16-0.08-0.22-0.12
				c-0.94,0.46-1.75,1.16-2.41,2.1c-0.57,0.84-0.81,1.6-0.7,2.29c0.03,0.15,0.07,0.29,0.13,0.41c0.48-0.12,1.09-0.6,1.84-1.43
				c0.75-0.83,1.28-1.48,1.61-1.96c0.33-0.48,0.62-0.92,0.88-1.32l0.02-0.02c0.07-0.12,0.17-0.19,0.3-0.21
				c0.31-0.05,0.64,0.1,0.99,0.48c0.13,0.13,0.2,0.25,0.22,0.35c-0.01,0.04-0.01,0.07-0.02,0.08c0.02,0.57,0.07,1.07,0.14,1.47
				c0.07,0.38,0.17,0.72,0.32,1.01c0.1,0.14,0.26,0.2,0.46,0.17c0.84-0.15,2.58-1.41,5.22-3.78c0.04-0.05,0.1-0.08,0.16-0.09
				c0.28-0.05,0.59,0.08,0.94,0.39c0.16,0.16,0.26,0.3,0.29,0.42c0,0.09-0.02,0.16-0.08,0.21c-0.13,0.13-0.36,0.33-0.66,0.61
				c-1.59,1.46-2.81,2.41-3.66,2.84c-0.42,0.22-0.82,0.36-1.19,0.43c-0.15,0.03-0.35,0.04-0.61,0.03c-1.25-0.09-2.09-0.74-2.51-1.94
				c-1.53,2.03-2.78,3.14-3.75,3.32l-0.17,0.03c-0.66,0.04-1.25-0.22-1.77-0.77c-0.16-0.18-0.3-0.37-0.4-0.58
				c-0.09-0.18-0.15-0.39-0.19-0.62c-0.19-1.06,0.25-2.18,1.31-3.37c0.63-0.69,1.29-1.21,1.99-1.56c0.17-0.08,0.36-0.14,0.56-0.18
				c0.54-0.08,1.01,0.05,1.43,0.4C159.6,98.62,159.72,98.91,159.65,99.21z"/>
			<path class="st0" d="M177.68,96.89c0.15-0.2,0.42-0.15,0.81,0.13c0.39,0.29,0.54,0.54,0.45,0.75c-0.02,0.02-0.03,0.03-0.03,0.05
				c-0.09,0.11-0.78,1.19-2.07,3.24c-2.26,3.57-3.9,5.59-4.92,6.08c-0.23,0.09-0.44,0.13-0.61,0.11c-0.45-0.08-0.84-0.28-1.17-0.62
				c-0.61-0.64-0.39-2.53,0.67-5.66c0.08-0.24,0.2-0.59,0.37-1.05c0.22-0.63,0.36-1.05,0.43-1.28c-1.48,0.75-2.71,0.91-3.66,0.47
				c-0.9-0.41-1.35-1.14-1.34-2.21c0-0.83,0.25-1.51,0.76-2.05c0.16-0.17,0.34-0.3,0.52-0.39c0.5-0.24,1.03-0.16,1.61,0.27
				c0.32,0.25,0.55,0.52,0.68,0.83c0.2,0.56,0.18,1.3-0.08,2.22c0.1-0.04,0.27-0.14,0.52-0.29c0.6-0.34,0.98-0.53,1.16-0.56
				c0.61-0.05,1.08,0.18,1.43,0.71c0.21,0.36-0.04,1.58-0.73,3.68c-0.71,2.16-1.11,3.5-1.22,4c-0.05,0.3-0.08,0.54-0.09,0.72
				c0.78-0.55,2.19-2.41,4.22-5.58C176.7,98.39,177.47,97.19,177.68,96.89z M168.15,98.31c0.44-1.02,0.65-1.88,0.65-2.56
				c-0.25,0.29-0.44,0.7-0.58,1.21c-0.09,0.3-0.14,0.67-0.14,1.09C168.1,98.18,168.12,98.27,168.15,98.31z"/>
			<path class="st0" d="M178.08,94.93c0.03-0.08,0.1-0.15,0.19-0.2c0.31-0.12,0.71-0.08,1.2,0.11c0.24,0.1,0.39,0.21,0.45,0.33
				c0.01,0.04,0.01,0.08,0,0.13c-0.01,0.03-0.26,1.53-0.77,4.51c1.86-3.28,3.22-5.27,4.06-5.99c0.1-0.08,0.19-0.15,0.26-0.2
				c0.17-0.11,0.33-0.19,0.47-0.24c0.67-0.24,1.33-0.21,1.97,0.07c0.52,0.23,0.95,0.79,1.3,1.67c0.11,0.28,0.33,1.05,0.65,2.33
				c0.04,0.14,0.07,0.24,0.09,0.3c0.03,0.07,0.06,0.12,0.1,0.13c0.03,0,0.06,0,0.07-0.01c0.5-0.19,1.88-1.8,4.15-4.84
				c0.3-0.4,0.49-0.67,0.57-0.79c0.03-0.04,0.08-0.07,0.14-0.09c0.26-0.1,0.6-0.01,1.04,0.27c0.22,0.15,0.36,0.3,0.42,0.44
				c0.02,0.09,0.01,0.18-0.02,0.26c-1.04,1.52-1.78,2.54-2.22,3.07c-1.04,1.22-2,1.99-2.89,2.32c-0.52,0.18-1.02,0.23-1.49,0.14
				c-0.85-0.21-1.47-0.79-1.85-1.76c-0.11-0.28-0.24-0.7-0.41-1.28c-0.15-0.54-0.27-0.92-0.36-1.15l-0.08-0.2
				c-0.77,0.5-2,2.22-3.68,5.17c-1.32,2.3-2.08,3.62-2.3,3.94c-0.35,0.52-0.61,0.82-0.78,0.89c-0.84,0.24-1.39,0.08-1.67-0.5
				C176.61,103.51,177.06,100.57,178.08,94.93z"/>
		</g>
		<g>
			<path class="st0" d="M228.01,80.72c-0.29,0.05-0.62-0.07-0.99-0.38c-0.17-0.14-0.27-0.28-0.31-0.4c0-0.07,0.01-0.12,0.03-0.16
				c1.11-1.5,1.64-2.45,1.58-2.86c-0.07-0.26-0.37-0.35-0.89-0.25c-0.62,0.11-1.51,0.4-2.67,0.87c-3.13,1.23-6.08,3.04-8.84,5.43
				c-0.27,0.23-0.54,0.46-0.78,0.69c-1.84,1.72-3.12,3.32-3.84,4.82c-0.43,0.92-0.59,1.71-0.47,2.37c0.03,0.17,0.08,0.31,0.14,0.43
				c0.29,0.75,1.21,1.3,2.76,1.66c0.3,0.08,1.5,0.28,3.6,0.62c2.34,0.39,4.03,0.92,5.07,1.58c1.1,0.73,1.76,1.7,1.98,2.92
				c0.26,1.46-0.37,3.04-1.89,4.71c-1.37,1.53-3.04,2.71-5.01,3.53c-0.76,0.32-1.48,0.54-2.15,0.66c-0.36,0.06-0.73,0.1-1.11,0.1
				c-1.6-0.01-2.82-0.57-3.65-1.7c-0.07-0.12-0.11-0.19-0.12-0.22c0.01-0.12,0.07-0.2,0.19-0.23c0.31-0.05,0.64,0.05,0.98,0.32
				c0.1,0.09,0.18,0.17,0.24,0.25c0.27,0.35,0.76,0.52,1.45,0.53c0.28,0,0.59-0.03,0.95-0.09c1.66-0.29,3.35-1.11,5.08-2.46
				c1.71-1.33,2.81-2.69,3.32-4.1c0.22-0.66,0.29-1.27,0.19-1.83c-0.2-1.12-1.05-1.92-2.56-2.41c-0.6-0.18-1.88-0.44-3.84-0.78
				c-2.21-0.36-3.82-0.81-4.84-1.37c-0.61-0.33-1.12-0.71-1.53-1.15c-0.41-0.45-0.66-0.95-0.76-1.48c-0.3-1.68,0.74-3.79,3.12-6.33
				c0.41-0.44,0.83-0.87,1.27-1.27c2.62-2.42,5.53-4.34,8.72-5.76c0.35-0.15,0.7-0.3,1.05-0.44c1.21-0.46,2.1-0.74,2.67-0.85
				c1.11-0.18,2-0.07,2.66,0.35c0.37,0.25,0.6,0.59,0.67,1.02c0.15,0.87-0.23,1.97-1.17,3.32l-0.16,0.23
				C228.14,80.67,228.08,80.7,228.01,80.72z"/>
			<path class="st0" d="M238.09,87.11c0.15-0.2,0.42-0.15,0.81,0.13c0.39,0.28,0.54,0.53,0.45,0.75c-0.02,0.02-0.03,0.03-0.03,0.04
				c-0.09,0.11-0.78,1.19-2.07,3.24c-2.26,3.57-3.9,5.59-4.92,6.08c-0.23,0.09-0.44,0.13-0.61,0.11c-0.45-0.08-0.84-0.28-1.17-0.62
				c-0.61-0.64-0.39-2.53,0.67-5.66c0.08-0.24,0.2-0.59,0.37-1.05c0.22-0.63,0.36-1.05,0.43-1.28c-1.48,0.75-2.71,0.91-3.66,0.47
				c-0.9-0.41-1.35-1.14-1.34-2.21c0-0.83,0.25-1.51,0.76-2.05c0.16-0.17,0.34-0.3,0.52-0.39c0.5-0.24,1.03-0.16,1.61,0.27
				c0.32,0.25,0.55,0.52,0.68,0.83c0.2,0.55,0.18,1.3-0.08,2.22c0.1-0.04,0.27-0.14,0.52-0.29c0.6-0.34,0.98-0.53,1.16-0.56
				c0.61-0.05,1.08,0.18,1.43,0.71c0.21,0.36-0.04,1.58-0.73,3.68c-0.71,2.16-1.11,3.5-1.22,4c-0.05,0.3-0.08,0.54-0.09,0.72
				c0.78-0.55,2.19-2.41,4.21-5.58C237.12,88.6,237.88,87.41,238.09,87.11z M228.57,88.52c0.44-1.02,0.65-1.88,0.65-2.56
				c-0.25,0.29-0.44,0.7-0.58,1.21c-0.09,0.3-0.14,0.67-0.14,1.09C228.51,88.4,228.53,88.49,228.57,88.52z"/>
			<path class="st0" d="M239.12,83.85c0.04-0.09,0.1-0.14,0.19-0.17c0.28-0.05,0.61,0.07,0.99,0.36c0.19,0.15,0.3,0.29,0.33,0.41
				c0.01,0.04,0,0.08-0.02,0.12c-0.69,2.54-0.98,4.47-0.87,5.79c0.01,0.12,0.02,0.23,0.04,0.33c0.03,0.18,0.09,0.36,0.17,0.54
				l0.04-0.01c1.06-0.19,2.44-1.53,4.14-4.02c0.44-0.66,0.8-1.25,1.1-1.77c0.03-0.06,0.08-0.09,0.14-0.1
				c0.22-0.04,0.48,0.11,0.79,0.45c0.16,0.18,0.26,0.35,0.29,0.5c0,0.07-0.02,0.14-0.04,0.22c-2.03,3.51-3.83,5.44-5.39,5.76
				c-0.14,0.02-0.32,0.03-0.55,0.02c-0.64-0.07-1.18-0.35-1.61-0.84c-0.28-0.32-0.47-0.76-0.57-1.32
				C238.06,88.78,238.34,86.68,239.12,83.85z M241.09,82.61c-0.04,0.07-0.1,0.12-0.19,0.15c-0.28,0.05-0.6-0.06-0.97-0.34
				c-0.19-0.16-0.3-0.31-0.33-0.43c-0.01-0.04,0-0.08,0.01-0.14l1.14-2.83c0.04-0.07,0.11-0.12,0.21-0.13
				c0.29-0.05,0.62,0.06,0.99,0.36c0.17,0.14,0.27,0.27,0.31,0.4c0.01,0.04,0,0.09-0.01,0.14L241.09,82.61z"/>
			<path class="st0" d="M248.67,69c0.04-0.08,0.11-0.14,0.21-0.17c0.28-0.05,0.61,0.06,0.99,0.34c0.24,0.19,0.36,0.37,0.33,0.53
				l-1.75,8.47c-0.91,4.6-1.53,8.13-1.87,10.58c1.12-2.6,1.7-3.96,1.76-4.08c0.98-2.12,1.73-3.38,2.25-3.77
				c0.1-0.08,0.23-0.14,0.38-0.17c0.42-0.08,0.82,0.07,1.2,0.44c0.14,0.13,0.22,0.25,0.24,0.35c0,0.07-0.02,0.12-0.05,0.15
				c-0.04,0.02-0.08,0.03-0.13,0.02c-0.19,0.02-0.43,0.22-0.7,0.6c-0.47,0.64-1.13,1.92-2,3.86c0,0.01,0.01,0.05,0.02,0.09
				c0.01,0.1,0.01,0.19,0.03,0.25c0.18,0.95,0.45,1.52,0.81,1.69c0.2,0.08,0.41,0.1,0.64,0.06c1.01-0.18,2.37-1.18,4.08-3.01
				c0.78-0.83,1.33-1.5,1.64-2c0.03-0.06,0.08-0.09,0.14-0.1c0.24-0.04,0.53,0.1,0.87,0.44c0.18,0.19,0.28,0.36,0.31,0.5
				c0,0.08-0.01,0.15-0.02,0.2c-0.87,1.4-1.93,2.59-3.17,3.56c-0.97,0.76-1.88,1.22-2.73,1.37c-0.66,0.1-1.29,0.03-1.87-0.22
				c-0.56-0.25-1.03-0.66-1.42-1.23c-1.01,2.33-1.68,3.78-2.01,4.34c-0.28,0.44-0.5,0.69-0.66,0.73c-0.68,0.12-1.12-0.1-1.34-0.65
				c-0.03-0.1-0.05-0.19-0.07-0.28c-0.27-1.5,1.03-9.06,3.89-22.67L248.67,69z"/>
			<path class="st0" d="M257.36,80.11c0.04-0.09,0.1-0.14,0.19-0.17c0.28-0.05,0.61,0.07,0.99,0.36c0.19,0.15,0.3,0.29,0.33,0.41
				c0.01,0.04,0,0.08-0.02,0.12c-0.69,2.54-0.98,4.47-0.87,5.79c0.01,0.12,0.02,0.23,0.04,0.33c0.03,0.18,0.09,0.36,0.17,0.54
				l0.04-0.01c1.06-0.19,2.44-1.53,4.14-4.03c0.44-0.66,0.8-1.25,1.11-1.77c0.03-0.06,0.07-0.09,0.14-0.1
				c0.22-0.04,0.48,0.11,0.79,0.45c0.16,0.18,0.26,0.35,0.29,0.5c0,0.07-0.02,0.14-0.04,0.22c-2.03,3.51-3.83,5.44-5.39,5.76
				c-0.14,0.02-0.32,0.03-0.55,0.02c-0.64-0.07-1.18-0.35-1.61-0.84c-0.28-0.32-0.47-0.76-0.57-1.32
				C256.3,85.04,256.58,82.95,257.36,80.11z M259.33,78.88c-0.04,0.07-0.1,0.12-0.19,0.15c-0.28,0.05-0.6-0.06-0.97-0.34
				c-0.19-0.16-0.3-0.31-0.33-0.43c-0.01-0.04,0-0.08,0.01-0.14l1.14-2.82c0.04-0.07,0.11-0.12,0.21-0.14
				c0.29-0.05,0.62,0.07,0.99,0.36c0.17,0.14,0.27,0.27,0.31,0.4c0.01,0.04,0,0.08-0.01,0.14L259.33,78.88z"/>
			<path class="st0" d="M264.69,84.52c-0.19,0.14-0.24,0.44-0.15,0.91c0.09,0.44,0.27,0.69,0.52,0.73c0.26,0.03,0.52,0.03,0.81-0.02
				c1.6-0.28,3.67-1.75,6.2-4.39c0.66-0.68,1.22-1.33,1.71-1.94c0.04-0.05,0.09-0.07,0.14-0.08c0.26-0.04,0.55,0.1,0.89,0.43
				c0.18,0.18,0.28,0.34,0.3,0.48c0,0.08-0.01,0.15-0.04,0.2c-0.25,0.36-0.83,1.01-1.75,1.95c-2.52,2.59-4.67,4.05-6.44,4.37
				c-0.23,0.04-0.4,0.06-0.5,0.07c-1.66,0.07-2.69-0.51-3.09-1.74c-0.05-0.13-0.09-0.27-0.11-0.41c-0.21-1.16,0.07-2.48,0.84-3.95
				c0.7-1.34,1.5-2.26,2.43-2.76c0.21-0.1,0.4-0.18,0.59-0.22l0.08-0.01c0.6-0.11,1.15,0.06,1.67,0.51c0.33,0.3,0.52,0.62,0.59,0.98
				c0.03,0.26,0.01,0.5-0.07,0.74c-0.09,0.25-0.24,0.52-0.46,0.81c-0.22,0.29-0.46,0.56-0.74,0.82c-0.28,0.26-0.57,0.52-0.89,0.77
				c-0.32,0.25-0.62,0.49-0.91,0.69c-0.29,0.21-0.56,0.39-0.8,0.55c-0.24,0.16-0.43,0.28-0.58,0.36L264.69,84.52z M265.39,82.21
				c1.57-1.18,2.39-2.16,2.48-2.92c-0.71,0.36-1.44,1.16-2.18,2.4C265.58,81.86,265.48,82.04,265.39,82.21z"/>
			<path class="st0" d="M276.51,62.72c0.04-0.22,0.27-0.25,0.69-0.1c0.06,0.02,0.1,0.03,0.13,0.04c0.4,0.18,0.63,0.4,0.69,0.65
				c-0.01,0.04-0.01,0.07,0,0.1l-0.09,0.59c-0.36,2.26-0.68,4.37-0.97,6.34c7.16-2.02,12.28-2.63,15.37-1.84
				c0.4,0.1,0.68,0.3,0.86,0.6c0.02,0.04,0.04,0.06,0.06,0.09c0.07,0.18,0.01,0.29-0.2,0.33c-0.1,0.01-0.22-0.01-0.34-0.04
				c-3.02-0.78-8.32-0.03-15.92,2.25c-0.13,0.96-0.36,2.49-0.68,4.6c-1.12,7.56-1.75,12.6-1.89,15.14
				c-0.08,1.61-0.04,2.72,0.12,3.35c0.05,0.22-0.07,0.31-0.36,0.3c-0.09-0.01-0.18-0.03-0.27-0.05c-0.4-0.11-0.68-0.31-0.84-0.6
				c-0.02-0.05-0.03-0.09-0.04-0.11c-0.37-1.41-0.06-5.63,0.91-12.66c0.15-1.06,0.39-2.68,0.7-4.84c0.31-2.11,0.53-3.64,0.66-4.61
				c-1.02,0.33-2.06,0.67-3.11,1.03c-1.05,0.36-1.97,0.69-2.75,0.98c-0.78,0.29-1.49,0.56-2.12,0.8c-0.63,0.24-1.11,0.43-1.46,0.57
				l-0.5,0.19c-0.24,0.11-0.56,0.03-0.95-0.25c-0.04-0.03-0.08-0.06-0.11-0.08c-0.03-0.03-0.07-0.06-0.11-0.09
				c-0.04-0.03-0.07-0.06-0.1-0.09c-0.03-0.04-0.05-0.06-0.06-0.09c-0.02-0.02-0.03-0.05-0.04-0.08c-0.01-0.03-0.02-0.06-0.02-0.08
				c0-0.03-0.01-0.05,0-0.07c0-0.02,0.01-0.04,0.03-0.06c0.02-0.02,0.03-0.04,0.05-0.06c0.02-0.02,0.04-0.03,0.06-0.03l0.18-0.07
				c3.82-1.52,7.56-2.83,11.21-3.94c0.19-1.36,0.39-2.72,0.6-4.08c0.21-1.36,0.36-2.37,0.47-3.03L276.51,62.72z"/>
			<path class="st0" d="M281.62,75.4c0.04-0.07,0.1-0.12,0.19-0.15c0.28-0.05,0.61,0.07,0.99,0.36c0.19,0.15,0.29,0.29,0.33,0.41
				c0.01,0.04,0,0.08-0.02,0.12c-0.01,0.03-0.44,1.45-1.3,4.25c2.04-2.82,3.46-4.49,4.27-5.02c0.1-0.06,0.18-0.1,0.25-0.14
				c0.16-0.07,0.3-0.11,0.43-0.13c0.6-0.09,1.15,0.07,1.64,0.48c0.4,0.34,0.68,0.97,0.85,1.9c0.05,0.29,0.12,1.1,0.21,2.41
				c0.01,0.14,0.02,0.24,0.03,0.31c0.01,0.08,0.04,0.13,0.06,0.15c0.03,0.01,0.05,0.01,0.06,0.01c0.44-0.08,1.84-1.37,4.18-3.88
				c0.31-0.33,0.51-0.55,0.59-0.66c0.03-0.03,0.08-0.05,0.13-0.06c0.23-0.04,0.51,0.12,0.84,0.48c0.17,0.19,0.26,0.37,0.29,0.52
				c0,0.09-0.02,0.17-0.05,0.25c-1.09,1.27-1.86,2.12-2.31,2.54c-1.05,0.98-1.97,1.53-2.76,1.67c-0.46,0.07-0.88,0.01-1.27-0.17
				c-0.69-0.38-1.12-1.08-1.3-2.1c-0.05-0.29-0.1-0.74-0.16-1.33c-0.05-0.56-0.09-0.96-0.13-1.2l-0.04-0.21
				c-0.72,0.33-2,1.75-3.83,4.29c-1.44,1.98-2.27,3.1-2.5,3.38c-0.37,0.43-0.63,0.67-0.78,0.71c-0.74,0.07-1.18-0.21-1.33-0.83
				C279.15,83.49,279.96,80.7,281.62,75.4z"/>
			<path class="st0" d="M300.17,73.63c-0.06,0.24-0.35,0.24-0.84,0.03c-0.08-0.04-0.16-0.08-0.22-0.12
				c-0.94,0.46-1.75,1.16-2.41,2.1c-0.57,0.84-0.81,1.6-0.7,2.29c0.03,0.15,0.07,0.29,0.13,0.41c0.48-0.12,1.09-0.6,1.84-1.43
				c0.75-0.83,1.28-1.48,1.61-1.96c0.33-0.48,0.62-0.92,0.88-1.32l0.02-0.02c0.07-0.12,0.17-0.19,0.3-0.21
				c0.31-0.05,0.64,0.1,0.99,0.48c0.13,0.13,0.2,0.25,0.22,0.35c-0.01,0.04-0.01,0.07-0.03,0.08c0.03,0.57,0.07,1.07,0.14,1.47
				c0.07,0.38,0.17,0.72,0.32,1.01c0.1,0.14,0.26,0.2,0.46,0.17c0.84-0.15,2.58-1.41,5.22-3.78c0.05-0.05,0.1-0.08,0.16-0.09
				c0.28-0.05,0.59,0.08,0.94,0.39c0.16,0.16,0.26,0.3,0.29,0.42c0,0.09-0.02,0.16-0.08,0.21c-0.13,0.13-0.36,0.33-0.66,0.61
				c-1.59,1.46-2.81,2.41-3.66,2.84c-0.42,0.22-0.82,0.36-1.19,0.43c-0.15,0.03-0.35,0.04-0.61,0.03c-1.25-0.09-2.09-0.74-2.51-1.94
				c-1.53,2.03-2.78,3.14-3.75,3.32l-0.17,0.03c-0.66,0.04-1.25-0.22-1.77-0.77c-0.16-0.18-0.3-0.37-0.4-0.58
				c-0.09-0.18-0.15-0.39-0.19-0.62c-0.19-1.06,0.25-2.18,1.31-3.37c0.63-0.69,1.29-1.21,1.99-1.56c0.17-0.08,0.36-0.14,0.56-0.18
				c0.54-0.08,1.01,0.05,1.43,0.4C300.12,73.04,300.23,73.33,300.17,73.63z"/>
			<path class="st0" d="M318.72,71.32c0.15-0.2,0.42-0.15,0.81,0.13c0.39,0.28,0.54,0.53,0.45,0.75c-0.02,0.02-0.03,0.03-0.03,0.05
				c-0.09,0.11-0.78,1.19-2.07,3.24c-2.26,3.57-3.9,5.59-4.92,6.08c-0.23,0.09-0.44,0.13-0.61,0.11c-0.45-0.08-0.84-0.28-1.17-0.62
				c-0.61-0.64-0.39-2.53,0.67-5.66c0.08-0.24,0.2-0.59,0.37-1.05c0.22-0.63,0.36-1.05,0.43-1.28c-1.48,0.75-2.71,0.91-3.66,0.47
				c-0.9-0.41-1.35-1.14-1.34-2.21c0-0.83,0.25-1.51,0.76-2.05c0.17-0.17,0.34-0.3,0.52-0.39c0.5-0.24,1.03-0.16,1.6,0.27
				c0.32,0.25,0.55,0.52,0.68,0.83c0.2,0.56,0.18,1.3-0.08,2.22c0.1-0.04,0.27-0.14,0.52-0.29c0.6-0.34,0.98-0.53,1.16-0.56
				c0.61-0.05,1.08,0.18,1.43,0.71c0.21,0.36-0.04,1.58-0.73,3.68c-0.71,2.16-1.12,3.5-1.22,4c-0.05,0.3-0.08,0.54-0.09,0.72
				c0.78-0.55,2.19-2.41,4.21-5.58C317.74,72.81,318.51,71.62,318.72,71.32z M309.19,72.73c0.44-1.02,0.65-1.88,0.65-2.56
				c-0.25,0.29-0.44,0.7-0.58,1.21c-0.09,0.3-0.14,0.67-0.14,1.09C309.14,72.61,309.16,72.7,309.19,72.73z"/>
			<path class="st0" d="M320.07,69.78c0.08-0.07,0.19-0.09,0.32-0.08c-0.28-0.23-0.44-0.47-0.48-0.72
				c-0.08-0.43,0.18-0.73,0.77-0.89c0.09-0.03,0.18-0.05,0.26-0.07c0.03,0,0.05-0.01,0.07-0.01c0.02,0,0.04-0.01,0.07-0.01
				c0.03,0,0.05,0,0.07,0c0.02,0,0.05,0,0.09-0.01c0.04-0.01,0.06-0.01,0.07-0.01c0.01,0,0.04,0,0.09,0l0.08-0.01
				c0.89-0.03,1.69,0.35,2.41,1.13c0.67-0.32,1.5-0.78,2.49-1.41c0.91-0.57,1.55-0.88,1.9-0.95c0.26-0.03,0.47-0.02,0.64,0.04
				c0.36,0.13,0.64,0.33,0.83,0.58c0.07,0.08,0.11,0.16,0.12,0.23c0.01,0.06,0.01,0.11,0.01,0.14c-0.01,0.01-0.4,1.29-1.17,3.83
				c1.91-2.65,3.26-4.28,4.06-4.88c0.16-0.12,0.31-0.21,0.44-0.28c0.15-0.07,0.3-0.11,0.45-0.14c0.6-0.09,1.15,0.07,1.64,0.48
				c0.39,0.33,0.66,0.96,0.83,1.9c0.05,0.27,0.12,1.07,0.23,2.4c0.01,0.14,0.02,0.25,0.03,0.31c0.02,0.09,0.03,0.14,0.05,0.15
				c0.03,0.01,0.05,0.01,0.08,0.01c0.44-0.08,1.84-1.37,4.18-3.88c0.31-0.33,0.51-0.55,0.59-0.66c0.06-0.05,0.11-0.08,0.16-0.09
				c0.27-0.05,0.57,0.07,0.92,0.37c0.16,0.14,0.25,0.28,0.27,0.41c0,0.09-0.01,0.16-0.04,0.21c-0.09,0.09-0.24,0.27-0.46,0.53
				c-1.45,1.73-2.63,2.87-3.51,3.42c-0.46,0.29-0.89,0.47-1.28,0.54c-0.46,0.07-0.86,0.02-1.21-0.16c-0.69-0.38-1.12-1.08-1.3-2.1
				c-0.05-0.29-0.1-0.74-0.14-1.34c-0.05-0.56-0.09-0.96-0.13-1.2l-0.04-0.21c-0.72,0.33-2,1.75-3.83,4.29
				c-1.44,1.98-2.27,3.1-2.49,3.38c-0.37,0.43-0.63,0.67-0.78,0.71c-0.73,0.03-1.18-0.25-1.35-0.82c-0.04-0.28,0.57-2.43,1.84-6.44
				c-1.19,0.83-2.31,1.44-3.34,1.83l0.05,0.29c0.2,1.15-0.09,2.37-0.87,3.66c-0.39,0.63-0.83,1.15-1.32,1.55
				c-0.47,0.39-1.01,0.63-1.6,0.74c-0.96,0.17-1.76-0.02-2.41-0.58c-0.4-0.35-0.65-0.78-0.74-1.29c-0.24-1.35,0.53-2.96,2.32-4.83
				C320,69.85,320.03,69.81,320.07,69.78z M318.96,75.08c0.04,0.16,0.1,0.3,0.19,0.42c0.16,0.18,0.37,0.25,0.63,0.2
				c0.61-0.11,1.3-0.71,2.07-1.81c0.81-1.16,1.24-2.18,1.29-3.07c0.01-0.04,0.01-0.07,0-0.1c-0.08,0.01-0.59-0.01-1.55-0.08
				c-0.05,0-0.09,0-0.1,0c-0.37,0.07-0.89,0.68-1.56,1.85C319.24,73.73,318.92,74.59,318.96,75.08z M322.86,69.5
				c-0.32-0.47-0.66-0.68-1.02-0.63c-0.26,0.04-0.41,0.18-0.46,0.4c0,0.04-0.01,0.07,0,0.1c0.07,0.25,0.41,0.33,1.01,0.24
				C322.59,69.57,322.74,69.54,322.86,69.5z"/>
			<path class="st0" d="M346.51,63.31c0.21,0.01,0.45,0.09,0.71,0.23c0.14-0.27,0.29-0.61,0.45-1.01c0.19-0.43,0.59-0.44,1.22-0.04
				c0.18,0.13,0.33,0.25,0.44,0.36c0.41,0.44,0.49,2.06,0.23,4.87c-0.02,0.19-0.04,0.37-0.06,0.54c1.04-0.93,2.1-1.86,3.18-2.77
				c0.49-0.42,0.84-0.71,1.04-0.89c0.17-0.15,0.47-0.12,0.89,0.1c0.04,0.03,0.08,0.06,0.11,0.08c0.37,0.25,0.52,0.47,0.45,0.67
				c-0.02,0.03-0.04,0.05-0.05,0.07c-0.25,0.23-0.6,0.53-1.04,0.89c-2.05,1.76-3.68,3.2-4.89,4.34c-0.7,4.8-1.67,8.69-2.9,11.67
				c-0.41,1.02-0.84,1.86-1.29,2.53c-1.14,1.7-2.46,2.08-3.94,1.13c-4.26-2.56-2.25-7.75,6.03-15.6c0.12-0.13,0.32-0.32,0.61-0.58
				c0.29-1.97,0.48-3.53,0.55-4.67c-1.31,2.6-2.51,4.2-3.59,4.79c-1.07,0.58-1.92,0.45-2.58-0.41c-0.14-0.21-0.27-0.44-0.38-0.7
				c-0.5-1.17-0.3-2.33,0.59-3.48c0.78-1.01,1.81-1.67,3.1-1.99C345.79,63.37,346.16,63.32,346.51,63.31z M343.56,84.12
				c1.34-2.02,2.52-5.6,3.54-10.72c0.06-0.27,0.11-0.54,0.15-0.8c-3.8,3.83-6.05,6.93-6.75,9.32c-0.47,1.66-0.11,2.85,1.06,3.56
				l0.09,0.06c0.43,0.12,0.93-0.18,1.52-0.9C343.3,84.48,343.43,84.3,343.56,84.12z M346.8,64.41c-1.04,0.13-1.97,0.64-2.78,1.54
				c-0.83,0.94-1.17,1.88-1,2.84c0.03,0.18,0.08,0.35,0.15,0.51c0.15,0.34,1.16-0.95,3.02-3.89
				C346.54,64.84,346.74,64.51,346.8,64.41z"/>
		</g>
	</g>
	<g>
		<path class="st0" d="M107.43,49.02c-0.23,0.05-0.5-0.04-0.81-0.27c-0.14-0.11-0.23-0.21-0.26-0.31c0-0.05,0.01-0.1,0.02-0.13
			c0.85-1.24,1.24-2.02,1.18-2.34c-0.07-0.21-0.31-0.27-0.73-0.18c-0.5,0.11-1.2,0.37-2.11,0.78c-2.48,1.08-4.79,2.62-6.93,4.62
			c-0.21,0.2-0.42,0.39-0.61,0.58c-1.42,1.44-2.4,2.76-2.93,3.98c-0.32,0.75-0.42,1.39-0.3,1.92c0.03,0.13,0.07,0.25,0.12,0.34
			c0.26,0.59,1.01,1.01,2.26,1.25c0.25,0.05,1.21,0.18,2.91,0.39c1.89,0.24,3.26,0.61,4.12,1.12c0.91,0.55,1.46,1.31,1.67,2.29
			c0.25,1.17-0.2,2.45-1.37,3.84c-1.05,1.27-2.36,2.27-3.92,2.99c-0.6,0.28-1.17,0.48-1.71,0.59c-0.28,0.06-0.58,0.1-0.89,0.11
			c-1.29,0.04-2.28-0.37-2.98-1.25c-0.06-0.09-0.1-0.15-0.1-0.17c0-0.1,0.05-0.16,0.15-0.19c0.24-0.05,0.51,0.02,0.8,0.23
			c0.08,0.07,0.15,0.13,0.2,0.2c0.23,0.27,0.62,0.4,1.18,0.38c0.22-0.01,0.48-0.04,0.76-0.1c1.32-0.29,2.66-1,4.01-2.13
			c1.33-1.12,2.18-2.25,2.54-3.39c0.16-0.53,0.19-1.03,0.1-1.47c-0.19-0.89-0.9-1.51-2.12-1.85c-0.48-0.13-1.52-0.3-3.11-0.51
			c-1.78-0.22-3.09-0.54-3.92-0.95c-0.5-0.24-0.92-0.53-1.26-0.88c-0.34-0.35-0.56-0.74-0.65-1.17c-0.29-1.34,0.48-3.07,2.31-5.17
			c0.31-0.37,0.64-0.72,0.98-1.06c2.03-2.02,4.3-3.65,6.82-4.89c0.28-0.13,0.55-0.26,0.83-0.39c0.95-0.41,1.66-0.66,2.12-0.76
			c0.89-0.18,1.6-0.11,2.15,0.2c0.31,0.19,0.5,0.46,0.57,0.8c0.15,0.69-0.13,1.59-0.84,2.7l-0.12,0.19
			C107.53,48.99,107.49,49.01,107.43,49.02z"/>
		<path class="st0" d="M108.09,60.89c-0.12,0.08-0.17,0.27-0.15,0.57c0,0.06,0.01,0.12,0.02,0.17c0.11,0.4,0.36,0.59,0.75,0.57
			c0.08-0.01,0.2-0.03,0.34-0.06c1.42-0.31,3.19-1.72,5.3-4.24c0.12-0.14,0.23-0.28,0.34-0.41c0.42-0.94,0.98-1.78,1.66-2.51
			c0.39-0.41,0.76-0.71,1.1-0.88c0.09-0.05,0.19-0.09,0.28-0.11c0.5-0.11,0.97,0.01,1.42,0.35c0.27,0.21,0.43,0.44,0.49,0.71
			c0.03,0.17,0.01,0.33-0.03,0.5c-0.25,0.72-1.34,1.53-3.27,2.41c-0.17,0.07-0.32,0.13-0.45,0.19c-0.43,0.99-0.59,1.72-0.49,2.21
			c0.11,0.41,0.43,0.57,0.96,0.46l0.02,0c1.47-0.34,3.38-1.81,5.73-4.43c0.54-0.61,0.9-1.04,1.09-1.29
			c0.03-0.04,0.07-0.06,0.11-0.07c0.2-0.04,0.45,0.06,0.74,0.32c0.14,0.13,0.23,0.24,0.25,0.34c0,0.06-0.01,0.12-0.04,0.17
			c-0.15,0.23-0.6,0.76-1.35,1.58c-2.24,2.44-4.1,3.83-5.6,4.18l-0.03,0.01c-0.76,0.16-1.46,0.06-2.09-0.31
			c-0.53-0.32-0.84-0.76-0.95-1.31c-1.67,1.68-3.1,2.66-4.31,2.93c-0.17,0.04-0.3,0.06-0.39,0.07c-0.76,0.06-1.43-0.14-1.99-0.59
			c-0.18-0.15-0.33-0.31-0.45-0.48c-0.12-0.17-0.21-0.39-0.27-0.66c-0.19-0.89,0.05-1.97,0.74-3.24c0.57-1.03,1.17-1.74,1.8-2.14
			c0.11-0.07,0.22-0.12,0.32-0.16c0.05-0.02,0.11-0.04,0.18-0.05c0.49-0.11,0.95,0.03,1.4,0.4c0.26,0.22,0.42,0.46,0.48,0.73
			c0.05,0.22,0.02,0.47-0.09,0.74c-0.11,0.27-0.27,0.53-0.48,0.78c-0.21,0.25-0.45,0.51-0.71,0.76c-0.26,0.25-0.53,0.48-0.8,0.69
			c-0.27,0.21-0.53,0.39-0.76,0.56c-0.23,0.17-0.41,0.3-0.55,0.39L108.09,60.89z M108.56,59.02c1.25-1.02,1.89-1.83,1.92-2.41
			c-0.57,0.32-1.14,0.99-1.72,2.02C108.69,58.77,108.62,58.9,108.56,59.02z M116.92,56.37c0.9-0.57,1.39-1.06,1.48-1.47
			C117.95,55.17,117.46,55.65,116.92,56.37z"/>
		<path class="st0" d="M131.56,51c0.08-0.18,0.31-0.17,0.7,0.01c0.37,0.16,0.54,0.34,0.53,0.52c-0.01,0.02-0.01,0.04-0.02,0.05
			c-0.83,2.05-1.15,3.48-0.96,4.27c0.55-0.29,1.18-0.92,1.87-1.9c0.76-1.08,1.3-2.14,1.64-3.18c0.1-0.33,0.16-0.62,0.19-0.89
			c0.02-0.1,0.11-0.15,0.27-0.15c0.26-0.01,0.53,0.09,0.8,0.31c0.15,0.13,0.21,0.25,0.2,0.35c-0.09,0.56-0.18,1.83-0.28,3.81
			c-0.03,0.45-0.05,0.83-0.07,1.13c0.83-0.88,2.18-2.22,4.05-4c0.08-0.07,0.28-0.07,0.59,0c0.54,0.12,0.68,0.37,0.43,0.75
			c-0.07,0.1-0.16,0.21-0.27,0.31c-2.04,1.96-3.7,3.65-4.98,5.05c-0.01,0.11-0.03,0.31-0.06,0.6c-0.38,4.48-1,7.61-1.85,9.38
			c-0.9,1.83-2.04,2.33-3.42,1.5c-2.08-1.26-1.94-3.73,0.43-7.4c0.89-1.39,2.11-2.96,3.68-4.69c0.05-0.59,0.12-1.5,0.19-2.74
			c-0.13,0.22-0.24,0.38-0.33,0.47l-0.02,0c-0.71,0.99-1.36,1.66-1.95,1.98c-0.48,0.28-1,0.25-1.55-0.08
			c-0.22-0.12-0.39-0.28-0.53-0.46c-0.18-0.23-0.28-0.56-0.31-0.99C130.49,54.08,130.83,52.73,131.56,51z M132.75,67.6
			c0.87-1.43,1.55-4.25,2.05-8.46c-2.54,3.05-3.92,5.46-4.13,7.22c-0.1,0.97,0.17,1.69,0.8,2.16
			C131.84,68.69,132.27,68.39,132.75,67.6z"/>
		<path class="st0" d="M144.61,49.66c-0.04,0.19-0.27,0.21-0.67,0.05c-0.07-0.03-0.13-0.06-0.18-0.09
			c-0.74,0.39-1.37,0.98-1.87,1.76c-0.44,0.69-0.6,1.31-0.49,1.86c0.03,0.12,0.07,0.23,0.12,0.33c0.38-0.11,0.86-0.51,1.43-1.2
			c0.57-0.69,0.99-1.23,1.24-1.62c0.25-0.39,0.47-0.76,0.67-1.09l0.01-0.02c0.05-0.1,0.13-0.16,0.23-0.18
			c0.24-0.05,0.51,0.06,0.81,0.35c0.11,0.1,0.17,0.2,0.19,0.28c0,0.03-0.01,0.06-0.02,0.07c0.04,0.46,0.09,0.85,0.16,1.18
			c0.07,0.3,0.16,0.57,0.28,0.8c0.09,0.11,0.21,0.15,0.38,0.13c0.67-0.15,2.03-1.21,4.08-3.2c0.03-0.04,0.08-0.06,0.13-0.08
			c0.22-0.05,0.48,0.05,0.76,0.28c0.13,0.12,0.21,0.23,0.25,0.33c0,0.07-0.01,0.13-0.06,0.17c-0.1,0.11-0.27,0.28-0.51,0.51
			c-1.24,1.22-2.19,2.02-2.85,2.39c-0.33,0.19-0.64,0.31-0.94,0.38c-0.12,0.03-0.28,0.04-0.49,0.04c-1.01-0.04-1.7-0.53-2.07-1.48
			c-1.17,1.68-2.14,2.61-2.91,2.78l-0.14,0.03c-0.53,0.05-1.01-0.14-1.45-0.56c-0.14-0.14-0.25-0.29-0.34-0.45
			c-0.07-0.14-0.13-0.31-0.17-0.49c-0.18-0.84,0.14-1.76,0.96-2.74c0.48-0.57,1-1.01,1.55-1.31c0.13-0.07,0.28-0.12,0.44-0.16
			c0.43-0.08,0.82,0.01,1.16,0.28C144.55,49.19,144.65,49.42,144.61,49.66z"/>
		<path class="st0" d="M152.96,57.47c0.32-0.07,0.59,0.03,0.8,0.29c0.07,0.1,0.12,0.21,0.15,0.32c0.07,0.33-0.03,0.59-0.29,0.8
			c-0.1,0.08-0.21,0.13-0.32,0.15c-0.33,0.07-0.59-0.03-0.8-0.29c-0.07-0.1-0.12-0.21-0.15-0.32c-0.07-0.33,0.03-0.59,0.29-0.8
			C152.75,57.54,152.85,57.49,152.96,57.47z M155.82,35.86c0.03-0.07,0.08-0.12,0.16-0.15c0.23-0.05,0.5,0.04,0.8,0.26
			c0.19,0.14,0.28,0.27,0.26,0.41l-3.03,19.32c-0.03,0.07-0.08,0.11-0.15,0.13c-0.22,0.05-0.49-0.03-0.8-0.24
			c-0.2-0.15-0.3-0.29-0.28-0.42L155.82,35.86z"/>
	</g>
</g>
</svg>
