<?xml version="1.0" encoding="UTF-8"?>
<svg id="Layer_2" data-name="Layer 2" xmlns="http://www.w3.org/2000/svg" viewBox="0 0 147.3 23.56">
  <defs>
    <style>
      .cls-1 {
        fill: #060707;
        opacity: 0;
      }
    </style>
  </defs>
  <g id="Hand_Write" data-name="Hand Write">
    <g>
      <path class="cls-1" d="m.61,8.6c1.87-2.56,3.57-3.75,6.35-5.58,7.17-4.73,15.29-1.82,22.18,1.73,3.23,1.67,6.9,3.84,10.63,3.96,6.05.2,11.29-4.09,15.7-7.64"/>
      <path class="cls-1" d="m55.31.87c-2.35,3.81-4.45,7.78-7.11,11.38-.18.24-2.58,3.16-2.58,1.14,0-.95,3.28-4.05,3.91-4.7,2.96-3.02,6.2-6,10.3-7.38,4.94-1.67,5.45.58,3.84,4.82-.27.7-.56,1.38-.89,2.05-.65,1.31-1.38,2.53-2.16,3.77-1.53,2.42-3.08,4.86-4.86,7.1"/>
      <path class="cls-1" d="m55.77,19.19c.5-.65,1.01-1.29,1.52-1.94.64-.81,1.25-1.65,1.92-2.43,1.01-1.17,2.52-2.52,3.79-3.41.27-.19.85-.71.89.17.03.76-2.53,3.87-3.03,4.82"/>
      <path class="cls-1" d="m60.49,17.55c1.48-3.15,4.14-5.77,6.48-8.25,1.32-1.39,3.13-2.53,4.66-3.7,1.11-.85,2.14-1.39,3.43-1.91,3.1-1.26,4.66-.81,3.56,3.06-.8,2.82-2.77,5.12-4.89,7.02-.32.28-.58.63-.92.89-.49.37-.99,1.26-1.54.99-.49-.24,0-1.14.23-1.64.36-.74.98-1.33,1.51-1.97,1.18-1.43,2.52-2.77,3.79-4.13,2.75-2.93,6.49-6.24,10.49-7.26.61-.16,2.77-.72,3.57-.32,2.49,1.26-.06,5.24-.84,6.69-2.05,3.79-4.43,7.54-7.17,10.87-1.07,1.3-2.31,2.48-3.46,3.72-.27.3-.4,1-.8.91-.35-.08.23-.67.34-1.01"/>
      <path class="cls-1" d="m78.86,22.96c1.44-2.44,4.64-4.42,6.8-6.37,6.9-6.21,16.2-10.91,25.76-9.27,2.25.38,4.12,1.61,6.25,2.31,2.23.73,4.9,1.4,7.23,1.68,7.42.91,17.16-2.05,21.67-8.23"/>
      <path d="m147.03,2.52c-.32-.25-.77-.19-1.02.13l-.57.74-.6.7-.64.68-.67.68-.71.66-.75.64-.79.6-.84.56-.88.5-.92.45-.94.41-.96.36-.98.33-.99.29-1,.25-1.01.22-1.01.18-1.01.14-1,.11-.99.07-.98.03h-.97s-.95-.06-.95-.06l-.93-.09-1.18-.16-1.22-.22-1.24-.27-.61-.15-.61-.16-.6-.16-.59-.17-.58-.18-.56-.18-1.04-.38-1.02-.44-1.01-.45-.51-.22-.52-.21-.53-.19-.54-.17-.55-.15-.56-.11-.6-.1-.6-.08-.6-.06-.6-.05-.6-.03-.6-.02h-1.19s-1.18.08-1.18.08l-1.17.13-1.17.18-1.16.23-1.15.28-1.14.32-1.13.37-1.11.41-1.1.45-1.08.49-1.07.53-1.05.56-1.03.6-1.01.63-.99.66-.97.69-.95.71-.93.73-.91.75-.9.74-.58.46-.61.46-.64.47-.35.26.51-.72.62-.9.62-.9.62-.9.61-.91.6-.91.58-.92.59-.93.56-.94.56-.94.53-.95.52-.95.23-.41.28-.5.31-.57.16-.31.15-.32.15-.33.14-.34.13-.34.12-.34.1-.34.08-.34.05-.34.03-.33v-.33s-.04-.32-.04-.32l-.07-.31-.12-.29-.16-.26-.11-.13-.11-.12-.13-.11-.14-.11-.15-.1-.19-.1-.54-.14h-.68s-.73.09-.73.09l-.36.06-.35.07-.32.07-.15.03-.14.03-.13.03-.11.03-.1.03-.09.02-.5.14-.5.17-.5.19-.49.21-.49.23-.49.25-.95.54-.93.6-.91.65-.88.68-.85.72-.58.52.03-.24.02-.35v-.32s-.04-.29-.04-.29l-.06-.27-.09-.24-.12-.21-.15-.18-.18-.15-.2-.12-.23-.08-.24-.05-.26-.02h-.28s-.29.03-.29.03l-.31.05-.32.07-.34.09-.35.11-.37.13-.39.15-.63.27-.6.28-.58.3-.56.33-.56.36-.56.41-.78.58-.81.58-.82.6-.41.3-.41.3-.4.31-.39.32-.38.33-.36.34-.62.6-.62.61-.62.62-.62.64-.15.16v-.12s-.02-.22-.02-.22l-.06-.18-.09-.14-.13-.1-.16-.04-.14.02-.13.04-.11.06-.1.07-.1.07-.09.06-.07.06-.65.49-.68.55-.67.58-.33.3-.33.3-.32.3-.29.29.08-.15.36-.62.37-.61.38-.61.39-.62.38-.62.37-.63.36-.63.35-.64.33-.66.32-.68.3-.69.27-.7.19-.53.17-.51.14-.48.12-.46.09-.44.06-.42.04-.39v-.37s-.02-.34-.02-.34l-.06-.32-.1-.3-.14-.26-.18-.23-.22-.2-.26-.16-.29-.12-.33-.08-.36-.04h-.4s-.44.03-.44.03l-.47.08-.25.05-.26.06-.27.07-.28.08-.29.09-.31.1-1.01.38-.98.45-.95.5-.92.55-.89.6-.86.64-.64.53.5-.78.6-.94.54-.82.2-.15.56-.44c.57-.45.13-1.36-.55-1.36-.51,0-1.06.81-1.46,1.15l-.55.48-.54.49-.55.5-.54.51-.56.5-.57.49-.6.46-.61.44-.63.41-.64.38-.65.36-.66.34-.67.31-.67.29-.68.26-.69.23-.7.2-.71.16-.71.12-.72.09-.73.05h-.74s-.45-.02-.45-.02l-.46-.04-.46-.06-.46-.08-.46-.1-.45-.11-.91-.27-.9-.32-.89-.36-.89-.39-.87-.42-.86-.43-.85-.44-.83-.44-.82-.42-.87-.44-.88-.43-.89-.42-.9-.4-.91-.39-.92-.36-.93-.34-.93-.31-.94-.28-.95-.25-.95-.21-.95-.17-.96-.13-.96-.08-.96-.03h-.48s-.48.02-.48.02l-.48.03-.48.05-.48.06-.48.08-.48.09-.48.11-.47.13-.47.14-.47.16-.47.18-.47.19-.47.21-.46.23-.46.25-.46.27-.46.29-.7.42-.66.4-.62.38-.59.39-.56.39-.54.41-.52.42-.51.45-.5.48-.5.52-.5.57-.49.61c-.2.27-.15.65.12.85.27.2.65.15.85-.12l.44-.62.43-.56.43-.52.44-.49.45-.46.46-.44.48-.43.51-.43.54-.43.57-.44.61-.46.65-.47.44-.29.44-.26.45-.24.45-.23.45-.21.45-.19.45-.17.45-.16.46-.14.46-.12.46-.11.46-.09.46-.08.46-.06.46-.05.47-.04.47-.02h.46s.94.01.94.01l.94.07.94.12.94.16.94.2.93.24.93.27.93.3.92.33.91.36.91.38.9.4.89.42.88.43.86.44.81.43.83.44.85.44.86.44.88.43.89.4.9.37.92.33.92.28.47.12.47.1.47.09.47.07.47.05.48.03h.76s.76-.03.76-.03l.75-.08.74-.12.73-.16.72-.2.71-.23.7-.26.69-.29.68-.32.67-.34.66-.37.66-.38.65-.39.65-.39.65-.39.66-.39.66-.39.64-.39.13-.08-.42.79-.53.99-.5.95-.69.64-.76.75-.76.75-.5.5-.8.79-.46.47-.45.47-.23.25-.22.24-.21.24-.2.24-.19.23-.17.23-.16.22-.14.21-.11.2-.09.19-.06.18-.02.18v.26s.05.22.05.22l.08.18.12.15.17.1.21.03.31-.06.33-.17.33-.24.32-.28.31-.3.27-.29.12-.14.11-.12.09-.11.08-.09.06-.07.04-.05.65-.91.65-.92.61-.94.61-.94.61-.94.63-.93.62-.93.1-.15.66-.54.82-.67.85-.63.88-.58.9-.54.93-.49.96-.43,1-.37.3-.1.29-.09.28-.08.27-.07.25-.06.24-.05.45-.07.4-.03h.36s.32.04.32.04l.27.07.23.1.19.12.16.15.13.18.1.21.07.24.05.27.02.3v.33s-.05.36-.05.36l-.06.39-.09.42-.12.44-.14.47-.17.49-.19.51-.27.69-.29.68-.32.67-.33.64-.34.63-.35.62-.36.62-.38.62-.39.62-.39.6-.4.6-.41.59-.42.58-.45.56-.46.56-.46.55-.44.55-.46.53-.45.55-.44.56-.44.57c-.24.32-.17.77.15,1.01.02.02.04.03.06.04,0,0,0,0,.01.01.25.2.61.16.82-.08.04-.04.08-.07.12-.12l.42-.58.42-.58.4-.59.4-.62.36-.64.28-.53.12-.17.63-.81.25-.3.27-.31.29-.31.3-.31.31-.3.32-.3.67-.58.67-.53.65-.47.07-.05.08-.06.09-.06.09-.05.08-.04.06-.02s.04,0,.04,0h0s.02.05.02.05l.02.1v.17s0,.06,0,.06l-.03.1-.05.13-.08.15-.1.17-.11.19-.13.21-.14.22-.06.09-.54.62-.57.7-.49.66c-.37.5-1.6.99-1.16,1.84l-.29.54c-.15.3-.03.66.27.82.3.15.66.03.82-.27l.37-.77.41-.74.45-.73.48-.71.51-.7.54-.69.55-.68.57-.67.58-.66.58-.66.58-.65.57-.64.32-.35.34-.34.36-.33.37-.32.38-.32.4-.31.81-.6.81-.59.78-.58.54-.4.53-.35.54-.31.55-.29.58-.27.62-.26.37-.15.35-.13.34-.11.32-.09.3-.07.28-.05.26-.03h.23s.21.01.21.01l.18.04.16.06.14.08.12.1.1.12.08.15.07.17.05.21.03.24v.28s0,.31,0,.31l-.04.35-.07.38v.06s-.49.45-.49.45l-.75.75-.71.74-.64.68-.64.68-.64.68-.64.69-.62.7-.6.71-.27.31-.28.31-.28.32-.26.33-.24.35-.21.37-.07.14-.07.15-.07.16-.07.17-.07.17-.06.17-.04.17-.02.17v.17s.06.16.06.16l.1.15.17.12.34.06.34-.13.28-.22.14-.13.13-.13.13-.13.12-.13.12-.11.12-.1.33-.29.3-.31.3-.29.53-.48.52-.5.51-.52.49-.54.47-.56.45-.58.42-.6.39-.62.36-.64.32-.66.28-.69.23-.7.13-.48.1-.42.09-.09.81-.73.84-.7.87-.67.9-.63.92-.58.94-.52.47-.24.48-.22.48-.2.49-.18.49-.16.49-.14.08-.02.1-.02.11-.03.12-.03.14-.03.14-.03.31-.07.34-.06.35-.06.7-.08h.61s.45.13.45.13l.11.06.12.08.11.09.1.09.09.09.07.09.13.22.09.23.06.25.03.27v.28s-.03.3-.03.3l-.05.31-.07.32-.1.32-.11.32-.13.32-.14.32-.15.32-.15.31-.15.3-.31.57-.28.5-.23.41-.53.94-.53.94-.55.93-.55.93-.58.92-.58.92-.6.9-.62.89-.65.87-.67.85-.7.82-.72.8-.58.59-.6.58-.61.58-.62.58-.62.59-.3.3c-.35-.13-.75.02-.91.37l-.07.15s-.1.17-.11.18c-.24.4-.52,1.02-.1,1.42.08.07.17.12.25.2.1.09.17.2.27.28.25.2.71.13.87-.16l.17-.3.18-.28.2-.28.22-.28.23-.28.24-.27.53-.55.56-.54.59-.54.61-.53.62-.53.61-.53.6-.52.58-.52.54-.51.85-.8.89-.75.92-.73.94-.71.96-.68.98-.66,1-.63,1.02-.6,1.03-.57,1.05-.53,1.06-.5,1.08-.46,1.09-.42,1.11-.38,1.12-.33,1.13-.29,1.14-.23,1.15-.18,1.16-.13,1.16-.07h1.17s.59,0,.59,0l.59.03.59.05.59.06.59.08.59.09.55.11.53.14.52.17.51.19.51.2.51.22,1.01.45,1.03.44,1.06.39.57.19.58.18.6.18.61.17.61.16.62.15,1.24.28,1.23.24,1.2.18.95.1.97.06.99.02,1-.02,1.01-.06,1.02-.1,1.02-.14,1.03-.18,1.02-.22,1.02-.26,1.01-.3,1-.33.98-.37.97-.4.95-.43.94-.45.92-.47.9-.5.88-.53.84-.58.8-.63.74-.69.69-.74.61-.77c.25-.32.19-.77-.13-1.02ZM51.05,7.44l-.56.97-.6.94-.6.94-.64.91-.64.92-.03.03-.05.07-.07.09-.09.1-.1.12-.12.13-.26.28-.29.29-.3.26-.29.21-.24.13-.19.04h0s-.02-.01-.02-.01l-.03-.04-.04-.08-.03-.14v-.2s0-.08,0-.08l.04-.12.07-.15.09-.17.12-.19.14-.21.16-.22.18-.23.19-.24.2-.24.21-.24.22-.24.45-.48.44-.47.79-.8.5-.5.75-.75.66-.66-.02.04Zm27.35-.76l-.22.68-.26.66-.3.64-.34.62-.37.6-.41.59-.43.57-.46.55-.48.53-.5.52-.51.5-.52.49-.31.3-.29.31-.31.28-.12.1-.13.13-.13.13-.12.13-.12.13-.12.11-.23.19-.19.08-.2-.04-.04-.03-.03-.05-.02-.07v-.1s0-.12,0-.12l.03-.14.05-.15.06-.15.07-.15.07-.15.07-.14.06-.13.19-.35.23-.33.25-.32.27-.31.28-.31.27-.32.6-.71.62-.69.63-.69.64-.68.64-.68.64-.68.7-.74.74-.74.09-.08-.05.2Z"/>
    </g>
  </g>
</svg>