<?xml version="1.0" encoding="UTF-8"?>
<svg id="Layer_2" data-name="Layer 2" xmlns="http://www.w3.org/2000/svg" viewBox="0 0 80.92 24.48">
  <defs>
    <style>
      .cls-1 {
        fill: #c2c2c3;
      }

      .cls-2 {
        fill: #545554;
      }

      .cls-3 {
        fill: #6a6b6a;
      }

      .cls-4 {
        fill: #4a4a49;
      }

      .cls-5 {
        fill: #2a2b2a;
      }

      .cls-6 {
        fill: #b9b9ba;
      }
    </style>
  </defs>
  <g id="Graphic_Photo" data-name="Graphic+Photo">
    <g>
      <g>
        <path class="cls-6" d="m17.79,2.36c-4.48-.65-9.53-1.16-13.06,1.67C1.23,6.83.62,12.32,2.77,16.26c2.15,3.94,6.51,6.33,10.96,6.94,1.82.25,3.71.23,5.45-.38,3.09-1.08,5.37-4.01,6.02-7.22,1.24-6.03-3.65-12.58-9.78-13.11"/>
        <g>
          <path class="cls-1" d="m17.54,2.87c.28-.03-.11-.27.19-.09-.05.11-.12.19-.19.09Z"/>
          <path class="cls-1" d="m16.24,2.99c.49-.32.99-.15,1.47.03.47.24.93.46,1.45.49.11.02-.22.36.05.38,1.11-.1,2.19,1.13,2.57,2.25l-.13.04c.08.2.55.11.65.33-.06.05-.13.02-.18.13.21-.11.34.24.53.2-.02.13-.17.23-.18.38l.29-.07c.72-.08.46.73.99.97-.07.01-.13,0-.16.06.72.49,1.12,1.43,1.51,2.25-.1,0-.28.02-.36.1.28-.05.44.2.56.42-.25.17.35.35.25.67h-.07c.34.14-.11.33.28.44l-.21.17c.42.04-.18.33.04.48h.08c.12.14-.08.25,0,.39l-.05.02c.15.35-.12.57.21.56-.26.13-.11-.35-.49-.15.08.29.13.58.16.88.02.3-.02.6-.04.89-.05.6-.24,1.18-.43,1.74-.17.08-.23.15-.36.13.03.13-.11.42,0,.59.01-.04-.18,0-.22.05-.19.14.22.36-.02.51-.03-.12-.11-.2-.23-.22.13.29-.02.51-.08.75-.03-.06-.03-.12-.12-.17.11.37-.29.37-.27.65l-.11-.17c-.39.17.26.31-.03.49,0-.1-.08-.12-.13-.17.1.43-.29.75-.4,1.04,0-.03-.05-.06-.05-.06-.18.28-.49.44-.65.79-.15.02-.27-.36-.48-.09.26.28-.35.48.07.68-.27.15-.74.3-.84.51.03-.19-.36-.3-.18-.46l-.27-.09c-.06-.14.18-.06.03-.19-.08.08-.3.37-.42.37-.07.31-.07.77-.39.98.1-.21-.25-.33-.17-.44-.06.28-.13.56-.21.85-.11.06-.12-.26-.26-.11.04.09-.01.17-.04.26-.06-.02-.49.24-.63-.1-.09-.12.17-.13,0-.22-.22.06-.2.18-.42.24v-.05c-.17-.02-.42.24-.22.41.11,0-.08-.21.09-.14-.06.23-.33.34-.56.37.07-.07.05-.16.06-.27-.27.33-.6.46-.95.6,0,.17.11-.32.17-.24-.46-.21-.93.39-1.3.02.06-.03.03.25.02.2-.22-.03-.2-.28-.34-.19,0-.15-.18.04-.32.07-.08.1-.03-.07.09-.08-.2.12-1.04.27-1.47-.01,0,.1-.34.31-.44.28l.08-.22c-.07-.15-.36-.04-.34-.23-.27.24.9-.09.56.07-.05-.2-.48.29-.36,0-.21-.02-.47.18-.62-.07.05.05.23-.27.06-.29-.3-.02-.11.09-.36.11l-.17.06c-.06.22-.26-.1-.21.17,0-.19-.46,0-.33-.35l.12-.27c-.13-.01-.29.24-.42.34,0-.03-.03-.1,0-.14-.15.42-.29-.13-.54.15-.22-.23-.67-.24-.7-.55-.24.05-.49.14-.68-.05.06-.02.13,0,.18-.09-.09-.18-.17-.09-.33-.08.05-.05-.18-.36-.26-.57-.25.04-.28.28-.36.4.02-.48-.67-.02-.7-.48.09-.02.38-.05.27-.23.04-.47-.49.1-.66-.24l-.12.35c0-.26-.51-.05-.29-.35-.16.05-.25-.3-.41.02-.27-.52-1.16-.59-1.02-1.29-.09,0-.2-.17-.28,0-.03.23.22,0,.17.13-.06-.03-.13.03-.17.07-.07-.17-.15-.27.15-.4-.12-.4-.68.24-.93-.19.12-.09.13-.16.01-.23h-.36c-.18-.25.11-.35.28-.53-.14-.08-.26-.23-.44-.16l.1-.35c-.07.25-.2,0-.29,0h.1c.06-.08-.11-.17-.19-.22-.11.12-.03.3,0,.4-.14.01-.2-.1-.37-.1.21-.13-.03-.31-.09-.43-.05-.15-.28,0-.3-.03.1-.08-.13-.2.08-.22.06.01-.03.16.11.16.01-.13.19-.26-.05-.32-.18-.05-.37.32-.41,0,.09.03.18-.02.28-.02l-.05-.29-.19.12c.03-.06.06-.05.07-.08-.24.07-.29-.29-.55-.2-.09-.11-.02-.33-.06-.45h.03c.03-.19-.15-.33-.35-.37l.05-.02c-.03-.09-.15-.26-.31-.3.05-.28.72-.44.37-.53-.11-.19-.52-.15-.61,0,0-.43-.54-.74-.3-1.22-.1-.03-.15.02-.23-.08-.1-.59-.57-1.19-.2-1.73.12.16.22-.02.35-.04-.22-.11.18-.19-.16-.2-.2.04-.3.04-.36.22-.17-.34-.21-.89-.02-1.1-.09.1-.15.03-.22-.05.32,0,.35-.25.24-.44l-.2-.03.2-.13c-.06-.08-.41-.09-.22-.29.08,0,.15-.02.21-.05-.16-.21-.42-.52-.22-.74l.3-.16c-.02-.1-.17-.28-.27-.12.2-.37.28-.6.54-.68-.51-.75-.22-1.75.11-2.47l.13.08c.21-.14-.19-.2-.04-.3.1.12.35-.02.43.2.27-.2-.07-.45-.04-.66-.16-.11.04.2-.16.06-.05-.07.32-.31.1-.49.14-.01.3.15.38.24l-.03-.23c.4-.02.28.73.76.73l.04-.16c.34.03.1.51.38.24-.04-.21-.33-.55-.52-.48.12-.35-.51-.51-.27-.85.2,0-.14.31.11.37.29-.04.1-.39.27-.49-.2.09-.35-.21-.31-.34.24-.09.14.27.34.05-.11-.14-.03-.45-.27-.32-.23-.33.27-.2.17-.51.27.1.26.63.59.47-.23-.13.01-.54-.39-.66.15-.05.3.08.36.26.24-.03-.03-.67.38-.35l-.14-.23c.1.02.21,0,.38.05.12-.1.17-.63.41-.31,0-.08.32-.28.04-.41-.3,0-.09.33-.43.13.32.12.24-.25.3-.42l.11.11c.03-.1.21-.18.15-.35,0,.11.09.18.16.17l-.06-.24c.22-.29.29.29.53.06-.04.09-.07.19-.1.29.02-.07.23.06.32-.08-.06-.21-.1-.49-.14-.66.11-.18.19.17.24-.12l-.08.34c0,.08.31.22.51.1.09-.15.17-.52-.11-.52.11-.06.32-.01.31.17.21-.18-.14-.19.02-.41.15.09.51.14.75.26l-.07.43.14-.06c-.07.35.18.16.19.48.11,0,.18-.13.25-.24-.47-.34.08-.74-.15-1.12.39-.27.59.91.81.13-.1-.09,0-.47-.22-.27.27-.03.05-.48.42-.39-.18.24.36.36.1.71-.02-.15-.21-.06-.25,0,.15.13.11.43.36.36.14-.08.35-.15.27-.36-.07-.25-.23.09-.2-.18.3-.17.44.21.47-.26-.2.08-.31-.17-.34-.34l.22-.16v.17c.4.04.04-.32.43-.36l.24.29c-.04.29-.57-.01-.41.43.24-.03.28-.29.53-.2-.04.05-.11.07-.15.12.09,0,.27.6.55.19.15-.16.02-.17,0-.34.38-.11.47-.29.72-.34-.02.34.44,0,.2.36-.14-.19-.7-.12-.79.23.19.38-.3-.01-.32.4.3-.03.34.36.42.61.08,0,.14-.11.19-.16,0-.25-.1-.23-.14-.48.34.02.64-.13.8-.39.12.11.1.36-.02.39.38-.12.8-.08,1.17-.03-.25-.4.41-.1.24-.43-.2-.09-.38-.37-.27-.55.13.02,0,.17.05.26.16-.22.25.35.41,0-.36.13-.07.49-.13.8.25-.18,0,.22.24.22.25-.18.56-.3.85-.36.34.3.89.05,1.2.06.15.17.01.51.18.59.2.01-.12-.39.17-.2l-.04.07c.1-.07.53.29.67-.21l-.13.37c.05.04.11-.04.16-.08-.01.12.04.24-.06.31.16.28.39,0,.59.02l-.1-.24c.37-.14.57.12.91.08l-.04.22.22-.11c-.08.21.09.37.21.2l-.58.47c-.12-.15.19-.25.13-.47-.05-.2-.37-.18-.44.03.11.04.13,0,.23-.08,0,.31-.18.28-.29.47.06,0,.14.1.16,0-.14.13-.26.14-.46.13.15-.1-.05-.2.01-.28-.05.27-.25.33-.49.23-.14-.33-.48.15-.76.04.14-.26.31-.47.5-.56-.17-.16-.2-.01-.37-.17-.11.2-.2.5-.44.61v-.2c-.22.09-.24.39-.5.31-.45-.14-.92-.14-1.27-.18v-.2c-.21.44-.66.15-.92.36-.45-.19-.93.24-1.19-.08-.76.23-1.38.49-2.13.63l.05-.32c-.08.25-.13-.14-.26-.06.22.18-.1.35-.13.54-.39-.09-.74.28-.9.6l-.1-.18c-.11.46-.55.33-.91.48-.08-.05-.25-.18-.33-.09.02.39-.08.43-.19.76-.16.13-.45.29-.71.35-.21.87-.89,1.33-1.01,2.19l-.24-.05c.12.9-.58,1.67-.42,2.41l-.39-.13c-.18.2.05.51.33.49-.15.2.14.54-.19.65-.08.22.18.27.23.45-.14.43-.11.6.02,1v-.1c-.08-.04-.26-.02-.27.08.13.14-.03.58.43.36-.21.49.41.92.18,1.42.12-.07.17.02.27.03.13.34.01.82.36.98-.03.08-.25.01-.19.16.09.06.16-.07.27,0,.47.41.4,1.2.8,1.63.81.64,1.48,1.45,2.29,2.01l-.07.07c.47-.1.42.77.95.44.01.12.23.2.08.33.36-.1.53.6,1.03.47-.03-.02-.05-.02-.11,0,.25.38.7.24,1,.59-.05.02-.14.02-.19.1.08.24.51-.24.42.23.09.03.15-.2.09-.2.8.5,1.84.49,2.78.55.62.38-.09.79.5.53.03.1.06-.17.05-.08.22-.1.26.57.44.34-.03-.29.12-.15.14-.32.4.23.47.49.82.29l-.03.15c.41-.41.85-.18,1.14-.69,2.04-.17,3.49-1.14,4.69-2.45,1.31-1.21,1.94-2.97,2.37-4.69.46-.38.41-.45.27-.93.06.02.08.05.14.02-.32-.02-.03-.34-.36-.37,0-.69-.17-1.31-.39-1.98.07.1.34.08.28-.05l-.24-.08.08-.05c-.07-.08-.26-.12-.33,0-.4-.79-.7-1.61-1.11-2.42-.38-.82-.9-1.6-1.61-2.16-.12-.19-.32-.36-.54-.51-.23-.13-.48-.24-.69-.34-.89-1.08-2.12-1.91-3.58-1.74,0,0,.25-.82.95-.91Z"/>
          <path class="cls-1" d="m17.21,2.86c-.03-.17-.21-.29-.03-.48,0,.16.07.34.03.48Z"/>
          <path class="cls-1" d="m12.25.74s-.08-.07-.09-.09c.07-.01.13-.15.18-.06-.07.01-.06.09-.09.16Z"/>
          <path class="cls-1" d="m10.87.68c.01-.15.3-.27.48-.3l-.48.3Z"/>
          <path class="cls-1" d="m9.5.22c-.13-.11-.11-.18.05-.2.02.08-.03.12-.05.2Z"/>
          <path class="cls-1" d="m9.45.56c-.11.02-.18-.06-.24-.13.02.12.25-.12.24.13Z"/>
          <path class="cls-1" d="m6.44.89c-.07.04-.17.21-.3.08.11.08.27-.3.3-.08Z"/>
          <path class="cls-1" d="m5.21,1.7s-.07,0-.1.06c-.11-.01-.08-.15-.02-.2l.13.14Z"/>
          <polygon class="cls-1" points="7.36 22.23 7.21 22.22 7.3 22.11 7.36 22.23"/>
          <path class="cls-1" d="m17.4,24.34c.13-.11.12.12.15.14-.13.03.02-.18-.15-.14Z"/>
          <polygon class="cls-1" points="22.22 21.43 22.19 21.46 22.01 21.23 22.22 21.43"/>
        </g>
      </g>
      <g>
        <path class="cls-2" d="m45.3,2.36c-4.48-.65-9.53-1.16-13.06,1.67-3.5,2.8-4.1,8.3-1.96,12.23,2.15,3.94,6.51,6.33,10.96,6.94,1.82.25,3.71.23,5.45-.38,3.09-1.08,5.37-4.01,6.02-7.22,1.24-6.03-3.65-12.58-9.78-13.11"/>
        <g>
          <path class="cls-3" d="m45.05,2.87c.28-.03-.11-.27.19-.09-.05.11-.12.19-.19.09Z"/>
          <path class="cls-3" d="m43.75,2.99c.49-.32.99-.15,1.47.03.47.24.93.46,1.45.49.11.02-.22.36.05.38,1.11-.1,2.19,1.13,2.57,2.25l-.13.04c.08.2.55.11.65.33-.06.05-.13.02-.18.13.21-.11.34.24.53.2-.02.13-.17.23-.18.38l.29-.07c.72-.08.46.73.99.97-.07.01-.13,0-.16.06.72.49,1.12,1.43,1.51,2.25-.1,0-.28.02-.36.1.28-.05.44.2.56.42-.25.17.35.35.25.67h-.07c.34.14-.11.33.28.44l-.21.17c.42.04-.18.33.04.48h.08c.12.14-.08.25,0,.39l-.05.02c.15.35-.12.57.21.56-.26.13-.11-.35-.49-.15.08.29.13.58.16.88.02.3-.02.6-.04.89-.05.6-.24,1.18-.43,1.74-.17.08-.23.15-.36.13.03.13-.11.42,0,.59.01-.04-.18,0-.22.05-.19.14.22.36-.02.51-.03-.12-.11-.2-.23-.22.13.29-.02.51-.08.75-.03-.06-.03-.12-.12-.17.11.37-.29.37-.27.65l-.11-.17c-.39.17.26.31-.03.49,0-.1-.08-.12-.13-.17.1.43-.29.75-.4,1.04,0-.03-.05-.06-.05-.06-.18.28-.49.44-.65.79-.15.02-.27-.36-.48-.09.26.28-.35.48.07.68-.27.15-.74.3-.84.51.03-.19-.36-.3-.18-.46l-.27-.09c-.06-.14.18-.06.03-.19-.08.08-.3.37-.42.37-.07.31-.07.77-.39.98.1-.21-.25-.33-.17-.44-.06.28-.13.56-.21.85-.11.06-.12-.26-.26-.11.04.09-.01.17-.04.26-.06-.02-.49.24-.63-.1-.09-.12.17-.13,0-.22-.22.06-.2.18-.42.24v-.05c-.17-.02-.42.24-.22.41.11,0-.08-.21.09-.14-.06.23-.33.34-.56.37.07-.07.05-.16.06-.27-.27.33-.6.46-.95.6,0,.17.11-.32.17-.24-.46-.21-.93.39-1.3.02.06-.03.03.25.02.2-.22-.03-.2-.28-.34-.19,0-.15-.18.04-.32.07-.08.1-.03-.07.09-.08-.2.12-1.04.27-1.47-.01,0,.1-.34.31-.44.28l.08-.22c-.07-.15-.36-.04-.34-.23-.27.24.9-.09.56.07-.05-.2-.48.29-.36,0-.21-.02-.47.18-.62-.07.05.05.23-.27.06-.29-.3-.02-.11.09-.36.11l-.17.06c-.06.22-.26-.1-.21.17,0-.19-.46,0-.33-.35l.12-.27c-.13-.01-.29.24-.42.34,0-.03-.03-.1,0-.14-.15.42-.29-.13-.54.15-.22-.23-.67-.24-.7-.55-.24.05-.49.14-.68-.05.06-.02.13,0,.18-.09-.09-.18-.17-.09-.33-.08.05-.05-.18-.36-.26-.57-.25.04-.28.28-.36.4.02-.48-.67-.02-.7-.48.09-.02.38-.05.27-.23.04-.47-.49.1-.66-.24l-.12.35c0-.26-.51-.05-.29-.35-.16.05-.25-.3-.41.02-.27-.52-1.16-.59-1.02-1.29-.09,0-.2-.17-.28,0-.03.23.22,0,.17.13-.06-.03-.13.03-.17.07-.07-.17-.15-.27.15-.4-.12-.4-.68.24-.93-.19.12-.09.13-.16.01-.23h-.36c-.18-.25.11-.35.28-.53-.14-.08-.26-.23-.44-.16l.1-.35c-.07.25-.2,0-.29,0h.1c.06-.08-.11-.17-.19-.22-.11.12-.03.3,0,.4-.14.01-.2-.1-.37-.1.21-.13-.03-.31-.09-.43-.05-.15-.28,0-.3-.03.1-.08-.13-.2.08-.22.06.01-.03.16.11.16.01-.13.19-.26-.05-.32-.18-.05-.37.32-.41,0,.09.03.18-.02.28-.02l-.05-.29-.19.12c.03-.06.06-.05.07-.08-.24.07-.29-.29-.55-.2-.09-.11-.02-.33-.06-.45h.03c.03-.19-.15-.33-.35-.37l.05-.02c-.03-.09-.15-.26-.31-.3.05-.28.72-.44.37-.53-.11-.19-.52-.15-.61,0,0-.43-.54-.74-.3-1.22-.1-.03-.15.02-.23-.08-.1-.59-.57-1.19-.2-1.73.12.16.22-.02.35-.04-.22-.11.18-.19-.16-.2-.2.04-.3.04-.36.22-.17-.34-.21-.89-.02-1.1-.09.1-.15.03-.22-.05.32,0,.35-.25.24-.44l-.2-.03.2-.13c-.06-.08-.41-.09-.22-.29.08,0,.15-.02.21-.05-.16-.21-.42-.52-.22-.74l.3-.16c-.02-.1-.17-.28-.27-.12.2-.37.28-.6.54-.68-.51-.75-.22-1.75.11-2.47l.13.08c.21-.14-.19-.2-.04-.3.1.12.35-.02.43.2.27-.2-.07-.45-.04-.66-.16-.11.04.2-.16.06-.05-.07.32-.31.1-.49.14-.01.3.15.38.24l-.03-.23c.4-.02.28.73.76.73l.04-.16c.34.03.1.51.38.24-.04-.21-.33-.55-.52-.48.12-.35-.51-.51-.27-.85.2,0-.14.31.11.37.29-.04.1-.39.27-.49-.2.09-.35-.21-.31-.34.24-.09.14.27.34.05-.11-.14-.03-.45-.27-.32-.23-.33.27-.2.17-.51.27.1.26.63.59.47-.23-.13.01-.54-.39-.66.15-.05.3.08.36.26.24-.03-.03-.67.38-.35l-.14-.23c.1.02.21,0,.38.05.12-.1.17-.63.41-.31,0-.08.32-.28.04-.41-.3,0-.09.33-.43.13.32.12.24-.25.3-.42l.11.11c.03-.1.21-.18.15-.35,0,.11.09.18.16.17l-.06-.24c.22-.29.29.29.53.06-.04.09-.07.19-.1.29.02-.07.23.06.32-.08-.06-.21-.1-.49-.14-.66.11-.18.19.17.24-.12l-.08.34c0,.08.31.22.51.1.09-.15.17-.52-.11-.52.11-.06.32-.01.31.17.21-.18-.14-.19.02-.41.15.09.51.14.75.26l-.07.43.14-.06c-.07.35.18.16.19.48.11,0,.18-.13.25-.24-.47-.34.08-.74-.15-1.12.39-.27.59.91.81.13-.1-.09,0-.47-.22-.27.27-.03.05-.48.42-.39-.18.24.36.36.1.71-.02-.15-.21-.06-.25,0,.15.13.11.43.36.36.14-.08.35-.15.27-.36-.07-.25-.23.09-.2-.18.3-.17.44.21.47-.26-.2.08-.31-.17-.34-.34l.22-.16v.17c.4.04.04-.32.43-.36l.24.29c-.04.29-.57-.01-.41.43.24-.03.28-.29.53-.2-.04.05-.11.07-.15.12.09,0,.27.6.55.19.15-.16.02-.17,0-.34.38-.11.47-.29.72-.34-.02.34.44,0,.2.36-.14-.19-.7-.12-.79.23.19.38-.3-.01-.32.4.3-.03.34.36.42.61.08,0,.14-.11.19-.16,0-.25-.1-.23-.14-.48.34.02.64-.13.8-.39.12.11.1.36-.02.39.38-.12.8-.08,1.17-.03-.25-.4.41-.1.24-.43-.2-.09-.38-.37-.27-.55.13.02,0,.17.05.26.16-.22.25.35.41,0-.36.13-.07.49-.13.8.25-.18,0,.22.24.22.25-.18.56-.3.85-.36.34.3.89.05,1.2.06.15.17.01.51.18.59.2.01-.12-.39.17-.2l-.04.07c.1-.07.53.29.67-.21l-.13.37c.05.04.11-.04.16-.08-.01.12.04.24-.06.31.16.28.39,0,.59.02l-.1-.24c.37-.14.57.12.91.08l-.04.22.22-.11c-.08.21.09.37.21.2l-.58.47c-.12-.15.19-.25.13-.47-.05-.2-.37-.18-.44.03.11.04.13,0,.23-.08,0,.31-.18.28-.29.47.06,0,.14.1.16,0-.14.13-.26.14-.46.13.15-.1-.05-.2.01-.28-.05.27-.25.33-.49.23-.14-.33-.48.15-.76.04.14-.26.31-.47.5-.56-.17-.16-.2-.01-.37-.17-.11.2-.2.5-.44.61v-.2c-.22.09-.24.39-.5.31-.45-.14-.92-.14-1.27-.18v-.2c-.21.44-.66.15-.92.36-.45-.19-.93.24-1.19-.08-.76.23-1.38.49-2.13.63l.05-.32c-.08.25-.13-.14-.26-.06.22.18-.1.35-.13.54-.39-.09-.74.28-.9.6l-.1-.18c-.11.46-.55.33-.91.48-.08-.05-.25-.18-.33-.09.02.39-.08.43-.19.76-.16.13-.45.29-.71.35-.21.87-.89,1.33-1.01,2.19l-.24-.05c.12.9-.58,1.67-.42,2.41l-.39-.13c-.18.2.05.51.33.49-.15.2.14.54-.19.65-.08.22.18.27.23.45-.14.43-.11.6.02,1v-.1c-.08-.04-.26-.02-.27.08.13.14-.03.58.43.36-.21.49.41.92.18,1.42.12-.07.17.02.27.03.13.34.01.82.36.98-.03.08-.25.01-.19.16.09.06.16-.07.27,0,.47.41.4,1.2.8,1.63.81.64,1.48,1.45,2.29,2.01l-.07.07c.47-.1.42.77.95.44.01.12.23.2.08.33.36-.1.53.6,1.03.47-.03-.02-.05-.02-.11,0,.25.38.7.24,1,.59-.05.02-.14.02-.19.1.08.24.51-.24.42.23.09.03.15-.2.09-.2.8.5,1.84.49,2.78.55.62.38-.09.79.5.53.03.1.06-.17.05-.08.22-.1.26.57.44.34-.03-.29.12-.15.14-.32.4.23.47.49.82.29l-.03.15c.41-.41.85-.18,1.14-.69,2.04-.17,3.49-1.14,4.69-2.45,1.31-1.21,1.94-2.97,2.37-4.69.46-.38.41-.45.27-.93.06.02.08.05.14.02-.32-.02-.03-.34-.36-.37,0-.69-.17-1.31-.39-1.98.07.1.34.08.28-.05l-.24-.08.08-.05c-.07-.08-.26-.12-.33,0-.4-.79-.7-1.61-1.11-2.42-.38-.82-.9-1.6-1.61-2.16-.12-.19-.32-.36-.54-.51-.23-.13-.48-.24-.69-.34-.89-1.08-2.12-1.91-3.58-1.74,0,0,.25-.82.95-.91Z"/>
          <path class="cls-3" d="m44.73,2.86c-.03-.17-.21-.29-.03-.48,0,.16.07.34.03.48Z"/>
          <path class="cls-3" d="m39.76.74s-.08-.07-.09-.09c.07-.01.13-.15.18-.06-.07.01-.06.09-.09.16Z"/>
          <path class="cls-3" d="m38.38.68c.01-.15.3-.27.48-.3l-.48.3Z"/>
          <path class="cls-3" d="m37.01.22c-.13-.11-.11-.18.05-.2.02.08-.03.12-.05.2Z"/>
          <path class="cls-3" d="m36.96.56c-.11.02-.18-.06-.24-.13.02.12.25-.12.24.13Z"/>
          <path class="cls-3" d="m33.95.89c-.07.04-.17.21-.3.08.11.08.27-.3.3-.08Z"/>
          <path class="cls-3" d="m32.73,1.7s-.07,0-.1.06c-.11-.01-.08-.15-.02-.2l.13.14Z"/>
          <polygon class="cls-3" points="34.88 22.23 34.72 22.22 34.81 22.11 34.88 22.23"/>
          <path class="cls-3" d="m44.92,24.34c.13-.11.12.12.15.14-.13.03.02-.18-.15-.14Z"/>
          <polygon class="cls-3" points="49.73 21.43 49.71 21.46 49.52 21.23 49.73 21.43"/>
        </g>
      </g>
      <g>
        <path class="cls-5" d="m72.82,2.36c-4.48-.65-9.53-1.16-13.06,1.67-3.5,2.8-4.1,8.3-1.96,12.23,2.15,3.94,6.51,6.33,10.96,6.94,1.82.25,3.71.23,5.45-.38,3.09-1.08,5.37-4.01,6.02-7.22,1.24-6.03-3.65-12.58-9.78-13.11"/>
        <g>
          <path class="cls-4" d="m72.56,2.87c.28-.03-.11-.27.19-.09-.05.11-.12.19-.19.09Z"/>
          <path class="cls-4" d="m71.27,2.99c.49-.32.99-.15,1.47.03.47.24.93.46,1.45.49.11.02-.22.36.05.38,1.11-.1,2.19,1.13,2.57,2.25l-.13.04c.08.2.55.11.65.33-.06.05-.13.02-.18.13.21-.11.34.24.53.2-.02.13-.17.23-.18.38l.29-.07c.72-.08.46.73.99.97-.07.01-.13,0-.16.06.72.49,1.12,1.43,1.51,2.25-.1,0-.28.02-.36.1.28-.05.44.2.56.42-.25.17.35.35.25.67h-.07c.34.14-.11.33.28.44l-.21.17c.42.04-.18.33.04.48h.08c.12.14-.08.25,0,.39l-.05.02c.15.35-.12.57.21.56-.26.13-.11-.35-.49-.15.08.29.13.58.16.88.02.3-.02.6-.04.89-.05.6-.24,1.18-.43,1.74-.17.08-.23.15-.36.13.03.13-.11.42,0,.59.01-.04-.18,0-.22.05-.19.14.22.36-.02.51-.03-.12-.11-.2-.23-.22.13.29-.02.51-.08.75-.03-.06-.03-.12-.12-.17.11.37-.29.37-.27.65l-.11-.17c-.39.17.26.31-.03.49,0-.1-.08-.12-.13-.17.1.43-.29.75-.4,1.04,0-.03-.05-.06-.05-.06-.18.28-.49.44-.65.79-.15.02-.27-.36-.48-.09.26.28-.35.48.07.68-.27.15-.74.3-.84.51.03-.19-.36-.3-.18-.46l-.27-.09c-.06-.14.18-.06.03-.19-.08.08-.3.37-.42.37-.07.31-.07.77-.39.98.1-.21-.25-.33-.17-.44-.06.28-.13.56-.21.85-.11.06-.12-.26-.26-.11.04.09-.01.17-.04.26-.06-.02-.49.24-.63-.1-.09-.12.17-.13,0-.22-.22.06-.2.18-.42.24v-.05c-.17-.02-.42.24-.22.41.11,0-.08-.21.09-.14-.06.23-.33.34-.56.37.07-.07.05-.16.06-.27-.27.33-.6.46-.95.6,0,.17.11-.32.17-.24-.46-.21-.93.39-1.3.02.06-.03.03.25.02.2-.22-.03-.2-.28-.34-.19,0-.15-.18.04-.32.07-.08.1-.03-.07.09-.08-.2.12-1.04.27-1.47-.01,0,.1-.34.31-.44.28l.08-.22c-.07-.15-.36-.04-.34-.23-.27.24.9-.09.56.07-.05-.2-.48.29-.36,0-.21-.02-.47.18-.62-.07.05.05.23-.27.06-.29-.3-.02-.11.09-.36.11l-.17.06c-.06.22-.26-.1-.21.17,0-.19-.46,0-.33-.35l.12-.27c-.13-.01-.29.24-.42.34,0-.03-.03-.1,0-.14-.15.42-.29-.13-.54.15-.22-.23-.67-.24-.7-.55-.24.05-.49.14-.68-.05.06-.02.13,0,.18-.09-.09-.18-.17-.09-.33-.08.05-.05-.18-.36-.26-.57-.25.04-.28.28-.36.4.02-.48-.67-.02-.7-.48.09-.02.38-.05.27-.23.04-.47-.49.1-.66-.24l-.12.35c0-.26-.51-.05-.29-.35-.16.05-.25-.3-.41.02-.27-.52-1.16-.59-1.02-1.29-.09,0-.2-.17-.28,0-.03.23.22,0,.17.13-.06-.03-.13.03-.17.07-.07-.17-.15-.27.15-.4-.12-.4-.68.24-.93-.19.12-.09.13-.16.01-.23h-.36c-.18-.25.11-.35.28-.53-.14-.08-.26-.23-.44-.16l.1-.35c-.07.25-.2,0-.29,0h.1c.06-.08-.11-.17-.19-.22-.11.12-.03.3,0,.4-.14.01-.2-.1-.37-.1.21-.13-.03-.31-.09-.43-.05-.15-.28,0-.3-.03.1-.08-.13-.2.08-.22.06.01-.03.16.11.16.01-.13.19-.26-.05-.32-.18-.05-.37.32-.41,0,.09.03.18-.02.28-.02l-.05-.29-.19.12c.03-.06.06-.05.07-.08-.24.07-.29-.29-.55-.2-.09-.11-.02-.33-.06-.45h.03c.03-.19-.15-.33-.35-.37l.05-.02c-.03-.09-.15-.26-.31-.3.05-.28.72-.44.37-.53-.11-.19-.52-.15-.61,0,0-.43-.54-.74-.3-1.22-.1-.03-.15.02-.23-.08-.1-.59-.57-1.19-.2-1.73.12.16.22-.02.35-.04-.22-.11.18-.19-.16-.2-.2.04-.3.04-.36.22-.17-.34-.21-.89-.02-1.1-.09.1-.15.03-.22-.05.32,0,.35-.25.24-.44l-.2-.03.2-.13c-.06-.08-.41-.09-.22-.29.08,0,.15-.02.21-.05-.16-.21-.42-.52-.22-.74l.3-.16c-.02-.1-.17-.28-.27-.12.2-.37.28-.6.54-.68-.51-.75-.22-1.75.11-2.47l.13.08c.21-.14-.19-.2-.04-.3.1.12.35-.02.43.2.27-.2-.07-.45-.04-.66-.16-.11.04.2-.16.06-.05-.07.32-.31.1-.49.14-.01.3.15.38.24l-.03-.23c.4-.02.28.73.76.73l.04-.16c.34.03.1.51.38.24-.04-.21-.33-.55-.52-.48.12-.35-.51-.51-.27-.85.2,0-.14.31.11.37.29-.04.1-.39.27-.49-.2.09-.35-.21-.31-.34.24-.09.14.27.34.05-.11-.14-.03-.45-.27-.32-.23-.33.27-.2.17-.51.27.1.26.63.59.47-.23-.13.01-.54-.39-.66.15-.05.3.08.36.26.24-.03-.03-.67.38-.35l-.14-.23c.1.02.21,0,.38.05.12-.1.17-.63.41-.31,0-.08.32-.28.04-.41-.3,0-.09.33-.43.13.32.12.24-.25.3-.42l.11.11c.03-.1.21-.18.15-.35,0,.11.09.18.16.17l-.06-.24c.22-.29.29.29.53.06-.04.09-.07.19-.1.29.02-.07.23.06.32-.08-.06-.21-.1-.49-.14-.66.11-.18.19.17.24-.12l-.08.34c0,.08.31.22.51.1.09-.15.17-.52-.11-.52.11-.06.32-.01.31.17.21-.18-.14-.19.02-.41.15.09.51.14.75.26l-.07.43.14-.06c-.07.35.18.16.19.48.11,0,.18-.13.25-.24-.47-.34.08-.74-.15-1.12.39-.27.59.91.81.13-.1-.09,0-.47-.22-.27.27-.03.05-.48.42-.39-.18.24.36.36.1.71-.02-.15-.21-.06-.25,0,.15.13.11.43.36.36.14-.08.35-.15.27-.36-.07-.25-.23.09-.2-.18.3-.17.44.21.47-.26-.2.08-.31-.17-.34-.34l.22-.16v.17c.4.04.04-.32.43-.36l.24.29c-.04.29-.57-.01-.41.43.24-.03.28-.29.53-.2-.04.05-.11.07-.15.12.09,0,.27.6.55.19.15-.16.02-.17,0-.34.38-.11.47-.29.72-.34-.02.34.44,0,.2.36-.14-.19-.7-.12-.79.23.19.38-.3-.01-.32.4.3-.03.34.36.42.61.08,0,.14-.11.19-.16,0-.25-.1-.23-.14-.48.34.02.64-.13.8-.39.12.11.1.36-.02.39.38-.12.8-.08,1.17-.03-.25-.4.41-.1.24-.43-.2-.09-.38-.37-.27-.55.13.02,0,.17.05.26.16-.22.25.35.41,0-.36.13-.07.49-.13.8.25-.18,0,.22.24.22.25-.18.56-.3.85-.36.34.3.89.05,1.2.06.15.17.01.51.18.59.2.01-.12-.39.17-.2l-.04.07c.1-.07.53.29.67-.21l-.13.37c.05.04.11-.04.16-.08-.01.12.04.24-.06.31.16.28.39,0,.59.02l-.1-.24c.37-.14.57.12.91.08l-.04.22.22-.11c-.08.21.09.37.21.2l-.58.47c-.12-.15.19-.25.13-.47-.05-.2-.37-.18-.44.03.11.04.13,0,.23-.08,0,.31-.18.28-.29.47.06,0,.14.1.16,0-.14.13-.26.14-.46.13.15-.1-.05-.2.01-.28-.05.27-.25.33-.49.23-.14-.33-.48.15-.76.04.14-.26.31-.47.5-.56-.17-.16-.2-.01-.37-.17-.11.2-.2.5-.44.61v-.2c-.22.09-.24.39-.5.31-.45-.14-.92-.14-1.27-.18v-.2c-.21.44-.66.15-.92.36-.45-.19-.93.24-1.19-.08-.76.23-1.38.49-2.13.63l.05-.32c-.08.25-.13-.14-.26-.06.22.18-.1.35-.13.54-.39-.09-.74.28-.9.6l-.1-.18c-.11.46-.55.33-.91.48-.08-.05-.25-.18-.33-.09.02.39-.08.43-.19.76-.16.13-.45.29-.71.35-.21.87-.89,1.33-1.01,2.19l-.24-.05c.12.9-.58,1.67-.42,2.41l-.39-.13c-.18.2.05.51.33.49-.15.2.14.54-.19.65-.08.22.18.27.23.45-.14.43-.11.6.02,1v-.1c-.08-.04-.26-.02-.27.08.13.14-.03.58.43.36-.21.49.41.92.18,1.42.12-.07.17.02.27.03.13.34.01.82.36.98-.03.08-.25.01-.19.16.09.06.16-.07.27,0,.47.41.4,1.2.8,1.63.81.64,1.48,1.45,2.29,2.01l-.07.07c.47-.1.42.77.95.44.01.12.23.2.08.33.36-.1.53.6,1.03.47-.03-.02-.05-.02-.11,0,.25.38.7.24,1,.59-.05.02-.14.02-.19.1.08.24.51-.24.42.23.09.03.15-.2.09-.2.8.5,1.84.49,2.78.55.62.38-.09.79.5.53.03.1.06-.17.05-.08.22-.1.26.57.44.34-.03-.29.12-.15.14-.32.4.23.47.49.82.29l-.03.15c.41-.41.85-.18,1.14-.69,2.04-.17,3.49-1.14,4.69-2.45,1.31-1.21,1.94-2.97,2.37-4.69.46-.38.41-.45.27-.93.06.02.08.05.14.02-.32-.02-.03-.34-.36-.37,0-.69-.17-1.31-.39-1.98.07.1.34.08.28-.05l-.24-.08.08-.05c-.07-.08-.26-.12-.33,0-.4-.79-.7-1.61-1.11-2.42-.38-.82-.9-1.6-1.61-2.16-.12-.19-.32-.36-.54-.51-.23-.13-.48-.24-.69-.34-.89-1.08-2.12-1.91-3.58-1.74,0,0,.25-.82.95-.91Z"/>
          <path class="cls-4" d="m72.24,2.86c-.03-.17-.21-.29-.03-.48,0,.16.07.34.03.48Z"/>
          <path class="cls-4" d="m67.27.74s-.08-.07-.09-.09c.07-.01.13-.15.18-.06-.07.01-.06.09-.09.16Z"/>
          <path class="cls-4" d="m65.9.68c.01-.15.3-.27.48-.3l-.48.3Z"/>
          <path class="cls-4" d="m64.52.22c-.13-.11-.11-.18.05-.2.02.08-.03.12-.05.2Z"/>
          <path class="cls-4" d="m64.47.56c-.11.02-.18-.06-.24-.13.02.12.25-.12.24.13Z"/>
          <path class="cls-4" d="m61.46.89c-.07.04-.17.21-.3.08.11.08.27-.3.3-.08Z"/>
          <path class="cls-4" d="m60.24,1.7s-.07,0-.1.06c-.11-.01-.08-.15-.02-.2l.13.14Z"/>
          <polygon class="cls-4" points="62.39 22.23 62.23 22.22 62.32 22.11 62.39 22.23"/>
          <path class="cls-4" d="m72.43,24.34c.13-.11.12.12.15.14-.13.03.02-.18-.15-.14Z"/>
          <polygon class="cls-4" points="77.25 21.43 77.22 21.46 77.03 21.23 77.25 21.43"/>
        </g>
      </g>
    </g>
  </g>
</svg>